<?xml version="1.0" encoding="UTF-8"?>
<svg width="860px" height="860px" viewBox="0 0 860 860" version="1.1" xmlns="http://www.w3.org/2000/svg" xmlns:xlink="http://www.w3.org/1999/xlink">
    <title>img-detail-3-parts</title>
    <g id="img-detail-3-parts" stroke="none" fill="none" fill-rule="evenodd">
        <path d="M318,338.00116 C325.438348,338.00116 338.267935,336.696417 343.589023,331.375004 C350.749908,324.213683 353.900215,320.273266 361.333344,313.742558 C367.410702,308.403024 373.258091,304.488838 378.875514,302 C384.174128,299.271821 396.160698,268.33121 394,246 C389.117121,195.534541 359.973641,154 318,154 C276.026359,154 242,195.189803 242,246 C242,296.810197 276.026359,338.00116 318,338.00116 Z" id="eye" fill="#FEE019"></path>
        <path d="M375.98945,282.514675 C375.98945,279.45198 357.275329,254.831392 315.44622,259.149358 C273.617111,263.467323 254.90299,295.342022 254.90299,297.717307 C254.90299,300.092593 294.53911,272.574094 315.44622,269.949167 C336.353329,267.32424 375.98945,285.577369 375.98945,282.514675 Z" id="Path" fill="#000000"></path>
        <path d="M369.71016,218.967695 C369.6591,216.731917 348.56573,188.934999 315.44622,194.249124 C282.32671,199.563249 261.094541,242.548679 261.137769,244.477858 C261.181129,246.407037 288.281927,210.813623 315.632088,202.531373 C342.982249,194.249124 369.759449,221.203472 369.71016,218.967695 Z" id="Path" fill="#000000"></path>
        <path d="M518.255543,205.468531 C538.484502,205.468531 554.883314,226.335819 554.883314,252.076923 C554.883314,277.818027 538.484502,298.685315 518.255543,298.685315 C498.026583,298.685315 481.627771,277.818027 481.627771,252.076923 C481.627771,226.335819 498.026583,205.468531 518.255543,205.468531 Z M518.255543,225.515152 C512.436253,225.515152 507.718786,231.573396 507.718786,239.04662 C507.718786,246.519844 512.436253,252.578089 518.255543,252.578089 C524.074832,252.578089 528.792299,246.519844 528.792299,239.04662 C528.792299,231.573396 524.074832,225.515152 518.255543,225.515152 Z M323.255543,219.468531 C343.484502,219.468531 359.883314,240.335819 359.883314,266.076923 C359.883314,291.818027 343.484502,312.685315 323.255543,312.685315 C303.026583,312.685315 286.627771,291.818027 286.627771,266.076923 C286.627771,240.335819 303.026583,219.468531 323.255543,219.468531 Z M323.255543,239.515152 C317.436253,239.515152 312.718786,245.573396 312.718786,253.04662 C312.718786,260.519844 317.436253,266.578089 323.255543,266.578089 C329.074832,266.578089 333.792299,260.519844 333.792299,253.04662 C333.792299,245.573396 329.074832,239.515152 323.255543,239.515152 Z" id="Combined-Shape" fill="#000000"></path>
    </g>
</svg>