<svg xmlns="http://www.w3.org/2000/svg" viewBox="0 0 860 860" class="svg-detail">

<g fill="none" fill-rule="evenodd">
<path fill="#104288" stroke="#1a6ee4" stroke-linecap="round" stroke-width="15" d="M806.527 78.98q-248.152-3.04-359.174-12.754-110.135-9.635-327.677-47.041h0C97.904 15.442 77.22 30.058 73.477 51.83a40 40 0 0 0-.515 4.54L53.72 399.978h0L12.833 743.642c-2.609 21.936 13.059 41.835 34.996 44.444a40 40 0 0 0 4.775.28q217.299-.268 330.726 9.656 114.383 10.006 355.66 50.722h0c21.783 3.677 42.423-11 46.1-32.784a40 40 0 0 0 .546-5.648q6.029-237.894 15.395-344.952 9.364-107.028 44.559-340.42h0c3.293-21.845-11.746-42.223-33.59-45.516a40 40 0 0 0-5.473-.444Z"/><path fill="#0a2c5b" d="M768.875 114.482q-223.338-2.736-323.257-11.478-99.121-8.673-294.91-42.337c-19.595-3.369-38.21 9.785-41.578 29.38a36 36 0 0 0-.464 4.086L91.348 403.38 54.55 712.677c-2.348 19.743 11.753 37.652 31.496 40a36 36 0 0 0 4.298.252q195.57-.24 297.653 8.69 102.945 9.007 320.094 45.65c19.605 3.31 38.181-9.9 41.49-29.505a36 36 0 0 0 .491-5.083q5.427-214.104 13.856-310.457 8.427-96.324 40.103-306.378c2.964-19.66-10.571-38-30.231-40.965a36 36 0 0 0-4.925-.4"/><path fill="#2776e0" d="M595.029 497.166q26.675 8.745 42.302 22.247 15.629 13.505 26.416 37.13 8.009 39.193 0 64.66-8.007 25.466-40.7 64.776l15.4 109.647-385.036-40.897-7.133-42.312q44.12 3.303 66.436 0t59.683-18.666q28.828 23.654 51.103 33.23 22.275 9.574 60.943 14.934 44.063-7.317 62.868-17.68 18.504-10.197 48.777-43.305v-2.316q1.314-7.236-7.622-22.354t-28.284-38.393q8.157-.705 12.232-4.784 4.074-4.08 7.49-14.96 14.574-11.9 17.108-19.207 2.533-7.307-4.196-18.03 2.366-18.845-6.773-23.669t-30.453.861l-17.851 1.127q3.341-11.797 9.733-19.792 6.391-7.995 20.01-17.41zm-233.046-31.65 22.574 11.878q3.139 37.203 44.203 43.21 41.066 6.007 86.504-11.967l7.088-6.634h45.13q-16.39 10.845-21.464 17.138t-8.28 19.752q-29.277 11.724-44.293 22.5T458.1 596.046l-45.145-21.668q-44.142-13.899-75.15-11.475-31.007 2.424-56.122 25.153-17.886-29.601-39.189-39.52-21.301-9.921-50.016 0 13.906-19.825 28.21-31.99 14.305-12.166 52.92-37.01 35.243-15.5 52.962-18.31 17.721-2.812 35.412 4.29"/><path fill="#1d62c7" d="M601.475 500.357q9.068 1.916 20.22 9.28-8.81-.351-16.635-.001h14.736q16.366 6.722 24.981 17.975t20.439 41.355q7.449 23.61-4.62 57.388-12.07 33.777-37.55 60.625l-11.973 8.454.001 33.898-6.387 6.318 10.036 58.087-63.783-7.02v-25.154q-68.658 18.06-104.753 13.585-36.096-4.476-104.22-39.498-45.532 4.19-62.857 6.778-17.326 2.586-39.928 12.128l5.467-44.141q24.205 6.675 59.038 2.404t68.71-18.067q56.27 47.187 110.806 47.676 54.535.487 96.701-43.782l8.562-3.894v18.067l15.267-12.202-9.725 6.869 2.08-27.871 23.708-13.771q35.832-47.152 33.456-86.395-2.353-38.85-47.646-69.2l-.897-.597-1.045.053q-15.63.834-27.247 4.53-17.887 5.688-38.678 22.105.63-3.657 2.52-7.115l-.012.013-7.202 1.998q-15.33-6.134-19.523-9.631-4.191-3.498-3.626-9.683l14.854-8.918h44.119l-8.935 8.19q7.37-4.83 17.854-10.836 14.62-1.917 23.687 0m-278.924 9.28-2.36 19.6-20.593 47.847-17.072 9.886-14.781-20.766zm35.238-48.209 27.37 17.53 3.661 19.208q-13.19 7.052-26.837 0-13.65-7.052-39.432-34.242z"/><path fill="#619be8" d="M224.99 545.449q30.43-35.146 53.914-49.893 23.483-14.748 60.53-21.974l2.534-13.154q-25.854.781-58.584 17.53-32.73 16.746-79.133 52.939-10.815 7.345-15.622 14.552-4.806 7.207-7.254 19.755 15.645-15.6 24.818-19.755 9.171-4.155 18.798 0M611.075 693.75l11.972-8.087v18.484l13.582 91.478-21.905-2.533-10.036-58.444 6.387-6.318zM244.65 709.414l14.171 2.916-5.409 42.399-12.215-.315z"/><path fill="#fee019" d="M192.479 548.535q-45.633 53.047-34.574 92.777t88.373 71.105q35.068 4.643 66.436 0t59.683-18.666q22.128 21.185 54.062 34.924t56.744 12.752q30.453 1.408 62.815-16.247 32.363-17.654 50.07-45.334-2.54-16.64-9.326-28.352t-26.58-33.627q8.66-1.025 13.332-5.702 4.671-4.678 6.39-14.043 14.36-11.28 17.108-19.206 2.748-7.928-4.196-18.03 1.207-19.095-6.773-23.669-7.979-4.573-31.054 1.988-24.433.786-47.293 14.197t-49.595 42.644q-58.455-33.327-99.79-33.327t-76.627 25.337q-21.506-31.688-39.189-39.52-17.681-7.834-50.016 0M442.363 71.92q-30.377.855-60.34 25.555t-72.954 84.321l-18.783 25.785q-23.17 32.883-28.167 59.352-4.995 26.47 2.255 77.926 8.124 29.379 25.912 52.942 17.79 23.562 56.527 56.255l38.72 25.48q-.733 15.059 6.503 23.248 7.237 8.19 28.521 16.387 34.044 6.336 54.25 3.078 20.208-3.257 47.545-20.246l63.05-3.24q70.253-17.212 96.737-34.522t60.984-68.571q18.806-38.884 22.785-77.602 3.978-38.72-7.03-75.71-3.173-24.937-17.226-52.492-14.054-27.555-34.389-48.709-13.439-16.564-44.254-35.781-30.815-19.218-66.764-33.456-16.882-5.451-32.59-23.645Q547.95 30.08 543.228 10.51q-20.243 6.815-27.552 17.301-7.31 10.487-11.128 38.193-7.537-3.4-26.608-1.586-19.072 1.815-35.576 7.501"/><path fill="#fec110" d="M466.208 582.648q26.102 22.75 43.688 28.369 16.928 5.408 28.558-8.113l-8.447-16.934q15.042 10.796 25.583 12.152 10.542 1.357 19.63-6.332 2.961 10.26 0 15.393-2.867 4.972-14.29 10.337 18.222 21.635 23.961 31.764 5.936 10.475 11.197 34.518l-7.622 9.949q-36.49 34.856-81.16 44.123-44.672 9.267-83.744-9.914-30.144-16.264-51.165-36.477-4.864-4.677-10.273-10.56l10.273 12.828q-75.827 21.453-108.6 19.756-32.77-1.698-71.318-29.075-18.178-20.682-22.447-37.427c-4.268-16.745-.594-46.322 2.52-41.493 3.112 4.83.376 30.156 36.611 47.573s92.764 22.06 98.157 17.287c5.394-4.774 1.067-11.736-3.633-26.823q-4.7-15.088-21.16-38.037l37.665 23.051-46.582-28.68 11.252-11.01q16.12.553 37.69 11.01c21.57 10.458 85.738 80.185 141.766 97.762 56.029 17.577 107.49-13.224 109.196-19.031 1.706-5.808-1.644-17.901-10.394-31.334q-8.75-13.432-25.381-23.584l.644-.985q-4.238 5.55-17.497 9.006-9.815-.003-28.129-10.514-18.313-10.51-34.026-25.157zm74.302 24.379q1.545 8.992-1.161 14.176l-.088.16 5.223-7.998-.947-.27zm-296.15-56.538q13.862 7.359 38.166 35.481l-8.916 13.913-20.265-9.215q-.425-8.008-11.135-18.28-10.712-10.272-38.324-25.085 26.61-4.173 40.474 3.186m351.728 17.477q1.95 11.736-2.08 18.004-4.03 6.27-17.308 12.152l-3.186-15.474q7.652-.655 11.605-3.226t10.969-11.456M542.5 10.511q11.427 26.942 21.155 37.764t36.212 26.055Q633.684 86.3 657 102.526q23.317 16.225 64.41 56.385 31.372 41.89 38.742 79.161 7.371 37.272 0 116.76-6.716 45.795-52.53 89.385-45.812 43.59-94.359 50.375l-73.016 5.1 52.612-11.592q-25.377-.89-17.639-3.285c7.74-2.394 104.033-30.15 137.796-97.37 33.763-67.222 18.57-133.378 14.723-149.373-3.848-15.994-20.648-60.616-48.182-88.93s-92.623-61.767-104.46-68.033c-11.837-6.267-29.017-15.51-38.154-35.299q-9.136-19.79 5.558-35.299m94.308 369.18q7.284 43.725-58.168 29.93 15.888-6.188 23.278-13.664 7.391-7.476 6.307-16.267l10.338-3.67q-7.64-13.137-14.041-16.061t-20.877-.142q45.879-23.852 53.163 19.873m-264.17 78.748 73.317 18.955q61.255 13.648 50.208 16.536c-5.833 1.525-44.69 4.04-85.17-1.901q-10.64-1.562-19.81-10.184z"/><path fill="#fff5b1" d="M173.042 575.986c-10.682 17.423-18.53 22.451-17.294 49.836q1.234 27.384 20.17 43.392-4.844-42.417 0-62.867t27.968-59.044q-20.163 11.26-30.844 28.683M299.566 192.17q16.68-24.34 42.402-51.2 25.721-26.86 50.223-45.524-122.019 133.23-118.581 209.7 3.437 76.47 82.076 131.051l41.038 48.296-74.173-48.296q-38.435-44.58-48.941-67.176T259.54 294.3q-.957-24.78 8.204-48.155 9.16-23.373 31.821-53.974"/><path fill="#f99016" d="M293.832 304.11q1.518-19.884 8.627-23.63 7.108-3.749 28.437 4.092 13.203-4.798 24.88-10.6c12.828-6.376 38.422-21.174 47.729-25.379q26.666-12.05 52.749-3.106 16.941 4.129 35.252 22.348 18.31 18.219 35.794 48.343 11.323 22.225 31.662 34.248 20.34 12.022 42.4 9.533 10.412 2.5 16.259 10.233t6.009 19.217l-8.581-13.267q-6.813 10.119-13.687 16.95t-15.07 11.63l-111.245 57.887q-36.431 18.287-57.234 14.785t-57.052-34.032q-10.187-13.44-19.676-34.92-9.488-21.482-18.895-52.405-13.983-19.057-19.731-29.584-5.748-10.526-8.627-22.343"/><path fill="#fec110" d="M472.926 325.482c-1.46-2.07-12.156-21.694-48.833-36.512-14.614-5.905-56.576-7.215-55.452-5.622 1.124 1.594 42.38 5.483 60.526 12.814 18.145 7.331 45.22 31.391 43.76 29.32m-31.904-60.613c9.724 2.067 18.165 1.115 18.854-2.127.69-3.24-6.635-7.544-16.359-9.61-9.724-2.068-18.165-1.116-18.854 2.126-.689 3.24 6.635 7.544 16.36 9.61"/><path fill="#e95b2f" d="M382.71 404.721c6.658-11.074 21.96-16.79 51.3-11.975 29.341 4.813 59.977 24.468 52.622 34.86-7.355 10.393-43.37 29.43-81.865 13.778-27.998-11.384-28.715-25.588-22.057-36.663"/><path fill="#000" d="M544.091 6.632c3.775 1.655 9.947 24.728 26.367 40.133s35.423 22.334 48.821 28.18c13.398 5.845 43.42 18.179 73.661 45.118q30.243 26.94 54.014 68.61 24.927 56.977 24.927 116.88c0 59.903-24.927 99.947-48.764 131.177-22.409 29.359-83.273 55.24-110.277 62.482q64.16 34.324 58.954 97.7-4.75 57.807-43.234 92.556l1.597 27.233 13.613 80.122-11.484-1.765-12.49-78.357V696.75q-13.845 10.59-31.33 18.695l-5.78-15.084q-20.353 20.61-36.668 29.19c-21.521 11.316-39.008 16.66-67.327 16.66-28.32 0-75.515-23.334-106.862-47.573l-.229-.18q-24.998 11.226-58.886 16.443-34.184 5.261-63.192 2.22l-5.116 37.294H234.11l6.646-39.025q-42.105-12.318-62.35-35.413c-21.259-24.25-25.559-39.212-26.39-51.505l-.055-.847-.052-.847q-.026-.423-.049-.846l-.044-.847-.02-.424-.036-.848c-.416-10.752.67-21.875 9.257-37.842l.34-.63.678-1.255c5.106-9.422 10.312-18.39 16.665-25.892q3.826-18.741 57.516-57.592 62.565-45.274 111.516-41.932c-35.646-24.421-76.33-62.303-88.191-110.618q-22.914-93.334 38.919-161.206 37.313-64.264 90.608-99.067 51.255-33.47 112.639-29.327c-.193-4.85.382-10.196 2.097-15.994 8.546-28.892 36.512-37.481 40.287-35.825M278.573 599.048l-.167.18q14.708 7.946 33.177 20.778c-1.667-5.53-1.175-12.783 3.576-6.654 5.875 7.579 32.635 56.666 73.661 87.4s80.834 35.108 89.871 35.108 30.584 1.608 64.797-14.432q31.464-14.75 49.543-41.909-1.47-8.247-5.224-16.073-10-20.85-29.723-42.275-5.642.226-12.237-1.215c-1.298 8.047-9.836 16.69-21.097 16.69q-9.035 0-21.377-5.564c5.02 5.907 7.347 9.821 6.26 10.2-4.409 1.535-54.132-56.934-124.887-69.85q-68.633-12.53-106.173 27.616m-72.892-49.283c-6.292 2.923-21.899 18.483-30.648 32.883q-.617 1.017-1.228 2.034l-.608 1.018c-7.975 13.406-14.627 27.065-12.18 43.651 2.634 17.846 33.398 66.33 85.67 76.787q51.126 10.229 117.034-14.374c-19.703-18.145-35.791-43.353-44.327-57.653q-37.363-28.043-59.853-36.673c-22.728-8.72-42.57-2.83-44.146-5.237s16.205-10.195 38.287-3.707q7.608 2.235 16.979 6.763a269 269 0 0 1 6.874-6.85q-15.59-23.885-30.848-31.771c-16.58-8.568-34.714-9.795-41.006-6.871m375.907 53.882q-1.516 8.954-9.783 13.755a27 27 0 0 1-6.835 2.786q22.435 23.223 30.077 40.56 6.743 15.3 5.28 38.386 10.59-9.618 19.394-19.065-.88-15.912-9.005-32.733-9.255-19.16-29.128-43.69M598.04 501.99l-.343.043c-7.384.908-16.236 1.576-25.472 2.068q-18.063 12.728-23.862 18.896-4.86 5.17-7.063 12.07c2.544-.503 4.748-.717 6.66-.717 1.294 0 3.21.293 5.556.854q24.675-6.707 34.21-.854 9.1 5.585 8.298 24.99c1.852 2.409 3.244 4.941 4.013 7.577q5.303 18.18-18.12 33.396l-.007.174q23.108 27.42 31.211 43.629 7.594 15.192 9.556 32.728 47.048-52.12 39.449-98.961-9.252-57.026-64.086-75.893m-53.267 40.59-.462.123-.465.119-.232.058-.468.114c-.782.188-1.578.367-2.402.554l-.498.113c-.752.17-1.53.35-2.343.552l-.548.137c-6.457 1.639-15.24 4.709-31.409 14.941q-22.428 14.195-43.256 35.256a258 258 0 0 1 23.36 18.882q35.755 22.097 49.12 7.773c15.771-16.903-25.713-40.34-31.083-44.72s11.888-2.144 26.91 8.767c10.855 7.884 13.866 16.935 14.702 24.58q30.916 11.233 26.107-15.672c-5.028-28.121-40.357-31.926-46.226-35.417s20.89-3.436 34.413 4.696q12.548 7.545 20.586 29.638 18.855-15.274 9.38-28.524c-9.644-13.483-37.483-24.064-45.186-21.97m-260.049-63.414q-26.283 13.291-58.314 40.101 18.051-.778 30.533 4.622 14.795 6.402 43.686 34.037 2.178-5.257 4.215-10.09c1.683-3.992 3.435-8.311 5.207-12.66l1.184-2.9.567-1.383c4.447-10.828 8.921-21.227 12.675-26.566 1.9-2.702 1.976-1.569 1.308 1.175l-.08.323c-.361 1.432-.899 3.246-1.476 5.163l-.134.444-.203.671-.214.709-.214.71-.212.709c-1.407 4.713-2.612 9.127-1.696 9.296 2.29.422 13.32-21.412 13.32-17.283q0 3.939-28.452 61.011c16.089-7.305 46.323-14.474 96.206-2.052 19.412 4.834 37.982 14.409 54.052 25.182q17.756-20.166 41.665-35.23c16.622-10.473 28.76-16.087 37.65-18.756a19.2 19.2 0 0 1 .145-3.779l.081-.543-.188.078q-64.197 26.142-125.645 10.56-56.65-14.364-47.003-72.793l.106-.617q-40.053-9.718-78.769 9.861m-60.624 42.06h-.017q-11.026 9.337-22.725 20.254c16.902-6.17 36.222-.112 48.952 5.74q12.774 5.87 33.541 35.369 5.272-4.64 9.955-8 2.584-6.379 5.004-12.258-25.14-26.518-41.867-34.892-14.333-7.174-32.843-6.214m343.733 18.843c7.857 3.333 16.36 7.98 22.75 13.57q.296-8.81-5.404-12.429-5.971-3.792-17.346-1.14M368.571 471.88l-.08.366q-7.582 37.059 17.325 54.366c25.417 17.66 73.213 15.576 86.641 15.576q13.095 0 65.1-14.808 2.088-5.182 6.893-10.48 7.482-8.246 18.132-12.349c-13.274.535-26.574.76-36.823.856q-47.565 28.507-96.259 18.69-49.206-9.918-46.665-44.345a322 322 0 0 1-14.264-7.872M512.35 46.765c-6.568 17.8 6.515 44.207 4.594 43.239-1.242-.626-9.933-8.232-13.623-21.33Q462.607 65.4 406.87 92.855q-58.003 28.573-98.417 99.314-58.587 66.879-41.405 146.69c17.183 79.81 133.77 144.255 139.822 150.59 1.552 1.624-5.872-.745-18.156-6.74q.292 25.54 40.786 34.571 40.461 9.024 85.397-11.811l-3.208.004h-2.276c-12.784 0-15.84-4.398-11.21-5.109 2.149-.33 22.581-1.833 44.906-3.584l1.474-.116 2.961-.234 1.485-.117.743-.06 2.914-.232 1.368-.11 2.05-.165 1.361-.11c21.085-1.71 40.753-3.467 45.312-4.499 10.428-2.36 78.493-19.815 116.223-67.157s41.708-95.601 41.708-126.223c0-30.623-10.053-85.711-37.591-126.165-27.539-40.453-91.927-79.08-106.085-84.892a159 159 0 0 0-1.305-.529l-.875-.347a350 350 0 0 0-3.99-1.54l-.9-.342c-12.333-4.684-26.09-9.86-43.11-25.281-20.34-18.43-24.205-39.54-27.643-41.177-3.439-1.636-20.292 11.479-26.86 29.28m-67.375 192.502c11.384 1.743 28.69 8.083 44.138 21.636 15.448 13.554 35.266 43.705 41.056 53.114l.173.282.343.569.339.572.335.576q.502.865.997 1.75l.333.59.329.587.332.59.334.593c4.484 7.936 9.98 16.734 25.482 25.837 19.606 11.513 35.127 8.342 42.282 9.91s17.297 5.861 22.575 19.054-2.014 30.573-3.427 28.81c-.43-.538-.337-2.71-.33-5.787v-.57c-.01-5.597-.401-13.854-4.494-20.814q-.807 2.011-2.444 3.899.615 9.327-15.496 20.808c-17.926 12.776-40.092 20.716-60.562 31.35s-59.479 39.805-86.155 46.912a64 64 0 0 1-1.549.392c4.107.495 10.027 1.414 16.029 2.493l1.06.193c9.362 1.71 18.677 3.773 21.39 5.187 2.267 1.182-.777 1.632-5.646 1.65h-.51c-1.894-.005-4.032-.07-6.227-.18l-.833-.045c-5.433-.298-11.055-.855-14.023-1.425-2.283-.44-5.14-1.359-7.865-2.43l-.543-.217-.538-.22c-3.294-1.362-6.248-2.888-7.55-3.97-24.44 3.826-48.282-5.861-55.445-8.947-7.828-3.372-28.61-18.144-41.67-39.393-13.062-21.249-21.755-63.205-29.722-76.75-7.967-13.544-24.452-33.38-26.83-54.192-2.379-20.81 7.724-23.452 13.239-26.397 3.277-1.75 9.442.362 15.775 2.364l.928.292c4.022 1.257 8.058 2.392 11.414 2.392q8.907 0 21.466-8.951 24.096-17.296 45.641-26.118c21.546-8.821 34.485-7.738 45.869-5.996m-145.73 72.936.046.111c.674 1.657 1.57 3.625 2.755 6.001 6.467 12.977 18.045 25.055 22.959 34.813 2.85 5.66 7.345 20.335 12.726 35.61l.56 1.583c3.753 10.556 7.915 21.261 12.238 29.354 10.807 20.232 18.285 29.122 29.448 36.366s39.922 23.688 76.382 9.622c36.459-14.067 56.133-31.27 79.6-43.015 23.468-11.745 34.71-13.557 49.047-21.375q9.923-5.41 19.508-14.294-5.037 2.642-12.178 4.969c-21.4 6.972-45.047 4.288-49.834 6.574s-51.898 39.112-77.072 47.783c-25.173 8.67-46.676 6.448-70.364-4.929-13.574-6.518-30.857-34.06-47.083-91.54-2.554-9.046-10.417-27.917-14.561-29.613s-19.161 1.696-28.431-3.188q-3.629-1.912-5.746-4.832m84.276 105.807c3.25 8.513 15.928 23.374 43.576 23.374 27.647 0 51.616-6.355 55.21-13.559 3.593-7.204-17.615-25.39-52.807-30.854s-49.23 12.525-45.979 21.039m-36.327-134.756c-4.021 2.087-8.212 5.428-17.275 5.428-4.011 0-7.112-1.64-10.092-3.212l-.66-.347c-3.517-1.84-6.946-3.41-11.604-1.87-8.878 2.94-9.865 12.435-9.865 16.857 0 .491-.026.938-.064 1.361l-.024.252q-.024.25-.053.49l-.028.242-.017.146q6.176 8.31 24.851 8.31c20.713 0 30.615-20.397 90.544 1.696 59.93 22.092 54.59 39.021 80.687 53.617 26.098 14.595 57.765 21.07 66.17 21.58 8.405.512 17.597.512 30.423-2.359q12.35-2.763 25.06-9.73a23.6 23.6 0 0 0-3.513-4.28c-7.917-7.601-14.964-8.83-22.649-9.248l-.783-.04c-3.406-.162-6.946-.203-10.749-.599-12.724-1.325-23.04-6.538-37.216-20.648-14.176-14.111-28.525-42.487-35.988-52.218s-36.157-41.671-66.957-43.419-86.176 35.903-90.198 37.99m240.893-14.433c42.437 22.21 47.019 50.073 44.282 51.365-2.736 1.293-35.91-31.583-59.225-43.695-23.314-12.112-57.46-4.495-59.936-5.324s-3.459-4.688-1.213-6.66 33.654-17.895 76.092 4.314m15.054-71.706c32.58 14.042 47.937 52.869 47.254 54.802s-27.863-36.984-50.148-46.613c-22.284-9.628-58.485 2.127-57.734 0 .752-2.126 28.05-22.23 60.628-8.189m-212.82-7.335c36.058 4.482 53.699 40.748 51.92 44.129s-29.073-26.731-51.92-30.948-61.68 21.02-63.784 16.062c-2.104-4.959 27.726-33.725 63.784-29.243m21.488-58.79c31.843 0 43.934 29.942 43.934 31.971s-22.19-22.71-43.934-22.71-52.617 29.444-52.617 26.886c0-2.559 20.774-36.146 52.617-36.146"/></g></svg>