<svg xmlns="http://www.w3.org/2000/svg" viewBox="0 0 860 860" class="svg-detail">

<g class="detail-base" fill="none" fill-rule="evenodd" >

<path fill="#104288" stroke="#1a6ee4" stroke-linecap="round" stroke-width="15" d="M53.473 78.98q248.152-3.04 359.174-12.754 110.135-9.635 327.677-47.041h0c21.772-3.743 42.456 10.873 46.199 32.645a40 40 0 0 1 .515 4.54l19.241 343.608h0l40.888 343.664c2.609 21.936-13.059 41.835-34.996 44.444a40 40 0 0 1-4.775.28q-217.299-.268-330.726 9.656-114.383 10.006-355.66 50.722h0c-21.783 3.677-42.423-11-46.1-32.784a40 40 0 0 1-.546-5.648Q68.335 572.418 58.969 465.36 49.605 358.332 14.41 124.94h0C11.117 103.095 26.156 82.717 48 79.424a40 40 0 0 1 5.473-.444Z"/><path fill="#0a2c5b" d="M91.125 114.482q223.338-2.736 323.257-11.478 99.121-8.673 294.91-42.337c19.595-3.369 38.21 9.785 41.578 29.38a36 36 0 0 1 .464 4.086l17.318 309.247 36.798 309.297c2.348 19.743-11.753 37.652-31.496 40a36 36 0 0 1-4.298.252q-195.57-.24-297.653 8.69-102.945 9.007-320.094 45.65c-19.605 3.31-38.181-9.9-41.49-29.505a36 36 0 0 1-.491-5.083q-5.426-214.104-13.856-310.457-8.427-96.324-40.103-306.378c-2.964-19.66 10.571-38 30.231-40.965a36 36 0 0 1 4.925-.4"/><path fill="#2776e0" d="M158.688 559.077q52.242-32.284 85.943-44.132t77.5-13.326l33.33 5.283q10.13 11.875 27.665 17.14 17.535 5.264 52.524 6.938 24.42-2.643 40.907-10.463 16.488-7.82 20.761-18.787l-2.522-2.846 53.487-23.964q39.299 7.485 64.427 15.08 25.13 7.594 39.418 16.303l27.844 17.738v13.148l-19.4 49.746-37.41 59.731H612.71l-22.496-20.495 10.505 56.552q-4.608 29.489 0 48.391 4.608 18.903 19.779 32.746v23.559l-390.655 35.558q13.036-7.823 21.513-16.748 8.476-8.925 12.258-18.81 9.127-6.114 15.669-13.106 6.541-6.993 6.99-11.113 9.288-12.748 8.827-24.167-.46-11.42-10.73-23.015l-24.256-23.464 3.5-37.166-21.96 19.36-15.008-13.216q-4.646-36.17-21.05-57.515-16.405-21.346-37.865-36.831l-12.943 3.45z"/><path fill="#1d62c7" d="m303.429 604.017-9.26 23.699-.882.83q10.264 5.476 11.843 14.064 1.701 9.255-4.225 76.267 7.145 12.28 6.634 25.346-.511 13.068-9.153 39.057 64.45 16.373 158.473 4.139 94.023-12.236 150.792-38.066l12.847 14.507v23.559l-390.655 35.558 18.283-12.938 15.488-22.62 15.669-13.106 6.353-8.404 6.006-10.63 3.261-16.766-3.26-13.167-10.3-12.39-21.229-20.402 3.388-35.987-21.849 18.18-15.007-13.215-2.559-15.504zm266.617-46.288q8.802 14.07 18.84 24.09 10.037 10.017 22.133 16.807l28.352 21.776-18.873 26.829-7.788-.565-22.496-20.495q-14.21-27.668-22.324-43.879l-.867-1.734q-5.943-11.901-8.332-17.122-5.688-12.43 14.246 16.96Zm-85.331-42.784q15.51 4.215 21.898 6.616t7.93 4.594l56.8-46.408-21.71-4.827-54.837 23.964 2.522 2.846zM341.393 530.98q15.765 3.09 20.42 0t3.743-16.035l-12.007-8.642-40.626-3.168z"/><path fill="#619be8" d="M172.232 567.186q39.167-22.146 63.805-32.667 24.638-10.52 82.028-29.605l-5.142-3.184q-28.09 2.187-42.34 5.172-14.25 2.986-34.546 10.936l-74.25 39.147-3.1 2.092zm359.766-79.475q52.407 8.959 89.522 22.41 37.114 13.45 57.166 29.615l1.286-15.695q-14.634-14.2-43.709-25.157-29.073-10.958-86.63-23.964z"/><path fill="#fee019" d="M167.73 567.186q-37.368 15.16-53.36 30.128-15.993 14.968-17.767 36.444 1.752 25.749 20.458 52.589 18.705 26.84 55.002 55.69l14.308 10.596 9.783 24.916q-16.946-3.236-24.091 11.043-7.146 14.28 14.308 27.762l47.25 4.507q8.574-4.536 15.954-12.028t15.83-20.241q10.551-9.438 16.542-16.728t4.326-8.664q7.048-8.07 8.268-14.428 1.22-6.357-1.665-19.982-1.58-4.749-9.55-13.563t-23.212-22.673l-31.731-28.562-8.865-32.948-15.176-28.973-17.971-21.347zm512.242-27.45q31.071 12.928 52.217 27.955t26.462 27.955q.739 13.15-2.439 23.022-3.176 9.87-10.183 16.194-1.714 21.142-8.967 34.155-7.252 13.015-27.517 31.32l-23.388 24.067q2.757 12.899 1.165 22.242-1.59 9.345-8.403 20.246-17.893 7.738-28.846 7.17-10.954-.57-29.575-10.202-14.733-18.082-18.554-29.634t-3.3-36.44q6.254-20.796 10.569-30.617 4.314-9.82 13.711-24.64l4.93-3.502 32.717-52.092z"/><path fill="#fec110" d="m182.305 627.716 23.403 16.444 26.73 23.608 31.176 28.116q13.9 12.384 19.712 19.343t10.15 16.41q1.385 10.644 0 16.704-1.382 6.061-7.203 14.86l-7.412 13.871-13.455 10.457-8.761 11.776q-15.16 7.078-29.999 9.358c-14.838 2.28-32.337 1.328-30.893 0s58.072-9.227 51.536-46.377q-6.537-37.15-64.984-134.57m-14.574-60.53 7.007 3.45 14.379 13.378 23.543 32.145q6.29 14.648 9.096 23.752t4.89 21.621l-20.938-17.372q.387-13.04-9.554-31.775t-28.423-45.2m507.442 41.093q-39.365 66.772-47.32 99.502t50.089 58.114q-10.387 8.707-24.54 8.205-14.152-.5-32.904-10.24-11.325-9.982-16.425-26.82-5.1-16.84-4.67-42.834 9.2-21.728 16.31-34.419t20.095-30.564zm68.353 4.556q5.613-10.354 2.22 11.07v17.668l-7.635 24.527-22.93 28.872q-53.487 43.703-48.887 30.374c2.374-6.88 30.281-33.31 48.887-59.246 17.441-24.312 25.629-48.255 28.345-53.265m-81.077-31.017-5.558 33.627-21.083 12.27z"/><path fill="#fff5b1" d="M676.42 549.362q41.305 13.365 61.108 35.34t9.497 43.014v4.058q7.166-5.666 10.167-15.536t1.598-23.169q-18.399-19.226-33.778-29.633-15.38-10.407-45.04-23.7zm-508.69 17.824-24.04 10.182-31.256 24.703q-15.107 18.591-15.831 37.311-.726 18.72 12.162 40.9l46.023 49.028 29.344 19.834q-74.463-85.048-75.367-114.46t65.217-57.316z"/>

<g transform="translate(158.688 9.106)"><path fill="#fee019" d="M286.312 0q16.793 14.417 22.058 30.713t0 37.554q64.108 22.605 100.6 53.461t62.283 84.265q30.752 82.902 18.88 138.816-11.871 55.916-73.015 105.5-33.068 19.873-50.753 28.296-17.685 8.424-32.053 11.143l4.318 2.877q-17.28 25.913-64.444 28.942-47.163 3.028-77.413-23.771-26.222-7.425-39.788-11.53-13.567-4.105-36.437-11.532-70.804-30.555-95.103-77.366Q1.145 350.557 0 274.969q20.152-73.925 48.697-109.266 28.545-35.34 102.886-78.41l81.935-36.101q21.457-12.306 33.318-23.807Q278.697 15.883 286.312 0"/><path fill="#fec110" d="m402.946 119.13 39.085 34.764q23.112 36.957 35.089 72.138 11.978 35.18 16.32 78.862 4.135 39.595-16.32 74.665t-74.174 80.489L346.4 486.265q125.375-68.118 130.719-181.37 3.562-75.5-74.174-185.764m0 211.243q26.865-19.554 39.085-2.078 21.716 31.05-8.356 31.051 6.757-18.855 0-25.226t-30.73-3.747M83.804 368.328c0-31.87 35.305-34.431 37.375-31.87s-12.214 8.574-12.214 21.675 15.804 33.822 12.214 36.028c-3.59 2.207-37.375 6.038-37.375-25.833"/><path fill="#fff5b1" d="M130.126 478.605Q30.368 404.647 25.445 320.047c-4.925-84.6 43.365-138.33 54.818-152.241 11.454-13.912 49.556-44.708 72.554-57.832 59.29-33.834 100.634-41.123 107.483-45.48 14.258-9.072 19.56-16.277 26.012-27.78q6.453-11.502 7-31.073l-7-5.641q-15.45 27.408-33.803 40.957-18.354 13.548-63.59 30.938-55.972 25.181-83.283 43.453-27.312 18.27-56.94 50.355-35.42 53.366-43.192 86.102-7.773 32.737 0 96.94l38.44 73.585 52.271 43.484z"/><ellipse cx="163.812" cy="238.894" fill="#fff" rx="67.5" ry="79"/><ellipse cx="354.812" cy="231.894" fill="#fff" rx="67.5" ry="79"/><path fill="#f99016" d="M141.733 350.149q-17.117-3.632-24.573-2.396-7.456 1.234-11.524 8.374 5.03 16.315 16.558 27.67 11.529 11.356 34.542 22.665 13.26 18.843 22.282 29.843t22.098 24.27q19.845 17.452 39.07 23.536 19.222 6.083 49.918 5.637 27.358-5.214 48.22-20.908 20.863-15.695 38.586-44.396l41.254-51.851q15.895-12.376 19.923-22.444 4.029-10.069-3.968-17.433-6.462-5.24-15.955-4.723t-30.081 7.229q-20.382-5.757-30.77-11.457-10.39-5.7-30.281-22.035-24.361-18.237-36.928-21.663-12.565-3.428-37.204 1.446-15.719 5.88-26.13 12.042-10.41 6.16-32.114 22.42-12.726 15.476-26.997 24.691-14.273 9.216-25.926 9.483"/><path fill="#fec110" d="M328.485 336.982c-2.301-1.063-21.375-12.71-60.547-7.205-15.609 2.194-52.604 22.04-50.834 22.858s39.443-16.442 58.824-19.166c19.38-2.723 54.857 4.576 52.557 3.513m-57.173-38.088c9.941 0 18-2.686 18-6s-8.059-6-18-6-18 2.686-18 6 8.059 6 18 6"/><path fill="#e95b2f" d="M212.623 427.773q5.946-25.845 64.716-25.844t58.77 28.067l-2.368 7.24q-11.422 16.712-53.311 19.458-41.891 2.745-67.807-19.459z"/></g><path fill="#000" d="M445.284 4.215c3.835 0 29.382 22.298 31.182 51.338.44 7.104-.738 13.43-2.796 18.932l-2.623-.886q158.812 52.926 182.356 205.977c17.166 111.597-48.184 169.131-93.367 196.1q29.901 3.046 60.224 13.06c34.822 11.497 59.21 30.075 62.248 35.932 1.019 1.965 1.035 6.09.181 11.577q60.705 27.567 74.947 50.237 13.69 21.79-8.57 48.899c.608 10.446-2.39 25.406-15.263 43.77-13.614 19.42-31.998 36.897-46.696 48.64 3.453 4.185 8.466 40.424-18.407 48.928q-25.734 8.145-44.454-7.47l1.036 18.17h-7.796l-1.749-26.36q-19.61-20.967-19.61-47.898c0-10.003.622-18.154 2.031-25.405l-12.715-65.924a101 101 0 0 1-2.316-4.6c-12.921-27.354-17.36-72.851-15.035-71.918 2.26.906 8.561 47.358 22.54 73.223q31.457-33.153 41.542-51.954 10.392-19.376 16.817-58.427c-14.021-7.444-31.753-15.368-48.779-19.42q-25.442-6.055-50.997-6.94c-10.508 5.634-19.138 9.398-24.176 11.685q-.69 66.89-86.667 66.89-87.764 0-123.954-54.909-28.513 1.404-51.68 8.436c-22.155 6.723-51.44 20.498-72.26 31.163q34.072 33.62 45.559 54.199 11.432 20.481 18.26 59.864 16.218-11.928 25.215-21.056c13.552-13.747 23.998-35.997 25.37-35.997 1.374 0-2.886 18.627-14.96 33.691q-6.687 8.34-19.979 20.318l-4.581 37.884q18.666 17.18 27.069 28.843 13.648 18.945-5.726 47.353-5.056 10.131-22.476 23.511c-2.105 9.117-7.503 18.814-19.808 25.33-29.66 15.705-58.509 4.232-67.123-1.85s-12.67-15.886-9.93-29.362q2.74-13.476 22.342-15.407-3.956-5.595-5.72-9.182t-3.37-9.31Q96.91 688.909 93.188 639.91q-3.34-43.96 56.196-69.464l-.027.15.05-.266q2.905-15.15 39.297-35.244 61.852-34.154 121.66-36.114c-65.217-16.407-155.576-64.806-155.576-201.11q0-145.2 202.487-226.923 35.586-14.984 53.049-27.618c17.462-12.636 31.126-39.107 34.96-39.107m-273.938 567.07q-71.703 27.484-69.495 63.844 3.54 58.293 87.86 114.233.79 11.876 6.443 19.747 5.652 7.87 20.465 17.727l-3.276 2.904q-22.87-11.214-33.512-6.017c-10.642 5.196-4.302 19.344 0 23.04s18.059 15.046 50.92 6.066q32.863-8.98 32.863-43.72l.012.04c.164.555 1.934 6.737 1.769 14.86q15.672-11.481 17.029-21.594c1.427-10.629-11.774-25.755-7.88-25.755 3.392 0 11.668 9.758 13.749 20.79q7.12-22.497-2.02-34.643c-10.277-13.654-92.748-86.846-103.968-95.091-11.22-8.246 18.782 7.235 28.696 14.84q5.502 4.221 13.887 12.864-10.128-33.876-25.496-55.647-12.123-17.175-28.046-28.489m509.88-27.742-.116.49c-2.45 10.096-6.859 22.638-12.736 34.656q-7.5 15.333-26.228 42.572c5.24-3.824 11.318-7.41 18.437-10.495 1.142-.495 2.776-1.098 4.658-1.731l.636-.212a158 158 0 0 1 4.444-1.393l.71-.21.265-.078.531-.154.531-.152.53-.15.526-.146c6.834-1.893 12.891-3.069 9.889-.96-5.152 3.617-46.66 23.643-60.645 46.372-9.434 15.332-15.583 28.81-18.586 40.1q-.03 5.325-1.285 5.704-.882 4.862-.88 9.067c0 13.486 5.79 52.942 34.192 58.75 55.584 11.37 49.153-28.96 49.844-36.86-12.918 10.194-22.73 15.754-23.46 14.005-1.57-3.763 52.853-49.616 69.016-74.795 16.162-25.178 8.222-49.255 11.063-49.255.991 0 3.4 2.826 5.012 8.088q15.14-23.708 1.565-41.108-13.86-17.764-67.912-42.105m-420.589 120.68q-6.863 5.85-15.034 12.42a674 674 0 0 1 11.885 10.231zm334.953-27.614.304 1.238q4.407 18.147 6.605 35.27c2.968-7.278 7.095-14.288 12.618-22.4q-10.98-4.493-19.527-14.108m-408.826-89.632c-12.223 6.347-20.83 11.262-22.115 12.33q-.315.261-.624.567 28.302 19.57 41.793 39.899 13.55 20.416 27.357 64.494a568 568 0 0 1 5.349 5.967q6.347-4.305 11.923-8.311-6.02-40.246-16.827-59.852-10.914-19.798-46.856-55.094m466.03-36.767-.096.58q-5.777 35.432-16.122 55.793-10.411 20.493-42.037 58.369 12.1 17.664 28.08 15.395a116 116 0 0 1 3.447-4.187q25.933-38.053 36.53-60.399c12.712-26.8 17.34-46.796 12.894-51.093-2.013-1.946-10.669-7.84-22.696-14.458m-492.025 54.435-.028.054q-.362.723-.714 1.521 1.068-.393 2.155-.783-.703-.4-1.413-.792m357.604-67.94-.19.077c-4.215 1.74-9.59 2.944-14.957 3.715q-11.68 25.886-64.001 32.733-56.198 7.355-88.354-27.24c-1.232-.113-2.51-.243-3.823-.388q-13.795-.73-26.55-.374 35.975 50.694 117.874 50.694 77.87 0 80.001-59.218M445.284 17.016c-3.206 0-14.467 22.537-31.174 35.403q-16.705 12.866-54.873 27.407-193.828 80.026-193.828 218.035c0 197.51 213.182 205.532 210.58 208.441-.272.305-2.914.585-7.427.598h-.691c-2.232-.006-4.88-.076-7.89-.234q36 26.958 79.244 21.487 41.137-5.205 55.026-26.738c-2.065.129-4.013.194-5.762.202h-.609c-5.301-.015-8.564-.572-7.26-1.445 3.608-2.416 202.683-53.382 160.549-233.39Q609.904 133.215 469.918 82.284c-7.12 11.976-17.565 18.341-18.705 18.341-1.81 0 18.94-25.903 16.944-45.072-1.995-19.169-19.666-38.536-22.873-38.536"/><path fill="#000" d="M516 154c39.212 0 71 37.608 71 84s-31.788 84-71 84a60.7 60.7 0 0 1-10.91-.985 169 169 0 0 0 6.435 4.267c14.068 8.854 20.14 11.171 25.313 12.782l.381.118q.38.117.756.23l.768.233.096.029.672.203.385.118q.482.147.974.303c6.559 2.078 7.054 1.196 14.894 0s15.334-5.864 23.552-5.864 21.403 5.864 21.403 20.381c0 14.518-18.967 27.51-25.194 35.742-6.226 8.232-19.761 25.593-34.655 43.683-14.893 18.089-39.779 65.614-101.405 68.379-61.627 2.765-96.518-46.658-94.146-46.658s45.333 45.868 98.48 40.41q53.148-5.457 92.014-66.07 26.13-34.335 37.462-48.123c11.332-13.787 25.888-17.27 19.89-31.555s-24.8-7.834-31.531-5.743-18.852 5.022-36.581-2.09c-17.73-7.114-40.133-26.068-45.409-30.806s-30.458-27.479-65.147-18.146q-34.689 9.332-77.064 53.3-14.407 13.795-24.51 15.969c-10.102 2.174-24.11 0-24.11-3.347 0-.239.1-.46.29-.668-5.97.746-17.095 1.415-23.085 5.684q2.548 6.66 5.7 12.226 30.399 8.349 46.964 8.349c17.656 0 22.943-3.732 51.028-9.485 12.357-2.531 23.458-6.707 34.507-10.671l2.009-.718c13.391-4.766 26.815-9.055 42.421-9.562 29.26-.951 86.11 14.404 91.97 15.192s11.902 2.676 21.017 0 17.25-11.889 20.295-11.888c3.046.002 1.79 5.815-8.044 11.893-9.835 6.077-21.046 9.987-27.364 9.987s-31.912 49.099-52.717 69.936-34.032 23.357-49.038 23.357h-2.31c-15.01-.016-37.066-.547-61.608-15.343-25.833-15.575-57.208-56.905-67.925-64.146q-9.924-6.705-35.485-8.326a56 56 0 0 0 5.916 6.444c11.226 10.408 49.5 34.155 49.001 35.332s-37.742-19.16-51.026-30.56q-12.231-10.497-19.056-27.57c-4.778 9.384-3.123 27.594-4.958 27.594-2.06 0-9.541-22.38 3.823-34.302 12.56-11.205 29.779-7.351 31.804-5.052 6.58-1.745 19.872-3.59 31.305-10.325 7.863-4.633 13.735-9.44 18.81-14.274C336.116 334.55 328.702 336 321 336c-39.212 0-71-37.608-71-84s31.788-84 71-84 71 37.608 71 84c0 18.965-5.312 36.462-14.272 50.521 12.095-7.102 26.784-13.887 38.8-16.546 17.012-3.765 31.591-1.552 43.224 3.288C450.502 275.08 445 257.3 445 238c0-46.392 31.788-84 71-84m-78.847 261.15c-46.366 0-61.164 14.414-61.164 27.122s30.102 20.782 61.164 20.782 52.605-9.657 52.605-20.782-6.24-27.122-52.605-27.122M321 177c-35.346 0-64 33.803-64 75.5s28.654 75.5 64 75.5 64-33.803 64-75.5-28.654-75.5-64-75.5m195-14c-35.346 0-64 33.803-64 75.5s28.654 75.5 64 75.5 64-33.803 64-75.5-28.654-75.5-64-75.5"/>
</g>

<g class="pupils" fill="none" fill-rule="evenodd">
<path fill="#000" d="M518.256 205.469c20.229 0 36.627 20.867 36.627 46.608s-16.398 46.608-36.627 46.608-36.628-20.867-36.628-46.608 16.399-46.608 36.628-46.608m0 20.046c-5.82 0-10.537 6.058-10.537 13.532 0 7.473 4.717 13.531 10.537 13.531 5.819 0 10.536-6.058 10.536-13.531s-4.717-13.532-10.536-13.532m-195-6.046c20.229 0 36.627 20.867 36.627 46.608s-16.398 46.608-36.627 46.608-36.628-20.867-36.628-46.608 16.399-46.608 36.628-46.608m0 20.046c-5.82 0-10.537 6.058-10.537 13.532 0 7.473 4.717 13.531 10.537 13.531 5.819 0 10.536-6.058 10.536-13.531s-4.717-13.532-10.536-13.532"/>
</g>

<g class="wink" fill="none" fill-rule="evenodd">
<path fill="#fee019" d="M318 338.001c7.438 0 20.268-1.305 25.589-6.626 7.16-7.161 10.311-11.102 17.744-17.632q9.116-8.01 17.543-11.743c5.298-2.728 17.285-33.669 15.124-56-4.883-50.465-34.026-92-76-92s-76 41.19-76 92 34.026 92.001 76 92.001"/>
<path fill="#000" d="M375.99 282.515c0-3.063-18.715-27.684-60.544-23.366s-60.543 36.193-60.543 38.568 39.636-25.143 60.543-27.768 60.543 15.628 60.543 12.566M369.71 218.968c-.05-2.236-21.144-30.033-54.264-24.719s-54.351 48.3-54.308 50.229 27.144-33.664 54.494-41.947c27.35-8.282 54.127 18.672 54.078 16.437"/>
</g>

</svg>