<svg xmlns="http://www.w3.org/2000/svg" viewBox="0 0 860 860" class="svg-detail">

<g class="detail-base" fill="none" fill-rule="evenodd" >

<path fill="#104288" stroke="#1a6ee4" stroke-linecap="round" stroke-width="15" d="M53.473 78.98q248.152-3.04 359.174-12.754 110.135-9.635 327.677-47.041h0c21.772-3.743 42.456 10.873 46.199 32.645a40 40 0 0 1 .515 4.54l19.241 343.608h0l40.888 343.664c2.609 21.936-13.059 41.835-34.996 44.444a40 40 0 0 1-4.775.28q-217.299-.268-330.726 9.656-114.383 10.006-355.66 50.722h0c-21.783 3.677-42.423-11-46.1-32.784a40 40 0 0 1-.546-5.648Q68.335 572.418 58.969 465.36 49.605 358.332 14.41 124.94h0C11.117 103.095 26.156 82.717 48 79.424a40 40 0 0 1 5.473-.444Z"/>

<path fill="#0a2c5b" d="M91.125 114.482q223.338-2.736 323.257-11.478 99.121-8.673 294.91-42.337c19.595-3.369 38.21 9.785 41.578 29.38a36 36 0 0 1 .464 4.086l17.318 309.247 36.798 309.297c2.348 19.743-11.753 37.652-31.496 40a36 36 0 0 1-4.298.252q-195.57-.24-297.653 8.69-102.945 9.007-320.094 45.65c-19.605 3.31-38.181-9.9-41.49-29.505a36 36 0 0 1-.491-5.083q-5.426-214.104-13.856-310.457-8.427-96.324-40.103-306.378c-2.964-19.66 10.571-38 30.231-40.965a36 36 0 0 1 4.925-.4"/>

<g transform="translate(158.688 9.106)">

<path fill="#fee019" d="M286.312 0q16.793 14.417 22.058 30.713t0 37.554q64.108 22.605 100.6 53.461t62.283 84.265q30.752 82.902 18.88 138.816-11.871 55.916-73.015 105.5-33.068 19.873-50.753 28.296-17.685 8.424-32.053 11.143l4.318 2.877q-17.28 25.913-64.444 28.942-47.163 3.028-77.413-23.771-26.222-7.425-39.788-11.53-13.567-4.105-36.437-11.532-70.804-30.555-95.103-77.366Q1.145 350.557 0 274.969q20.152-73.925 48.697-109.266 28.545-35.34 102.886-78.41l81.935-36.101q21.457-12.306 33.318-23.807Q278.697 15.883 286.312 0"/>

<path fill="#fec110" d="m402.946 119.13 39.085 34.764q23.112 36.957 35.089 72.138 11.978 35.18 16.32 78.862 4.135 39.595-16.32 74.665t-74.174 80.489L346.4 486.265q125.375-68.118 130.719-181.37 3.562-75.5-74.174-185.764m0 211.243q26.865-19.554 39.085-2.078 21.716 31.05-8.356 31.051 6.757-18.855 0-25.226t-30.73-3.747M83.804 368.328c0-31.87 35.305-34.431 37.375-31.87s-12.214 8.574-12.214 21.675 15.804 33.822 12.214 36.028c-3.59 2.207-37.375 6.038-37.375-25.833"/>

<path fill="#fff5b1" d="M130.126 478.605Q30.368 404.647 25.445 320.047c-4.925-84.6 43.365-138.33 54.818-152.241 11.454-13.912 49.556-44.708 72.554-57.832 59.29-33.834 100.634-41.123 107.483-45.48 14.258-9.072 19.56-16.277 26.012-27.78q6.453-11.502 7-31.073l-7-5.641q-15.45 27.408-33.803 40.957-18.354 13.548-63.59 30.938-55.972 25.181-83.283 43.453-27.312 18.27-56.94 50.355-35.42 53.366-43.192 86.102-7.773 32.737 0 96.94l38.44 73.585 52.271 43.484z"/>

<ellipse cx="356.812" cy="228.894" fill="#fff" rx="67.5" ry="79"/>
<ellipse cx="176.812" cy="228.894" fill="#fff" rx="67.5" ry="79"/>

<path fill="#f99016" d="M141.733 350.149q-17.117-3.632-24.573-2.396-7.456 1.234-11.524 8.374 5.03 16.315 16.558 27.67 11.529 11.356 34.542 22.665 13.26 18.843 22.282 29.843t22.098 24.27q19.845 17.452 39.07 23.536 19.222 6.083 49.918 5.637 27.358-5.214 48.22-20.908 20.863-15.695 38.586-44.396l41.254-51.851q15.895-12.376 19.923-22.444 4.029-10.069-3.968-17.433-6.462-5.24-15.955-4.723t-30.081 7.229q-20.382-5.757-30.77-11.457-10.39-5.7-30.281-22.035-24.361-18.237-36.928-21.663-12.565-3.428-37.204 1.446-15.719 5.88-26.13 12.042-10.41 6.16-32.114 22.42-12.726 15.476-26.997 24.691-14.273 9.216-25.926 9.483"/>

<path fill="#fec110" d="M328.485 336.982c-2.301-1.063-21.375-12.71-60.547-7.205-15.609 2.194-52.604 22.04-50.834 22.858s39.443-16.442 58.824-19.166c19.38-2.723 54.857 4.576 52.557 3.513m-57.173-38.088c9.941 0 18-2.686 18-6s-8.059-6-18-6-18 2.686-18 6 8.059 6 18 6"/>

<path fill="#e95b2f" d="M212.623 427.773q5.946-25.845 64.716-25.844t58.77 28.067l-2.368 7.24q-11.422 16.712-53.311 19.458-41.891 2.745-67.807-19.459z"/>
</g>

<path fill="#2776e0" d="M181.223 555.87q11.644-13.257 19.942-17.884t19.942-4.355l5.313-4.907q11.13-9.576 37.904-16.973 26.772-7.395 54.722-8.616 10.602-.412 18.587 0 7.983.414 17.131 1.873 10.395 11.778 28.338 19.033t35.886 6.939q27.63 2.005 49.845-6.939t29.872-25.157l47.541-20.699q23.696 2.874 47.507 9.526 23.81 6.653 34.577 13.409 17.169 6.63 31.857 16.105t22.446 18.925q.77 12.365-2.514 24.222-3.285 11.857-11.268 27.15l-59.273 82.515 10.517 55.592-366.729 64.69 15.28-89.81h-12.972q13.687-15.596 17.83-38.58 4.14-22.986-4.857-53.32-10.08-21.47-28.81-34.056-18.73-12.587-45.65-9.786z"/>

<path fill="#1d62c7" d="M341.693 615.845q1.003 17.765-10.88 35.089a179 179 0 0 1-3.8 5.34 66 66 0 0 0 1.242-1.329l27.215-9.541q-20.013 36.932-24.825 57.146-4.814 20.214-2.39 57.146 51.696-10.17 77.153-13.778c33.488-4.744 66.19-5.823 99.681-12.496q88.424-17.616 110-30.872l5.028 52.05q-110.812 3.795-175.35 10.546-64.54 6.75-186.101 25.174l9.54-91.39.19-.117a129 129 0 0 1-15.03 4.458q10.085-10.768 14.84-22.281 4.753-11.514 5.569-27.154 15.533-1.359 33.959-11.665t33.959-26.326m234.44-50.874 60.68 71.673-27.235 33.393q-9.937-20.913-17.326-37.938t-19.254-46.336zm-58.984-43.472 39.392-40.758h-12.85l-20.921 6.97q-.984 14.467-2.162 21.55-1.179 7.084-3.459 12.238"/>

<path fill="#619be8" d="M284.856 713.628q2.447 17.188-7.21 73.972l-21.802 3.3 12.362-91.97q14.202-2.491 16.65 14.698M538.209 480.74q6.707-1.485 18.332 0 42.074 5.765 63.554 14.63t58.173 35.609l4.365 14.391-7.972 25.825q3.606-21.633 0-25.825c-3.608-4.19-39.863-26.25-71.567-38.47q-31.705-12.218-78.041-19.19 6.448-5.485 13.156-6.97m-185.476 22.394 13.38 11.81-22.287 19.574q-10.847-9.764-16.165-15.692a99 99 0 0 1-3.051-3.58q-39.9 9.327-54.098 14.486-14.426 5.241-26.018 14.787l-23.387-10q14.574-12.939 34.567-19.575t59.999-11.81z"/>

<path fill="#fee019" d="M104.053 386.921q20.295 2.371 28.385 12.624 8.093 10.253 8.187 30.455l4.768 19.296 22.477 27.235q10.617 13.032 14.544 27.792 3.928 14.76 1.264 31.615l-5.943 20.512 20.442 7.59q10.882-1.455 22.93 2.346t24.504 12.623q15.977 13.63 22.595 27.325t6.612 32.298q1.013 22.91-4.306 38.38-5.317 15.47-17.146 24.018l-21.888 6.587q-.113 17.686-10.371 18.006-10.26.322-37.429-16.514-7.188 13.35-13.642 12.366t-24.643-18.204l-38.376-62.234q-23.459-.898-34.265-6.44-10.805-5.541-24.58-23.738l-4.341-33.52q-7.487-14.905-8.01-23.373-.522-8.467 5.15-22.986-9.155-24.15-5.15-33.65t26.64-17.332l37.39-4.676-18.523-39.871q-1.182-24.248 3.645-34.555 4.827-10.308 19.08-13.975M682.633 548.653l18.878 9.51-71.843 196h-9.551l-10.54-84.126q32.902-39.883 53.218-73.639 20.317-33.757 19.838-47.745"/>

<path fill="#fec110" d="M233.118 707.267q-5.715 18.42-17.86 17.533-12.146-.886-31.58-17.533-3.257 11.733-8.932 13.983t-16.058-4.746q-4.51 1.615-19.015-20.167-14.505-21.783-32.656-57.425l22.98-4.086-36.575-18.98q31.722.325 42.26-2.87t13.372-13.998l14.227-15.802q77.244 57.442 92.393 55.736t-15.837-64.359q27.816 18.652 33.938 60.273 6.122 41.62-23.68 68.445zm452.136 46.044q45.607-60.753 52.192-79.057t3.894-42.155h9.031q10.42-17.245-3.76-37.882-14.177-20.639-48.213-37.767-27.979 50.45-46.27 96.325-18.292 45.873-24.136 101.389z"/>

<path fill="#fff5b1" d="M123.746 389.979q8.435 8.73 11.858 14.707t3.28 11.723q-29.926-28.902-41.733-5.698t6.902 64.61h-1.71q8.61.51 16.595 2.623 10.449 5.396 15.454 9.767 5.006 4.372 4.499 7.66-33.344-12.455-59.463-7.66c-22.725 4.172-27.635 11.858-30.973 19.228l-.228.508-.224.507q-.278.632-.552 1.259l-.22.5q-.11.248-.222.497c-1.93 4.294.615 7.533 3.506 10.797l.435.49q.33.367.657.738l.435.494c2.164 2.479 4.117 5.078 4.117 8.25 0 8.146-9.15 13.541-9.15 27.145 0 10.8 5.78 13.05 11.305 14.913l.43.145.428.143.426.144c.637.217 1.264.437 1.871.673l.402.16q.3.122.59.251c3.688 1.636 11.583-.082 19.923-1.868l.964-.206 1.044-.222c5.225-1.107 10.505-2.137 14.93-2.297q12.094-.436 39.569 4.593-71.6 6.114-80.497 15.395-8.897 9.282 21.034 46.633-21.078-6.82-29.44-20.736-8.36-13.914-6.157-38.506-7.515-14.955-8.01-23.373-.494-8.416 5.494-19.447-9.483-20.378-5.494-32.789 3.99-12.41 22.573-20.345 17.988-5.226 32.73-6.063a99 99 0 0 1 7.436-.148l1.216.03-.395-.629q-12.365-19.71-16.46-31.985-4.172-12.505-3.361-28.09 9.272-18.406 20.291-24.521t23.895 0M91.82 522.978l1.15.04c5.937.208 11.847.51 16.19.81q14.012.968 29.732 4.896l10.596 15.796q-17.049-7.457-26.31-10c-27.808-7.637-50.589-9.292-53.331-10.479-3.352-1.45 9.145-1.488 21.973-1.063m590.814 25.675q26.495 13.425 45.169 28.282t22.57 25.61q4.38 11.437 4.381 18.728 0 7.29-4.382 10.826-7.365-23.412-22.57-38.093-15.203-14.681-47.682-33.634z"/>

<path fill="#000" d="M445.284 4.215c3.835 0 29.382 22.298 31.182 51.338.44 7.104-.738 13.43-2.796 18.932l-2.623-.886q158.812 52.926 182.356 205.977c17.605 114.452-51.582 172.04-96.793 198.11q45.154 5.975 66.87 15.796c23.66 10.7 59.182 34.108 62.523 43.597.895 2.54 1.092 5.977.581 10.19q43.95 21.38 60.873 41.302c17.674 20.805 10.984 42.72 7.516 46.287q-3.468 3.568-9.49 1.786-.879 24.946-5.716 37.881-4.836 12.936-21.362 34.536l-33.151 44.25-9.295.853 31.872-45.103q18.051-23.33 24.782-42.663c4.578-13.146 4.448-26.872 4.438-34.798v-1.015c.004-3.157.069-5.208.57-5.66.798-.719 2.741.264 4.795 1.275l.495.243c2.23 1.085 4.492 2.046 5.483.773 5.877-7.544-.153-27.111-15.78-41.024q-28.543-25.41-47.029-33.297c-2.548 11.226-8.927 26.372-19.259 43.957q-16.27 27.693-53.689 75.308 7.492 28.935 15.355 82.004h-7.875q-12.75-81.198-21.992-107.263c-9.242-26.066-33.333-69.904-36.491-76.228q-3.158-6.325 10.054 9.524 1.303-30.941 4.286-28.26 2.982 2.682 0 32.605 13.434 26.316 22.283 46.96 31.14-35.445 41.082-55.986 10.319-21.319 13.484-58.29l.272.147c-14.488-8.184-32.609-16.468-46.43-22.002q-21.887-8.763-59.994-12.227c-9.357 4.894-17.008 8.238-21.632 10.337q-.69 66.89-86.667 66.89-85.915 0-122.406-52.62-26.035 3.042-42.713 7.194-23.324 5.807-45.225 17.985 52.034 22.87 68.721 65.048 16.362 41.356 1.975 79.492a158 158 0 0 0 14.199-11.788c28.054-26.199 26.688-52.706 29.27-52.706 2.584 0 7.398 33.129-33.954 65.688q-18.284 14.395-35.082 22.358L261.363 790.4l-10.245 1.078 12.594-86.444q-14.544 5.445-27.919 5.82l-.073.027q-2.603 19.557-16.064 19.557t-35.978-16.306q.375 14.533-19.554 9.773-19.683-4.702-59.08-80.669c-14.09 1.53-30.995-.368-44.556-12.164q-28.179-24.51-19.983-52.168-8.138-13.765-8.893-21.877t4.671-23.459q-11.429-31.7 3.149-45.857c13.334-12.95 39.59-14.888 55.51-15.125Q80.546 448.89 77.057 437.26c-3.66-12.196-1.824-59.395 34.743-53.8 36.567 5.593 27.652 42.637 36.014 62.027 8.361 19.39 43.034 37.737 41.245 78.604a98 98 0 0 1-3.37 21.513q10.356-7.954 16.959-11.085 7.233-3.43 15.16-3.54 13.24-13.846 38.636-21.436 21.743-6.499 57.545-9.683c-65.433-15.515-159.202-63.146-159.202-201.998q0-145.2 202.487-226.922 35.586-14.984 53.049-27.618c17.462-12.636 31.126-39.107 34.96-39.107M96.37 395.817q-27.204 17.298 7.87 76.906c14.003.912 29.764 5.739 37.054 18.586q7.804 13.752.751 38.549 19.101 14.244 3.968 45.573c4.258 8.519 11.069 27.812-2.317 37.792-16.61 12.383-57.772 4.652-59.453 1.685-1.68-2.966 25.158 0 43.246-3.037 17.906-3.006 16.243-15.496 16.208-18.917l-.001-.101c0-3.27 1.355-14.085-18.184-18.03s-63.05 3.21-63.05 0c0-2.516 18.81-8.437 47.1-8.437 9.66 0 24.436 1.52 30.99 3.508q14.786-28.426-6.82-38.914c-23.004-11.167-77.88.195-75.245-4.408 2.448-4.277 52.142-11.275 76.779-.605q7.517-20.758-.476-31.552c-8.238-11.124-17.609-15.2-35.683-15.2s-43.383 1.876-55.334 15.2q-11.95 13.323 1.992 39.153-7.182 10.183-6.332 20.485c.85 10.3 6.435 19.784 7.81 23.286s-3.761 36.14 21.472 50.745 66.198 3.455 64.38 6.364c-.799 1.277-9.467 5.51-21.325 7.778l-.508-.906q30.171 53.94 49.045 69.561 18.873 15.62 17.429-14.544 18.642 19.556 35.555 23.214 16.912 3.66 14.538-14.33 46.563-8.974 43.47-69.69-2.922-57.38-69.19-69.506 12.37 8.402 20.932 16.281c14.579 13.417 20.542 24.474 19.452 26.077-1.09 1.602-1.09-5.39-16.855-17.418q-15.348-11.711-46.214-28.486c-8.495 17.861-19.637 27.993-20.735 27.449-1.737-.86 22.79-44.628 22.79-69.593q0-24.964-28.776-55.786-13.576-11.457-14.728-23.003c-1.154-11.546-4.509-69.317-41.605-45.729m125.625 140.606q-.654.393-1.304.79-13.27 1.305-19.806 5.076-5.798 3.344-14.843 13.556 4.03 2.401 7.773 4.76 80.42 3.954 83.587 74.926 1.995 44.71-12.263 60.99 13.201-5.613 24.878-13.075 19.34-42.744-1.202-85.468-20.155-41.92-66.82-61.555M656.2 519.16l-.122 1.145q-3.45 31.869-13.582 55.212-10.084 23.238-42.796 59.392 4.98 11.865 8.373 21.765a179 179 0 0 1 2.61 8.329q45.843-63.132 55.642-81.308c9.96-18.472 17.81-37.927 9.96-49.175-3.053-4.373-10.588-9.795-20.085-15.36m-137.828-22.455c-4.244 1.782-9.7 3.01-15.147 3.793q-11.68 25.886-64.001 32.733-56.198 7.355-88.354-27.24a253 253 0 0 1-7.995-.882c-7.43.61-14.437 1.271-21.029 1.982q36.145 48.832 116.525 48.832 77.87 0 80.001-59.218M183.68 552.103q-.342.983-.697 1.944l.696.405zM445.284 17.017c-3.206 0-14.467 22.537-31.174 35.403q-16.705 12.866-54.873 27.407-193.828 80.026-193.828 218.035c0 197.51 213.182 205.532 210.58 208.441-.272.305-2.914.585-7.427.598h-.691c-2.232-.006-4.88-.076-7.89-.234q36 26.958 79.244 21.487 41.137-5.205 55.026-26.738c-2.065.129-4.013.194-5.762.202h-.609c-5.301-.015-8.564-.572-7.26-1.445 3.608-2.416 202.683-53.382 160.549-233.39Q609.904 133.215 469.918 82.284c-7.12 11.976-17.565 18.341-18.705 18.341-1.81 0 18.94-25.903 16.944-45.072-1.995-19.169-19.666-38.536-22.873-38.536"/>

<path fill="#000" d="M516 154c39.212 0 71 37.608 71 84s-31.788 84-71 84a60.7 60.7 0 0 1-10.91-.985 169 169 0 0 0 6.435 4.267c14.068 8.854 20.14 11.171 25.313 12.782l.381.118q.38.117.756.23l.768.233.096.029.672.203.385.118q.482.147.974.303c6.559 2.078 7.054 1.196 14.894 0s15.334-5.864 23.552-5.864 21.403 5.864 21.403 20.381c0 14.518-18.967 27.51-25.194 35.742-6.226 8.232-19.761 25.593-34.655 43.683-14.893 18.089-39.779 65.614-101.405 68.379-61.627 2.765-96.518-46.658-94.146-46.658s45.333 45.868 98.48 40.41q53.148-5.457 92.014-66.07 26.13-34.335 37.462-48.123c11.332-13.787 25.888-17.27 19.89-31.555s-24.8-7.834-31.531-5.743-18.852 5.022-36.581-2.09c-17.73-7.114-40.133-26.068-45.409-30.806s-30.458-27.479-65.147-18.146q-34.689 9.332-77.064 53.3-14.407 13.795-24.51 15.969c-10.102 2.174-24.11 0-24.11-3.347 0-.239.1-.46.29-.668-5.97.746-17.095 1.415-23.085 5.684q2.548 6.66 5.7 12.226 30.399 8.349 46.964 8.349c17.656 0 22.943-3.732 51.028-9.485 12.357-2.531 23.458-6.707 34.507-10.671l2.009-.718c13.391-4.766 26.815-9.055 42.421-9.562 29.26-.951 86.11 14.404 91.97 15.192s11.902 2.676 21.017 0 17.25-11.889 20.295-11.888c3.046.002 1.79 5.815-8.044 11.893-9.835 6.077-21.046 9.987-27.364 9.987s-31.912 49.099-52.717 69.936-34.032 23.357-49.038 23.357h-2.31c-15.01-.016-37.066-.547-61.608-15.343-25.833-15.575-57.208-56.905-67.925-64.146q-9.924-6.705-35.485-8.326a56 56 0 0 0 5.916 6.444c11.226 10.408 49.5 34.155 49.001 35.332s-37.742-19.16-51.026-30.56q-12.231-10.497-19.056-27.57c-4.778 9.384-3.123 27.594-4.958 27.594-2.06 0-9.541-22.38 3.823-34.302 12.56-11.205 29.779-7.351 31.804-5.052 6.58-1.745 19.872-3.59 31.305-10.325 11.936-7.033 19.282-14.467 26.224-21.783l.923-.975c1.5-1.585 2.99-3.163 4.512-4.73A60.8 60.8 0 0 1 336 322c-39.212 0-71-37.608-71-84s31.788-84 71-84 71 37.608 71 84c0 23.598-8.225 44.923-21.468 60.182 10.262-5.397 21.47-10.099 30.996-12.207 17.012-3.765 31.591-1.552 43.224 3.288C450.502 275.08 445 257.3 445 238c0-46.392 31.788-84 71-84m-78.847 261.15c-46.366 0-61.164 14.414-61.164 27.122s30.102 20.782 61.164 20.782 52.605-9.657 52.605-20.782-6.24-27.122-52.605-27.122M516 163c-35.346 0-64 33.803-64 75.5s28.654 75.5 64 75.5 64-33.803 64-75.5-28.654-75.5-64-75.5m-180 0c-35.346 0-64 33.803-64 75.5s28.654 75.5 64 75.5 64-33.803 64-75.5-28.654-75.5-64-75.5"/>
</g>

<g class="pupils" fill="none" fill-rule="evenodd">
<path fill="#000" d="M515.256 205.469c20.229 0 36.627 20.867 36.627 46.608s-16.398 46.608-36.627 46.608-36.628-20.867-36.628-46.608 16.399-46.608 36.628-46.608m0 20.046c-5.82 0-10.537 6.058-10.537 13.532 0 7.473 4.717 13.531 10.537 13.531 5.819 0 10.536-6.058 10.536-13.531s-4.717-13.532-10.536-13.532m-179-20.046c20.229 0 36.627 20.867 36.627 46.608s-16.398 46.608-36.627 46.608-36.628-20.867-36.628-46.608 16.399-46.608 36.628-46.608m0 20.046c-5.82 0-10.537 6.058-10.537 13.532 0 7.473 4.717 13.531 10.537 13.531 5.819 0 10.536-6.058 10.536-13.531s-4.717-13.532-10.536-13.532"/>
</g>

</svg>