<svg id="img-space" xmlns="http://www.w3.org/2000/svg" viewBox="-72 -73 1093 1116">

<g class="space-scene">

<g class="space-arm">
<path fill="#e6edf6" d="m735.273 463.438-49.791-29.068-34.819 36.708-11.494 84.18q30.962 14.701 53.648 21.506 22.685 6.806 33.856 4.745 24.326 13.365 36.504 15.565 12.18 2.2 22.148-2.344l39.938 28.803q18.307 7.428 29.537 2.91 11.23-4.52 15.253-20.934 14.56-14.989 16.793-24.779t-3.872-31.885q-16.794-22.365-30.387-30.69-13.593-8.322-48.82-17.813-14.085-10.192-21.65-13.761-7.566-3.57-17.811-4.858z"/>
<path fill="#a6b9db" d="M763.177 481.723q15.84 4.777 25.722 9.31t14.867 9.31q6.964 20.476 7.768 35.232.61 11.21-2.125 22.988 30.047-13.676 48.056-5.924 18.623 8.014 25.509 39.435l-14.016 13.435q0 16.491-16.37 21.491-16.373 5-32.202-6.38l-35.061-28.546q11.224-10.888 15.676-17.47a41 41 0 0 0 4.19-7.99q-15.072 3.635-23.075 1.674-8.566-2.097-18.939-13.03 8.49-17.29 8.49-31.36 0-14.068-8.49-42.175m-77.695-26.193q.865 21.132 0 32.105t-5.067 32.106l24.5-13.988-3.459 20.41q8.852 7.44 19.667 11.995 10.815 4.556 43.183 14.48-11.353 20.07-20.073 25.092-8.719 5.024-26.573 1.779-25.431-1.538-37.245-5-11.815-3.463-25.662-13.435L657.647 543q6.166-9.852 7.731-24.844 1.566-14.992 0-49.2z"/>
<path fill="#7b97c1" d="M763.177 552.639q9.621 10.83 18.182 13.435 8.56 2.604 25.985 0a119 119 0 0 1-3.481 6.369l-.097-.215q9.634 21.57 23.807 29.22 14.175 7.649 42.48 6.552-2.775 12.853-9.066 16.45t-26.838 4.076l-48.209-35.993q-4.2 2.562-8.612 3.476-16.517 3.417-47.354-13.93 10.478-.94 17.955-7.57t15.248-21.87m80.902 9.485q14.369 7.184 19.085 14.45t0 15.5L847.815 579.5z"/>
<path fill="#000" d="M702.98 440.484q52.81 34.058 60.7 36.337c7.89 2.278 18.107 4.693 27.095 9.76q7.026 3.96 13.026 10.714l-.035-.006q66.729 13.182 82.29 49.308 15.846 36.794-12.275 59.432c-.186 6.422-3.36 16.362-14.042 21.057-13.612 5.982-24.576 3.395-34.252 0-4.225-1.483-11.597-8.274-22.909-16.872q-5.46-4.15-18.73-13.118-11.35 3.937-24.658 1.34-14.023-2.735-33.232-14c-6.339.315-12.952-.888-28.733-4.166q-23.808-4.946-42.073-14.334l-3.584-12.13q24.777 12.676 39.08 17.365c14.304 4.688 25.686 6.32 33.179 6.32h1.193c7.991-.028 23.965-.997 36.328-28.646q12.61-28.202.78-64.775l-64.406-38.588c2.199 2.593 11.011 21.682 11.011 36.687 0 11.335-3.55 28.543-5.975 38.322l-.144.577c.845-2.122 1.833-4.563 2.815-7.076l.278-.714.414-1.074.137-.36.272-.717.268-.716.133-.358.262-.712c.562-1.54 1.087-3.05 1.54-4.475.456-1.432.906-2.99 1.343-4.6l.186-.691q.14-.522.277-1.047l.182-.702.18-.703.267-1.055.175-.702.172-.698.17-.694c1.04-4.261 1.93-8.194 2.547-10.402l.097-.343c.317-1.09.552-1.654.684-1.472.359.492-.08 6.68-1.07 13.44l-.113.754q-.115.755-.238 1.514l-.13.784c-.617 3.656-1.382 7.257-2.258 10.01-2.493 7.838-8.923 18.303-10.548 19.618a.3.3 0 0 1-.06.09q-.027.024-.04-.017-.176.114-.242.026c-.128-.176.064-.94.472-2.125.629-4.097 2.343-13.517 3.548-22.947l.154-1.23c.755-6.144 1.264-12.193 1.085-16.674-.56-14.008-9.099-38.811-8.294-39.783l-.054-.032zm105.76 65.243.213.602q10.128 28.746 4.454 51.413-5.762 23.02-23.44 36.135 9.956 5.993 15.3 9.913c2.23 1.636 4.495 3.487 6.762 5.365l1.046.868 1.014.842c5.237 4.342 10.426 8.526 15.15 10.238 19.224 6.968 28.365-.185 30.5-2.466 2.134-2.28 10.144-7.555 3.504-19.487s-31.251-24.41-28.08-26.717c.814-.592 3.897.07 8.536 2.345q-1.44-16.299.287-15.185 1.02.656 3.455 7.892l.324.972q1.399 4.245 3.233 10.507c3.667 2.375 7.805 5.434 12.245 9.261 3.035 2.617 6.923 6.721 9.013 10.804q23.584-30.37 1.532-57.992-21.702-27.181-65.048-35.31m-42.369-20.145.053.145q13.098 35.28 5.277 57.803c-8.26 23.79-22.503 36.74-35.114 39.323-1.058.217-2.049.414-2.989.59q17.782 6.62 25.592 8.05c8.585 1.572 15.435 1.572 22.169 0 6.733-1.573 21.646-18.646 25.713-35.912s0-44.613-5.309-50.712c-5.308-6.1-14.051-10.918-20.404-14.233q-5.577-2.91-14.988-5.054m-81.374 5.054c1.43 0-.3 23.6-5.213 34.056q-4.913 10.458-22.137 24.153 10.23-12 15.939-24.153c1.941-4.132 3.716-9.39 5.27-14.533l.272-.906c2.875-9.645 4.954-18.617 5.869-18.617"/>
</g>

<g class="space-base">
<path fill="#e6edf6" d="M239.852 319.55q15.276 11.823 23.226 22.548 7.951 10.726 8.06 19.662l37.243 45.624 32.5 33.1q10.953 3.744 20.035 10.449t26.885 24.189q25.836 10.913 41.903 14.54 16.066 3.626 47.929 5.736 41.1 1.044 61.585 0 20.486-1.044 50.937-5.736l75.223-20.706q2.132 33.897 0 51.044-2.13 17.146-10.727 35.258 7.32 29.23 8.035 50.25.717 21.022-5.04 37.658l66.116 55.811q19.002 19.9 25.942 35.117t6.63 36.304v34.034q27.83 18.96 40.768 34.972c12.939 16.012 17.664 25.356 17.664 36.313s-12.803 33.22-26.886 44.541q-14.082 11.32-52.944 19.632-39.28-4.627-58.057-13.687t-39.055-33.171q-26.455-29.51-33.755-45.133-7.3-15.625-3.91-35.485l9.572-28.128-46.22-13.888q-8.812 6.263-21.384 9.298-12.573 3.034-36.155 4.59-.608 41.773-9.272 63.613t-28.847 32.487q-7.01 5.741-10.9 7.852-3.89 2.11-12.41 4.794-10.173 41.379-32.908 55.923-22.736 14.544-52.01 7.627-25.495-9.985-37.199-21.256t-28.788-42.294q-8.928-42.131-7.894-61.555 1.035-19.425 13.47-43.079l38.723-34.844-3.856-40.527q-21.776 13.87-34.868 5.223-1.71-1.13-3.658-2.9l.146-.1q-36.892 25.622-55.849 31.139-18.955 5.516-51.155 0-43.21-15.873-62.412-34.569-19.2-18.696-32.355-57.709-4.14-48.281 0-72.875 4.141-24.595 22.537-60.956 17.37-22.313 30.823-37.55 13.453-15.235 21.892-22.155-5.91-9.051-10.715-26.205l-20.903-30.4zm-57.66 155.795 6.505 7.385q-36.406 37.702-51.133 66.802t-18.404 70.596q11.996 50.997 32.84 73.113t56.812 22.008q19.103-1.386 38.622-7.574t26.346-13.02l17.986 16.898q-12.43-13.523-32.702-48.082l-23.78-66.397q-9.04-25.716-8.264-35.292.777-9.576 12.832-21l-50.428-51.12v-7.877a190 190 0 0 1-7.233-6.44"/><path fill="#a6b9db" d="M708.733 710.69q13.423 8.92 21.694 21.187 8.27 12.266 17.8 38.52l-18.253 21.32-74.898-12.727q25.787-14.804 37.97-30.31 12.18-15.505 15.687-37.99M341.806 768.6l11.702 28.435q-1.92 10.573-2.305 15.768-.387 5.195 0 15.245 5.583 21.682 12.983 31.69 7.401 10.005 29.279 25.45l37.81 45.837q-17.355 6.58-25.703 8.534-8.348 1.953-21.018 2.394-33.165-2.942-49.512-26.067c-5.368-7.594-14.521-23.448-19.16-37.124q-4.779-14.088-9.028-46.727 2.258-22.83 9.028-35t25.924-28.434m161.237 18.053q3.347 34.903-3.52 56.886-6.868 21.983-25.023 34.484-34.344 8.577-47.275 0-12.93-8.575-19.569-44.332 36.561 3.84 60-7.302 23.44-11.141 35.387-39.736M286.16 574.51l13.052 6.386 21.754 29.614L317.892 629l-14.8 11.144-27.356-52.31-11.738-4.195zm54.72-132.998q17.844 9.096 27.734 17.898t13.74 19.014q9.66 23.994 7.97 43.798-1.692 19.804-15.875 48.747-11.01 19.548-20.195 25.04-9.185 5.494-23.459 1.066l-24.94-15.565 15.11 2.13q12.085-3.112 19.915-12.67 7.83-9.56 13.374-27.969 5.565-34.235 3.049-53.338T340.88 441.51m115.299 86.465L636 512.294q-36.14-2.29-55.616-2.488-19.478-.197-48.62 2.488-42.432 3.43-61.764 5.384-19.333 1.953-36.483 4.543-.091 49.93 1.646 79.475 1.74 29.545 5.166 36.314L465 644.695l-6.866-14.028L452 557.742q-.894-15.796 0-22.167.895-6.37 4.18-7.6"/><path fill="#7b97c1" d="M671.132 770.398q10.875 10.212 22.768 11.797 11.892 1.586 46.98-2.5-15.576 19.005-27.567 24.737-11.99 5.733-42.18 8.606-18.645-2.738-29.43-8.606-10.787-5.867-22.1-19.426 19.317-1.725 31.965-5.31t19.564-9.298m-311.507 80.724q14.82 21.375 33.06 31.26 18.238 9.882 51.46 14.545L432.8 930.06l-14.824 5.081q2.851-8.245-13.03-31.112c-4.933-7.105-13.291-15.559-21.758-24.235l-1.337-1.372c-3.566-3.662-7.12-7.352-10.416-10.988q-5.262-5.805-11.809-16.312m6.228-31.26q13.549 7.62 24.594 10.726 11.045 3.105 24.594 3.103.697 14.138 7.275 23.441 6.576 9.304 27.143 25.25-37.824-4.75-53.646-20.982-15.82-16.233-29.96-41.537m294.694-222.788q2.745 21.53-2.866 43.07c-5.609 21.542.184 18.951-18.484 38.92-18.668 19.967-34.281 27.312-52.233 36.721q-17.952 9.41-48.531 16.092-55.918 5.548-91.375-4.915-35.457-10.462-62.213-23.437 17.56-2.7 28.929-5.132 11.368-2.433 19.025-5.131 33.784 5.699 55.965 6.411t56.361-2.814q34.095-6.091 61.207-22.014 27.114-15.923 35.37-34.7 5.495-11.68 8.978-19.64 3.482-7.962 9.867-23.431m-332.09 68.048 5.624 6.23v41.675l-9.496 5.223q-13.775 6.219-25.372 0-11.595-6.22-23.477-26.195l26.585-5.874zM460 644.695l17.633 3.123Q468.655 666.91 460 675.682t-27.201 17.58q-31.045 7.69-45.233 6.411-14.19-1.28-30.262-13.221 40.824.598 70.842-11.607T460 644.695M320.967 624q11.377 15.947 25.437 23.818 14.061 7.87 41.739 13.785l-3.298 13.242q-22.016-5.788-28.685-5.788t-4.134 14.683q-10.965-6.561-16.71-12.387t-11.413-16.129q-2.351-9.822-2.936-16.043-.585-6.22 0-15.181m292.125-83.218q2.735 13.013 3.908 25.292 1.174 12.278 2.278 39.435-10.421 4.482-41.514 7.491-31.092 3.009-87.587 5l-1.413-2q-4.74-20.22-5.747-32.542-.484-5.949-.502-14.988v-1.307q.017-9.26.502-21.608zm-228.247 8.75q-7.74 22.448-16.23 33.926t-20.398 15.592q-16.267-.183-24.122-3.041-7.854-2.858-18.238-12.37 13.623 2.13 23.16-2.13 9.536-4.26 16.169-15.435 11.45 2.933 18.481 0 7.032-2.934 21.178-16.542M137.564 401.697q11.814.615 19.395 0t15.146-2.8q13.036 14.962 25.422 20.86t33.923 7.395q-20.75 12.27-33.923 13.98t-40.568-4.303z"/><path fill="#bacce7" d="M617.438 785.006 635.8 801.55l35.332 11.488q16.197.542 28.832-3.108 8.901-2.571 20.381-8.478l.327-.169-.302.231q-8.677 6.714-13.917 18.678l-.26.602q-7.988 18.748 0 28.917-10.506 1.579-17.466 2.147 6.685-.12 14.49-.736-11.817 16.914 0 27.376t61.844 27.375q-24.18 14.385-51.118 12.06-26.938-2.327-51.118-23.417-23.98-22.426-34.696-37.432t-15.101-32.307q-.438-13.29 0-20.345t2.257-16.034q1.983 6.815 3.916 12.44zm-221.625 77.451q15.13 11.726 29.447 15.981 14.318 4.255 37.688 3.873-13.489 12.756-35.723 12.756t-46.752-19.821zm224.766-57.751.066.183q2.406 6.5 4.734 11.118 4.878 9.677 10.421 13.09 11.556 15.41 25.144 19.85 6.784 2.216 17.333 2.762c-4.835-1.78-11.226-8.784-17.785-16.423l-.743-.867-.372-.435-.758-.889-.38-.445-1.062-1.248c-3.187-3.742-6.359-7.453-9.357-10.608q-10.786-11.351-27.241-16.088m109.848-8.795a227 227 0 0 1-9.338 5.156l-.417.216.134-.101a38.7 38.7 0 0 1 9.62-5.27m-342.284-34.967q41.438 11.192 69.408 16.43 27.972 5.236 48.421 4.82l-8.86 14.841q-45.352-8.619-69.887-17.22-24.534-8.602-39.082-18.871M635.8 724.522q-5.904 22.243 0 32.35 5.905 10.108 29.578 18.287-28.828 10.228-47.59 9.832-18.761-.396-52.596-11.946 26.21-11.77 44.54-24.365 18.327-12.596 26.068-24.158m-182.487-81.356L465 645.154q-3.432 16.601-22.541 27.121t-57.614 17.005l-16.262 1.722Q432.246 725.529 470 731.877c47.475 7.981 139.056-13.627 143.028-13.627s-77.204 37.52-133.445 33.775q-56.241-3.746-145.502-52.352v-28.32q9.516 5.653 18.557 10.79l-.919-.977-1.01-13.259 34.136 6.938q31.104-4.516 43.301-10.16t25.167-21.52M286.16 706.75l7.477 11.499q-38.773 26.512-65.57 30.43-26.799 3.918-65.572-11.255 50.254.138 73.18-5.548 22.926-5.687 50.485-25.126m365.407-83.218-9.866 21.162q-1.419.345-2.838.684l.305-.684q-19.566 44.585-81.609 58.83t-145.925-3.852l21.164-6.411q4.844.9 9.588 1.678l-8.017-1.678q21.59-12.822 30.63-21.91 9.04-9.086 14.583-23.534Q500.42 639 534.756 634q31.886-4.643 79.789-4.975a3963 3963 0 0 0 27.157-5.492zm-13.192 21.963q-34.779 8.308-68.78 13.47-35.625 5.407-80.832 8.941L466.14 698.15q40.136 4.192 72.293-1.251 45.003-7.62 74.376-25.546zm-393.427-16.792q14.427 22.418 21.629 20.765 7.202-1.65 15.77 9.547l-.028-.036.143-.015 3.698-8.037L320.504 629q.808 14.831 2.53 23.076 1.724 8.245 5.416 14.943l-25.358 17.55-3.879-7.322-16.75-15.644h-25.634zm137.406-157.626 26.685 10.707 102.009 13.997v1.437q42.285-3.552 69.024-7.557 27.25-4.082 55.727-11.24L636 485q-31.485 9.868-55.927 15.342-24.01 5.379-69.024 12.742v.265L475 515.204q-16.671 1.685-23 2.474-6.33.788-18.483 4.543-9.092 31.287-18.265 57.288c-9.172 26-32.897 40.48-32.897 49.491q0 9.01 36.551 25.111-16.822 7.492-28.33 7.492-11.505 0-33.272-7.492-22.026-12.033-30.281-21.474t-6.056-20.087q19.525 9.63 33.682 8.07a36 36 0 0 0 3.518-.568c-11.727 1.56-24.7-2.51-33.404-7.502q-10.723-6.15-22.344-31.041 22.476 15.87 35.125 17.541 12.651 1.672 25.215-9.565 9.35-10.404 13.665-18.517 4.316-8.114 5.93-18.33h29.041a70 70 0 0 0 1.179-5q2.582-13.203.745-34.541-7.958-3.304-12.033-3.304-4.682 0-10.71 4.36 1.821-4.277 0-13.81-1.818-9.534-8.221-29.265m-124.49 103.213 3.966 12.084-24.184 16.307-9.58-28.391q8.457 5.019 14.38 5.019 5.925 0 15.418-5.02M239.852 322q16.532 10.422 24.146 20.098 7.614 9.677 7.14 19.662-6.998 27.66-18.456 44.24-11.459 16.581-33.992 27.66 9.852 19.846 21.162 32.747 11.311 12.9 27.938 23.255 22.666 33.475 43.037 43.338t46.477 0q-9.522 29.382-16.423 37.968t-24.282 12.67Q264.936 562.225 239.852 543q-25.081-19.224-48.688-55.5a777 777 0 0 1-3.242-4.09q-29.282 31.761-40.145 48.087-11.139 16.742-22.597 46.844-.605-26.684 12.384-53.632 12.988-26.948 39.312-53.63l4.437 3.786q-8.49-11.203-12.954-18.456-6.77-11-9.892-22.039l-20.903-32.673z"/><path fill="#42608a" d="m606.247 786.653 11.19-1.647-5.595 26.688q.312 16.08 3.443 25.306 3.13 9.228 11.879 19.846 17.92 22.938 32.14 35.46 14.217 12.522 30.988 20.134 20.424 7.878 43.722 4.944 23.298-2.933 40.313-18.845 8.58-11.953 11.036-18.47t3.428-19.898q-.228-7.371-.87-13.56-.644-6.19-2.558-19.453 15.227 14.2 21.517 26.17c6.29 11.968 7.886 16.112 6.288 26.741s-11.147 29.788-22.972 40.19c-11.825 10.4-17.38 15.48-43.834 18.573-26.453 3.092-39.038-.866-56.07-6.895q-17.033-6.03-43.653-28.406-22.916-24.433-31.354-36.11t-13.11-25.422q-4.113-12.158-3.285-23.408.828-11.252 7.357-31.938m-268.31-33.099 3.206 16.844q-15.213 11.595-21.38 20.492-6.168 8.898-12.121 29.647-1.479 16.115 0 30.585t5.186 20.146q6.3 16.143 10.162 23.8 3.862 7.656 10.843 17.842 11.869 15.21 20.632 20.666 8.763 5.457 26.008 8.377 16.665-.942 27.183-3.355t20.49-7.586q-26.793 30.534-50.815 27.8c-24.023-2.734-33.87-7.71-47.822-16.859q-13.953-9.15-28.657-33.291-10.832-29.041-13.428-44.038t-.917-38.815q7.35-28.689 17.974-43.614 10.623-14.925 33.456-28.641"/><path fill="#7b97c1" d="M808.396 855.631q-8.372-20.21-23.033-28.473 2.435 11.388 2.93 17.064t.558 10.106q-.843 13.91-2.089 20.493-1.245 6.585-4.268 13.093l29.45 3.415q4.822-15.489-3.548-35.698m-495.568 15.637h-23.814q-6.006-35.49-3.167-51.405 2.84-15.916 19.062-37.668 13.586-14.86 20.76-21.251 7.173-6.39 12.814-8.656l3.808 18.11q-15.64 10.552-21.774 18.943t-11.431 26.488q-2.478 14.088-2.232 25.803t3.21 20.825zM636 481.355l27.851-12.4q3.564 31.937 1.527 51.045-2.036 19.11-10.727 35.258zm-463.532-106.57q26.414 36.765 36.344 43.394 9.93 6.627 31.04 2.084-26.46 18.188-41.282 21.248-14.82 3.06-41.282-4.206v-5.584l-19.724-30.024z"/><path fill="#fff" d="m754.76 803.546 30.603 23.612 2.286 12.448-37.915-26.568z"/><path fill="#e6edf6" d="M554.16 32.201q60.27 25.545 94.058 53.198 33.79 27.652 61.456 72.127 18.46 30.18 27.516 48.639t12.328 32.58q19.755 11.776 26.901 26.754t5.329 40.795q-5.22 34.386-13.216 48.914-7.995 14.529-27.502 19.577l-17.026 24.113-.889-18.698q.254 13.51-.387 21.497-.918 11.45-3.688 11.736-11.918 22.253-24.59 35.003-12.675 12.75-30.599 20.52-64.494 21.296-101.856 25.432-37.36 4.137-105.815-2.44-35.868-6.394-56.274-11.94-20.407-5.547-20.516-8.93-14.154-16.458-22.086-22.642-7.932-6.183-19.76-9.977l-16.577-20.28q43.353 18.681 82.948 27.483 39.595 8.803 102.513 13.747 65.85-3.938 103.664-13.747 36.943-9.582 54.471-26.674-1.962.656-4.016 1.275 34.946-44.691 42.036-88.514 7.09-43.824-9.388-79.233-18.714-42.439-32.648-62.008t-34.984-32.982q-31.161-22.084-49.617-30.983t-56.048-20.977q-4.2-21.604-9.586-30.367t-20.135-17.987q-11.745 17.912-22.307 28.187t-24.026 16.884q-40.423 13.272-59.101 20.489-18.68 7.215-42.778 18.87-24.201 16.058-42.305 40.105-18.106 24.045-46.978 78.482 14.216 21.101 21.098 46.147t10.379 68.409l-13.02-15.347q-5.271-14.801-10.662-21.844-5.393-7.044-18.2-15.852l-49.067 37.696.02-27.69q3.054-98.661 29.864-158.322 26.81-59.66 87.733-107.95 55.35-35.735 123.82-42.39Q503.12 16.43 554.16 32.2m168.222 332.551q-12.513 20.147-21.88 31.19 11.293-11.498 22.023-28.17z"/><path fill="#6cadf4" d="M242.277 321.742q15.799 12.045 20.753 19.11 4.954 7.063 8.109 18.586l13.02 15.347q-4.79-45.57-10.844-68.41-6.056-22.838-18.908-43.807 19.688-45.847 33.737-66.406 14.05-20.558 42.79-45.579 23.148-15.523 47.567-25.909Q402.921 114.288 452 99.09q9.843-6.881 18.287-16.795 8.442-9.915 17.377-25.083 16.415 8.637 22.65 17.987 6.232 9.35 9.585 30.367 83.51 33.39 114.481 59.32 30.972 25.928 58.246 85.288h34.048q-8.734-67.512-75.105-132.628C585.197 52.429 531.47 41.903 476.165 41.903s-124.436 10.58-176.952 60.38q-52.515 49.8-90.401 245.47z"/><path fill="#154792" d="M663.851 420.263q14.853-3.848 25.836-14.263 10.982-10.416 32.695-41.248 11.878-35.424 12.808-61.786.93-26.361-8.517-59.907-5.385-22.372-18.493-22.372-13.11 0-18.493 22.329 16.611 42.222 12.896 81.98-3.714 39.756-38.732 95.267M239.852 243l10.581 17.484 2.249-2.59q11.819 21.358 18.071 43.143l.386 1.362q6.269 22.48 13.427 69.828l-13.427-12.789-3.35-11.216-10.369-13.227-15.38-54.566-7.565-10.622z"/><path fill="#bacce7" d="M722.728 238.745q9.437 33.297 11.9 56.897.326-5.02.645-10.646 7.617 2.532 11.639 2.532 4.02 0 11.699-2.532v12.215q8.328 2.282 12.479 2.282t11.026-2.282q-5.005 40.503-13.584 57.997-8.577 17.495-24.452 19.577l-20.076 24.113-1.276-31.442v-8.63q-7.72 16.224-20.145 35.71 16.11-38.344 20.145-69.54 4.034-31.197 0-86.25M341.965 441.511q98.493 46.38 205.802 36.912 107.31-9.467 172.782-72.423-7.397 26.823-21.68 39.662-14.285 12.84-54.944 29.21-52.486 17.294-85.917 20.753t-93.008 0q-37.986-9.186-55.96-13.84-17.974-4.653-24.195-6.912-14.616-15.624-22.086-21.435-7.469-5.812-20.794-11.927"/><path fill="#fff" d="M278.588 157.526c-7.223-9.198 5.523-43.109 32.24-60.613 26.716-17.504 56.249-26.378 63.217-17.504 6.969 8.874-19.222 37.387-36.5 51.527-17.28 14.14-51.735 35.787-58.957 26.59m435.857 91.22c.952-2.035.51-17.396-11.862-48.336-12.37-30.941-35.541-51.736-36.464-49.765s22.064 35.628 32.75 57.699 14.623 42.436 15.576 40.401" opacity=".7"/><path fill="#fee019" d="M490.177 57.212q-17.653 23.84-29.855 33.94-12.2 10.1-29.854 15.482-58.086 15.015-87.254 32.104T296.71 185l-44.029 75.5 15.108 27.243q6.595 27.263 10.798 48.424 4.201 21.161 5.978 36.06l26.261 35.615q45.166 23.952 86.227 35.82t89.3 14.913q66.33-1.476 104.95-9.642 38.618-8.166 66.343-26.58 35.196-43.149 42.627-90.927T691.218 243q-25.698-63-63.958-87.474t-109.741-48.892q3.188-22.728-3.825-31.183t-23.517-18.24"/><path fill="#fec110" d="M271.139 300Q340.882 449.116 498.5 449.116q157.62 0 206.492-139.366-2.444 38.673-14.564 69.497-12.119 30.825-30.972 46.33-37.197 19.716-73.628 27.242-36.432 7.526-90.15 6.59-80.469-9.087-127.063-21.58-46.594-12.496-57.788-27.987l-26.261-35.057zM641 329.715c7.732 14.545-5.501 42.4-7.676 45.07-2.176 2.67 3.566-25.43 0-35.646q-3.567-10.215-23.762-11.7Q633.27 315.17 641 329.716M373.53 331c2.456 0-8.062 6.534-15.146 15.207-7.085 8.672-8.47 20.232-10.749 20.232s-5.494-9.6 2.3-20.232S371.073 331 373.529 331"/><path fill="#fff5b1" d="m519.898 105.566-8.761 16.77q61.59 21.814 91.245 37.396 29.655 15.581 63.71 44.017-29.76-42.236-56.53-60.215-26.77-17.978-89.664-37.968M252.682 260.325q18.234-33.852 28.506-50.886t24.346-36.756q23.988-21.959 42.613-32.823 18.625-10.866 51.42-22.033 28.592-4.383 53.746-21.276t36.507-39.34q9.675 23.79-15.32 45.072c-24.995 21.284-43.46 21.961-63.673 28.756-16.461 5.533-73.283 31.365-84.932 46.961q-20.945 28.04-63.686 97.095z"/><path fill="#f99016" d="M492.881 282.1q25.155 4.612 41.399 12.575 16.244 7.964 41.897 28.017 8.206 3.833 14.638 4.748t18.747 0h16q7.762 5.297 7.762 11.699t-7.761 21.564l-27.731 15.866-42.528 46.986q-21.141 15.625-33.227 20.574c-12.086 4.95-15.964 4.95-29.196 4.987-13.231.037-23.835-6.977-36.701-14.746q-12.867-7.77-27.185-23.832l-23.663-22.491q-13.69-3.996-20.519-7.155t-14.699-9.14q-4.116-11.678-3.3-17.43.814-5.753 7.231-11.025 4.82-2.978 9.965-3.244 5.145-.267 19.905 1.695l24.188-16.719 40.387-31.19q7.632-5.697 13.4-8.474 5.77-2.777 10.991-3.264"/><path fill="#fec110" d="M555.644 351.986c-2.13-1.372-19.397-15.56-58.955-15.56-15.761 0-55.16 14.504-53.52 15.56s41.348-10.792 60.919-10.792 53.687 12.165 51.556 10.792M499 306c9.941 0 18-2.686 18-6s-8.059-6-18-6-18 2.686-18 6 8.059 6 18 6"/><path fill="#e95b2f" d="M550.902 394.535q-19.645-19.75-52.402-13.985-32.757 5.764-45.187 23.985l6.288 11.121q24.44 12.156 50.48 9.416 26.04-2.739 40.82-30.537"/><path fill="#fff" d="M403.5 320c32.309 0 58.5-30.22 58.5-67.5S435.809 185 403.5 185 345 215.22 345 252.5s26.191 67.5 58.5 67.5m179-7c32.309 0 58.5-30.22 58.5-67.5S614.809 178 582.5 178 524 208.22 524 245.5s26.191 67.5 58.5 67.5"/><path fill="#000" d="M402.845 341.873c1.093.717-29.47-7.367-33.166 13.644s23.294 24.432 37.012 30.323 30.125 34.344 53.482 48.402 31.203 14.462 50.022 11.017c39.114-7.16 69.08-58.056 87.217-71.949s28.623-7.832 33.344-31.303c3.742-18.602-28.223-11.271-28.396-13.252s33.978-12.855 32.838 12.864c-1.141 25.718-18.548 23.82-35.2 37.495-16.654 13.674-46.357 67.522-95.861 71.853s-88.716-54.06-101.537-60.613-40.136-6.678-37.923-34.4c2.213-27.72 37.075-14.799 38.168-14.081m-26.518 11.025c5.59-.489 9.615 16.992 38.04 16.456 14.211-.268 27.034-3.957 40.03-7.906l2.296-.698c12.257-3.735 24.75-7.534 38.784-8.762 14.91-1.305 28.608 1.118 42.14 3.555l2.535.457c12.67 2.273 25.251 4.355 38.606 3.186 28.492-2.493 37.05-20.16 39.283-20.355 2.232-.195.594 9.916-12.126 17.98q-12.72 8.062-35.462 12.118-16.02 50.956-65.37 57.97-49.348 7.011-77.058-51.392-19.809 2.778-35.728-4.222c-15.92-7-21.559-17.898-15.97-18.387m124.27 31.818c-29.62 2.591-43.348 16.105-42.753 22.907s20.396 18.929 47.005 16.6c26.609-2.327 41.79-18.602 40.867-27.186s-15.497-14.913-45.118-12.321m75.15-209.974c33.286-2.913 63.001 25.947 66.37 64.46s-20.882 72.095-54.168 75.007c-10.02.876-19.716-1.126-28.467-5.404 12.169 8.964 20.514 16.681 20.567 17.29.136 1.547-56.888-42.894-87.305-40.233-22.594 1.977-54.334 37.13-64.056 42.14-9.293 4.789-15.788 8.81-19.734 11.239l-.634.39c-2.917 1.791-4.226 2.544-4.054 1.843.248-1.011 7.26-6.31 14.475-11.947l1.048-.82 1.047-.823.695-.548c3.464-2.738 6.777-5.437 9.197-7.647 24.67-22.54 44.478-38.252 61.499-39.741 15.737-1.377 35.775 8.149 52.736 18.9-12.776-11.695-21.635-29.095-23.385-49.1-3.37-38.513 20.883-72.094 54.169-75.006m-.062 5.024c-30.81 2.696-53.251 33.872-50.122 69.633 3.129 35.762 30.642 62.568 61.452 59.872s53.25-33.871 50.122-69.633c-3.13-35.762-30.642-62.567-61.452-59.872m-177.87 3.516c33.285-2.912 63 25.948 66.37 64.46 3.37 38.513-20.883 72.095-54.17 75.007-33.285 2.912-63-25.948-66.37-64.46-3.37-38.513 20.883-72.095 54.17-75.007m-.063 5.024c-30.81 2.696-53.25 33.872-50.122 69.634s30.642 62.567 61.452 59.872 53.25-33.872 50.122-69.634-30.642-62.567-61.452-59.872"/>

<g class="space-buttons">
<path fill="#154792" d="M490.989 553.56q9.947-.921 15.44-.921 5.49 0 15.29.92l1.428 23.685-33.49.486z"/>
<path fill="#fee019" d="M533.989 548.56q9.947-.921 15.44-.921 5.49 0 15.29.92l1.428 23.685-33.49.486z"/>
<path fill="#a7151d" d="M576.989 548.56q9.947-.921 15.44-.921 5.49 0 15.29.92l1.428 23.685-33.49.486z"/>
<path fill="#108a2f" d="M493.989 584.56q9.947-.921 15.44-.921 5.49 0 15.29.92l1.428 23.685-33.49.486z"/>
<path fill="#f99016" d="M579.989 580.56q9.947-.921 15.44-.921 5.49 0 15.29.92l1.428 23.685-33.49.486z"/>
<path fill="#6cadf4" d="M535.989 581.758q9.947-1.028 15.44-1.028 5.49 0 15.29 1.028l1.428 26.43-33.49.542z"/>
</g>

<path fill="#000" d="M475 17.18q192.838 0 275.786 215.88 40.106 23.804 33.64 79.906-6.705 58.195-42.152 68.126-6.75 9.35-15.6 18.532c0 2.932-.166 5.312-.55 6.796q-3.274 12.672-23.145 39.242-16.222 14.621-36.4 24.97 4.506 21.593 2.122 44.528-2.476 23.826-11.71 42.582l-.74-1.247 1.396 5.934q7.101 25.823 7.676 42.11.52 14.75-3.817 35.71 29.598 27.69 47.094 41.517c18.197 14.381 35.669 30.156 44.14 50.11q8.16 19.224 4.84 68.742 42.255 29.275 54.36 56.466c12.504 28.087-2.522 45.242-7.538 53.107s-31.278 32.676-67.858 32.676-60.164-12.641-75.997-23.609c-15.833-10.967-51.385-49.675-60.94-72.277q-9.449-22.353 4.157-59.502-20.028-2.476-41.807-11.623a118 118 0 0 1-18.497 6.339c-11.02 2.772-22.616 4.12-34.367 4.401q-.457 47.32-10.878 69.959c-7.57 16.445-17.11 22.618-28.298 25.592q-9.956 8.309-20.912 11.947-20.394 68.049-65.523 68.049c-45.636 0-83.48-26.682-96.999-87.857q-18.426-83.378 47.598-122.261l-.108-.533q-2.541-12.74-3.251-32.496-19.39 10.06-34.732 1.705-65.711 49.163-123.154 24.756c-18.982-8.066-31.106-15.777-42.82-24.727-22.501-17.19-42.81-56.259-42.81-88.093q0-108.827 77.114-171.884-7.41-11.996-11.316-27.17c-2.193-2.312-4.647-5.225-7.482-8.952q-9.814-12.903-13.012-24.949l8.146 2.474q.117 3.716 4.866 10.498 4.75 6.781 16.35 19.796 26.746 14.577 67.563-10.186c40.408-24.515 36.866-59.367 36.791-65.104l-.001-.165c0-5.198-3.436-9.383-8.648-16.144q-5.212-6.76-17.775-18.134v-7.28q7.965 4.78 13.506 9.172-4.111-15.225-7.013-24.15-4.309-13.25-11.82-30.652h7.35q3.92 8.616 9.118 24.323 4.689 14.167 12.627 40.787c5.44 6.412 9.738 10.712 9.738 22.078v.101a2765 2765 0 0 0 5.934 7.555q-1.438-25.909-8.103-49.213-7.347-25.69-33.355-72.438l2.068-4.255q7.178 9.375 13.04 18.283l-.21.444q28.488-60.357 47.153-81.846c18.664-21.489 24.056-27.664 52.472-43.289s65.605-23.687 82.32-30.83 20.603-8.113 30.963-17.583 20.903-31.44 22.663-31.44S520.36 65.55 522.76 95.846c.22 2.788.208 5.355.001 7.719q127.048 31.958 170.662 135.358 41.25 97.797-22.204 174.69 35.207-21.341 51.49-63.724 17.795-46.32-3.97-116.083h6.62q22.142 64.415 2.843 121.532a160 160 0 0 1-4.72 12.316c.662 3.73 1.297 8.126 1.824 12.62l.135 1.17c.292 2.596.546 5.209.747 7.73q26.191-32.773 30.147-61.07 4.07-29.118-8.92-86.994Q671.797 33.246 475 24.923c-211.002-8.925-259.213 164.925-271.514 238.049q-12.301 73.125-10.276 73.454h-8.703q-1.535-19.92 8.722-73.454C203.486 209.439 231.45 17.181 475 17.181M335.612 758.389l-.115.091q-61.718 48.663-41.859 115.807c20.263 68.516 55.131 80.36 86.078 80.36q28.296 0 44.595-22.022-71.54 35.792-106.419-42.359-35.17-78.804 21.891-118.926c-1.592-4.369-3.025-8.748-4.171-12.95m4.186 12.99-.717.532q-49.673 37.449-18.114 113.278 31.634 76.009 103.653 47.015 10.015-13.758 15.438-35.945-23.942 3.723-52.334-13.31-48.516-29.106-36.608-85.191c-3.647-7.462-7.857-16.894-11.318-26.38m273.23 17.02q-15.606 13.4-6.506 49.267c9.1 35.868 53.3 71.543 65.336 78.318s54.6 39.346 108.892 4.275q53.838-34.776 5.278-89.256 10.583 36.438-4.798 60.524c-15.66 24.52-38.242 28.732-60.838 28.732-48.849 0-91.396-53.278-103.464-76.719q-12.067-23.44-3.9-55.14m138.869-23.18q-11.854 38.443-54.01 48.223-44.352 10.292-78.61-20.703 3.386 12.542 9.053 22.347c7.005 12.123 22.934 27.86 22.333 28.433-.6.572-17.818-10.482-25.793-23.373q-5.55-8.974-9.112-21.684-5.37 20.87 1.17 35.23c21.234 46.629 69.688 85.009 108.2 82.406q73.666-4.979 60.687-85.333-.305-.342-.614-.684l-29.578-22.221q-17.073 33.378-47.655 43.885c-32.125 11.038-53.65-4.843-52.872-5.775s30.46 10.213 57.85-2.36q26.514-12.17 39.886-42.871.705-19.897-.935-35.52m-125.458-68.32q-27.964 22.73-73.15 34.979l-.121.023q-.444 13.408-2.026 21.424c-1.864 9.441-6.041 17.074-6.429 17.074s3.641-7.842 5.008-17.074q1.146-7.743 1.369-21.043-59.453 10.796-104.273-.404-44.38-11.091-109.03-52.395-2.904 36.916.587 59.942c3.814 25.145 20.057 68.107 21.206 72.962.444 1.873-2.438-2.731-6.458-10.615q-3.784 51.248 34.602 76.252 37.952 24.72 71.048 6.215c-1.494.203-3.01.39-4.55.578-18.108 2.199-42.57-5.402-63.465-21.31q-20.896-15.907-31.132-50.703 33.921 25.574 81.353 17.876 44.805-7.273 59.094-44.07c-63.648-1.285-128.638-30.88-128.638-32.345 0-1.806 109.982 37.861 172.026 20.825 60.802-16.696 105.39-96.406 107.15-97.965l.04-.024.013.027c0 1.325-20.067 51.829-62.64 83.481q12.33-6.28 22.016-13.553c18.018-13.527 37.17-39.426 37.767-38.647s-18.588 29.032-35.338 41.812q-13.643 10.407-39.654 20.405 52.07 21.376 92.617-.227 39.835-21.225 40.741-81.137l-46.557-40.607q-7.105 27.053-33.176 48.245m-125.996 99.79-.181.356q-16.002 31.21-59.284 38.625-46.363 7.941-74.043-15.709l-.554-.477.523.827q39.967 62.892 87.318 57.641 47.62-5.28 46.221-81.263m210.568-103.683.049.785q3.27 56.479-41.534 81.369-19.218 10.675-40.69 12.743 28.546 30.195 69.052 18.282 40.217-11.828 51.502-56.833-1.79-8.12-4.456-14.642-8.854-21.66-33.923-41.704m-98.872 95.222.889.171.487.737-.17-.85q-.603-.026-1.206-.058m-444.83-322.963-.155.155q-40.274 40.53-55.592 75.363c-15.347 34.903-15.807 65.34-15.821 89.62v2.235c0 24.635 19.463 84.295 79.936 104.943q58.22 19.88 113.674-21.48c-5.234-4.387-10.2-10.286-14.768-16.724q-45.149 27.066-90.574 15.319c-47.441-12.267-56.506-54.175-64.201-76.685s-1.11-55.534 9.702-81.841q10.755-26.171 54.046-73.885c-2.546-1.963-5.208-4.307-7.947-7.097a81.6 81.6 0 0 1-8.3-9.923m490.318 140.962-.134.632q-7.839 36.244-29.524 56.613c-27.107 25.46-63.517 32.521-74.68 34.801-6.811 1.392-15.915 3.15-28.454 4.239-.192 2.755-.368 5.949-.117 8.184.554 4.932 3.658 13.307 3.102 13.797-.557.49-5.133-4.94-5.856-11.374-.37-3.284.177-7.251.912-10.446-7.576.598-16.357.945-26.575.831q-27.967-.31-65.163-6.37l-1.429-.234.568.094q-14.925 5.36-32.238 6.337 86.973 41.689 168.894 17.891c5.16-1.499 10.03-3.196 14.625-5.062 1.266-2.925 2.86-6.792 3.201-9.408.614-4.705-1.897-13.537-1.299-13.489s4.129 8.548 3.407 13.66c-.356 2.524-1.938 5.812-3.503 8.49 68.24-28.836 74.283-95.412 74.283-102.862v-1.567a721 721 0 0 0-.015-4.162zm-357.439 80.633-20.153 6.426c5.515 7.89 11.518 14.082 19.178 19.18q10.538 7.014 20.373 3.678-11.521-17.57-19.398-29.284M185.232 489.18l-1.16 1.356q-75.73 89.017-57.191 147.475 35.974 113.45 143.272 54.791c-7.363-11.49-13.425-23.61-17.528-31.436-7.865-15.007-8.874-30.098-13.34-45.22-4.467-15.12-15.45-30.565-16.155-45.848q-.666-14.436 11.237-27.934-16.488-14.323-25.555-24.685-9.389-10.73-23.58-28.498m142.24 178.872-21.342 15.383a6359 6359 0 0 1 21.44 28.202 39 39 0 0 0 2.917-2.578q-.2-15.913.61-35.69a72 72 0 0 1-3.625-5.317m116.752-26.79q-23.158 23.221-54.43 22.164l-.01.032q-2.218 7.21-2.218 15.888 0 9.92 6.205 17.925 20.388.898 40.599-7.99 5.817-2.559 10.877-5.601c-4-.258-8.959-1.373-11.612-4.334-4.766-5.322-4.737-19.358-3.931-20.329.805-.971 2.964 12.195 6.968 16.666 2.578 2.879 8.21 4.793 11.703 6.021q18.576-12.317 25.891-31.826zm89.635 6.653-52.082 2.808q-10.993 24.552-34.96 38.558a98 98 0 0 1-5.26 2.863q35.33 7.975 95.683 1.54.5-14.45-.122-22.886-.624-8.436-3.26-22.883M353.4 671.353c-2.257.321-1.587 3.44-.804 6.575l.127.508.185.737q11.93 8.644 28.878 16.725 2.008.373 4.013.648-5.328-10.102-5.327-19.446 0-.899.049-1.774-23.363-4.509-27.121-3.973m214.15-28.694-.067.01a2838 2838 0 0 1-29.867 4.838q1.99 11.49 2.833 20.706.845 9.253 1.521 24.947 5.556-.632 11.318-1.384a112 112 0 0 0 15.676-3.22l-.003.034.004-.065q.955-16.515.63-24.88-.285-7.35-2.045-20.986m-291.276 19.987h-.676q-4.726.017-12.172.512c5.369 11.226 10.12 20.42 15.212 28.079l20.592-5.8a889 889 0 0 0-8.179-11.959l-.623-.89q-5.95-8.473-7.025-9.117-1.34-.802-7.129-.825m356.472-178.487-.526.158q-1.159.347-2.327.683c-43.239 12.437-95.131 15.342-117.018 15.342s-44.378-1.047-73.565-5.966a272 272 0 0 1-24.84-5.385q5.251 30.7 4.285 44.333c-3.471 48.96-27.259 79.502-50.7 86.92q-25.788 8.163-44.964-3.937 8.79 29.67 44.148 38.517 36.358 9.098 71.013-14.673-2.67-3.76-4.817-27.601-2.955-32.79-3.732-90.33 2.043-3.833 25.867-6.851l1.303-.163q7.918-.971 18.126-1.857c14.674-1.273 37.456-2.95 61.317-4.405l2.077-.126 1.04-.063 2.085-.124 1.043-.061 2.087-.122 1.045-.06 4.178-.239 1.232-.069 2.462-.135c39.77-2.176 77.875-3.325 82.234-.584 5.543 3.485 7.053 17.29 8.313 32.763l.088 1.082.13 1.632.103 1.291q.127 1.62.259 3.246l.106 1.302.107 1.302.11 1.302c.187 2.168.385 4.33.606 6.461.75 7.247 1.497 16.228 2.072 25.151l.1 1.574c.102 1.659.2 3.312.288 4.948l.059 1.088.056 1.082c.714 14.026.829 26.376-.377 29.527-2.198 5.745-3.514 5.745-27.794 11.525q-16.695 3.973-50.33 9.66 1.789 10.413 2.273 18.56.555 9.356.049 26.796c29.894-9.265 58.627-31.221 75.802-64.12q6.401-12.262 9.143-39.114c-.38-6.396-.97-12.813-1.887-18.187-.73-4.27-3.85-12.505-6.73-23.334q-3.788-14.245-15.599-58.74M260.553 589.477a129 129 0 0 0-5.97 3.911q-7.5 5.26-12.003 10.796 5.604 26.435 17.592 52.1 20.676-3.391 23.232-1.489.11.082.285.253l.124.124q3.023 3.077 21.478 27.167l21.21-15.91q-6.85-11.811-8.609-25.655a188 188 0 0 1-.61-5.41q-26.737 19.557-32.602 16.228c-3.088-1.754-10.515-21.65-17.485-42.114l-.834-2.457a1541 1541 0 0 1-5.808-17.544m82.563 59.818.024.1c.854 3.62 1.986 8.829 3.057 14.138l.21 1.047q.14.698.277 1.393l.181.926c.616 3.158 1.185 6.24 1.635 8.926q.91.726 1.858 1.451-1.93-9.82.436-11.716 2.549-2.043 30.304 5.452a24 24 0 0 1 3.251-7.95q-6.3-.619-12.915-2.183-16.656-3.935-28.318-11.584M323.97 628.85q-1.485 19.85 13.621 36.776a81 81 0 0 0 5.949 5.98l-.145-.49c-.628-2.16-1.16-4.249-1.5-5.993-.266-1.37-.473-2.914-.63-4.527l-.055-.608a91 91 0 0 1-.329-7.626l.001-.572c.006-1.463.048-2.81.12-3.94q-10.865-7.753-17.032-19m-39.901-52.576-.49.257q-11.17 5.887-18.926 10.47a931 931 0 0 0 6.342 17.94l.561 1.533.563 1.531.565 1.526c6.59 17.765 13.306 34.112 15.406 35.165q4.17 2.09 28.605-17.67-.342-8.475.543-15.014-12.286-10.348-21.537-29.996h.315a208 208 0 0 1-4.723-2.103 123 123 0 0 1-7.224-3.639m288.19-62.924a6951 6951 0 0 0-46.094 2.247l-3.565.189-1.264.067-2.526.136c-40.803 2.206-79.57 4.872-82.436 7.233-4.16 3.427 3.453 109.914 6.948 112.352 3.123 2.178 7.084 4.172 16.61 6.233q-2.433-3.837-3.886-9.17c-2.046-7.507-9.229-99.532-4.685-104.66s80.762-6.24 81.9-5.586c1.137.654-72.53 3.17-77.215 8.28s4.99 93.73 6.034 101.967q.837 6.603 5.752 10.369c1.725.1 3.749.152 6.027.159h.991c11.412-.028 28.653-1.093 46.497-2.645l1.576-.139 1.68-.15q1.681-.15 3.365-.307l2.51-.236c12.966-1.234 25.78-2.675 36.455-4.115 34.434-4.645 70.834-12.905 73.552-16.89 2.718-3.983.388-60.34-2.149-77.901s-2.536-27.433-8.057-27.433c-.387 0-.75-.012-1.107-.032l-.306-.02c-4.636-.337-9.404-2.107-56.606.052M475 624a5 5 0 1 1 0 10 5 5 0 0 1 0-10m141.786-81.623a304 304 0 0 1 2.657 21.885q1.044 12.3 2.35 39.403l.044.893a5 5 0 0 1-3.466 5q-10.158 3.265-41.054 6.122-36.012 3.33-85.782 4.774l-1.691.048a5 5 0 0 1-5.062-4.107q-4.02-22.265-4.782-32.937-.407-5.7-.417-15.49v-1.24q.013-7.85.268-18.197l.021-.832a5 5 0 0 1 4.816-4.871l126.973-4.666a5 5 0 0 1 5.125 4.215M631 608a5 5 0 1 1 0 10 5 5 0 0 1 0-10M387.286 480.181l.058.131q12.118 28.02.747 66.812-23.81 81.234-79.076 41.546 36.143 50.96 74.454 9.775 39.433-42.39 21.364-112.214a269 269 0 0 1-17.547-6.05m220.331 62.957-.218.003-118.64 4.125a4.66 4.66 0 0 0-4.495 4.534l-.02.78a665 665 0 0 0-.243 15.743v1.169q.008 8.642.389 13.673.71 9.392 4.434 28.945a4.66 4.66 0 0 0 4.704 3.788l1.635-.044q46.478-1.276 80.109-4.218 28.719-2.514 38.25-5.381a4.66 4.66 0 0 0 3.312-4.7l-.042-.837q-1.21-23.714-2.18-34.514a255 255 0 0 0-2.454-19.173 4.66 4.66 0 0 0-4.325-3.885zm-82.772 40.521c.684.722 3.503 23.915 1.594 25.841-.89.898-7.976.959-15.47 1-.803.004-1.612.007-2.418.008h-1.207c-7.351-.011-14.193-.228-15.008-1.198-1.775-2.117 1.1-25.047 1.653-25.651q.26-.284.275 5.067v1.354q-.014 6.024-.275 17.684h30.856q-.326-11.861-.34-17.891V588.8q.014-5.487.34-5.142m42-2.128c.335.38 1.18 6.564 1.733 13.026l.072.863c.526 6.475.723 12.983-.211 14-.89.97-7.976 1.035-15.47 1.08-.803.004-1.612.007-2.418.008h-1.207c-7.351-.012-14.193-.246-15.008-1.293-.849-1.093-.634-7.323-.118-13.599l.072-.855q.045-.537.095-1.07l.066-.708c.556-5.881 1.287-11.156 1.538-11.452q.076-.09.13.333l.021.189q.117 1.206.125 5.115v1.107q-.012 6.505-.276 19.272h30.856q-.327-12.828-.341-19.336v-1.107q.014-5.946.341-5.573m44-2.872c.684.722 3.503 23.915 1.594 25.841-.89.898-7.976.959-15.47 1-.803.004-1.612.007-2.418.008h-1.207c-7.351-.011-14.193-.228-15.008-1.198-1.775-2.117 1.1-25.047 1.653-25.651q.26-.284.275 5.067v1.354q-.014 6.024-.275 17.684h30.856q-.326-11.861-.34-17.891V583.8q.014-5.487.34-5.142M240.25 547.086l-.145.142q-8.655 8.61-8.654 17.84 0 9.852 9.86 33.748 11.166-9.18 17.79-13.833c-3.528-10.954-6.142-19.394-6.745-21.298q-1.243-3.924-.94-8.443-5.352-3.826-11.166-8.156m108.964-99.8.039.074c9.74 17.617 18.766 43.473 12.146 81.808-7.196 41.668-27.732 56.095-36.265 57.79-2.81.557-5.375.931-8.232.87q43.613 25.99 63.532-39.284l.428-1.42q20.654-69.6-31.648-99.837m-91.56 112.348v4.05c0 .428.152 1.25.434 2.405l.112.449c.844 3.325 2.61 9 4.888 15.825q5.888-3.55 16.666-8.511-9.675-5.6-22.1-14.218m15.52-193.564c-.755 14.18-5.43 35.718-33.371 58.56-34.848 28.49-67.87 20.543-73.543 18.296l-.207-.083-.414-.168a38 38 0 0 1-1.503-.654q6.081 15.79 16.721 27.317c12.524 13.57 29.22 20.312 27.88 21.806-.823.918-6.555 1.396-14.904-2.5q25.384 28.932 51.13 52.138c28.353 25.555 71.222 42.277 80.17 39.13 8.949-3.148 29.546-22.376 29.546-76.935q0-52.522-44.274-87.754 3.056 35.319-15.91 57.847c-20.392 24.222-61.655 30.79-63.008 29.815s36.009-13.62 57.735-33.616q21.51-19.796 16.18-58.64l-.032-.225zm248.672 186.589c.684.722 3.503 23.915 1.594 25.841-.89.898-7.976.959-15.47 1-.803.004-1.612.007-2.418.008h-1.207c-7.351-.011-14.193-.228-15.008-1.198-1.775-2.117 1.1-25.047 1.653-25.651q.26-.284.275 5.067v1.354q-.014 6.024-.275 17.684h30.856q-.326-11.861-.34-17.891V557.8q.014-5.487.34-5.142m86-5c.684.722 3.503 23.915 1.594 25.841-.89.898-7.976.959-15.47 1-.803.004-1.612.007-2.418.008h-1.207c-7.351-.011-14.193-.228-15.008-1.198-1.775-2.117 1.1-25.047 1.653-25.651q.26-.284.275 5.067v1.354q-.014 6.024-.275 17.684h30.856q-.326-11.861-.34-17.891V552.8q.014-5.487.34-5.142m-43 0c.684.722 3.503 23.915 1.594 25.841-.89.898-7.976.959-15.47 1-.803.004-1.612.007-2.418.008h-1.207c-7.351-.011-14.193-.228-15.008-1.198-1.775-2.117 1.1-25.047 1.653-25.651q.26-.284.275 5.067v1.354q-.014 6.024-.275 17.684h30.856q-.326-11.861-.34-17.891V552.8q.014-5.487.34-5.142m95.156-73.817-.688.318a203 203 0 0 1-20.536 8.085l14.65 62.253q7.432-17.017 8.645-29.338 1.254-12.726-2.071-41.318M465 533a5 5 0 1 1 0 10 5 5 0 0 1 0-10m157-13a5 5 0 1 1 0 10 5 5 0 0 1 0-10m100.523-150.176q-17.884 39.528-53.059 52.905l.062.02q-60.888 39.992-168.272 39.992-99.887 0-170.558-38.241c4.03 4.28 7.585 8.077 10.387 11.266q21.793 10.838 34.543 25.827 20.966 14.66 43.28 20.13c26.063 6.391 67.87 10.061 93.97 10.061s69.337.942 138.692-22.828q69.354-23.77 70.966-98.952zM491.63 62.322c-1.902 0-16.86 27.38-36.453 39.185s-60.982 19.529-79.8 28.874c-18.819 9.345-40.821 17.122-64.55 43.54q-23.73 26.42-54.178 88.647l-1.085-1.393q15.476 24.516 20.754 45.42 7.145 28.305 11.293 68.604 12.177 15.239 19.292 23.398a565 565 0 0 0 8.675 9.707q91.902 44.045 185.675 48.105 92.182 3.991 151.305-34.436 64.03-68.075 37.183-164.312-28.83-103.336-168.652-145.957c-5.488 16.033-21.479 18.677-22.785 18.677-1.654 0 21.668-10.3 17.63-34.535-4.037-24.234-22.401-33.524-24.304-33.524M239.852 395.026c0 .554-13.111 16.312-21.162 20.94s-21.163 3.952-21.163 3.392c0-.561 12.64-.806 21.163-5.705 4.957-2.85 11.307-8.873 15.752-13.306l.461-.46c1.548-1.55 2.834-2.873 3.708-3.748l.238-.238c.642-.638 1.003-.969 1.003-.875m514.857-149.53.216.796q4.712 17.283 6.54 30.456c2.314 16.66 4.094 36.218 1.712 51.357-2.381 15.138-1.19 18.347-10.948 36.983q-.263.503-.531 1.003 19.838-11.193 25.905-56.147 5.994-44.403-22.894-64.448"/>
</g>

<g class="space-hand">
<path fill="#e6edf6" d="m194.126 241.902-4.732 55.758-2.274-16.22q-12.89-25.926-19.294-37.128-6.405-11.202-15.523-23.78-18.284-15.534-31.571-8.864t-10.312 24.054l22.974 49.592q-26.695-23.739-40.069-30.025-13.373-6.287-20.664-1.627-10.985 9.497-9.693 19.082T79.987 308q-24.762-12.873-35.034-7.9t-1.655 36.176q30.405 29.032 51.802 46.69 21.397 17.659 33.006 23.296 22.204 1.982 41.583-5.182 19.38-7.164 38.613-24.465Q227.28 361.4 234.806 347.9t5.92-29.435v-28.992l8.35-43.308q0-17.156-18.76-19.416-18.759-2.26-30.261 8.973z"/>
<path fill="#bacce7" d="m39.367 311.233 60.589 40.982-2.59 3.49q29.648 26.29 49.209 28.905c11.029 1.473 18.055-1.927 24.852-5.886l.769-.45.768-.454.384-.228 1.154-.684c4.243-2.509 8.618-4.981 14.036-6.377q15.433-3.974 34.396-5.582-38.208 30.13-56.798 38.228-18.59 8.1-38.03 3.084l-62.642-46.555q-17.361-17.445-23.195-28.283-5.835-10.836-2.902-20.19m26.176-50.27q23.454 27.026 40.486 40.913t23.694 11.419l-17.34 20.441-37.115-36.386q-10.016-15.334-11.895-22.364t2.17-14.022m48.898-42.703 47.108 75.966-17.328 7.65q-21.41-33.162-28.024-51.358-6.615-18.198-1.756-32.258"/>
<path fill="#000" d="M118.963 208.28c9.143-4.218 20.006-6.32 32.293 6.127q11.961 12.118 34.622 60.265 2.007-18.618 8.302-33.264c10.106-23.511 27.25-20.776 33.4-20.776 6.152 0 22.118 5.493 24.923 16.742 1.502 6.027-.646 16.366-3.179 26.447l-.34 1.343c-2.105 8.263-4.372 16.215-4.985 21.316-1.392 11.581 0 27.578 0 36.89 0 9.31-1.392 19.415-8.006 28.505s-24.148 30.589-50.973 45.726c-26.826 15.136-41.02 15.136-56.914 11.162-15.895-3.974-66.508-46.83-81.76-64.527s-11.808-32.77-8.5-40.202c3.308-7.433 7.805-14.048 25.422-7.433q5.718 2.148 12.894 6.63-29.283-34.13-9.75-49.791 21.156-16.963 56.11 19.367-12.786-20.706-15.289-30.932c-4.026-16.443 2.588-29.379 11.73-33.596m66.1 77.833q-35.028-83.088-62.426-71.706-22.55 9.368 25.08 83.697l-.044-.07c9.202-4.247 16.44-5.277 18.167-5.277 3.082 0-18.579 7.611-34.077 22.305-9.763 9.257-19.71 23.467-26.377 32.814l-.624.876c-3.586 5.015-6.125 8.434-7.023 8.573-1.71.265 2.545-10.157 10.916-22.769a421 421 0 0 1-10.581-9.229q-21.994-16.416-34.806-21.293c-14.235-5.419-17.077-1.3-19.148 3.278l-.14.313-.208.47-.137.314-.277.624-.07.155c-2.34 5.154-1.738 22.196 19.98 42.687 21.719 20.49 60.739 49.723 68.483 51.669 7.743 1.946 35.676-.868 62.429-21.08 26.752-20.212 38.48-30.88 41.813-46.378s-2.21-29.185 0-41.747c1.658-9.422 2.716-15.4 3.955-21.082l.192-.872.097-.435.197-.87c.266-1.16.544-2.325.84-3.521 5.554-22.43 4.13-35.343-13.693-38.81q-36.003-7.005-35.89 78.295-7.12 9.312-10.1 16.325c-1.048 2.466-2.183 6.38-3.263 10.42l-.202.759-.3 1.139-.197.757c-1.704 6.55-3.18 12.665-3.818 12.665-.911 0 .283-9.491 2.135-19.207l.225-1.166c.355-1.814.73-3.623 1.118-5.367q2.547-11.458 7.73-24.703l-.253.648q-1.992-.66-3.178-.711c-7.715-.329-12.066.591-11.894 0 .154-.53 2.883-2.382 9.42-3.3q1.773-.25 5.836-.142-.045-4.154.082-8.147ZM71.29 259.19q-19.38 15.936 41.183 69.87c3.4-4.67 7.29-9.465 11.587-13.998 5.321-5.611 10.87-9.853 16.13-13.046Q90.58 243.33 71.29 259.19"/>
</g>

<g class="pupils">
<path fill="#000" d="M584 227c15.464 0 28 14.327 28 32s-12.536 32-28 32-28-14.327-28-32 12.536-32 28-32m-.5 13c-4.694 0-8.5 4.253-8.5 9.5s3.806 9.5 8.5 9.5 8.5-4.253 8.5-9.5-3.806-9.5-8.5-9.5M405 230c15.464 0 28 14.327 28 32s-12.536 32-28 32-28-14.327-28-32 12.536-32 28-32m5.5 13c-4.694 0-8.5 4.253-8.5 9.5s3.806 9.5 8.5 9.5 8.5-4.253 8.5-9.5-3.806-9.5-8.5-9.5"/>
</g>

<g class="blink">
<path fill="#fee019" fill-rule="evenodd" d="M402.5 318c35.622 0 64.5-29.101 64.5-65s-28.878-65-64.5-65-64.5 29.101-64.5 65 28.878 65 64.5 65m181-9c35.622 0 64.5-29.101 64.5-65s-28.878-65-64.5-65-64.5 29.101-64.5 65 28.878 65 64.5 65"/>
</g>

</g>
</svg>
