<svg xmlns="http://www.w3.org/2000/svg" viewBox="0 0 200 200"><g fill="#fff" fill-rule="evenodd"><path d="M195.667 95.13A41.667 41.667 0 0 0 152.5 53.465c-11.375-24.129-37.668-37.468-63.857-32.395S43.043 48.333 41.5 74.964A31.25 31.25 0 0 0 4 105.548c0 31.75 33.333 31.25 33.333 31.25h120.834s37.5-4.917 37.5-41.667" opacity=".6"/><path d="M73.55 88.12C79.127 87.547 87.78 87 100.5 87s21.372.547 26.95 1.12c7.053.724 12.086 6.108 13.375 12.584l7.107 35.712a107.5 107.5 0 0 1 2.068 20.98v7.023c0 2.83-.107 5.534-.252 7.904-.446 7.313-6.337 12.788-13.485 13.087-6.884.286-18.295.59-35.763.59s-28.879-.304-35.763-.59c-7.148-.299-13.039-5.774-13.485-13.087-.145-2.37-.252-5.075-.252-7.904v-7.023c0-7.044.693-14.072 2.068-20.98l7.107-35.712c1.29-6.476 6.322-11.86 13.374-12.584m67.65 76.258c-.001-2.6-.1-5.106-.235-7.326-.161-2.64-2.254-4.713-5.069-4.83-6.74-.282-18.027-.583-35.396-.583-17.37 0-28.655.301-35.397.583-2.814.117-4.907 2.19-5.068 4.83a122 122 0 0 0-.235 7.367c0 2.614.099 5.136.235 7.368.161 2.639 2.254 4.713 5.068 4.83 6.742.281 18.028.583 35.397.583 17.37 0 28.655-.302 35.396-.583 2.815-.117 4.908-2.191 5.069-4.83.136-2.23.235-4.75.235-7.36v-.049m-75.17.04a4.4 4.4 0 0 1 4.4-4.4h42.953a4.4 4.4 0 0 1 0 8.8H70.43a4.4 4.4 0 0 1-4.4-4.4m63.464 5.5a5.5 5.5 0 1 0 0-11 5.5 5.5 0 0 0 0 11"/></g></svg>