<svg xmlns="http://www.w3.org/2000/svg" viewBox="0 0 200 200"><g fill="none" fill-rule="evenodd"><path fill="#fd2a00" d="M29.492 2.417C44.032 1.236 67.105 0 100 0s55.968 1.236 70.508 2.417c14.612 1.188 25.888 12.462 27.075 27.075C198.764 44.032 200 67.105 200 100s-1.236 55.968-2.417 70.508c-1.187 14.613-12.463 25.888-27.075 27.075C155.968 198.764 132.895 200 100 200s-55.968-1.236-70.508-2.417c-14.613-1.187-25.887-12.462-27.075-27.075C1.236 155.968 0 132.895 0 100s1.236-55.968 2.417-70.508C3.605 14.879 14.88 3.605 29.492 2.417"/><path fill="#fff" d="M52.693 133.373c-2.581-3.594-1.744-8.161 1.25-11.421 3.834-4.176 10.395-11.14 21.02-21.95C64.338 89.192 57.776 82.227 53.94 78.05c-2.993-3.26-3.831-7.827-1.25-11.422 1.48-2.06 3.56-4.584 6.458-7.482s5.421-4.978 7.483-6.458c3.594-2.58 8.161-1.744 11.42 1.25 4.178 3.835 11.143 10.397 21.953 21.023 10.811-10.626 17.776-17.188 21.953-21.024 3.26-2.993 7.827-3.83 11.42-1.249 2.063 1.48 4.586 3.56 7.484 6.458s4.977 5.421 6.457 7.482c2.582 3.595 1.744 8.162-1.25 11.422-3.835 4.177-10.396 11.142-21.023 21.952 10.625 10.81 17.186 17.774 21.021 21.95 2.994 3.26 3.83 7.827 1.25 11.421-1.48 2.062-3.56 4.585-6.458 7.483s-5.421 4.977-7.483 6.457c-3.594 2.582-8.161 1.744-11.42-1.249-4.177-3.835-11.142-10.396-21.95-21.02-10.81 10.624-17.774 17.185-21.95 21.02-3.26 2.993-7.827 3.83-11.422 1.25-2.061-1.481-4.585-3.56-7.482-6.458s-4.978-5.421-6.458-7.483"/></g></svg>