<svg xmlns="http://www.w3.org/2000/svg" viewBox="0 0 1028 1021"><g fill="none" fill-rule="evenodd"><path fill="#1a6ee4" d="M203.696 0h620.598c110.09 0 199.336 89.246 199.336 199.335v527.51H4.36v-527.51C4.36 89.245 93.606 0 203.696 0"/><path stroke="#000" stroke-width="3.698" d="M2 455.967c.707-17.25 2.25-34.649 6.902-51.7 4.721-17.299 12.42-33.411 24.561-49.126 11.932-15.454 27.52-29.593 46.124-41.857 18.595-12.264 40.049-22.534 63.484-30.401 23.844-8.007 48.275-13.082 74.53-16.193 25.875-3.07 52.269-4.078 78.433-4.547 12.012-.219 24.013-.309 36.025-.349 14.262-.06 28.515-.06 42.777-.06h278.328c14.262 0 28.515 0 42.777.06 12.012.05 24.023.14 36.025.35 26.164.468 52.558 1.485 78.434 4.546 26.244 3.111 50.675 8.186 74.529 16.193 23.435 7.867 44.889 18.147 63.484 30.4 18.595 12.265 34.192 26.404 46.124 41.858 12.14 15.724 19.84 31.827 24.56 49.127 4.652 17.06 6.196 34.46 6.903 51.699"/><path fill="#858b90" d="M986.569 717.332c-.747 17.16-2.231 37.391-5.767 57.113-4.263 23.721-11.155 44.75-21.095 64.292a213.4 213.4 0 0 1-39.281 54.132 213.2 213.2 0 0 1-54.072 39.325c-19.521 9.941-40.527 16.85-64.221 21.118-25.069 4.507-50.795 5.724-72.647 6.322-10.199.279-21.015.439-35.069.518-12.19.08-24.172.08-37.459.08H370.295c-13.277 0-25.268 0-37.44-.08-14.073-.08-24.889-.239-35.088-.518-21.862-.598-47.588-1.805-72.647-6.322-23.694-4.267-44.7-11.167-64.22-21.118-19.99-10.18-38.177-23.411-54.073-39.325a213.4 213.4 0 0 1-39.281-54.132c-9.94-19.543-16.832-40.571-21.095-64.292-3.546-19.722-5.02-39.963-5.767-57.113-.17 3.969-.309 7.768-.418 11.367l-.03 1.057.03 1.117c.587 19.124 1.822 44.2 6.185 68.48 4.263 23.72 11.155 44.749 21.095 64.291a213.4 213.4 0 0 0 39.281 54.132 213.2 213.2 0 0 0 54.072 39.325c19.521 9.941 40.527 16.85 64.221 21.118 25.069 4.507 50.795 5.724 72.647 6.322 10.199.28 21.025.439 35.089.518 12.17.08 24.152.08 37.439.08h286.663c13.277 0 25.269 0 37.46-.08 14.053-.08 24.869-.239 35.068-.518 21.862-.598 47.588-1.805 72.647-6.322 23.694-4.267 44.7-11.177 64.22-21.118 19.99-10.18 38.177-23.411 54.073-39.325a213.4 213.4 0 0 0 39.281-54.132c9.94-19.542 16.832-40.57 21.095-64.291 4.363-24.28 5.598-49.346 6.185-68.48l.03-1.057-.03-1.117c-.11-3.59-.249-7.398-.418-11.367"/><path fill="#fff" d="m1023.26 729.697.059-2.194h-.13c-.756-24.623-2.37-49.406-6.732-73.74-4.691-26.15-12.35-50.484-24.432-74.24a249.6 249.6 0 0 0-45.884-63.239c-18.506-18.52-39.84-34.058-63.156-45.945-23.724-12.088-48.026-19.767-74.14-24.464-25.736-4.638-51.99-6.164-78.025-6.872-11.942-.329-23.894-.459-35.836-.528-14.182-.09-28.365-.08-42.558-.08H375.544c-14.183 0-28.366 0-42.558.08-11.952.07-23.894.21-35.836.528-26.025.708-52.279 2.244-78.025 6.872-26.114 4.697-50.416 12.366-74.14 24.464a249.3 249.3 0 0 0-63.155 45.945 250 250 0 0 0-45.885 63.24c-12.071 23.755-19.74 48.09-24.432 74.239-4.362 24.324-5.975 49.117-6.732 73.74h-.13l.06 2.194-.06 2.194h.13c.757 24.624 2.37 49.407 6.732 73.741 4.692 26.15 12.35 50.483 24.432 74.24A249.6 249.6 0 0 0 81.83 943.11c18.505 18.52 39.839 34.058 63.155 45.946 23.724 12.087 48.026 19.767 74.14 24.464 25.737 4.637 51.99 6.163 78.025 6.871 11.942.33 23.894.459 35.836.529 14.183.09 28.365.08 42.558.08h276.882c14.183 0 28.366 0 42.558-.08 11.952-.07 23.894-.21 35.836-.529 26.025-.708 52.279-2.244 78.025-6.871 26.114-4.697 50.416-12.367 74.14-24.464a249.3 249.3 0 0 0 63.156-45.946 250 250 0 0 0 45.884-63.239c12.072-23.756 19.74-48.09 24.432-74.239 4.362-24.324 5.976-49.117 6.733-73.74h.129z"/><path fill="#fedc00" d="M986.986 728.61c-.588-19.128-1.823-44.21-6.185-68.495-4.263-23.725-11.155-44.759-21.095-64.306a213.4 213.4 0 0 0-39.282-54.143 213.2 213.2 0 0 0-54.071-39.334c-19.522-9.953-40.527-16.854-64.221-21.123-25.069-4.508-50.795-5.724-72.647-6.323-7.131-.19-14.78-.329-23.525-.429h.827c-20.139-.578-38.644-11.419-48.933-28.862-7.838-13.563-14.62-30.906-20.636-51.042a19.57 19.57 0 0 0-9.731-11.728 19.57 19.57 0 0 0-15.179-1.207s-201.028 66.72-262.74 87.205c-9.431 3.131-19.222 5.006-29.112 5.644h.817c-8.735.09-16.384.23-23.515.43-21.862.598-47.578 1.804-72.647 6.322-23.694 4.269-44.7 11.17-64.22 21.123-19.99 10.182-38.176 23.417-54.072 39.334a213.4 213.4 0 0 0-39.282 54.143c-9.94 19.547-16.832 40.58-21.095 64.306-4.362 24.285-5.597 49.357-6.185 68.495l-.03 1.057.03 1.117c.588 19.129 1.823 44.21 6.185 68.495 4.263 23.726 11.155 44.76 21.095 64.306a213.4 213.4 0 0 0 39.282 54.144 213.2 213.2 0 0 0 54.071 39.333c19.522 9.944 40.527 16.855 64.221 21.123 25.069 4.508 50.795 5.725 72.647 6.323 10.199.28 21.025.44 35.088.519 12.171.08 24.153.08 37.44.08h286.662c13.276 0 25.268 0 37.459-.08 14.053-.08 24.87-.24 35.068-.519 21.862-.598 47.588-1.805 72.647-6.323 23.694-4.268 44.7-11.18 64.22-21.123 19.99-10.182 38.177-23.416 54.072-39.333a213.4 213.4 0 0 0 39.282-54.144c9.94-19.547 16.832-40.58 21.095-64.306 4.362-24.284 5.597-49.356 6.185-68.495l.03-1.057-.03-1.117z"/><path fill="#fff198" d="M436.847 465q67.64 28.9 112.839 12.465c45.2-16.437 80.433-70.678 73.365-75.384q-7.069-4.704-186.204 62.918"/><path fill="#e16006" d="M513.995 1000.478c-139.156 0-311.414-35.94-311.414-105.558 0-35.213 68.593-28.326 123.586-62.253 43.346-26.74 110.644-112.973 187.828-112.973s144.472 86.233 187.828 112.973c54.993 33.927 123.586 27.04 123.586 62.253 0 69.618-172.258 105.558-311.414 105.558"/><path fill="#df5f06" d="M513.995 1000.478c-146.553 0-301.558-49.256-301.558-105.558 0-3.887 1.195-8.123 9.886-12.847 8.492-4.615 21.055-8.063 35.6-12.07 21.763-5.98 48.851-13.425 73.252-28.485 13.22-8.153 27.745-20.85 44.55-35.542 38.746-33.857 86.96-75.996 138.26-75.996s99.514 42.14 138.25 76.006c16.815 14.691 31.33 27.38 44.55 35.542 24.401 15.06 51.49 22.505 73.252 28.485 14.545 3.997 27.118 7.455 35.6 12.07 8.691 4.724 9.886 8.96 9.886 12.847 0 56.302-155.005 105.558-301.548 105.558z"/><path fill="#4a2002" d="M221.277 891.75c.04.2.11.628.19.957.08.36.179.718.278 1.077.21.717.438 1.445.707 2.163a37 37 0 0 0 1.882 4.206 43.5 43.5 0 0 0 5.206 7.684c3.993 4.774 8.88 8.8 14.227 12.13 10.732 6.647 23.006 10.813 35.57 13.485 12.584 2.67 25.516 4.046 38.507 4.514 12.982.439 26.084.26 39.035-.697 12.972-.897 25.785-2.78 38.568-5.183 12.782-2.432 25.535-5.631 38.606-8.591 13.052-2.99 26.452-5.452 39.951-7.027 13.51-1.565 27.089-2.222 40.618-2.232 6.78.04 13.58.239 20.389.687 6.81.479 13.639 1.176 20.428 2.243 6.78 1.046 13.52 2.412 20.12 3.977 6.61 1.554 13.071 3.368 19.443 5.083 12.733 3.498 25.266 6.538 38.079 8.69a411 411 0 0 0 38.816 4.695 782 782 0 0 0 39.373 1.844l9.866.15c3.176.02 6.332-.15 9.488-.4 6.301-.508 12.563-1.574 18.646-3.278 12.166-3.38 23.624-9.33 33.51-17.412 4.948-4.037 9.477-8.612 13.569-13.575a95 95 0 0 0 5.744-7.754 87 87 0 0 0 2.559-4.087c.806-1.365 1.613-2.83 2.24-4.146l.04-.09a2.464 2.464 0 0 1 3.285-1.156 2.483 2.483 0 0 1 1.234 3.12c-.677 1.734-1.374 3.23-2.14 4.794a76 76 0 0 1-2.43 4.535 100 100 0 0 1-5.564 8.621c-3.982 5.572-8.592 10.714-13.669 15.369a98.4 98.4 0 0 1-16.655 12.319c-5.993 3.498-12.375 6.339-18.985 8.511-6.6 2.183-13.43 3.678-20.31 4.545q-5.166.659-10.363.837l-10.035.34c-13.35.368-26.74.498-40.17-.06-13.42-.509-26.889-1.575-40.319-3.469a341 341 0 0 1-20.02-3.578c-6.63-1.385-13.19-2.96-19.652-4.565-12.942-3.209-25.406-6.398-38.08-8.163a260 260 0 0 0-19.133-1.983c-6.422-.399-12.893-.558-19.374-.578-6.49 0-12.991.11-19.462.439a348 348 0 0 0-19.353 1.534c-12.873 1.326-25.616 3.648-38.478 6.28-12.862 2.64-25.914 5.63-39.254 7.883a303 303 0 0 1-40.409 4.226c-13.53.488-26.999.359-40.498-.747-13.48-1.107-26.98-3.03-40.19-6.578-6.6-1.794-13.121-3.967-19.453-6.718-6.321-2.731-12.474-6.03-18.128-10.126-5.645-4.087-10.852-8.93-14.983-14.671a50 50 0 0 1-5.247-9.22 40 40 0 0 1-1.782-5.043 33 33 0 0 1-.617-2.641c-.09-.449-.16-.897-.219-1.365-.06-.489-.11-.878-.154-1.505a2.47 2.47 0 0 1 2.314-2.602 2.46 2.46 0 0 1 2.559 2.023l.05.25z"/><path fill="#eaba47" d="M287.445 603.462c57.187 0 103.62 38.332 103.62 85.544 0 47.213-46.433 85.545-103.62 85.545s-103.621-38.332-103.621-85.545 46.434-85.544 103.62-85.544m446.264 0c57.187 0 103.621 38.332 103.621 85.544 0 47.213-46.434 85.545-103.621 85.545s-103.621-38.332-103.621-85.545 46.434-85.544 103.621-85.544"/><path fill="#fff" d="M287.451 599.664c52.655 0 95.405 35.293 95.405 78.768s-42.75 78.757-95.405 78.757-95.405-35.292-95.405-78.757 42.75-78.768 95.405-78.768m446.25 0c52.656 0 95.405 35.293 95.405 78.768s-42.749 78.757-95.404 78.757c-52.656 0-95.405-35.292-95.405-78.757s42.75-78.768 95.405-78.768"/><path fill="#000" d="M309.658 645.9c20.66 0 37.44 13.854 37.44 30.917s-16.78 30.917-37.44 30.917-37.439-13.854-37.439-30.917S289 645.9 309.66 645.9m401.986-.418c20.799 0 37.687 13.943 37.687 31.126s-16.888 31.126-37.687 31.126c-20.8 0-37.688-13.943-37.688-31.126s16.888-31.126 37.688-31.126"/></g></svg>