<svg xmlns="http://www.w3.org/2000/svg" viewBox="0 0 200 200"><path fill="#fff" fill-rule="evenodd" d="m44.39 72.401 1.828-21.952C48.356 24.76 69.802 5 95.547 5h7.907c25.744 0 47.191 19.76 49.33 45.45l1.838 22.094c2.935.062 5.48.131 7.65.2 3.908.123 7.845 1.014 11.162 2.827 3.194 1.747 6.904 5.03 7.706 10.243.48 3.13.86 7.262.86 12.506s-.38 9.376-.86 12.506a12.7 12.7 0 0 1-1.486 4.31 17.1 17.1 0 0 1 2.004 6.897c.188 2.884.342 6.776.342 11.79s-.154 8.904-.342 11.788a17.1 17.1 0 0 1-2.039 6.963 12.1 12.1 0 0 1 1.306 3.639c.604 3.218 1.075 7.441 1.075 12.775 0 5.333-.471 9.556-1.075 12.774-1.08 5.757-5.816 8.83-9.018 10.264-3.61 1.618-7.926 2.427-12.27 2.54-8.365.216-21.314.434-39.512.434-18.199 0-31.148-.218-39.512-.435-4.312-.111-8.595-.909-12.188-2.502-1.876 1.385-4.178 2.305-6.883 2.487-3.385.227-8.523.45-15.667.45s-12.283-.223-15.668-.45c-7.912-.532-12.369-7.373-12.827-13.718-.21-2.903-.38-6.813-.38-11.844 0-5.032.17-8.942.38-11.845a16.3 16.3 0 0 1 2.088-6.84 12 12 0 0 1-1.349-3.653l5.754-1.121-5.754 1.121C17.49 143.415 17 139.174 17 133.822s.49-9.592 1.12-12.828l7.846 1.53-7.847-1.53c.313-1.61.914-3.005 1.686-4.212-1.17-1.78-1.972-3.894-2.231-6.34-.318-3-.574-7.003-.574-12.122 0-5.12.256-9.122.574-12.122.918-8.654 8.624-13.14 15.399-13.45 2.865-.131 6.645-.262 11.418-.347m12.532 70.78c-2.95-.12-6.612-.206-11.047-.206q-.744 0-1.46.003-2.214-.047-4.11-.094c-2.828-.07-4.997-.572-6.28-1.104-.294-2.019-.525-4.653-.525-7.958s.23-5.939.525-7.958c1.283-.532 3.452-1.033 6.28-1.104 8.516-.212 21.794-.429 40.524-.429s32.007.217 40.524.43c2.827.07 4.996.571 6.28 1.103.294 2.02.524 4.653.524 7.958s-.23 5.939-.525 7.958c-1.283.532-3.452 1.033-6.279 1.104q-1.868.047-4.046.093c-13.993.017-24.708.165-32.478.333q-1.957.003-4 .003c-9.28 0-17.22-.053-23.907-.133m-12.64 16.32c-4.425.022-7.91.134-10.538.267-.137 2.345-.244 5.397-.244 9.22s.107 6.874.244 9.22c2.936.147 6.94.27 12.13.27s9.196-.123 12.131-.27c.138-2.346.244-5.397.244-9.22s-.106-6.875-.244-9.22q-.717-.036-1.52-.07c-4.659-.056-8.717-.125-12.203-.197m36.757.425q1.837-.048 3.982-.095c13.933-.025 24.65-.17 32.47-.333l2.634-.001c10.239 0 18.788.07 25.769.168 2.53.101 5.578.17 9.185.17h.31q2.054.045 3.821.09c2.604.068 4.592.536 5.775 1.026.289 2.037.515 4.697.515 8.037 0 3.339-.226 5.999-.515 8.036-1.183.49-3.17.958-5.775 1.025-8.212.213-21.018.43-39.085.43-18.068 0-30.874-.217-39.086-.43-2.604-.067-4.592-.535-5.775-1.025-.289-2.037-.515-4.697-.515-8.036 0-3.34.226-6 .515-8.037 1.183-.49 3.17-.958 5.775-1.025m5.579-84.577c3.226-1.664 6.998-2.487 10.742-2.606 5.682-.18 13.92-.36 25.022-.417l-1.046-17.796c-.68-11.577-10.254-20.617-21.836-20.617s-21.156 9.04-21.836 20.617l-1.066 18.15q.821.034 1.56.068c2.847.13 5.857.997 8.46 2.601m59.727 67.8c3.44.049 6.505.105 9.21.164 4.046-.008 7.264-.107 9.723-.232.125-2.36.222-5.424.222-9.259s-.097-6.899-.222-9.259c-2.556-.129-5.929-.232-10.2-.232s-7.643.103-10.199.232c-.125 2.36-.222 5.425-.222 9.26s.097 6.898.222 9.258q.692.036 1.466.067m-16.529-54.32c14.776 0 25.24.217 31.937.428 1.483.047 2.592.321 3.287.592.257 2.136.46 4.94.46 8.471 0 3.532-.203 6.335-.46 8.47-.695.271-1.804.547-3.287.593-6.698.212-17.16.428-31.937.428-14.776 0-25.239-.216-31.936-.428-1.483-.046-2.592-.322-3.287-.593-.257-2.135-.46-4.938-.46-8.47s.203-6.335.46-8.47c.695-.272 1.804-.546 3.287-.593 6.697-.211 17.16-.428 31.936-.428M77.632 98.32c0-3.795-.158-6.797-.356-9.074-4.557-.206-11.671-.417-21.71-.417s-17.153.211-21.71.417c-.198 2.277-.356 5.28-.356 9.074 0 3.795.158 6.797.356 9.074 4.557.206 11.671.417 21.71.417s17.153-.211 21.71-.417c.198-2.277.356-5.28.356-9.074"/></svg>