<svg xmlns="http://www.w3.org/2000/svg" viewBox="0 0 200 200"><g fill="none" fill-rule="evenodd" transform="translate(10 5)"><path fill="#9e9fa8" d="M141.525 97.562c20.697 0 37.475 16.752 37.475 37.416s-16.778 37.415-37.475 37.415a37.36 37.36 0 0 1-17.824-4.495C117.842 180.927 104.732 190 89.5 190s-28.342-9.073-34.203-22.102a37.34 37.34 0 0 1-17.822 4.495C16.778 172.393 0 155.64 0 134.978c0-20.664 16.778-37.416 37.475-37.416 15.233 0 28.343 9.074 34.203 22.102A37.34 37.34 0 0 1 89.5 115.17a37.36 37.36 0 0 1 17.823 4.495c5.86-13.028 18.97-22.102 34.202-22.102"/><ellipse cx="31.033" cy="86.637" fill="#cecfd3" rx="20.909" ry="21.05"/><path fill="#fff" d="M107.988 0c36.544 0 66.17 29.427 66.17 65.728s-29.626 65.728-66.17 65.728c-36.545 0-66.17-29.427-66.17-65.728S71.442 0 107.987 0m.22 58.034c-4.263 0-7.72 3.445-7.72 7.694s3.457 7.694 7.72 7.694c4.264 0 7.72-3.445 7.72-7.694s-3.456-7.694-7.72-7.694"/><path fill="#cecfd3" d="M52.026 77.912c12.558 0 23.675 6.147 30.48 15.586a37.43 37.43 0 0 1 21.579-6.8c20.71 0 37.5 16.72 37.5 37.346s-16.79 37.344-37.5 37.344c-12.559 0-23.676-6.148-30.481-15.586a37.42 37.42 0 0 1-21.578 6.8c-20.71 0-37.5-16.72-37.5-37.345s16.79-37.345 37.5-37.345"/></g></svg>