<svg xmlns="http://www.w3.org/2000/svg" viewBox="0 0 200 200" class="alt-icon"><path fill="#fff" fill-rule="evenodd" d="M100 15c35.899 0 65 29.101 65 65s-29.101 65-65 65-65-29.101-65-65 29.101-65 65-65M80 35c-16.569 0-30 13.431-30 30s13.431 30 30 30 30-13.431 30-30-13.431-30-30-30"/><path fill="#fff" d="M6 176.755h5.552a3.76 3.76 0 0 0 1.068 2.144q.893.915 2.384 1.415t3.469.499q2.856 0 4.51-.826t1.653-2.304q0-1.165-.95-1.782t-3.526-.904l-4.85-.55q-4.698-.512-6.81-2.218-2.11-1.705-2.11-4.722 0-2.367 1.399-4.047t3.948-2.57 5.969-.89q3.37 0 5.972.98 2.605.981 4.15 2.738 1.545 1.756 1.684 4.114H23.96a3.1 3.1 0 0 0-.944-1.855q-.802-.78-2.173-1.219-1.372-.44-3.253-.44-2.605 0-4.15.783-1.543.783-1.543 2.197 0 1.065.911 1.666.911.6 3.25.887l5.049.606q3.34.383 5.315 1.159t2.843 2.101q.869 1.326.868 3.36 0 2.425-1.465 4.242-1.465 1.816-4.112 2.814-2.648.999-6.177.999-3.614 0-6.362-1.052-2.748-1.05-4.328-2.938-1.58-1.887-1.689-4.387m40.956-16.265q2.88 0 4.966 1t3.21 2.8q1.121 1.8 1.122 4.18 0 2.38-1.123 4.18t-3.209 2.8-4.966 1H36.297v-4.512H46.68q1.9 0 2.97-.927 1.071-.928 1.071-2.542 0-1.622-1.07-2.545T46.68 165h-9.877l2.45-2.608v22.25h-5.468V160.49zm32.442 9.976v4.2h-17.27v-4.2zm-13.6 2.1-1.639 10.247-2.367-2.712H80.41v4.541H58.652l1.884-12.076-1.884-12.076h21.596v4.54H61.792l2.367-2.711zm44.905 2.241q-.342 3.07-2.135 5.402-1.794 2.334-4.705 3.628t-6.656 1.295q-4.135 0-7.243-1.578-3.108-1.577-4.839-4.406-1.73-2.827-1.73-6.582t1.73-6.582q1.731-2.829 4.839-4.406Q93.072 160 97.207 160q3.744 0 6.656 1.295 2.91 1.294 4.705 3.616 1.793 2.322 2.135 5.414h-5.5q-.336-1.73-1.39-2.965t-2.734-1.905-3.895-.67q-2.543 0-4.4.943-1.854.942-2.855 2.693-1.002 1.752-1.002 4.145t1.002 4.14q1.001 1.746 2.856 2.693t4.399.947q2.215 0 3.895-.649 1.68-.648 2.734-1.895t1.39-2.995zm11.255-11.87h5.468v21.705h-5.468zm-9.597-2.447h24.662v4.837H112.36zm31.492 10.72h9.31q1.855 0 2.926-.85 1.07-.85 1.07-2.35 0-1.524-1.07-2.363-1.072-.84-2.926-.84h-10.086l2.45-2.788v22.623h-5.468V160.49h13.76q2.652 0 4.645.946 1.994.947 3.11 2.626 1.118 1.68 1.118 3.947 0 2.203-1.117 3.887-1.118 1.684-3.111 2.626t-4.644.942h-9.967zm4.186 2.129h6.248l9.123 11.303h-6.412zm22.74 6.208v-4.437h16.748v4.437zm12.017-19.057 11.294 24.152h-5.835l-9.874-21.924h1.788l-9.874 21.924h-5.835l11.294-24.152z"/></svg>