<svg xmlns="http://www.w3.org/2000/svg" viewBox="0 0 200 200"><path fill="#fff" fill-rule="evenodd" d="M78.023 46.333c.279 0 2.574 2.02 5.008 4.529l4.59 4.458-2.087 2.996c-3.199 4.738-4.45 7.594-5.424 12.401l-.974 4.528-6.676.21-6.677.208v-2.229c0-6.41 4.799-18.67 9.528-24.384 1.252-1.463 2.504-2.717 2.712-2.717M35.323 3l8.762 8.778-4.242 4.947c-12.797 15.117-20.1 32.883-21.907 53.226l-.487 5.643H5l.487-5.295C7.643 45.637 15.849 25.712 30.87 8.155zm10.71 11.147c.194 0 6.233 5.854 13.73 13.34l1.57 1.569 14.882 14.909-3.06 4.04C67.8 55.042 65.157 61.73 63.28 72.877l-.487 2.717H40.13c-15.187-.014-19.624-.231-19.692-.906-.487-7.872 2.087-21.458 5.912-31.002 3.894-9.893 9.945-19.716 16.343-26.404 1.6-1.742 3.13-3.135 3.338-3.135M109.666 32.4l-.209 6.827-.208 6.758-2.226.209c-4.45.418-9.667 2.369-13.979 5.155l-4.45 2.857-4.59-4.598c-5.286-5.365-5.286-5.156 1.599-9.823 4.52-2.996 10.64-5.574 15.578-6.619 1.6-.279 4.173-.627 5.703-.627zm54.107-8.012c.973 0 7.789 8.708 10.71 13.725 5.355 9.196 9.04 19.925 9.945 29.051.278 2.438.626 5.295.835 6.41l.417 2.02h-17.273c-11.711-.011-12.071-.205-12.076-3.575v-.605c0-5.783-4.45-16.65-9.667-23.548l-2.92-3.901 9.736-9.754q.832-.844 1.635-1.649l.531-.531c4.391-4.381 7.887-7.643 8.127-7.643m-21.907 21.945c.973 0 5.563 6.27 7.789 10.799 2.434 4.807 4.45 12.122 4.45 16.093l.07 2.369h-13.909v-2.508c0-3.553-2.643-10.38-5.563-14.352l-2.365-3.274 4.45-4.529c2.505-2.508 4.8-4.598 5.078-4.598m-30.81-14.073 4.452.488c7.858.906 19.264 5.992 23.506 10.52l1.53 1.672-4.59 4.668-4.66 4.667-3.546-2.438c-4.382-2.996-10.78-5.504-14.188-5.504h-2.503zm0-14.7 5.565.488c10.223.906 22.532 6.131 31.365 13.376l3.338 2.717-4.381 4.39-4.312 4.319-3.895-2.926c-7.441-5.643-17.734-9.684-24.689-9.684h-2.99zm-33.799 93.146c.07 0 2.156 1.463 4.52 3.344 6.886 5.156 14.327 8.082 24.342 9.475l3.477.418v11.635h-4.242c-9.528 0-23.367-5.365-32.13-12.54l-4.66-3.763 4.242-4.25.425-.425 1.202-1.201c1.576-1.573 2.719-2.693 2.824-2.693m11.336-11.565 4.104 2.927c3.894 2.717 8.137 4.319 14.187 5.294l2.712.488v13.097h-2.99c-7.163 0-18.569-4.458-24.133-9.474l-3.199-2.857 4.66-4.737zm-9.666-22.084.347 2.02c1.46 6.897 2.99 11.217 5.425 14.91l2.782 4.18-4.66 4.597-4.729 4.668-2.782-3.274c-4.868-5.504-8.554-14.561-9.32-22.503l-.416-4.598zm95.973 65.836 10.084 10.032L195 162.957l-4.103 3.693c-19.82 17.834-45.97 28.981-72.398 30.793l-7.441.557v-28.564l5.703-.418c19.89-1.532 38.667-9.335 53.759-22.363zm-5.911-5.992 4.242 4.32-4.242 3.623c-14.744 12.679-32.756 20.133-52.647 21.806l-5.285.418v-12.192l7.094-.836c14.256-1.672 27.888-7.106 38.876-15.536 3.199-2.439 5.98-4.738 6.259-5.156.765-1.184 1.321-.836 5.703 3.553m-26.497-26.195c.198 0 4.335 4.01 9.33 8.999l.547.548.276.276 9.806 9.893-1.738 1.881c-2.99 3.205-10.989 8.778-16.413 11.495-9.11 4.599-19.125 7.316-29.418 8.082l-3.825.279v-14.143c0-7.803.278-14.142.556-14.142 2.017 0 10.571-1.742 13.284-2.648 4.729-1.602 10.918-5.016 14.256-7.942 1.6-1.393 3.13-2.508 3.339-2.578m27.957-33.65c7.303 0 13.7.28 14.188.628 1.251.766-.14 11.565-2.504 19.855-3.06 10.799-10.223 23.757-16.343 29.609l-2.226 2.16-9.875-9.893-9.876-9.963 3.547-4.667c5.146-6.828 8.971-16.442 8.971-22.712 0-1.463.209-3.205.418-3.832.417-1.045 2.295-1.184 13.7-1.184m-34.425 26.823 5.007 4.946-1.669 1.324c-8.067 6.34-18.36 10.798-25.036 10.798h-3.27V107.85l4.174-.836c4.937-.975 12.587-4.528 14.535-6.619 1.252-1.393 1.321-1.393 6.259 3.484m11.545-26.683 6.19.21.277 2.786c.418 5.852-3.407 16.163-8.762 23.408l-3.13 4.25-4.868-4.877-4.938-4.877 2.573-3.553c3.06-4.25 5.355-10.24 5.355-13.863 0-1.463.209-2.857.487-3.136s3.338-.418 6.816-.348"/></svg>