<svg xmlns="http://www.w3.org/2000/svg" viewBox="0 0 200 200" class="alt-icon"><g fill="none"><path fill="#fff" fill-rule="evenodd" d="M21.333 186.25h-13a6.25 6.25 0 1 0 0 12.5h13a6.25 6.25 0 1 0 0-12.5M187.167 186.25h-12.75a6.25 6.25 0 1 0 0 12.5h12.75a6.25 6.25 0 0 0 0-12.5"/><path fill="#fff" d="M185 26.75H66V14c0-7.042-5.708-12.75-12.75-12.75H15A12.67 12.67 0 0 0 2.25 14v136A12.67 12.67 0 0 0 15 162.75h76.667v23.5H46.833a6.25 6.25 0 1 0 0 12.5h102.084a6.25 6.25 0 0 0 0-12.5h-44.834v-23.5H185A12.667 12.667 0 0 0 197.75 150V39.5A12.67 12.67 0 0 0 185 26.75"/><path fill="#0c1025" d="M23 99.668h7.58q.238 1.66 1.458 2.9t3.255 1.914 4.736.675q3.9 0 6.157-1.117 2.257-1.118 2.257-3.117 0-1.577-1.297-2.411t-4.814-1.223l-6.621-.744q-6.416-.693-9.297-3t-2.882-6.39q0-3.201 1.91-5.474 1.91-2.271 5.39-3.476Q34.314 77 38.983 77q4.599 0 8.154 1.327T52.8 82.03t2.3 5.566h-7.58q-.195-1.455-1.289-2.51-1.096-1.054-2.968-1.649-1.872-.594-4.44-.594-3.558 0-5.665 1.058t-2.108 2.972q0 1.44 1.244 2.254 1.245.813 4.436 1.2l6.894.82q4.56.518 7.256 1.568t3.883 2.843 1.185 4.545q0 3.281-2 5.739-2.002 2.457-5.616 3.807T39.901 111q-4.933 0-8.686-1.422-3.752-1.423-5.909-3.976T23 99.668m46.558-8.173h23.816v6.348H69.558zM94.13 77.662v6.348H69.62l3.772-3.79v30.118h-7.465V77.662zm21.49 3.311h7.465v29.365h-7.465zm-13.102-3.31h33.67v6.543h-33.67zm61.789 0q3.93 0 6.78 1.352t4.38 3.788Q177 85.24 177 88.458t-1.532 5.655q-1.533 2.436-4.381 3.788-2.85 1.353-6.78 1.353h-14.553V93.15h14.175q2.594 0 4.056-1.254 1.461-1.255 1.462-3.438 0-2.194-1.462-3.444-1.463-1.248-4.056-1.248h-13.485l3.346-3.53v30.102h-7.465V77.662z"/></g></svg>