<svg xmlns="http://www.w3.org/2000/svg" viewBox="0 0 200 200"><g fill="#fff" fill-rule="evenodd"><rect width="186" height="185" x="7" y="15" opacity=".6" rx="40"/><path d="M64.364 64v-.063C54.087 63.125 46 54.537 46 44.063c0-11.01 8.937-19.936 19.961-19.936 1.98 0 3.89.287 5.696.823C72.853 11.525 84.146 1 97.899 1c13.68 0 24.926 10.413 26.224 23.737a20 20 0 0 1 4.916-.61c11.024 0 19.961 8.926 19.961 19.936S140.063 64 129.039 64zm6.936 59.535 13.858 18.942 14.685-20.593 15.78 20.593 13.062-19.443L100.52 83zm63.608 8.33 8.795 10.612 13.628-18.524 12.358 18.524 10.064-10.612-22.76-31.432zm-113.854-.745 9.65 11.357 13.627-18.524 12.358 18.524 8.577-10.612-21.718-31.448z"/><path d="m7.526 149.527 36.022-49.11 21.718 31.448L100.519 83l34.39 48.865 22.134-31.448 35.483 49.11V157c0 22.091-17.909 40-40 40H47.446c-22.092 0-40-17.909-40-40l.002-.443z" opacity=".6"/></g></svg>