<svg xmlns="http://www.w3.org/2000/svg" viewBox="0 0 200 200"><g fill="#fff" fill-rule="evenodd"><path d="M45.517 31.28 120.128 7 195 24.758v6.522l-73.48 27.63-76.003-19.853z"/><path d="M45.517 39.055v18.288l71.578 23.227v46.522l3.163 4.958L195 95.77V31.28L121.52 58.9z" opacity=".8"/><path d="m45.517 57.353 71.578 23.229v46.526l3.163 4.959 72.568-35.322v4.852l-3.581 2.534v14.393h-3.48q0 22.56-9.024 32.28-9.026 9.723-16.085 4.15l-20.79-7.27-16.74 7.27v9.584h-6.031q-1.732 13.95-4.36 19.467-2.63 5.516-9.039 8.647-10.74 1.396-13.806-2.813-3.066-4.21-2.603-16.268h-3.274l-8.805 5.381q-28.345-7.205-40.855-12.365T6.96 150.805v-23.697L5 125.422v-23.825l5.47-31.87zm54.678 115.598c-.918 5.206.624 9.83 3.445 10.327s5.852-3.32 6.77-8.526-.624-9.83-3.445-10.327-5.852 3.32-6.77 8.526M59.62 155.85v5.75q5.06 1.54 7.898 1.877t7.898 0v-5.38zm-42.285-19.998q3.813 5.413 9.522 8.3 5.707 2.886 21.796 7.438l2.592-3.228zm-4.062-9.746q3.03 5.18 12.32 9.746 9.292 4.566 27.345 9.745l2.972-3.407zm-3.954 7.55v5.248q4.812 5.667 6.348 5.248c1.535-.42-.281-4.665-1.443-6.586q-1.162-1.922-4.905-3.91m158.36-1.96c-1.96 5.382-1.701 10.416.576 11.245s5.712-2.862 7.671-8.244 1.701-10.415-.576-11.244-5.712 2.862-7.671 8.243m-156.7-13.853q1.488 4.269 11.824 9.193t34.452 13.143l3.147-4.327zm89.852-23.664-15.074 5.517-4.123 25.482v6.89l10.703-4.317q1.455-7.324 2.909-9.994t5.585-5.612zM11.699 75.853l-4.583 26.609q12.072 8.968 25.39 13.816t42.37 10.757l4.941-28.467Q56.3 92.556 44.022 88.656T11.699 75.853m103.12 11.907-10.423 4.578v18.322l10.424-4.567z" opacity=".6"/></g></svg>