<svg xmlns="http://www.w3.org/2000/svg" viewBox="0 0 200 200"><g fill="none" fill-rule="evenodd"><path fill="#108a2f" d="M100.25.25c-32.895 0-55.968 1.236-70.508 2.417C15.129 3.855 3.855 15.13 2.667 29.742 1.486 44.282.25 67.355.25 100.25s1.236 55.968 2.417 70.508c1.188 14.612 12.462 25.888 27.075 27.075 14.54 1.181 37.613 2.417 70.508 2.417s55.968-1.236 70.508-2.417c14.612-1.187 25.888-12.463 27.075-27.075 1.181-14.54 2.417-37.613 2.417-70.508s-1.236-55.968-2.417-70.508c-1.187-14.613-12.462-25.887-27.075-27.075C156.218 1.486 133.145.25 100.25.25"/><path fill="#fff" d="M93.925 105.243a378 378 0 0 0-3.303-3.905 533 533 0 0 0-14.316-16.011c-4.885-5.253-13.072-6.508-18.783-1.539-2.597 2.26-5.441 5.07-7.979 8.331-3.875 4.983-2.91 11.655.752 16.192 12.056 14.942 23.698 27.143 32.03 35.355 7.646 7.537 19.704 6.924 26.45-1.47 9.075-11.29 23.579-30.578 42.872-60.182 2.714-4.163 3.61-9.953.31-14.453-3.412-4.652-7.695-7.872-11.408-10.02-6.063-3.507-13.007-.676-16.662 4.514a3740 3740 0 0 0-23.123 33.198 2465 2465 0 0 0-6.306 9.205z"/></g></svg>