<svg xmlns="http://www.w3.org/2000/svg" viewBox="0 0 1028 1021" width="48"><g fill="none" fill-rule="evenodd">
<path fill="#fff" d="m657.297 0 32.353 94H828c110.457 0 200 89.543 200 200v527c0 110.457-89.543 200-200 200H200C89.543 1021 0 931.457 0 821V294C0 183.543 89.543 94 200 94h114.491z"/><path fill="#9e9fa8" d="M290.621 313c57.187 0 103.621 46.432 103.621 103.62s-46.434 103.62-103.621 103.62S187 473.808 187 416.62 233.434 313 290.621 313M736.884 313c57.187 0 103.621 46.432 103.621 103.62s-46.434 103.62-103.62 103.62c-57.188 0-103.622-46.432-103.622-103.62S679.697 313 736.884 313"/><path fill="#fff" d="M282.627 329.203c52.656 0 95.405 42.75 95.405 95.41 0 52.662-42.75 95.4-95.405 95.4s-95.404-42.75-95.404-95.4c0-52.649 42.749-95.41 95.404-95.41M728.878 329.203c52.655 0 95.405 42.75 95.405 95.41 0 52.662-42.75 95.4-95.405 95.4s-95.405-42.75-95.405-95.4c0-52.649 42.75-95.41 95.405-95.41"/><path fill="#000" d="M283.085 387.439c20.799 0 37.69 16.888 37.69 37.69 0 20.8-16.891 37.69-37.69 37.69-20.798 0-37.69-16.89-37.69-37.69 0-20.802 16.892-37.69 37.69-37.69M728.82 387.02c20.8 0 37.688 16.884 37.688 37.69s-16.888 37.69-37.687 37.69c-20.8 0-37.688-16.884-37.688-37.69s16.888-37.69 37.688-37.69"/><path fill="#9e9fa8" d="M514.404 531.286c51.3 0 99.514 42.14 138.25 76.006 16.814 14.691 31.33 27.38 44.55 35.542 24.4 15.06 51.49 22.505 73.252 28.485 14.544 3.997 27.118 7.455 35.6 12.07 8.691 4.724 9.886 8.96 9.886 12.847 0 56.302-155.005 105.558-301.548 105.558l.02-.01c-146.553 0-301.558-49.256-301.558-105.558 0-3.887 1.194-8.123 9.885-12.847 8.492-4.615 21.056-8.063 35.6-12.07 21.763-5.98 48.852-13.425 73.252-28.485 13.221-8.153 27.746-20.85 44.55-35.542 38.747-33.857 86.96-75.996 138.26-75.996M219.22 690.75l-.163.004a2.47 2.47 0 0 0-2.314 2.601c.044.628.094 1.017.154 1.505.06.469.13.917.219 1.366.169.897.378 1.774.617 2.641a40 40 0 0 0 1.782 5.043 50 50 0 0 0 5.246 9.22c4.132 5.74 9.339 10.584 14.983 14.67 5.655 4.097 11.807 7.396 18.129 10.127 6.332 2.75 12.852 4.923 19.453 6.717 13.21 3.549 26.71 5.472 40.19 6.579 13.499 1.106 26.969 1.235 40.498.747a303 303 0 0 0 40.409-4.226c13.34-2.252 26.391-5.242 39.254-7.884 12.862-2.63 25.605-4.953 38.477-6.279a348 348 0 0 1 19.353-1.535c6.471-.328 12.972-.438 19.463-.438 6.481.02 12.952.18 19.373.578a260 260 0 0 1 19.135 1.983c12.673 1.764 25.137 4.954 38.079 8.163 6.46 1.605 13.021 3.18 19.652 4.565a341 341 0 0 0 20.02 3.578c13.43 1.894 26.9 2.96 40.32 3.468 13.429.559 26.819.429 40.169.06l10.035-.339q5.196-.18 10.364-.837c6.879-.867 13.708-2.362 20.308-4.545 6.61-2.172 12.992-5.013 18.985-8.511a98.4 98.4 0 0 0 16.656-12.32c5.077-4.654 9.686-9.797 13.668-15.368a100 100 0 0 0 5.565-8.621 76 76 0 0 0 2.43-4.535c.766-1.565 1.463-3.06 2.14-4.794a2.483 2.483 0 0 0-1.235-3.12 2.464 2.464 0 0 0-3.285 1.156l-.04.09c-.627 1.316-1.433 2.78-2.24 4.146a87 87 0 0 1-2.558 4.087 95 95 0 0 1-5.744 7.754c-4.092 4.963-8.622 9.538-13.57 13.575-9.885 8.083-21.344 14.033-33.51 17.411-6.082 1.705-12.344 2.771-18.646 3.28-3.155.249-6.311.418-9.487.398l-9.866-.15a782 782 0 0 1-39.373-1.843 411 411 0 0 1-38.816-4.694c-12.813-2.153-25.347-5.193-38.08-8.692-6.371-1.714-12.832-3.528-19.442-5.083-6.6-1.564-13.34-2.93-20.12-3.976-6.79-1.067-13.62-1.764-20.429-2.243-6.809-.448-13.609-.648-20.388-.688-13.53.01-27.109.668-40.618 2.233-13.5 1.575-26.9 4.037-39.95 7.027-13.072 2.96-25.825 6.16-38.608 8.591-12.782 2.402-25.595 4.286-38.567 5.183-12.952.956-26.053 1.136-39.035.697-12.992-.468-25.924-1.843-38.507-4.515-12.564-2.67-24.839-6.837-35.57-13.485-5.347-3.329-10.235-7.355-14.227-12.13a43.5 43.5 0 0 1-5.207-7.684 37 37 0 0 1-1.881-4.206 30 30 0 0 1-.707-2.162c-.1-.36-.199-.718-.279-1.077-.08-.329-.149-.757-.189-.957l-.03-.03-.05-.249a2.46 2.46 0 0 0-2.558-2.023Z"/></g></svg>