<svg xmlns="http://www.w3.org/2000/svg" viewBox="0 0 1028 1021"><g fill="none" fill-rule="evenodd">
<rect width="1028" height="927" y="94" fill="#fcd701" rx="200"/><path fill="#eaba47" d="M290.621 313c57.187 0 103.621 46.432 103.621 103.62s-46.434 103.62-103.621 103.62S187 473.808 187 416.62 233.434 313 290.621 313M736.884 313c57.187 0 103.621 46.432 103.621 103.62s-46.434 103.62-103.62 103.62c-57.188 0-103.622-46.432-103.622-103.62S679.697 313 736.884 313"/><path fill="#fff" d="M282.627 329.203c52.656 0 95.405 42.75 95.405 95.41 0 52.662-42.75 95.4-95.405 95.4s-95.404-42.75-95.404-95.4c0-52.649 42.749-95.41 95.404-95.41M728.878 329.203c52.655 0 95.405 42.75 95.405 95.41 0 52.662-42.75 95.4-95.405 95.4s-95.405-42.75-95.405-95.4c0-52.649 42.75-95.41 95.405-95.41"/><path fill="#000" d="M283.085 387.439c20.799 0 37.69 16.888 37.69 37.69 0 20.8-16.891 37.69-37.69 37.69-20.798 0-37.69-16.89-37.69-37.69 0-20.802 16.892-37.69 37.69-37.69M728.82 387.02c20.8 0 37.688 16.884 37.688 37.69s-16.888 37.69-37.687 37.69c-20.8 0-37.688-16.884-37.688-37.69s16.888-37.69 37.688-37.69"/><path fill="#fcd701" d="M689.655 94.013 657.297 0 314.445 94.013z"/><path fill="#eaba47" d="M245.395 743.623q92.456 129 268.358 129t273.653-129z"/><path fill="#e16006" d="M514.414 801.784C375.258 801.784 203 765.844 203 696.226c0-35.213 68.592-28.326 123.586-62.253C369.932 607.233 437.23 521 514.414 521s144.472 86.233 187.828 112.973c54.993 33.927 123.585 27.04 123.585 62.253 0 69.618-172.257 105.558-311.413 105.558"/><path fill="#df5f06" d="M514.414 801.784c-146.553 0-301.558-49.256-301.558-105.558 0-3.887 1.194-8.123 9.885-12.847 8.492-4.615 21.056-8.063 35.6-12.07 21.763-5.98 48.852-13.425 73.252-28.485 13.221-8.153 27.746-20.85 44.55-35.542 38.747-33.857 86.96-75.996 138.26-75.996s99.515 42.14 138.25 76.006c16.815 14.691 31.33 27.38 44.551 35.542 24.4 15.06 51.49 22.505 73.252 28.485 14.544 3.997 27.118 7.455 35.6 12.07 8.691 4.724 9.886 8.96 9.886 12.847 0 56.302-155.005 105.558-301.548 105.558z"/><path fill="#f87f00" d="M221.696 693.056c.04.2.11.628.19.957.079.359.179.718.278 1.077.21.717.438 1.445.707 2.162a37 37 0 0 0 1.881 4.206 43.5 43.5 0 0 0 5.207 7.685c3.992 4.774 8.88 8.8 14.226 12.13 10.732 6.647 23.007 10.813 35.57 13.484 12.584 2.672 25.516 4.047 38.508 4.515 12.982.439 26.083.26 39.035-.697 12.972-.897 25.785-2.781 38.567-5.183 12.783-2.432 25.536-5.631 38.607-8.591 13.052-2.99 26.452-5.452 39.951-7.027 13.51-1.565 27.089-2.223 40.618-2.233 6.78.04 13.579.24 20.388.688 6.81.479 13.64 1.176 20.429 2.243 6.78 1.046 13.52 2.412 20.12 3.976 6.61 1.555 13.071 3.37 19.442 5.083 12.733 3.499 25.267 6.539 38.08 8.692a411 411 0 0 0 38.816 4.694 782 782 0 0 0 39.373 1.844l9.866.15c3.176.02 6.332-.15 9.487-.4 6.302-.508 12.564-1.574 18.647-3.279 12.165-3.378 23.624-9.328 33.51-17.411 4.947-4.037 9.477-8.612 13.569-13.575a95 95 0 0 0 5.744-7.754 87 87 0 0 0 2.558-4.087c.807-1.365 1.613-2.83 2.24-4.146l.04-.09a2.464 2.464 0 0 1 3.285-1.156 2.483 2.483 0 0 1 1.235 3.12c-.677 1.734-1.374 3.23-2.14 4.794a76 76 0 0 1-2.43 4.535 100 100 0 0 1-5.565 8.621c-3.982 5.571-8.591 10.714-13.668 15.369a98.4 98.4 0 0 1-16.656 12.319c-5.993 3.498-12.374 6.339-18.985 8.511-6.6 2.183-13.43 3.678-20.308 4.545q-5.168.658-10.364.837l-10.035.34c-13.35.368-26.74.498-40.17-.06-13.42-.509-26.89-1.575-40.32-3.469a341 341 0 0 1-20.02-3.578c-6.63-1.385-13.19-2.96-19.651-4.565-12.942-3.21-25.406-6.399-38.08-8.163a260 260 0 0 0-19.134-1.983c-6.42-.399-12.892-.558-19.373-.578-6.49 0-12.992.11-19.463.438a348 348 0 0 0-19.353 1.535c-12.872 1.326-25.615 3.648-38.477 6.28-12.863 2.64-25.914 5.63-39.254 7.883a303 303 0 0 1-40.41 4.226c-13.528.488-26.998.359-40.497-.747-13.48-1.107-26.98-3.03-40.19-6.579-6.6-1.794-13.121-3.966-19.453-6.717-6.322-2.731-12.474-6.03-18.129-10.126-5.644-4.087-10.851-8.93-14.983-14.671a50 50 0 0 1-5.246-9.22 40 40 0 0 1-1.782-5.043 33 33 0 0 1-.617-2.641c-.09-.449-.16-.897-.22-1.366-.059-.488-.109-.877-.153-1.505a2.47 2.47 0 0 1 2.314-2.6 2.46 2.46 0 0 1 2.559 2.022l.05.25z"/></g></svg>