<svg xmlns="http://www.w3.org/2000/svg" viewBox="0 0 200 200" class="alt-icon"><path fill="#fff" fill-rule="evenodd" d="M34.426 10.26c-.213.213-.426.586-.426.799 0 .16 12.724 12.992 28.217 28.54C77.763 55.091 90.434 68.19 90.434 68.616c0 .532-6.974 4.685-18.793 11.181-10.329 5.697-19.327 10.809-19.965 11.288-2.45 1.97-.64 2.183 12.777 1.384 7.773-.426 13.523-.532 14.588-.266 2.502.692 4.419 2.343 5.537 4.686.852 1.863.905 3.035.32 13.045-.32 6.017-.693 12.086-.746 13.47-.107 1.97.106 2.557.799 2.716.692.107 3.62-4.685 11.925-19.7 6.07-10.969 11.287-19.914 11.66-19.914s13.363 12.726 28.909 28.273c15.493 15.494 28.537 28.22 28.962 28.22 1.118 0 .533-19.488-.745-26.836-3.62-20.34-10.914-37.697-22.733-54.097l-3.354-4.632 1.703-3.567c2.077-4.473 2.982-9.265 2.715-15.441l-.16-4.74h-7.826c-7.72 0-7.826.054-11.925 1.918-3.78 1.81-4.206 1.863-5.377 1.118-.746-.426-4.313-2.822-7.933-5.271C95.545 21.122 77.816 14.2 59.129 11.378c-6.602-1.011-24.064-1.81-24.703-1.118"/><path fill="#fff" d="M20.484 178.812h6.896q.216 1.524 1.326 2.662t2.962 1.758 4.308.62q3.547 0 5.602-1.026t2.054-2.862q0-1.448-1.18-2.214-1.18-.765-4.38-1.122l-6.024-.684q-5.835-.636-8.458-2.754-2.622-2.118-2.622-5.866 0-2.94 1.738-5.026t4.904-3.192Q30.775 158 35.024 158q4.184 0 7.418 1.218 3.234 1.219 5.154 3.4t2.092 5.11h-6.896q-.176-1.336-1.172-2.304t-2.7-1.514-4.04-.546q-3.237 0-5.154.972-1.918.972-1.918 2.728 0 1.325 1.132 2.07 1.132.746 4.036 1.102l6.272.752q4.148.477 6.602 1.44 2.454.964 3.532 2.61 1.078 1.647 1.078 4.174 0 3.012-1.82 5.268t-5.108 3.496-7.672 1.24q-4.488 0-7.902-1.306-3.414-1.305-5.376-3.65t-2.098-5.448m71.304 7.028-2.3.012 8.336-27.244h7.14l-9.644 30h-8.688l-9.412-26.544h2.936l-9.412 26.544h-8.688l-9.644-30h7.18L67.9 185.84l-2.244-.04 9.424-27.192h7.244zm16.736-27.232h6.792v30h-6.792zm16.24 12.7h21.668v5.828h-21.668zm22.356-12.7v5.828h-22.3l3.432-3.48v27.652h-6.792v-30zm14.1 3.04h6.792v26.96h-6.792zm-11.92-3.04h30.632v6.008H149.3z"/></svg>