<svg xmlns="http://www.w3.org/2000/svg" viewBox="0 0 200 200"><path fill="#fff" fill-rule="evenodd" d="M91.835 13.897c-14.907 10.2-27.534 24.809-30.466 35.418l-1.385 5.06h-4.888c-9.286 0-23.705 4.896-34.213 11.67C13.388 70.86 5.568 76.98 5.079 78.368c-.733 2.448 3.747 16.403 8.554 26.114 5.376 11.018 11.078 18.526 17.35 22.688 4.888 3.346 4.807 2.693 2.363 11.18-1.63 5.958-1.71 18.362 0 27.094 1.71 9.059 6.191 23.096 7.902 24.483.977.816 4.806 1.142 14.256 1.06 18.736-.08 31.118-3.427 40.893-10.935l4.073-3.1 3.666 2.774c9.286 7.1 24.03 11.017 42.197 11.18 7.901.082 11.567-.163 12.545-.98 1.873-1.55 7.168-18.116 8.798-27.583 1.792-10.283 1.221-20.729-1.385-27.829-1.385-3.59-1.63-5.14-.896-5.386.57-.245 2.932-1.877 5.295-3.754 8.39-6.692 16.455-20.157 21.831-36.56 1.63-4.897 2.688-9.63 2.444-10.446-.652-2.122-14.419-12.242-22.646-16.567-9.776-5.223-18.492-7.753-26.72-7.753l-6.598-.081-.489-3.02c-1.221-7.426-10.1-19.831-20.935-29.38C111.467 16.183 101.447 9 99.98 9c-.488 0-4.154 2.203-8.146 4.897"/></svg>