<svg xmlns="http://www.w3.org/2000/svg" viewBox="0 0 593 165">
<path fill="#fff" d="M.673 73V1.702h28.759l17.475 54.522-6.79.1L58.49 1.702h27.461V73h-20.57V16.281l4.293.599L50.202 73H34.325L15.851 18.877l3.595-.599V73zM134.385 74.298q-12.085 0-21.12-4.493t-14.03-12.782q-4.996-8.289-4.996-19.672 0-5.792 1.298-10.685 1.299-4.892 3.745-9.087a30.7 30.7 0 0 1 5.992-7.39q3.545-3.194 7.988-5.342 4.444-2.146 9.737-3.295 5.293-1.148 11.39-1.148 11.976 0 21.01 4.426t14.03 12.732 4.996 19.756q0 5.725-1.321 10.668t-3.752 9.087a31.5 31.5 0 0 1-5.919 7.34q-3.488 3.195-7.98 5.392-4.491 2.197-9.786 3.345-5.294 1.148-11.282 1.148m-.078-16.277q2.77 0 5.168-.549a17 17 0 0 0 4.498-1.72 15.4 15.4 0 0 0 3.695-2.847q1.593-1.674 2.736-4.034 1.142-2.36 1.697-5.192.555-2.834.555-6.301 0-7.017-2.247-11.61-2.247-4.594-6.39-6.84-4.145-2.248-9.65-2.247-2.783 0-5.18.549-2.396.55-4.498 1.72a15.4 15.4 0 0 0-3.695 2.847q-1.593 1.674-2.691 4.02-1.098 2.348-1.698 5.143t-.599 6.35q0 7.03 2.297 11.624t6.44 6.84 9.562 2.247M216.464 74.298q-10.584 0-18.323-3.445t-11.933-10.036-4.194-15.977V1.702h20.77V44.84q0 4.095 1.847 7.09 1.848 2.995 5.143 4.594 3.296 1.597 7.59 1.597 4.293 0 7.488-1.597 3.195-1.599 4.943-4.544 1.748-2.946 1.748-7.14V1.702h18.673v42.739q0 9.585-3.794 16.277-3.795 6.69-11.334 10.135t-18.624 3.445M260.601 73V1.702h21.869l35.449 48.431-4.593.199V1.702h18.573V73H310.53l-34.551-47.432 3.395-.699V73zM363.854 73V18.079h-24.066V1.702h68.802v16.377h-23.966V73zM400.9 73l28.66-71.298h24.265L482.484 73h-22.268l-21.27-57.717h3.795L421.17 73zm20.571-13.38V44.54h38.745v15.08zM488.875 73V1.702h20.87V73zM520.829 73V1.702h21.869l35.449 48.431-4.593.199V1.702h18.573V73h-21.369l-34.551-47.432 3.395-.699V73zM138.426 163V91.702h38.245q7.49 0 14.13 2.347t11.733 6.89 7.989 11.134 2.896 15.278q0 6.99-1.897 12.582t-5.243 9.936a30.1 30.1 0 0 1-7.989 7.24q-4.643 2.896-10.085 4.393Q182.763 163 176.67 163zm20.87-16.177h15.079q2.296 0 4.693-.599 2.397-.6 4.743-1.947 2.347-1.348 4.144-3.595t2.846-5.542q1.05-3.295 1.049-7.789 0-5.592-1.648-9.387-1.647-3.794-4.244-5.991-2.595-2.197-5.642-3.146-3.045-.948-5.941-.948h-15.079zM255.459 164.298q-10.585 0-18.324-3.445t-11.933-10.036-4.194-15.977V91.702h20.77v43.138q0 4.095 1.848 7.09 1.846 2.995 5.142 4.594 3.295 1.597 7.59 1.597 4.293 0 7.489-1.597 3.195-1.599 4.943-4.544 1.747-2.946 1.747-7.14V91.702h18.673v42.739q0 9.585-3.794 16.277-3.795 6.69-11.334 10.135-7.54 3.445-18.623 3.445M336.643 164.298q-11.983 0-20.97-4.543-8.988-4.544-13.88-12.932-4.894-8.388-4.894-19.472 0-5.592 1.299-10.485t3.694-9.037a32.3 32.3 0 0 1 5.842-7.39q3.445-3.245 7.889-5.442 4.443-2.196 9.686-3.395t11.334-1.198q11.083 0 19.372 3.245t13.181 9.237q4.893 5.99 5.592 14.18h-21.869q-.698-3.396-2.846-5.692-2.146-2.297-5.442-3.495-3.295-1.198-7.789-1.198a21.1 21.1 0 0 0-5.242.649q-2.546.648-4.544 1.847a16 16 0 0 0-3.595 2.946q-1.598 1.748-2.646 4.044t-1.597 5.143q-.55 2.845-.55 6.041 0 6.49 2.197 11.084t6.291 7.09 9.686 2.496q4.494 0 7.74-1.148 3.245-1.149 5.441-3.545 2.197-2.397 3.296-5.991h21.769q-1.1 8.687-5.992 14.729-4.893 6.04-13.031 9.137-8.139 3.095-19.422 3.095M383.476 163V91.702h20.87v37.147l-6.092-2.297 32.154-34.85h25.863l-30.356 30.656q2.796 1.298 4.843 2.746t3.894 3.545 3.945 4.993L459.567 163h-24.865l-16.376-23.466q-1.598-2.397-3.845-2.547t-4.344 1.947l-12.082 11.883 6.29-15.378V163z"/>
</svg>