<svg xmlns="http://www.w3.org/2000/svg" viewBox="0 0 475 436">
<g fill="none" fill-rule="evenodd">
<path fill="#fee01a" d="M212.456 281.365h12v98h-12z"/>
<path fill="#fec110" d="M212.455 281.365h5v98h-5Zm8 0h4v98h-4Z"/>
<path fill="#000" d="M224.764 281.217a1 1 0 0 1 1 1v44.373l.003 1.624-.005 16.38.07-.004v1.624l-.07-.005.002 35.008h-2.424v-14.01l-.234-.024q-3.708-.4-3.709-.874 0-.49 3.942-.715v-3.418q-.732-.06-1.354-.12l-.531-.053q-3.057-.325-3.057-.694 0-.47 4.942-.697v-4.436q-.732-.06-1.354-.12l-.531-.053q-3.057-.325-3.057-.694 0-.47 4.942-.697v-1.436q-.732-.06-1.354-.12l-.531-.053q-3.057-.325-3.057-.694 0-.47 4.942-.697v-5.622q-2.942-.319-2.942-.681t2.942-.58v-1.553q-.732-.06-1.354-.12l-.531-.053q-3.057-.325-3.057-.694 0-.47 4.942-.697v-1.522l-.354-.034-.531-.053q-3.057-.325-3.057-.694 0-.42 3.942-.646l.001-1.646q.212-3.39.212-5.8 0-1.298-.062-3.203-3.158-.33-3.158-.705 0-.373 3.111-.593a256 256 0 0 0-.103-2.404v-.222l-.355-.034-.531-.053q-3.057-.325-3.057-.694 0-.42 3.942-.646l.001-41.446zm-12.125.028.79.022a1 1 0 0 1 .972.995l.012 2.433q3.418.223 3.418.614 0 .369-3.056.694l-.354.036.002 1.599q4.408.227 4.408.67 0 .37-3.056.695l-.531.053q-.387.037-.815.075l.006 1.46q5.396.226 5.396.718 0 .369-3.056.694l-.531.053q-.828.08-1.847.158l.043-.003.023 5.487q3.235.214 3.363.58l.005.03q0 .37-3.056.695l-.303.03.003 1.666q3.356.222 3.356.61 0 .369-3.056.694l-.29.03.013 4.668q3.333.221 3.333.608 0 .369-3.056.694l-.266.027-.001.728q1.89.212 1.89.55-.001.34-1.886.64l.006 1.717q2.88.225 2.88.644 0 .417-2.875.777l.137 34.626q3.171.22 3.171.597 0 .375-3.163.705l.09 23.642q4.074.225 4.073.653 0 .369-3.056.694l-.531.053q-.232.023-.48.045l.01 2.505q5.057.228 5.057.703 0 .369-3.056.694l-.531.053a85 85 0 0 1-1.465.128l.01 2.681h-3.177v-98.648a1 1 0 0 1 1.027-.972"/>
<path fill="#fec110" d="M237.3 281.365h12v98h-12z"/>
<path fill="#f8a329" d="M237.3 281.365h5v98h-5Zm8 0h4v98h-4Z"/>
<path fill="#000" d="M249.607 281.217a1 1 0 0 1 1 1v44.373l.003 1.624-.004 16.38.07-.004v1.624l-.07-.005.001 35.008h-2.423v-14.01l-.234-.024q-3.71-.4-3.71-.874 0-.49 3.943-.715v-3.418q-.732-.06-1.355-.12l-.53-.053q-3.057-.325-3.057-.694 0-.47 4.942-.697v-4.436q-.732-.06-1.355-.12l-.53-.053q-3.057-.325-3.057-.694 0-.47 4.942-.697v-1.436q-.732-.06-1.355-.12l-.53-.053q-3.057-.325-3.057-.694 0-.47 4.942-.697v-5.622q-2.943-.319-2.942-.681t2.942-.58v-1.553q-.732-.06-1.355-.12l-.53-.053q-3.057-.325-3.057-.694 0-.47 4.942-.697v-1.522l-.355-.034-.53-.053q-3.057-.325-3.057-.694 0-.42 3.942-.646l.001-1.646q.21-3.39.211-5.8 0-1.298-.061-3.203-3.158-.33-3.158-.705 0-.373 3.11-.593a256 256 0 0 0-.102-2.404l-.001-.222-.355-.034-.53-.053q-3.057-.325-3.057-.694 0-.42 3.942-.646l.001-41.446zm-12.124.028.79.022a1 1 0 0 1 .972.995l.011 2.433q3.42.223 3.42.614 0 .369-3.058.694l-.353.036.002 1.599q4.408.227 4.408.67 0 .37-3.057.695l-.53.053q-.387.037-.815.075l.005 1.46q5.397.226 5.397.718 0 .369-3.057.694l-.53.053q-.828.08-1.847.158l.042-.003.024 5.487q3.234.214 3.363.58l.005.03q0 .37-3.057.695l-.302.03.003 1.666q3.356.222 3.356.61 0 .369-3.057.694l-.29.03.014 4.668q3.333.221 3.333.608 0 .369-3.057.694l-.266.027v.728q1.89.212 1.889.55 0 .34-1.886.64l.007 1.717q2.88.225 2.879.644 0 .417-2.874.777l.137 34.626q3.171.22 3.171.597 0 .375-3.163.705l.09 23.642q4.073.225 4.073.653 0 .369-3.057.694l-.53.053q-.234.023-.481.045l.01 2.505q5.058.228 5.058.703 0 .369-3.057.694l-.53.053a85 85 0 0 1-1.465.128l.01 2.681h-3.178v-98.648a1 1 0 0 1 1.028-.972"/>
<path fill="#fee01a" d="M261.3 281.365h12v98h-12z"/>
<path fill="#fec110" d="M261.3 281.365h5v98h-5Zm8 0h4v98h-4Z"/>
<path fill="#000" d="M273.607 281.217a1 1 0 0 1 1 1v44.373l.003 1.624-.004 16.38.07-.004v1.624l-.07-.005.001 35.008h-2.423v-14.01l-.234-.024q-3.71-.4-3.71-.874 0-.49 3.943-.715v-3.418q-.732-.06-1.355-.12l-.53-.053q-3.057-.325-3.057-.694 0-.47 4.942-.697v-4.436q-.732-.06-1.355-.12l-.53-.053q-3.057-.325-3.057-.694 0-.47 4.942-.697v-1.436q-.732-.06-1.355-.12l-.53-.053q-3.057-.325-3.057-.694 0-.47 4.942-.697v-5.622q-2.943-.319-2.942-.681t2.942-.58v-1.553q-.732-.06-1.355-.12l-.53-.053q-3.057-.325-3.057-.694 0-.47 4.942-.697v-1.522l-.355-.034-.53-.053q-3.057-.325-3.057-.694 0-.42 3.942-.646l.001-1.646q.21-3.39.211-5.8 0-1.298-.061-3.203-3.159-.33-3.158-.705 0-.373 3.11-.593a256 256 0 0 0-.102-2.404l-.001-.222-.355-.034-.53-.053q-3.057-.325-3.057-.694 0-.42 3.942-.646l.001-41.446zm-12.124.028.79.022a1 1 0 0 1 .972.995l.011 2.433q3.42.223 3.42.614 0 .369-3.058.694l-.353.036.002 1.599q4.408.227 4.408.67 0 .37-3.057.695l-.53.053q-.387.037-.815.075l.005 1.46q5.397.226 5.397.718 0 .369-3.057.694l-.53.053q-.828.08-1.847.158l.043-.003.023 5.487q3.234.214 3.363.58l.005.03q0 .37-3.057.695l-.302.03.003 1.666q3.356.222 3.356.61 0 .369-3.057.694l-.29.03.014 4.668q3.333.221 3.333.608 0 .369-3.057.694l-.266.027v.728q1.89.212 1.889.55 0 .34-1.886.64l.007 1.717q2.88.225 2.879.644 0 .417-2.874.777l.137 34.626q3.171.22 3.171.597 0 .375-3.163.705l.09 23.642q4.073.225 4.073.653 0 .369-3.057.694l-.53.053q-.234.023-.481.045l.01 2.505q5.058.228 5.058.703 0 .369-3.057.694l-.53.053a85 85 0 0 1-1.465.128l.01 2.681h-3.177v-98.648a1 1 0 0 1 1.027-.972"/>
<path fill="#678bb5" d="m234.05 314.348-7.051 9.557-.62 21.944q-1.27 2.296-1.055 3.582.215 1.285 2.28 3.736l-.605 42.05q-2.34.974-3.074 2.084-.733 1.11-.48 3.297l3.226 3.076q8.85 2.78 15.916 3.37t10.376-1.175q7.109-1.547 9.68-4.036 2.571-2.49.222-5.548l-3.546 1.423v-38.755l2.013-9.522-1.383-6.214v-19.312l-6.115-9.557z"/>
<path fill="#385d88" d="M234.456 355.217h5v40h-5zM246.456 355.217h5v40h-5z"/>
<path fill="#92b6db" d="M239.862 315.117q0 7.745 3.297 7.745t3.297-7.745z"/>
<path fill="#000" d="M254.33 313.117a1 1 0 0 1 .812.418l.291.411q2.007 2.842 3.023 4.632.964 1.695 2.473 4.968a7 7 0 0 1 .641 2.925v17.614q.93-.16 1.215.273c.624.95.624 6.157 0 8.006-.146.432-.635.913-1.452 1.399v41.142c.935-.44 1.573-.67 1.92-.5 1.445.713 4.18 6.193.947 9.096s-12.486 5.415-20.134 5.415c-7.649 0-17.067-3.051-20.62-5.415s-1.917-9.096 1.521-9.096l.078.002.684-41.005c-.745-.433-1.191-.804-1.338-1.038-.636-1.015-1.278-7.31-.75-8.006q.235-.31 1.325-.155l.001-17.513a7 7 0 0 1 .827-3.3q1.989-3.71 3.271-5.585 1.448-2.114 3.702-4.392a1 1 0 0 1 .71-.296zm-29.363 86.769c0 2.381 12.07 4.876 18.617 5.066s16.716-4.411 16.622-5.066-9.094 2.857-16.937 2.857-18.302-5.24-18.302-2.857m9.35-43.653v.441q-.333 1.194-.333 1.81 0 .615.334.639v14.358q-.334.73-.334 1.236t.334 1.145q-.696 9.675-.696 18.487 0 1.93.033 3.23c2.349.74 5.398 1.386 9.56 1.638 3.506.212 6.54-.162 9.118-.782v-20.341q.258-1.012.259-1.52 0-.506-.26-1.52v-13.946q.26-.579.26-.868t-.26-.801v-3.055c-2.583.374-5.615.605-9.063.605-3.458 0-6.441-.302-8.952-.756m21.015-.385v31.02q-.494.146-.494.782t.494 1.87l-.414 8.171c.937-.313 1.796-.649 2.577-.982q-.119-3.171-.163-9.492-.022-3.177-.025-7.124v-2.717q.003-4.205.025-9.18.206-.538.206-.94 0-.4-.206-1.194l.001-10.71q-.927.263-2 .496m-25.674 2.35q-.12 17.631-.44 27.645-.252 7.89-.587 9.694c.583.27 1.222.574 1.944.887l-.018.327q.745-12.861.9-19.277.071-3.006.076-7.187v-1.136a825 825 0 0 0-.077-9.847zm20.174 35.019a.5.5 0 1 1 0 1 .5.5 0 0 1 0-1m-.5-3a1 1 0 1 1 0 2 1 1 0 0 1 0-2m-9-5a1 1 0 1 1 0 2 1 1 0 0 1 0-2m5.5-5a.5.5 0 1 1 0 1 .5.5 0 0 1 0-1m2-3a.5.5 0 1 1 0 1 .5.5 0 0 1 0-1m-8.5-1a1 1 0 1 1 0 2 1 1 0 0 1 0-2m9-6a1 1 0 1 1 0 2 1 1 0 0 1 0-2m-8.5 1a.5.5 0 1 1 0 1 .5.5 0 0 1 0-1m7-5a.5.5 0 1 1 0 1 .5.5 0 0 1 0-1m.5-5a1 1 0 1 1 0 2 1 1 0 0 1 0-2m-8 0a1 1 0 1 1 0 2 1 1 0 0 1 0-2M227 348.286c0 .74 4.808 4.88 17.296 4.88s15.135-4.413 15.135-4.88-4.56 3.042-15.135 3.042S227 347.545 227 348.286m1.408-19.327-.002 16.154q.282.093.58.195 9.125 2.25 14.228 2.25 3.435 0 9.157-1.02.377-6.7.377-9.813 0-2.93-.333-6.638-1.015.177-1.961.324.025.726-.12 1.162c-.082.244-.19.409-.306.494.117.199.224.582.305 1.15.25 1.75.25 5.25 0 7s-.743 1.795-1 0c-.256-1.795-.25-5.25 0-7 .081-.568.189-.951.306-1.15-.117-.085-.224-.25-.306-.494q-.126-.38-.125-.978-3.486.48-5.993.481-3.162 0-7.881-.767v12.173q-.749 5.734-.998 1.735c-.097-1.542-.3-3.9-.285-7q.01-2.078.24-7.082-1.374-.24-2.87-.54.29 4.766.308 6.95c.022 2.527-.185 5.288-.272 6.672q-.257 4.12-1.124-2v-11.844q-.94-.195-1.925-.414m27.924.365q-.505.107-1 .206l.002 2.714v.466l.001 3.715v8.675l-.002.872q.492-.1.998-.205zm2.124-.461-1.087.24q.208 5.317.208 8.614 0 3.322-.211 7.83l1.09-.239zm-15.123 13.354a1 1 0 1 1 0 2 1 1 0 0 1 0-2m3-7a1 1 0 1 1 0 2 1 1 0 0 1 0-2m12.123-9.824q-9.87 1.683-15.24 1.683-5.254 0-14.808-1.61v1.706q9.76 1.82 14.862 1.819 5.21 0 15.186-1.898zm-5.604-9.09h-18.66a1 1 0 0 0-.728.32q-1.447 1.562-2.39 3.086-.92 1.485-2.299 4.45 1.425.202 2.75.37.723-2.585 1.347-3.795c.704-1.367 2.54-3.612 2.461-2.729-.034.39-.82 1.57-1.656 3.643q-.358.887-.988 3.027.828.103 1.614.19.954-2.602 1.627-3.81c.753-1.35 1.89-3.035 1.986-2.708s-1.14 2.885-1.583 4.089a49 49 0 0 0-.847 2.558q4.728.497 7.784.497 3.073 0 7.803-.502-.697-2.39-1.081-3.341c-.836-2.072-1.622-3.252-1.656-3.643-.078-.883 1.758 1.362 2.461 2.73q.663 1.286 1.44 4.125.842-.095 1.736-.206-.625-2.123-.981-3.006c-.836-2.072-1.622-3.252-1.656-3.643-.078-.883 1.758 1.362 2.461 2.73q.62 1.203 1.342 3.77 1.394-.181 2.902-.397-1.443-2.934-2.31-4.399-.882-1.488-2.09-3.024a1 1 0 0 0-.789-.382"/>
<path fill="#92b6db" d="m227.834 312.19 6.243 10.104.377 6.782h16.79l.755-6.782 6.335-10.104h20.5l5.596 9.715v20.969l1.902 1.343v4.461l-2.012 2.576v44.454l3.933-.957v8.207l8.087 1.756 1.29 5.21 7.767-1.046q1.068.417 1.288 1.766t0 6.135q10.3.41 16.228 1.576t7.715 3.135v8.867l-21.919-1.996-30.953 3.803-36.424 1.942-36.52-1.75-19.48-1.885h-26.728v-10.254l3.397-1.862 15.788-1.576.575-8.423 7.929.522.928-2.718 4.028-3.202 7.083-.785q-1.48-4.135-1.109-5.624.371-1.49 3.776-3.048v-43.284q-1.945-2.598-2.032-4.027t1.516-3.316l.516-20.58 6.335-10.104zm23.419 28.027h-15.92q.627 5.537.237 7.657t-2.25 3.293v43.584q2.748.235 3.469.957.72.721.464 2.98l10.629-.09q.535-2.979 1.33-3.847t2.895-.766l.612-43.697-2.752-2.414v-4.025l1.286-1.632z"/>
<path fill="#678bb5" d="m279.66 312.68 5.532 9.225v20.969l1.378 2.343-.742 4-1.398 1.95v44.541l-6.234 2.124-3.365.766-.001-41.351q-5.674.325-8.498.22-3.744-.14-8.756-1.27l-.27-3.879 17.525.69.001-22.384q-2.372.867-6.938.867-5.933 0-8.203-1.464v17.015q-2.166-.692-2.737 1.212-.57 1.904.353 6.735v42.36l-4.975-2.132.003-68.946-.336-.054v-3.584l6.335-9.952 6.05.477q-2.497 4.214-3.386 6.172a18.3 18.3 0 0 0-1.307 4.16l.002 3.85q4.712.877 7.64.877 2.678 0 7.498-.735v-3.455q-.63-2.805-1.499-4.996t-3.51-6.35zm-43.662 22.537 16 .081v5.24h-16zm-8.164-7.734q1.26-.006.082-3.731l-.084-.261q-1.303-3.985-5.5-10.81h6.003q3.032 4.685 4.225 7.217 1.194 2.532.87 3.593l.62 18.55q1.52 2.16 1.52 3.664t-1.52 4.512l-.62 46-1.089.289q2.334-.57 4.912-1.29.12 4.029-4.903 6.957-5.02 2.928-14.018 4.075-14.75-1.793-18.623-3.983t-.877-7.048q12.445 3.471 19.21 3.471 3.771 0 9.305-1.078l.487-40.296-.001-.304-.345.03q-8.892.742-13.156.586-4.02-.15-7.102-1.215l-.867 27.306-.633 11.991-4.731-.957 1.446-43.561q-2.422-2.66-2.695-3.973-.272-1.314 1.249-3v-22.312l7.077-9.224h6.786q-2.534 3.525-3.537 5.405t-1.99 5.405l.356 23.55-2.015 5.277h20.157v-21.642l-.508.039q-6.546.489-9.55.361-3.12-.134-8.084-1.172v-2.421l18.141-.407v2.828zm-40.256 87.988q36.117 5.121 54.47 5.246 18.352.125 55.276-4.5l.953-1.514 8.178-.486v10h23.34v5.768l-26.583-1.624-21.258 3.635-48.634 1.475-61.538-3v-13.164l5.366-.09v-1.746"/>
<path fill="#385d88" d="m279.311 312.68 5.88 9.225v20.969q1.29 2.475 1.141 4.168t-2.012 5.763l.012 43.38-3.314.89a202 202 0 0 0 6.314-1.367v4.043q-10.586 5.273-20 5.36a35.4 35.4 0 0 1-9.296-1.171l1.282.692q-10.31 1.601-15.734 1.616-5.423.014-16.24-1.534l10.421-6.026h10.42q-.196-1.623.26-2.471.641-1.189 2.887-1.466 10.338 3.776 16.397 3.937 3.778.1 10.468-1.083l.137-45.48.5-5.083.477-23.92q.137-1.456-1.115-3.853t-4.414-6.588zm-54.344 0 3.368.437 5.095 8.781.13 4.05.188-.038v3.335l-.083.02.384 11.952q1.215 3.538 1.28 5.326l.003.193q0 1.785-1.283 3.942l.642 43.67-1.263.37.002.499-3.827 1.567a98 98 0 0 1 4.715-.567q1.192-.113 2.935 1.048-5.275 5.92-14.11 7.449-8.836 1.527-18.81-1.756l2.256-6.241q4.455 1.872 9.998 1.971c2.226.04 5.991-.792 10.77-1.56l.978-44.81 4.448-1.61v-1.491l-1.829-4V329.95l-2.868.725.249-3.685 2.618-.524.001-.25-.622-3.584q-.08-.99-1.38-3.405-1.302-2.413-3.985-6.547m33.61-.49 2.148.927q-2.447 2.985-3.77 5.189a26 26 0 0 0-2.231 4.794l-.298 3.117v18.852l-.592 4.842 4.295 7.078-.822 26.228v12.491l-5.476-1.491.888-30v-11.899q-1.924-3.304-2.199-5.506-.276-2.202 1.31-4.77V323.1l3.502-7.295zm-99.973 118.28 26.728-1.253 1.907-5.373v-3.627h-8.783v5.254l-19.852 2.263zm169.635-1-28.002-1.253-1.998-5.373v-3.627h8.262v5.127l21.738 2.39zm-129.283-5.253a6.5 6.5 0 1 0 0-13 6.5 6.5 0 0 0 0 13m22 3a6.5 6.5 0 1 0 0-13 6.5 6.5 0 0 0 0 13m21 1a6.5 6.5 0 1 0 0-13 6.5 6.5 0 0 0 0 13m22-1a6.5 6.5 0 1 0 0-13 6.5 6.5 0 0 0 0 13m21-3a6.5 6.5 0 1 0 0-13 6.5 6.5 0 0 0 0 13"/>
<path fill="#e8f3fc" d="M187.578 406.248q-.283-1.07 2.365-2.12 2.648-1.048 5.39 0l56.123 3.332 44.947-2.502.921 2.82q-35.754 2.939-54.055 2.939t-55.691-4.47m27.284-93.131q0 7.745 3.297 7.745t3.297-7.745zm49 0q0 7.745 3.297 7.745t3.297-7.745zm-45.406 15.1c2.209 0 4-.896 4-2s-1.791-2-4-2-4 .895-4 2 1.79 2 4 2m49 0c2.209 0 4-.896 4-2s-1.791-2-4-2-4 .895-4 2 1.79 2 4 2m-49 24c2.209 0 4-.896 4-2s-1.791-2-4-2-4 .895-4 2 1.79 2 4 2m49 0c2.209 0 4-.896 4-2s-1.791-2-4-2-4 .895-4 2 1.79 2 4 2m-89 57h8v3h-8Zm119 0h8v3h-8Zm-102.712 10.332q-.945-4.728 1.757-5.95t5.944 1.618q-2.82.9-4.113 1.627-1.29.727-3.588 2.705m22.971 4q-.834-4.728 1.548-5.95 2.38-1.223 5.236 1.618-2.485.9-3.623 1.627t-3.16 2.705m27.765-2.332q-.864-4-4.114-3.91t-4.113 3.91q2.71-1 4.113-1 1.402 0 4.114 1m21.513-3q-2.661-2.597-5.04-1.502t-2.635 5.002q2.447-1.823 3.837-2.456t3.838-1.044m21-3q-2.661-2.597-5.04-1.502t-2.635 5.002q2.447-1.823 3.837-2.456t3.838-1.044"/>
<path fill="#000" d="M228.33 311.117a1 1 0 0 1 .812.418l.291.411q2.007 2.842 3.023 4.632.963 1.695 2.473 4.968a7 7 0 0 1 .641 2.925v3.746h14.396l.001-3.527a7 7 0 0 1 .827-3.3q1.988-3.71 3.272-5.585 1.447-2.114 3.701-4.392a1 1 0 0 1 .71-.296h20.852a1 1 0 0 1 .813.418l.291.411q2.007 2.842 3.023 4.632.964 1.695 2.473 4.968a7 7 0 0 1 .641 2.925l.001 17.614q.93-.16 1.214.273c.624.95.624 6.157 0 8.006-.146.432-.635.913-1.452 1.399v41.142c.935-.44 1.573-.67 1.92-.5 1.26.621 3.5 4.867 1.911 7.868q7.34.855 7.881 2.685c.086.291.194 1.085.308 2.231l1.67 1.727q6.262-.634 7.11 0c.53.396.67 1.474.737 2.623l.024.462c.025.54.043 1.078.087 1.551q.153 1.623 0 4.416 1.783.052 3.34.115.134-.612.268-.612.135 0 .272.634l.217.009q5.624.24 8.109.61c7.008 1.045 10.685 2.717 11.2 3.17 1.137 1.003 1.137 11.294 0 12.102-.668.475-5.02-.15-9.643-.745l-.75-.096c-3.012-.382-6.059-.727-8.21-.727q-5.626 0-14.706 1.557a.1.1 0 0 1-.033.022c-1.39.707-15.357 2.079-30.402 2.997l-1.435.086q-.72.043-1.44.083l-1.443.08c-7.453.405-14.901.674-20.976.674-5.29 0-11.697-.179-18.256-.469l-1.46-.066q-1.298-.06-2.597-.126l-1.556-.08-.972-.052-.485-.027-.968-.054c-14.979-.847-28.695-2.135-29.5-3.046l-.008-.01h-15.89c-.79 0-1.602.015-2.415.04l-.698.024-.696.027-.692.03c-4.252.19-8.138.476-8.979-.122-1.137-.808-1.137-11.099 0-12.101.515-.454.191-2.126 7.2-3.17q3.042-.454 10.786-.712.213-1.542.426-1.542.21 0 .42 1.513l.573-.016q-.152-2.793 0-4.416c.152-1.622 0-4.002.848-4.636q.847-.634 7.11 0l1.586-1.638c.126-.43.27-.742.43-.912 1.2-1.277 1.68-1.47 2.36-1.61l.235-.046c.41-.079.912-.177 1.666-.471q1.968-.77 5.53-1.81c-2.016-2.873-.387-8.024 2.62-8.024l.077.002.685-41.006c-.745-.432-1.191-.803-1.338-1.037-.636-1.015-1.278-7.31-.75-8.006q.235-.31 1.324-.155l.002-17.513a7 7 0 0 1 .827-3.3l.233-.43q1.83-3.39 3.039-5.155 1.447-2.114 3.701-4.392a1 1 0 0 1 .71-.296zm-37.327 93.597q-1.909.635-2.633 3.798l.766.263v16.312l-1.283 1.13c.205 1.385.543 2.38 1.069 2.725.828.543 7.097 1.17 15.445 1.714.277-3.856 1.245-7.185 1.453-7.185q.356 0 .712 7.32 1.3.081 2.651.156.319-5.476.637-5.476.32 0 .64 5.546 1.368.075 2.77.146.295-4.692.59-4.692.296 0 .592 4.75c1.62.08 3.263.154 4.914.223l1.373.057 1.373.054 2.13.078q.309-5.162.618-5.162.31 0 .62 5.203l.738.027c5.67.185 11.143.295 15.714.295 6.033 0 13.911-.366 21.808-.886l1.436-.096.475-.032.95-.067.95-.067.945-.069.943-.07c13.951-1.041 26.55-2.412 27.35-2.902.299-.183.466-1.231.536-2.77q-1.474-3.045-1.978-6.89-.567-4.325 0-10.37l.888-.001c-.081-.419-.16-.716-.235-.86-.216-.42-15.782.993-33.039 1.829l-1.115.053-1.68.076-1.124.048-1.462.06q-1.098.045-2.195.083l-1.462.05c-3.895.125-7.756.202-11.432.202q-26.619 0-51.448-4.603m37.83 18.503c.276 0 .5 1.343.5 3s-.224 3-.5 3c-.277 0-.5-1.343-.5-3s.223-3 .5-3m82.112-4.214-.013.001c-1.621.02-2.85.124-3.084.35-.577.558-.577 6.36 0 7.473.368.709 2.868.84 5.546.892l.576.01c1.347.023 2.703.035 3.824.098.82.047 1.743.127 2.686.212l1.136.101c2.743.24 5.375.416 5.866-.2.728-.913.728-5.97 0-6.565-.728-.594-5.118-1.644-8.782-2.02a70 70 0 0 0-3.684-.265q.286 1.47.573 4.906h-2q.29-3.48.58-4.942l-.585-.02a74 74 0 0 0-1.352-.029q.18 1.955.357 4.991h-2q.177-3.038.356-4.993m-137.667-.002h-.31q.31 1.646.62 5.995h-2q.31-4.34.62-5.99l.52-.004c-2.24.012-4.953.155-6.865.352a16 16 0 0 0-1.792.277q.259 1.746.518 5.365h-2q.237-3.333.476-5.079c-1.025.372-1.409.821-1.802 1.186l-.12.108-.062.051c-.728.594-.728 5.652 0 6.565s2.164.2 5.689 0c1.12-.063 2.477-.075 3.824-.097l.575-.01c2.678-.054 5.178-.184 5.546-.893.578-1.113.578-6.915 0-7.473-.062-.06-.192-.11-.38-.154q.125 1.62.254 3.796h-2q.133-2.284.268-3.957a37 37 0 0 0-1.579-.038m68.554-2.784a5.5 5.5 0 1 1 0 11 5.5 5.5 0 0 1 0-11m-21-1a5.5 5.5 0 1 1 0 11 5.5 5.5 0 0 1 0-11m43 0a5.5 5.5 0 1 1 0 11 5.5 5.5 0 0 1 0-11m-22.5 3a3 3 0 1 0 0 6 3 3 0 0 0 0-6m-20 0a3 3 0 1 0 0 6 3 3 0 0 0 0-6m77.732-6.923-.252.06c.222 3.841.386 8.365.356 12.202l.003-.02q4.635 0 5.407-.706c.743-.68.89-2.959.9-5.248v-1.041c-.01-2.283-.093-5.063-.9-5.708q-.813-.65-5.514.461m-119.078-.461c-.808.645-.891 3.425-.9 5.708v1.041c.01 2.29.157 4.569.9 5.248q.744.68 5.069.705h.25v-10.35c-.067 1.764-.254 3.032-.473 3.032-.276 0-.5-2.015-.5-4.5q0-.348.006-.683-3.644-.767-4.352-.201m18.846 1.384a5.5 5.5 0 1 1 0 11 5.5 5.5 0 0 1 0-11m64.5 5a3 3 0 1 0 0 6 3 3 0 0 0 0-6m21.5-5a5.5 5.5 0 1 1 0 11 5.5 5.5 0 0 1 0-11m-86.5 2a3 3 0 1 0 0 6 3 3 0 0 0 0-6m86 0a3 3 0 1 0 0 6 3 3 0 0 0 0-6m-45.086-14.106a4.4 4.4 0 0 1-1.046 1.39c-1.08.97-2.832 1.897-4.972 2.7q5.704.513 9.121.513 4.224 0 11.257-.783c-2.176-.795-3.988-1.65-5.16-2.43a4.2 4.2 0 0 1-1.301-1.39zm10.721-2.225c0 2.381 12.07 4.876 18.617 5.066s16.716-4.411 16.622-5.066c-.093-.656-9.094 2.857-16.937 2.857s-18.302-5.24-18.302-2.857m-51 0c0 2.381 12.07 4.876 18.617 5.066s16.716-4.411 16.622-5.066c-.093-.656-9.094 2.857-16.937 2.857s-18.302-5.24-18.302-2.857m9.35-43.653v.441q-.333 1.194-.333 1.81 0 .615.334.639v14.358q-.334.73-.334 1.236t.334 1.145q-.696 9.675-.696 18.487 0 1.93.034 3.23c2.349.74 5.398 1.386 9.558 1.638 3.508.212 6.543-.162 9.12-.782l-.002-20.341q.26-1.012.26-1.52 0-.506-.26-1.52v-13.946q.26-.579.26-.868t-.26-.801v-3.055c-2.583.374-5.615.605-9.063.605-3.457 0-6.441-.302-8.952-.756m51 0v.441q-.333 1.194-.333 1.81 0 .615.334.639v14.358q-.334.73-.334 1.236t.334 1.145q-.696 9.675-.696 18.487 0 1.93.034 3.23c2.348.74 5.397 1.386 9.558 1.638 3.507.212 6.542-.162 9.119-.782v-20.341q.259-1.012.259-1.52 0-.506-.26-1.52v-13.946q.26-.579.26-.868t-.26-.801v-3.055c-2.583.374-5.615.605-9.063.605-3.457 0-6.441-.302-8.952-.756m-23.748-13.37v1.222q.93-.161 1.216.273c.624.95.624 6.157 0 8.006-.146.431-.635.913-1.451 1.398v41.142c.935-.439 1.572-.67 1.919-.499.869.429 2.204 2.58 2.428 4.86h6.775c.04-2.445 1.452-4.86 3.511-4.86l.078.002.684-41.005c-.745-.433-1.191-.804-1.338-1.038-.636-1.015-1.278-7.31-.75-8.006q.235-.31 1.325-.155v-.986h-13.634a1 1 0 0 1-.763-.354m46.764 12.49q-.926.262-2 .495v31.02q-.495.146-.495.782t.494 1.87l-.414 8.171c.937-.313 1.796-.649 2.577-.982q-.119-3.171-.163-9.492-.022-3.177-.025-7.124v-2.717q.003-4.205.025-9.18.206-.538.206-.94 0-.4-.206-1.194zm-50.999 0q-.926.262-2 .495l-.002 31.02q-.494.146-.494.782t.494 1.87l-.413 8.171a35 35 0 0 0 2.576-.982q-.119-3.17-.163-9.492a1167 1167 0 0 1-.025-7.124v-2.717q.003-4.205.025-9.18.206-.538.206-.94 0-.4-.206-1.194zm23.324 2.845q-.12 17.631-.44 27.645-.252 7.89-.587 9.694c.467.216.969.454 1.52.7l.424.187.024-.403q.707-12.315.857-18.547.072-3.006.077-7.187v-1.136a825 825 0 0 0-.077-9.847zm-51 0q-.12 17.631-.44 27.645-.252 7.89-.587 9.694c.466.216.968.454 1.52.7l.424.187.024-.403q.708-12.315.857-18.547.072-3.006.077-7.187v-1.136a825 825 0 0 0-.077-9.847zm19.674 34.019a1 1 0 1 1 0 2 1 1 0 0 1 0-2m-8 0a1 1 0 1 1 0 2 1 1 0 0 1 0-2m59.5 1a.5.5 0 1 1 0 1 .5.5 0 0 1 0-1m-.5-3a1 1 0 1 1 0 2 1 1 0 0 1 0-2m-58.5-2a.5.5 0 1 1 0 1 .5.5 0 0 1 0-1m49.5-3a1 1 0 1 1 0 2 1 1 0 0 1 0-2m-51-2a1 1 0 1 1 0 2 1 1 0 0 1 0-2m8.5 0a.5.5 0 1 1 0 1 .5.5 0 0 1 0-1m48-3a.5.5 0 1 1 0 1 .5.5 0 0 1 0-1m-47.5-3a1 1 0 1 1 0 2 1 1 0 0 1 0-2m41-1a1 1 0 1 1 0 2 1 1 0 0 1 0-2m8.5 1a.5.5 0 1 1 0 1 .5.5 0 0 1 0-1m-58 0a.5.5 0 1 1 0 1 .5.5 0 0 1 0-1m2-3a.5.5 0 1 1 0 1 .5.5 0 0 1 0-1m56.5-4a1 1 0 1 1 0 2 1 1 0 0 1 0-2m-8.5 1a.5.5 0 1 1 0 1 .5.5 0 0 1 0-1m-42.5-3a1 1 0 1 1 0 2 1 1 0 0 1 0-2m49.5-2a.5.5 0 1 1 0 1 .5.5 0 0 1 0-1m-58.5-3a1 1 0 1 1 0 2 1 1 0 0 1 0-2m59-2a1 1 0 1 1 0 2 1 1 0 0 1 0-2m-8 0a1 1 0 1 1 0 2 1 1 0 0 1 0-2m-51.5 0a.5.5 0 1 1 0 1 .5.5 0 0 1 0-1M252 346.286c0 .74 4.808 4.88 17.296 4.88s15.135-4.413 15.135-4.88-4.56 3.042-15.135 3.042S252 345.545 252 346.286m-51 0c0 .74 4.808 4.88 17.296 4.88s15.135-4.413 15.135-4.88-4.56 3.042-15.135 3.042S201 345.545 201 346.286m1.409-19.327-.002 16.155q.282.092.58.194 9.124 2.25 14.227 2.25 3.435 0 9.157-1.02.377-6.7.377-9.813 0-2.93-.333-6.638-1.015.177-1.961.324.025.726-.12 1.162c-.082.243-.189.408-.305.493.116.198.223.582.304 1.15.25 1.75.25 5.25 0 7s-.743 1.796-1 0c-.256-1.794-.25-5.25 0-7 .082-.568.19-.952.306-1.15-.117-.085-.225-.25-.306-.493q-.126-.38-.125-.978-3.486.48-5.993.481-2.82 0-6.882-.61v12.016q-.747 5.734-.997 1.735c-.096-1.542-.3-3.9-.285-7q.01-2.043.232-6.915a112 112 0 0 1-3.863-.707q.29 4.766.31 6.95c.02 2.527-.186 5.288-.273 6.672q-.257 4.12-1.124-2l.001-11.843a156 156 0 0 1-1.925-.415m50.999 0-.002 16.154q.282.093.581.195 9.124 2.25 14.227 2.25 3.436 0 9.157-1.02.377-6.7.377-9.813 0-2.93-.333-6.638-1.015.177-1.961.324.025.726-.12 1.162c-.082.244-.19.409-.306.494.117.199.224.582.305 1.15.25 1.75.25 5.25 0 7s-.743 1.795-1 0c-.256-1.795-.25-5.25 0-7 .082-.568.189-.951.306-1.15-.117-.085-.224-.25-.306-.494q-.126-.38-.125-.978-3.486.48-5.993.481-3.162 0-7.881-.767v12.173q-.748 5.734-.998 1.735c-.096-1.542-.3-3.9-.285-7q.01-2.078.24-7.082-1.374-.24-2.87-.54.29 4.766.308 6.95c.022 2.527-.185 5.288-.272 6.672q-.257 4.12-1.124-2v-11.844q-.94-.195-1.925-.414m27.924.365q-.505.107-1 .206l.002 2.714v.466l.001 3.715v8.675l-.001.872q.491-.1.998-.205zm-50.999 0q-.507.106-1 .207l.001 1.747v.488l.001 3.116v10.909l-.002.181q.493-.1 1-.205zm53.123-.461-1.087.24q.208 5.317.208 8.614 0 3.322-.211 7.83.537-.116 1.09-.239zm-51 0q-.55.123-1.088.24.21 5.317.21 8.614 0 3.322-.212 7.83l1.09-.239zm35.877 13.354a1 1 0 1 1 0 2 1 1 0 0 1 0-2m-51 0a1 1 0 1 1 0 2 1 1 0 0 1 0-2m32.634-10h-12.634v9h12.633zm-36.634 7a1 1 0 1 1 0 2 1 1 0 0 1 0-2m58-4a1 1 0 1 1 0 2 1 1 0 0 1 0-2m12.123-9.824q-9.87 1.683-15.24 1.683-5.255 0-14.808-1.61v1.706q9.76 1.82 14.862 1.819 5.21 0 15.186-1.898zm-51 0q-9.87 1.683-15.24 1.683-5.254 0-14.808-1.61v1.707q9.761 1.818 14.862 1.818 5.21 0 15.186-1.898zm-5.604-9.09h-18.66a1 1 0 0 0-.728.32q-1.447 1.562-2.39 3.086-.92 1.485-2.299 4.45 1.425.202 2.75.37.723-2.585 1.347-3.795c.704-1.367 2.54-3.612 2.461-2.729-.034.39-.82 1.57-1.656 3.643q-.357.887-.988 3.027.828.103 1.615.19.952-2.602 1.626-3.81c.753-1.35 1.89-3.035 1.986-2.708.059.201-.386 1.247-.84 2.303l-.17.394a32 32 0 0 0-.573 1.392 49 49 0 0 0-.846 2.557q4.727.498 7.783.498 3.68 0 9.739-.72-.651-2.216-1.017-3.123c-.836-2.072-1.622-3.252-1.656-3.643-.078-.883 1.758 1.362 2.462 2.73q.634 1.233 1.375 3.892a213 213 0 0 0 3.868-.52q-1.443-2.932-2.31-4.398-.882-1.488-2.09-3.024a1 1 0 0 0-.789-.382m51 0h-18.66a1 1 0 0 0-.728.32q-1.447 1.562-2.39 3.086-.92 1.485-2.299 4.45 1.426.202 2.75.37.723-2.585 1.347-3.795c.704-1.367 2.54-3.612 2.461-2.729-.034.39-.82 1.57-1.656 3.643q-.357.887-.988 3.027.828.103 1.614.19.954-2.602 1.627-3.81c.753-1.35 1.89-3.035 1.986-2.708.059.201-.386 1.247-.84 2.303l-.17.394a32 32 0 0 0-.573 1.392 49 49 0 0 0-.847 2.558q4.728.497 7.784.497 3.073 0 7.803-.502-.697-2.39-1.081-3.341c-.836-2.072-1.622-3.252-1.656-3.643-.078-.883 1.758 1.362 2.462 2.73q.661 1.286 1.44 4.125.842-.095 1.735-.206-.625-2.123-.981-3.006c-.836-2.072-1.622-3.252-1.656-3.643-.078-.883 1.758 1.362 2.462 2.73q.62 1.203 1.34 3.77 1.395-.181 2.903-.397-1.443-2.934-2.31-4.399-.882-1.488-2.09-3.024a1 1 0 0 0-.789-.382"/>
<path fill="#92b6db" d="M183.335 239.882h119.752l.525 11.632v3.608l-22.385 2.095v21.727q-15.803 2.828-35.348 2.828t-37.652-2.828l-.658-21.02-24.234-2.802z"/>
<path fill="#678bb5" d="M197.522 257.217v-7.703q31.855-1.308 47.754-1.37 15.9-.06 44.95 1.012v6.453l13.386-.487v-4.84l-.99-11.15-44.083.374-53.312-.375-21.892.75-.51 15.24zm83.705 1.707.05 9.646.055.354h-.053l.053 10.097-5.206.797v-10.895h-61.943l-.057 11.737-4.9-1.411v-10.326l-1 .001v-10z"/>
<path fill="#385d88" d="M208.227 264.658q15.411-2.235 36.673-2.312 21.263-.078 36.432 2.5l-1.105-5.773-35.327-1.149-36.673 1.149zm-23.67-18.276q39.73-2.868 59.556-2.868t57.98 2.868v-6.5H184.558z"/>
<path fill="#000" d="m327.885 237.217-23.408 1.668q.885 15.618 0 17.566c-.518 1.14-7.117 1.843-21.009 2.231q.212 8.753.219 13.787v.626q-.007 5.191-.257 6.026c-.513 1.719-6.036 2.434-7.321 2.609-14.29 1.937-25.242 1.929-35.913 1.817l-1.522-.017c-2.79-.03-5.57-.063-8.396-.063q-22.65 0-24.553-4.346l-1.3-20.422c-15.218-.407-22.064-1.15-22.445-2.248q-.615-1.776 0-17.566l-20.648-1.668zm-77.126 22.707h-.399c-4.293.006-9.865.11-15.466.266l-1.575.046-1.048.031-1.738.055q-.234 15.973-.494 15.973-.264 0-.5-16.371l.006.43c-1.586.054-3.14.111-4.634.17q-.888 17.4-1.872 17.4-.98 0-1.865-17.243-1.066.048-2.055.096-.471 13.518-.993 13.518-.519 0-.99-13.415c-.699.039-1.354.077-1.957.115q-.498 15.3-1.053 15.3-.552 0-1.048-15.15c-1.321.106-2.126.208-2.245.3-.357.272-.551 3.936-.564 7.713v.756l.004.642c.03 3.416.211 6.59.56 7.051.685.907 14.547 1.93 29.308 2.162l1.512.02q1.264.015 2.527.023l1.01.004.504.001h1.008c16.584-.027 31.122-1.409 31.826-2.21.344-.391.521-4.048.533-7.786v-.774l-.004-.604c-.027-3.509-.204-6.74-.529-6.998-.118-.094-.602-.2-1.386-.308q-.483 14.157-1.016 14.158-.538 0-1.023-14.39c-1.02-.098-2.236-.197-3.604-.292q-.22 13.682-.46 13.682-.243 0-.46-13.743a237 237 0 0 0-3.096-.182q-.213 8.554-.444 8.554-.234 0-.445-8.599a312 312 0 0 0-3.06-.137q-.234 16.107-.495 16.107-.264 0-.5-16.371l.003.226q-1.486-.056-3.03-.098-.224 9.872-.473 9.872-.25 0-.476-9.897l-.36-.01q-.864-.02-1.736-.037l-.874-.016q-.657-.01-1.316-.018l-.88-.01q-1.32-.012-2.638-.012m-15.326 13.83c.182.545.182 1.634 0 2.178-.181.545-.54.559-.726 0-.186-.558-.181-1.633 0-2.178.182-.544.545-.544.726 0m6.085-.801a1.146 1.146 0 0 1-1.894 0c-.473-.667 2.367-.667 1.894 0m-5.357-9.295c.544 1.75.544 5.25 0 7-.545 1.75-1.62 1.795-2.178 0-.559-1.794-.545-5.25 0-7 .544-1.75 1.633-1.75 2.178 0m17.098 1c.276 0 .5.448.5 1 0 .553-.224 1-.5 1s-.5-.447-.5-1 .224-1 .5-1m-12.826-.904c.182.545.182 1.634 0 2.178-.181.545-.54.559-.726 0-.186-.558-.181-1.633 0-2.178.182-.544.545-.544.726 0m4.8-2.537q.2 1.606 0 2.356c-.2.75-.6.75-.8 0q-.201-.75 0-2.356zm-1.11-19.335h-.94q-2.075 0-4.1.01-.394 8.538-.897 8.537-.502 0-.84-8.526-1.628.009-3.22.027-.41 11.5-.94 11.5t-.875-11.478c-3.197.04-6.279.097-9.228.167q-.395 10.31-.897 10.31-.501 0-.837-10.266-1.131.028-2.234.06-.405 11.206-.929 11.206-.522 0-.865-11.152-1.622.05-3.176.105-.416 12.048-.959 12.047-.54 0-.89-11.978-1.097.04-2.155.085-.417 11.894-.955 11.893-.537 0-.885-11.815-1.127.05-2.204.101-.4 10.714-.911 10.714-.51 0-.849-10.627l-1.696.088q-.513 10.54-1.172 10.54-.653 0-1.09-10.411-.829.047-1.611.097-.37 8.77-.815 11.762c10.163 1.018 25.933 1.956 46.039 1.37q35.422-1.032 58.944-3.205.303-1.135 0-1.272c-.304-.137-2.821 0-2.821-1.275s1.146-5.465 0-6.203c-.233-.15-1.42-.338-3.428-.543q-.531 8.68-1.218 8.68-.694 0-1.144-8.896c-.967-.082-2.046-.164-3.229-.247q-.4 6.595-.91 6.595-.514 0-.856-6.712-1.982-.129-4.274-.253-.384 5.965-.87 5.965-.49 0-.82-6.053-1.063-.055-2.181-.108-.431 8.16-.999 8.16-.57 0-.928-8.246a577 577 0 0 0-3.116-.13q-.417 7.377-.956 7.377-.543 0-.892-7.447c-8.62-.316-18.924-.54-30.17-.553m-47.849 1.398-.453.032q-.596.042-1.156.085-.492 10.385-1.117 10.994 1.58.192 3.433.386-.409-3.007-.707-11.497m-3.913.302-.193.016q-.766.067-1.428.132-.305 7.073-.665 10.207 1.452.208 3.298.433-.603-.735-1.012-10.788m-4.06.425h-.011c-.776.108-1.257.204-1.42.286q-1.353.68 0 7.478-3.379.732-1.823 1.272c.338.117 1.632.382 3.814.715q-.316-3.088-.56-9.75m56.975 4.507c.552 0 1 .672 1 1.5 0 .829-.448 1.5-1 1.5s-1-.671-1-1.5c0-.828.448-1.5 1-1.5m17-1a1 1 0 1 1 0 2 1 1 0 0 1 0-2m-19-3a1 1 0 1 1 0 2 1 1 0 0 1 0-2m10-1c.552 0 1 .672 1 1.5 0 .829-.448 1.5-1 1.5s-1-.671-1-1.5c0-.828.448-1.5 1-1.5"/>
<path fill="#e8f3fc" d="M202.828 236.043h70.819l23.518-.138 22.75-.556 13.015-.994v-1.886l-5.46-.442-53.243-.545H160.42q-4.525.664-4.674 1.366-.147.702 3.857 2.501z"/>
<path fill="#000" d="M325.103 230.854q9.79 0 9.79 2.624t-9.79 2.625l-22.902.665H158.444q-5.112 0-5.112-2.957t5.112-2.957zm-165.228 1.444q-11.1 1.877 37.692 2.947c12.133.266 24.422-.068 36.473 0q9.034.05 21.989.056h6.511q13.906-.005 31.731-.056 42.44-.735 37.12-1.833-5.319-1.096-171.516-1.114"/>
<path fill="#e8f3fc" d="m158.773 216.295 7.341 4.99q-6.252 1.196-9.45 2.787t-1.677 2.751l5.319 1.545 33.839.659H319.42l.326-4.534h6.813l-1.583-3.647q7.374-1.444 8.67-2.27t-2.911-1.406l-17.406-.47-26.091-.225-28.67-.355-23.656-.233-25.571-.33-17.381-.141-30.854-.272z"/>
<path fill="#7f7f7f" d="m197.166 226.254 41.706-1.762 62.704.881-1.694 3.654H197.166z"/>
<path fill="#000" d="M160.528 214.322q4.89.027 159.443 1.415 15.69.085 15.69 2.267t-9.466 3.199q2.54 3.555.646 4.213c-.213.074-2.36.2-6.007.367l-.007 5.07-137.348-.443c-9.164.276-15.031.444-15.616.444-3.129 0-10.95-.916-13.158-2.235s-1.556-3.91.563-5.288c2.12-1.377 9.274-1.03 9.466-2.128.192-1.1-7.398-3.268-8.262-4.771s2.044-2.11 3.918-2.11zm83.99 11.932q-17.597 0-43.428 1.42h96.423q-35.4-1.42-52.996-1.42m-71.956-9.959h-1.803c-5.507.006-8.485.063-9.262.071l-.085.001h-.063c-1.649 0 .626 1.243 2.749 2.603l.361.234c1.494.979 2.792 1.985 2.407 2.61-.373.604-2.614 1.127-4.9 1.63l-.404.088-.402.088-.178.04-.354.077c-3.044.677-5.511 1.338-2.793 2.141 5.105 1.508 9.316-1.952 56.799-2.724 20.284-.33 41.633-.33 66.583.654q3.052.12 7.704.127h.859q12.429-.009 35.602-.781-2.661-2.62-2.174-2.898c.488-.278 4.725-.606 6.993-1.187q2.268-.582 1.676-.814-121.173-1.597-147.75-1.887c-4.58-.05-8.42-.07-11.565-.073m25.738 2.743c3.518.004 7.914.023 12.307.063l1.317.012.811.008c9.051.095 17.482.276 17.482.569 0 .288-8.136.278-16.997.3l-.874.002-2.195.007-.877.004-.438.001-.874.005c-3.921.02-7.7.06-10.69.147-11.08.322-15.872 1.241-21.542 1.118-5.67-.122-4.334-1.134 0-1.584 4.254-.442 10.2-.645 20.929-.652z"/>
<path fill="#fff" d="M233.985 131.899c9.444 25.949-3.935 54.641-29.884 64.086s-54.641-3.935-64.086-29.884 3.935-54.641 29.884-64.086 54.641 3.935 64.086 29.884m-60.944 26.616c6.734 12.59 21.873 18.643 35.68 13.617l-2.85-7.83c-9.47 3.447-19.819-.404-24.885-8.679l19.185-6.983-2.85-7.83-19.185 6.982c-1.439-9.596 4.013-19.197 13.485-22.644l-2.85-7.831c-13.808 5.026-21.515 19.393-18.58 33.367l-8.108 2.951 2.85 7.83z"/>
<path fill="#fff" d="M279.61 164.286c23.353 8.5 49.176-3.541 57.676-26.895s-3.541-49.177-26.895-57.677-49.177 3.541-57.677 26.895 3.541 49.177 26.895 57.677m11.231-63.753a3.75 3.75 0 0 0-4.806 2.241l-5.13 14.096a3.75 3.75 0 0 0 2.24 4.806l17.62 6.413-2.565 7.048-21.143-7.696-2.565 7.048 10.571 3.848-2.565 7.047 7.048 2.566 2.565-7.048 7.048 2.565a3.75 3.75 0 0 0 4.806-2.241l5.13-14.096a3.75 3.75 0 0 0-2.24-4.806l-17.62-6.413 2.565-7.048 21.143 7.696 2.565-7.048-10.571-3.848 2.565-7.047-7.048-2.566-2.565 7.048z" opacity=".75"/>
<path fill="#fff" d="M215.674 83.738c19.462 7.084 40.981-2.95 48.064-22.412 7.084-19.462-2.95-40.981-22.412-48.064-19.462-7.084-40.981 2.95-48.064 22.412-7.084 19.462 2.95 40.981 22.412 48.064m3.477-18.688 14.682 5.344 2.138-5.873-14.683-5.344 3.207-8.81 8.81 3.207 2.137-5.873-8.81-3.206 2.672-7.342a4.688 4.688 0 0 1 8.81 3.207l-.534 1.468 5.873 2.138.534-1.469c2.066-5.676-.86-11.952-6.537-14.018s-11.953.86-14.019 6.537l-2.672 7.341-5.873-2.138-2.138 5.873 5.874 2.138-3.207 8.81-5.873-2.138-2.138 5.873z" opacity=".5"/>
</g>
</svg>