<svg xmlns="http://www.w3.org/2000/svg" viewBox="0 0 593 402">
<defs>

<filter id="intro-large-e" width="124.6%" height="154.3%" x="-12.3%" y="-27.2%" filterUnits="objectBoundingBox">
<feGaussianBlur in="SourceGraphic" stdDeviation="1.945"/>
</filter>
<filter id="intro-large-f" width="142%" height="127%" x="-21%" y="-13.5%" filterUnits="objectBoundingBox">
<feGaussianBlur in="SourceGraphic" stdDeviation=".973"/>
</filter>
<filter id="intro-large-g" width="103.3%" height="123.2%" x="-1.7%" y="-11.6%" filterUnits="objectBoundingBox">
<feGaussianBlur in="SourceGraphic" stdDeviation=".973"/>
</filter>
<filter id="intro-large-j" width="124.2%" height="137.9%" x="-12.1%" y="-18.9%" filterUnits="objectBoundingBox">
<feGaussianBlur in="SourceGraphic" stdDeviation="1.945"/>
</filter>
<filter id="intro-large-k" width="211.1%" height="128.8%" x="-55.6%" y="-14.4%" filterUnits="objectBoundingBox">
<feGaussianBlur in="SourceGraphic" stdDeviation=".973"/>
</filter>
<filter id="intro-large-l" width="128.8%" height="193.1%" x="-14.4%" y="-46.5%" filterUnits="objectBoundingBox">
<feGaussianBlur in="SourceGraphic" stdDeviation=".973"/>
</filter>
<filter id="intro-large-m" width="130.9%" height="310.4%" x="-15.5%" y="-105.2%" filterUnits="objectBoundingBox">
<feGaussianBlur in="SourceGraphic" stdDeviation=".973"/>
</filter>
<filter id="intro-large-n" width="122%" height="373.6%" x="-11%" y="-136.8%" filterUnits="objectBoundingBox">
<feGaussianBlur in="SourceGraphic" stdDeviation="1.945"/>
</filter>

<linearGradient id="intro-large-a" x1="0%" x2="100%" y1="49.999%" y2="49.999%">
<stop offset="0%" stop-color="#3487e4"/>
<stop offset="20.082%" stop-color="#8ebaee"/>
<stop offset="24.501%" stop-color="#8ebaee"/>
<stop offset="35.102%" stop-color="#3487e4"/>
<stop offset="85.346%" stop-color="#3487e4"/>
<stop offset="100%" stop-color="#77b4f0"/>
</linearGradient>

<linearGradient id="intro-large-b" x1="35.809%" x2="61.189%" y1="45.899%" y2="51.39%">
<stop offset="0%" stop-color="#1f4f73"/>
<stop offset="48%" stop-color="#1f4e71"/>
<stop offset="66%" stop-color="#204a6a"/>
<stop offset="80%" stop-color="#22445e"/>
<stop offset="90%" stop-color="#253b4d"/>
<stop offset="100%" stop-color="#293037"/>
<stop offset="100%" stop-color="#2a3036"/>
</linearGradient>

<linearGradient id="intro-large-c" x1=".002%" x2="100%" y1="50%" y2="50%">
<stop offset="0%" stop-color="#dbdbdb"/>
<stop offset="34%" stop-color="#d8d8d8"/>
<stop offset="57%" stop-color="#cecece"/>
<stop offset="78%" stop-color="#bebebe"/>
<stop offset="98%" stop-color="#a8a8a8"/>
<stop offset="100%" stop-color="#a6a6a6"/>
</linearGradient>

<linearGradient id="intro-large-d" x1="50.001%" x2="50.001%" y1="4.695%" y2="91.819%">
<stop offset="16%" stop-color="#fedc00"/>
<stop offset="22%" stop-color="#fedf20"/>
<stop offset="34%" stop-color="#fee872"/>
<stop offset="38%" stop-color="#ffeb87"/>
<stop offset="39%" stop-color="#fee97d"/>
<stop offset="50%" stop-color="#fee347"/>
<stop offset="60%" stop-color="#fedf20"/>
<stop offset="67%" stop-color="#fedc08"/>
<stop offset="72%" stop-color="#fedc00"/>
<stop offset="78%" stop-color="#fad300"/>
<stop offset="88%" stop-color="#f1bc00"/>
<stop offset="100%" stop-color="#e29700"/>
</linearGradient>

<linearGradient id="intro-large-h" x1="0%" x2="100.003%" y1="50.002%" y2="50.002%">
<stop offset="0%" stop-color="#f7a25b"/>
<stop offset="100%" stop-color="#f77103"/>
</linearGradient>

<linearGradient id="intro-large-i" x1="-.931%" x2="100.939%" y1="50.035%" y2="50.035%">
<stop offset="0%" stop-color="#cf5e03"/>
<stop offset="22%" stop-color="#ba5503"/>
<stop offset="38%" stop-color="#991903"/>
<stop offset="100%" stop-color="#a64c02"/>
</linearGradient>

<linearGradient id="intro-large-o" x1="50%" x2="50%" y1="13.613%" y2="93.478%">
<stop offset="0%" stop-color="#fff"/>
<stop offset="68%" stop-color="#555" stop-opacity=".33"/>
<stop offset="100%" stop-color="#060606" stop-opacity=".02"/>
</linearGradient>
</defs>

<g fill="none">
<g fill-rule="evenodd">
<path fill="url(#intro-large-a)" d="M39.367 0H160.63c21.487 0 38.906 17.419 38.906 38.906V141.66H.461V38.906C.461 17.419 17.88 0 39.367 0" transform="translate(197)"/>
<path fill="url(#intro-large-b)" d="M75.899 65.844a3.94 3.94 0 0 1-5.667 3.534l.954-.953-4.103-1.099 1.099 4.103 1.288-1.288a4.93 4.93 0 0 0 2.494.671 4.975 4.975 0 0 0 4.968-4.968zM71.946 61.9c.455 0 .899.078 1.313.223l-.943.944 4.102 1.099-1.099-4.103-1.27 1.27a4.975 4.975 0 0 0-7.073 4.503l1.033.001a3.94 3.94 0 0 1 3.935-3.935zm32.255 7.516h-7.153a2.816 2.816 0 0 1-2.813-2.813v-.262c0-1.2.753-2.245 1.846-2.642a2.357 2.357 0 0 1 3.527-1.782 2.84 2.84 0 0 1 2.35-1.266 2.82 2.82 0 0 1 2.817 2.817q0 .06-.002.118a2.82 2.82 0 0 1 2.245 2.757v.262a2.816 2.816 0 0 1-2.813 2.813zm-5.782-6.668a1.203 1.203 0 0 0-1.194 1.33l.037.347c.012.105-.06.2-.165.22l-.343.06a1.66 1.66 0 0 0-1.367 1.636v.262c0 .919.745 1.664 1.663 1.664h7.153c.918 0 1.663-.745 1.663-1.664v-.262c0-.918-.745-1.663-1.663-1.663h-.543a.24.24 0 0 1-.231-.31l.124-.422q.033-.113.053-.227a1.667 1.667 0 0 0-1.736-1.917c-.714.037-1.319.543-1.52 1.23l-.197.673a.19.19 0 0 1-.331.066l-.463-.576a1.2 1.2 0 0 0-.938-.45zm29.528 6.904-3.564-3.595.883-.876 2.683 2.706 6.036-6.055.881.877z" transform="translate(197)"/>
<path stroke="#000" stroke-width=".722" d="M197 88.867c.138-3.362.44-6.753 1.348-10.076.922-3.372 2.426-6.512 4.797-9.575 2.33-3.012 5.375-5.768 9.009-8.158 3.632-2.39 7.822-4.392 12.399-5.925 4.657-1.56 9.429-2.55 14.556-3.156 5.054-.598 10.21-.795 15.32-.886 2.346-.043 4.69-.06 7.036-.068 2.785-.012 5.569-.012 8.355-.012h54.36c2.786 0 5.57 0 8.355.012 2.346.01 4.692.027 7.036.068 5.11.091 10.266.29 15.32.886 5.125.606 9.897 1.596 14.556 3.156 4.577 1.533 8.767 3.537 12.4 5.925 3.631 2.39 6.677 5.146 9.008 8.158 2.371 3.065 3.875 6.203 4.797 9.575.908 3.325 1.21 6.716 1.348 10.076"/>
<path fill="#858b90" d="M389.299 139.806c-.146 3.344-.436 7.287-1.127 11.131-.832 4.623-2.178 8.722-4.12 12.53a41.6 41.6 0 0 1-7.672 10.55 41.6 41.6 0 0 1-10.56 7.665c-3.814 1.937-7.916 3.284-12.544 4.116-4.896.878-9.921 1.115-14.189 1.232-1.992.054-4.104.085-6.85.1-2.38.016-4.72.016-7.315.016h-55.99c-2.593 0-4.935 0-7.312-.015a311 311 0 0 1-6.853-.101c-4.27-.117-9.295-.352-14.189-1.232-4.628-.832-8.73-2.177-12.543-4.116a41.6 41.6 0 0 1-10.56-7.664 41.6 41.6 0 0 1-7.673-10.55c-1.942-3.81-3.288-7.908-4.12-12.53-.693-3.845-.98-7.79-1.127-11.132-.033.773-.06 1.514-.081 2.215l-.006.206.006.218c.115 3.727.356 8.615 1.208 13.347.832 4.623 2.178 8.721 4.12 12.53a41.6 41.6 0 0 0 7.672 10.55 41.6 41.6 0 0 0 10.561 7.664c3.813 1.938 7.915 3.284 12.543 4.116 4.896.879 9.921 1.116 14.189 1.232 1.992.055 4.106.086 6.853.101 2.377.016 4.718.016 7.313.016h55.989c2.593 0 4.935 0 7.316-.016 2.745-.015 4.857-.046 6.85-.1 4.269-.117 9.294-.353 14.188-1.233 4.628-.832 8.73-2.178 12.543-4.116a41.6 41.6 0 0 0 10.561-7.664 41.6 41.6 0 0 0 7.672-10.55c1.942-3.809 3.288-7.907 4.12-12.53.852-4.732 1.094-9.618 1.208-13.347l.006-.206-.006-.218c-.021-.7-.048-1.442-.081-2.215"/>
<path fill="url(#intro-large-c)" d="m198.948 67.981.011-.427h-.025c-.148-4.796-.463-9.622-1.315-14.361-.916-5.092-2.412-9.831-4.772-14.458a48.6 48.6 0 0 0-8.962-12.315 48.8 48.8 0 0 0-12.335-8.948c-4.633-2.354-9.38-3.85-14.48-4.764-5.027-.904-10.155-1.2-15.24-1.339-2.332-.064-4.666-.089-6.999-.103-2.77-.017-5.54-.015-8.312-.015H72.44c-2.77 0-5.54 0-8.312.015-2.334.014-4.667.041-6.999.103-5.083.138-10.21.437-15.24 1.339-5.1.914-9.846 2.408-14.48 4.764A48.7 48.7 0 0 0 6.112 38.735c-2.358 4.627-3.855 9.366-4.772 14.458C.488 57.93.173 62.758.025 67.553H0l.012.428-.012.427h.025C.173 73.204.488 78.03 1.34 82.77c.917 5.093 2.412 9.832 4.772 14.458a48.6 48.6 0 0 0 8.962 12.316 48.8 48.8 0 0 0 12.335 8.947c4.634 2.354 9.38 3.85 14.48 4.765 5.027.903 10.155 1.2 15.24 1.338 2.332.064 4.667.09 7 .103 2.77.017 5.54.015 8.311.015h54.079c2.77 0 5.54 0 8.312-.015 2.335-.014 4.667-.041 7-.103 5.082-.138 10.21-.437 15.239-1.338 5.1-.915 9.847-2.409 14.48-4.765a48.7 48.7 0 0 0 21.297-21.263c2.358-4.626 3.856-9.365 4.772-14.458.852-4.737 1.167-9.565 1.315-14.36h.025z" transform="translate(197.517 74.289)"/>
<path fill="url(#intro-large-d)" d="M191.863 67.77c-.115-3.726-.356-8.61-1.208-13.34-.833-4.62-2.179-8.716-4.12-12.523a41.6 41.6 0 0 0-7.672-10.544 41.6 41.6 0 0 0-10.561-7.66c-3.813-1.939-7.916-3.283-12.543-4.114-4.897-.878-9.921-1.115-14.19-1.232a303 303 0 0 0-4.594-.083h.161a11.48 11.48 0 0 1-9.557-5.62c-1.53-2.642-2.855-6.02-4.03-9.941a3.81 3.81 0 0 0-1.901-2.284 3.83 3.83 0 0 0-2.965-.235S79.42 13.187 67.367 17.177c-1.842.61-3.754.975-5.686 1.099h.16c-1.707.017-3.2.045-4.593.083-4.27.117-9.293.352-14.19 1.232-4.627.831-8.73 2.175-12.542 4.113a41.6 41.6 0 0 0-10.561 7.66 41.6 41.6 0 0 0-7.673 10.545c-1.94 3.806-3.287 7.903-4.12 12.523-.852 4.73-1.093 9.612-1.208 13.34l-.005.205.005.218c.115 3.725.356 8.61 1.208 13.339.833 4.62 2.18 8.717 4.12 12.523a41.6 41.6 0 0 0 7.673 10.545 41.6 41.6 0 0 0 10.56 7.66c3.813 1.936 7.916 3.282 12.544 4.113 4.896.878 9.92 1.115 14.189 1.232 1.992.054 4.106.085 6.853.1 2.377.016 4.717.016 7.312.016h55.99c2.592 0 4.934 0 7.315-.015 2.745-.016 4.858-.047 6.85-.101 4.27-.117 9.294-.352 14.189-1.232 4.627-.831 8.73-2.177 12.543-4.113a41.6 41.6 0 0 0 10.56-7.66 41.6 41.6 0 0 0 7.673-10.545c1.941-3.806 3.287-7.903 4.12-12.523.852-4.73 1.093-9.612 1.208-13.34l.006-.205-.006-.218z" transform="translate(197.517 74.289)"/>
<path fill="#ffee98" d="M72.831 18.11q17.127 7.605 28.573 3.28C112.849 17.065 121.77 2.79 119.98 1.553Q118.19.315 72.831 18.11" filter="url(#intro-large-e)" transform="translate(197.517 74.289)"/>
<path fill="#eec400" d="M123.866 6.903q-.91 7.574-3.656 12.038t-9.227 8.907q9.353 2.199 12.267-2.538t.616-18.407" filter="url(#intro-large-f)" transform="translate(197.517 74.289)"/>
<path fill="#eaaa00" d="M62.311 18.683q-16.674-1.11-29.914 4.548-13.239 5.657-21.037 20.457 12.548-10.991 23.541-16.386 10.995-5.395 27.41-8.62m74.714 0q16.675-1.11 29.914 4.548 13.24 5.657 21.037 20.457-12.548-10.991-23.54-16.386-10.995-5.395-27.41-8.62" filter="url(#intro-large-g)" transform="translate(197.517 74.289)"/>
<path stroke="#f1c221" stroke-linecap="round" stroke-linejoin="round" stroke-width=".963" d="M319.165 74.718c2.969 8.34-1.274 22.275-13.601 24.565-7.264 1.348-8.583 4.523-8.583 11.04 0 10.206-.054 30.008-.054 30.008"/>
<g transform="translate(236.149 140.192)">
<path fill="#e16006" d="M60.85 54.802C33.66 54.802 0 47.788 0 34.2c0-6.873 13.403-5.529 24.149-12.15C32.619 16.83 45.769 0 60.85 0c15.082 0 28.23 16.83 36.702 22.05C108.298 28.67 121.7 27.327 121.7 34.2c0 13.588-33.66 20.602-60.85 20.602"/>
<path fill="url(#intro-large-h)" d="M60.85 54.802c-28.636 0-58.924-9.613-58.924-20.602 0-.759.233-1.585 1.931-2.508 1.66-.9 4.115-1.573 6.957-2.355 4.252-1.167 9.545-2.62 14.313-5.56 2.584-1.591 5.422-4.07 8.705-6.937 7.571-6.608 16.992-14.832 27.016-14.832s19.445 8.224 27.014 14.834c3.286 2.868 6.122 5.344 8.706 6.937 4.767 2.94 10.06 4.393 14.313 5.56 2.842.78 5.299 1.455 6.956 2.355 1.698.922 1.932 1.75 1.932 2.508 0 10.989-30.288 20.602-58.923 20.602z"/>
<path fill="url(#intro-large-i)" d="M3.653 33.581c.008.04.022.123.037.187q.024.105.055.21.06.211.138.422.157.421.367.821a8.5 8.5 0 0 0 1.018 1.5c.78.932 1.735 1.718 2.78 2.367 2.097 1.298 4.495 2.111 6.95 2.632 2.459.522 4.986.79 7.524.882 2.537.085 5.097.05 7.628-.137 2.535-.175 5.038-.542 7.536-1.011 2.498-.475 4.99-1.1 7.544-1.677 2.55-.584 5.168-1.064 7.806-1.371a70 70 0 0 1 7.937-.436c1.325.008 2.653.047 3.984.134 1.33.094 2.665.23 3.991.438 1.325.204 2.642.47 3.932.776 1.292.303 2.554.657 3.799.992 2.488.683 4.937 1.276 7.44 1.696 2.5.422 5.031.732 7.585.917 2.553.182 5.12.305 7.694.36l1.928.029c.62.004 1.237-.03 1.854-.078 1.23-.1 2.455-.308 3.643-.64a18 18 0 0 0 6.548-3.399 19 19 0 0 0 3.774-4.162c.175-.261.34-.53.5-.798.157-.267.315-.552.437-.81l.008-.017a.482.482 0 0 1 .883.383c-.132.339-.268.63-.418.936q-.222.451-.475.885-.5.87-1.087 1.683a19.3 19.3 0 0 1-2.67 3 19.2 19.2 0 0 1-3.255 2.404 19.4 19.4 0 0 1-3.71 1.661c-1.29.426-2.624.718-3.968.887q-1.01.129-2.025.164l-1.961.066c-2.609.072-5.225.097-7.85-.012a78 78 0 0 1-7.878-.677 67 67 0 0 1-3.912-.698c-1.295-.27-2.577-.578-3.84-.891-2.529-.627-4.964-1.25-7.44-1.593a51 51 0 0 0-3.74-.387 64 64 0 0 0-3.785-.113c-1.268 0-2.538.021-3.803.085a68 68 0 0 0-3.781.3c-2.516.259-5.006.712-7.519 1.225-2.513.516-5.063 1.1-7.67 1.54-2.61.45-5.249.726-7.896.824-2.644.095-5.276.07-7.913-.146-2.634-.216-5.272-.591-7.854-1.284a28 28 0 0 1-3.8-1.311c-1.236-.533-2.438-1.177-3.543-1.976-1.103-.798-2.12-1.743-2.928-2.864a9.7 9.7 0 0 1-1.025-1.8 8 8 0 0 1-.348-.984 6 6 0 0 1-.163-.782c-.012-.095-.022-.17-.03-.293a.48.48 0 0 1 .952-.113l.01.049z"/>
<path fill="#e16006" d="M60.776 4.96q1.13-5.139 13.721 4.427T108.72 33.13q-1.422 2.39-13.823-1.889c-12.402-4.278-24.981-9.651-30.202-13.674q-5.221-4.02-3.919-12.609" filter="url(#intro-large-j)"/>
<ellipse cx="55.306" cy="15.623" fill="#f7a057" filter="url(#intro-large-k)" rx="2.626" ry="10.115"/>
<path fill="#f7a057" d="M54.493 35.2c0-.629-6.661-2.094-10.146-1.292-3.486.803-10.147 5.438-10.147 5.965s6.428-2.062 10.147-2.918c3.718-.856 10.146-1.125 10.146-1.754" filter="url(#intro-large-l)"/>
<path fill="#f7a057" d="M52.68 45.539c5.21 0 9.337.145 9.337-.445 0-.591-1.5-2.312-6.71-2.312-5.211 0-12.159 1.72-12.159 2.312 0 .59 4.322.445 9.532.445" filter="url(#intro-large-m)"/>
<path fill="#e16006" d="M34.2 49.578c-6.246.923 17.746 3.6 26.576 3.6s30.665-2.747 24.363-3.6-44.693-.923-50.939 0" filter="url(#intro-large-n)"/>
</g>
<path fill="#eaba47" d="M252.734 117.506c11.174 0 20.247 7.482 20.247 16.697s-9.073 16.696-20.247 16.696-20.246-7.482-20.246-16.696 9.072-16.697 20.246-16.697m87.195 0c11.174 0 20.247 7.482 20.247 16.697s-9.073 16.696-20.247 16.696-20.246-7.482-20.246-16.696 9.073-16.697 20.246-16.697"/>
<path fill="#dbdbdb" d="M252.734 116.765c10.289 0 18.642 6.888 18.642 15.374 0 8.485-8.353 15.371-18.642 15.371s-18.641-6.888-18.641-15.371 8.353-15.374 18.641-15.374m87.195 0c10.289 0 18.642 6.888 18.642 15.374 0 8.485-8.353 15.371-18.642 15.371s-18.641-6.888-18.641-15.371 8.353-15.374 18.641-15.374"/>
<path fill="#000" d="M257.059 125.79c4.038 0 7.318 2.703 7.318 6.034s-3.28 6.034-7.318 6.034-7.319-2.704-7.319-6.034 3.28-6.035 7.319-6.035m78.575-.081c4.066 0 7.367 2.721 7.367 6.075s-3.301 6.075-7.367 6.075-7.367-2.722-7.367-6.075 3.302-6.075 7.367-6.075"/>
<path fill="url(#intro-large-o)" d="M24.57 18.708c2.518 0 4.559-1.683 4.559-3.759s-2.041-3.758-4.558-3.758-4.558 1.683-4.558 3.758 2.04 3.759 4.558 3.759m78.576-.016c2.535 0 4.59-1.694 4.59-3.783s-2.055-3.784-4.59-3.784-4.588 1.694-4.588 3.784 2.054 3.783 4.588 3.783" opacity=".8" transform="translate(232.488 116.765)"/>
<path fill="#fff" d="M258.716 129.63c-.138.136 0 .421.313.637.311.216.677.28.815.144s0-.422-.313-.638c-.311-.216-.677-.28-.815-.144m78.585-.054c-.14.138 0 .424.315.642.316.218.681.282.821.144s0-.424-.315-.642c-.313-.218-.68-.282-.82-.144"/>
</g>
<path fill="#fff" d="M.673 310v-71.298h28.759l17.475 54.522-6.79.1 18.373-54.622h27.461V310h-20.57v-56.719l4.293.599L50.202 310H34.325l-18.474-54.123 3.595-.599V310zM134.385 311.298q-12.085 0-21.12-4.493t-14.03-12.782q-4.996-8.289-4.996-19.672 0-5.792 1.298-10.685 1.299-4.892 3.745-9.087a30.7 30.7 0 0 1 5.992-7.39q3.545-3.195 7.988-5.342t9.737-3.295 11.39-1.148q11.976 0 21.01 4.426t14.03 12.732 4.996 19.756q0 5.725-1.321 10.668t-3.752 9.087a31.5 31.5 0 0 1-5.919 7.34q-3.488 3.195-7.98 5.392-4.491 2.197-9.786 3.345-5.294 1.148-11.282 1.148m-.078-16.277q2.77 0 5.168-.549a17 17 0 0 0 4.498-1.72 15.4 15.4 0 0 0 3.695-2.847q1.593-1.673 2.736-4.034 1.142-2.36 1.697-5.192.555-2.834.555-6.301 0-7.017-2.247-11.61-2.247-4.594-6.39-6.84-4.145-2.248-9.65-2.247-2.783 0-5.18.549-2.396.55-4.498 1.72a15.4 15.4 0 0 0-3.695 2.847q-1.593 1.674-2.691 4.02-1.098 2.348-1.698 5.143t-.599 6.35q0 7.03 2.297 11.624t6.44 6.84 9.562 2.247M216.464 311.298q-10.584 0-18.323-3.445t-11.933-10.036-4.194-15.977v-43.138h20.77v43.138q0 4.095 1.847 7.09 1.848 2.995 5.143 4.594 3.296 1.597 7.59 1.597 4.293 0 7.488-1.597 3.195-1.599 4.943-4.544 1.748-2.946 1.748-7.14v-43.138h18.673v42.739q0 9.585-3.794 16.277-3.795 6.69-11.334 10.135t-18.624 3.445M260.601 310v-71.298h21.869l35.449 48.431-4.593.199v-48.63h18.573V310H310.53l-34.551-47.432 3.395-.699V310zM363.854 310v-54.921h-24.066v-16.377h68.802v16.377h-23.966V310zM400.9 310l28.66-71.298h24.265L482.484 310h-22.268l-21.27-57.717h3.795L421.17 310zm20.571-13.38v-15.08h38.745v15.08zM488.875 310v-71.298h20.87V310zM520.829 310v-71.298h21.869l35.449 48.431-4.593.199v-48.63h18.573V310h-21.369l-34.551-47.432 3.395-.699V310zM138.426 400v-71.298h38.245q7.49 0 14.13 2.347t11.733 6.89 7.989 11.134 2.896 15.278q0 6.99-1.897 12.582t-5.243 9.936a30.1 30.1 0 0 1-7.989 7.24q-4.643 2.895-10.085 4.393T176.67 400zm20.87-16.177h15.079q2.296 0 4.693-.599 2.397-.6 4.743-1.947 2.347-1.348 4.144-3.595t2.846-5.542q1.05-3.295 1.049-7.789 0-5.592-1.648-9.387-1.647-3.794-4.244-5.991-2.595-2.197-5.642-3.146-3.045-.948-5.941-.948h-15.079zM255.459 401.298q-10.585 0-18.324-3.445t-11.933-10.036-4.194-15.977v-43.138h20.77v43.138q0 4.095 1.848 7.09 1.846 2.995 5.142 4.594 3.295 1.597 7.59 1.597 4.293 0 7.489-1.597 3.195-1.598 4.943-4.544t1.747-7.14v-43.138h18.673v42.739q0 9.585-3.794 16.277-3.795 6.69-11.334 10.135-7.54 3.445-18.623 3.445M336.643 401.298q-11.983 0-20.97-4.543-8.988-4.544-13.88-12.932-4.894-8.388-4.894-19.472 0-5.592 1.299-10.485t3.694-9.037a32.3 32.3 0 0 1 5.842-7.39q3.445-3.245 7.889-5.442 4.443-2.196 9.686-3.395t11.334-1.198q11.083 0 19.372 3.245t13.181 9.237q4.893 5.99 5.592 14.18h-21.869q-.698-3.396-2.846-5.692-2.146-2.297-5.442-3.495-3.295-1.198-7.789-1.198a21.1 21.1 0 0 0-5.242.649q-2.546.648-4.544 1.847a16 16 0 0 0-3.595 2.946q-1.598 1.748-2.646 4.044t-1.597 5.143q-.55 2.845-.55 6.041 0 6.49 2.197 11.084t6.291 7.09 9.686 2.496q4.494 0 7.74-1.148 3.245-1.149 5.441-3.545 2.197-2.397 3.296-5.991h21.769q-1.1 8.687-5.992 14.729-4.893 6.04-13.031 9.137-8.139 3.095-19.422 3.095M383.476 400v-71.298h20.87v37.147l-6.092-2.297 32.154-34.85h25.863l-30.356 30.656q2.796 1.298 4.843 2.746t3.894 3.545 3.945 4.993L459.567 400h-24.865l-16.376-23.466q-1.598-2.397-3.845-2.547t-4.344 1.947l-12.082 11.883 6.29-15.378V400z"/>
</g>
</svg>
