<svg xmlns="http://www.w3.org/2000/svg" viewBox="0 0 5396 605" class="icon"><path fill="#fff" fill-rule="evenodd" d="M299 0h180v180H299zm125.476 57.592V43.855h30.779v85.492h-16.853V57.592zm-14.729 27.38c.803 9.442-.519 14.54-1.605 17.09l-13.312-18.08c13.973-9.82 17.42-25.87 6.137-36.114-9.347-6.61-18.93-6.61-28.796 0-9.914 9.11-9.253 20.11 1.982 32.95-19.213 11.802-20.818 24.973-12.51 38.899 8.875 13.123 28.655 16.192 45.839 4.956l3.351 4.58h18.08l-11.518-14.682c4.768-4.72 7.506-15.059 6.562-29.551h-14.21zM383.36 92.29c-9.206 6.136-12.085 12.651-7.553 19.826 5.145 5.76 13.36 5.57 22.423 0zm2.738-19.827-3.777-5.57c-2.69-5.618-1.18-10.34 4.58-10.34 6.23.331 8.26 4.486 4.154 11.095zM315.664 57.64V43.902h30.779v85.492H329.59V57.64zm553.621 35.095c6.536 0 13.48 1.636 19.2 4.5l-7.353 14.727c-3.677-2.045-7.762-2.863-11.847-2.863-14.705 0-26.96 12.272-26.96 27v42.545h-16.34V93.962h16.34v8.182c7.761-6.136 17.157-9.409 26.96-9.409m85.375 1.227H971v84.682h-16.34v-8.182c-17.565 14.318-43.3 12.273-58.823-4.5-15.522-16.773-15.522-42.545 0-59.318s40.85-18.818 58.823-4.5zm-26.96 69.545c14.706 0 26.96-12.272 26.96-27 0-15.136-11.846-27-26.96-27s-26.96 12.273-26.96 27 12.254 27 26.96 27M769.613 92.735c24.101 0 43.3 19.636 43.3 43.364v8.181h-69.035c2.86 9.818 11.03 16.773 21.242 18.41 9.804 1.636 20.016-2.455 26.143-10.637l13.072 9.818c-12.255 16.364-34.313 22.09-52.695 13.5-18.383-8.59-28.595-29.045-24.101-49.09s21.65-33.546 42.074-33.546m-25.735 35.182h51.47c-3.676-11.046-13.888-18.818-25.735-18.818s-22.058 7.772-25.735 18.818m-39.215 35.59c4.085 0 8.17-.818 11.846-2.863l7.353 14.727c-6.127 2.864-12.663 4.5-19.2 4.5-24.1 0-43.3-19.636-43.3-43.363V81.69h16.34v11.045h32.68V109.1h-32.68v27c0 15.136 12.255 27.408 26.96 27.408M622.147 109.1c-12.254 0-22.875 8.181-26.143 20.045s2.042 24.136 12.663 30.273c10.621 6.136 23.693 4.5 32.68-4.5l11.437 11.454c-16.748 17.59-44.117 17.59-60.865.818-17.157-17.181-17.157-44.59-.408-61.772 16.748-16.773 44.117-17.182 60.865-.41l-11.438 11.455c-4.902-4.5-11.846-7.363-18.79-7.363m268.788-35.591h-16.34c-.408-17.182-14.705-31.09-32.27-31.09s-31.863 13.908-32.271 31.09h-16.34c-.408-31.5-26.143-56.454-58.006-56.454-31.862 0-57.597 25.363-58.006 56.454h-16.34c0-34.773 24.51-65.045 59.232-72s69.444 10.637 83.333 42.546c12.663-16.364 34.313-22.91 53.92-15.955 19.608 6.545 33.088 24.954 33.088 45.409M1447.66 45.9c27.88 0 48.729 20.332 48.729 48.232 0 27.736-20.31 48.068-46.227 48.068-11.324 0-22.844-4.868-28.943-13.14V180h-22.484V94.132c0-27.737 21.045-48.232 48.925-48.232m239.335 3.338c14.268.01 25.835 11.577 25.853 25.855v41.702c-.018 14.282-11.58 25.857-25.853 25.88h-40.552c-14.275-.018-25.843-11.594-25.861-25.88V75.117c.022-14.282 11.589-25.853 25.86-25.87h40.553ZM1168.466 0v94.336c0 27.524-20.685 47.864-48.729 47.864S1071 121.86 1071 94.132c0-27.9 19.786-48.232 45.704-48.232 11.855 0 22.982 4.868 29.278 13.336V0zm364.828 0v59.236c6.296-8.468 17.252-13.336 29.311-13.336 25.689 0 45.671 20.332 45.671 48.232 0 27.736-20.522 48.068-48.729 48.068-28.616 0-48.737-20.34-48.737-47.864V0zm213.818 49.5 17.62 26.1c1.062 1.432 3.76 1.432 4.66 0l17.088-26.1h25.721l-26.98 37.964c-1.8 2.536-3.23 4.671-4.66 6.471 1.626 1.8 3.229 4.132 5.027 6.832l28.412 41.4h-25.558l-19.786-30.436c-1.063-1.424-3.597-1.424-4.66 0l-20.13 30.469h-25.705l29.311-41.4c1.799-2.536 3.434-4.868 4.865-6.668-1.431-1.964-3.066-4.132-4.865-6.668l-27.34-37.964zm-515.495-3.6c27.349 0 46.03 18.736 46.03 44.1 0 3.764-.359 7.732-1.258 11.864h-66.716c-2.535 0-3.77 1.268-3.77 3.436 0 8.632 10.956 17.264 25.542 17.264 9.534 0 19.623-2.864 23.547-10.964h22.124c-6.827 21.436-25.018 30.6-46.603 30.6-27.872 0-47.83-19.964-47.83-48.068 0-28.432 20.523-48.232 48.934-48.232m106.149 0c27.34 0 46.03 18.736 46.03 44.1 0 3.764-.36 7.732-1.259 11.864h-66.716c-2.534 0-3.769 1.268-3.769 3.436 0 8.632 10.956 17.264 25.542 17.264 9.533 0 19.622-2.864 23.547-10.964h22.124c-6.791 21.222-24.656 30.416-45.957 30.597l-.641.002-.83-.005c-27.444-.394-46.996-20.239-46.996-48.062 0-28.432 20.513-48.232 48.925-48.232m349.228 25.535h-40.552a3.65 3.65 0 0 0-3.655 3.658v41.702a3.65 3.65 0 0 0 3.655 3.658h40.552a3.65 3.65 0 0 0 3.655-3.658V75.117a3.655 3.655 0 0 0-3.655-3.657zm-239.368-3.542c-14.75 0-26.073 11.332-26.073 26.263 0 14.759 11.13 26.045 25.64 26.269l.437.003.432-.003c14.36-.224 25.482-11.478 25.482-26.26 0-14.94-11.324-26.272-25.918-26.272m112.085 0c-15.126 0-26.082 11.168-26.082 26.263 0 15.112 10.596 26.272 26.082 26.272 14.75 0 25.713-11.16 25.713-26.263 0-15.137-10.956-26.272-25.713-26.272m-439.81-.025c-15.118 0-26.082 11.16-26.082 26.264 0 15.136 10.964 26.263 26.082 26.263 14.929 0 25.721-11.16 25.721-26.263.025-15.104-10.768-26.264-25.721-26.264m112.051-2.872c-14.022-.032-24.25 7.364-26.613 19.604h47.503c1.799 0 2.861-1.064 2.861-2.864 0-8.271-9.361-16.74-23.75-16.74m106.149 0c-14.022-.032-24.283 7.364-26.613 19.604h47.503c1.798 0 2.861-1.064 2.861-2.864 0-8.271-9.361-16.74-23.751-16.74m1310.164-10.07v64.65q0 29.704-13.56 44.97c-8.932 10.305-21.99 15.454-39.161 15.454q-9.323.002-17.796-1.867l2.718-25.115c4.405.678 8.476 1.013 12.198 1.013 7.013 0 12.322-2.095 15.937-6.279q5.427-6.108 6.44-20.703-10.002 14.086-30.508 14.085-11.186-.001-20.68-5.77c-6.213-3.85-11.18-9.052-14.913-15.612-3.618-6.56-5.419-13.746-5.419-21.547q-.002-11.883 5.42-21.721c3.622-6.677 8.53-11.937 14.75-15.787 6.323-3.85 13.219-5.77 20.673-5.77 6.896 0 12.888 1.808 17.966 5.43q7.796 5.258 10.169 14.255V54.927zM2044.224 0c13.297 0 24.08 10.795 24.08 24.107V130.18c0 13.316-10.783 24.107-24.08 24.107H1938.27c-13.297 0-24.08-10.79-24.08-24.107V24.107c0-13.312-2.515-24.107 10.783-24.107zm333.868 54.932q12.538 0 21.35 5.6c5.992 3.623 10.463 8.602 13.39 14.934 2.94 6.22 4.406 13.231 4.406 21.043q0 3.053-.33 4.411l-50.851 6.619c1.355 3.956 3.56 6.846 6.609 8.655 3.046 1.696 7.058 2.54 12.028 2.54 7.683 0 15.993-1.978 24.913-5.935l4.244 22.735q-15.768 6.961-34.572 6.963-14.073 0-25.09-5.6-10.846-5.774-16.947-15.613c-4.074-6.676-6.102-14.201-6.102-22.57 0-8.596 2.098-16.237 6.275-22.909q6.269-10.008 16.948-15.442c7.116-3.622 15.03-5.43 23.73-5.43M2176.6 10.811q13.053 0 24.238 6.618l-1.186 22.91q-9.83-3.905-16.442-3.904-5.086 0-7.797 2.546-2.71 2.377-2.711 6.958-.002 4.415 2.881 10.181h69.494v50.74c0 2.604.678 4.635 2.034 6.104 1.467 1.358 3.332 2.042 5.594 2.042 2.256 0 4.576-.684 6.949-2.042l1.864 23.588c-2.484 1.92-5.763 3.394-9.83 4.412-3.957 1.024-8.078 1.533-12.374 1.533q-14.236.001-22.204-9.17c-5.307-6.103-7.967-14.418-7.967-24.94v-31.23h-31.187v63.982h-35.764V77.163h-10.679V56.12h10.679v-7.127q-.001-18.836 8.983-28.51 9.153-9.672 25.425-9.672m130.141 13.236v81.965c0 3.165.739 5.483 2.205 6.957 1.58 1.358 4.294 2.042 8.134 2.042 2.825 0 5.595-.684 8.306-2.042l1.183 23.758c-7.572 3.85-16.044 5.77-25.42 5.77q-14.405 0-22.374-8.99c-5.198-6.108-7.796-14.429-7.796-24.95v-79.25zm223.675 30.885v86.207h-35.6v-15.787c-5.65 11.433-14.916 17.145-27.797 17.145-7.347 0-14.236-1.92-20.68-5.77q-9.486-5.935-15.247-15.952c-3.854-6.788-5.764-14.313-5.764-22.57 0-8.145 1.91-15.5 5.764-22.06 3.84-6.677 8.976-11.88 15.423-15.612q9.657-5.6 20.504-5.6 8.812-.001 16.272 4.92c5.085 3.283 8.931 8.205 11.525 14.764V54.932zm179.769 0q14.406 0 25.423 5.6 11.188 5.434 17.29 15.273c4.074 6.566 6.102 14.144 6.102 22.74 0 8.718-2.09 16.408-6.271 23.084-4.067 6.555-9.824 11.704-17.29 15.443-7.344 3.611-15.827 5.425-25.43 5.425-9.487 0-17.966-1.867-25.424-5.6q-11.02-5.602-17.29-15.443c-4.07-6.676-6.102-14.307-6.102-22.91 0-8.595 2.098-16.173 6.279-22.739q6.266-10.008 17.29-15.442 11.184-5.432 25.423-5.43m-745.325 53.439h-29.57v22.96h29.57zm745.49-28.318c-4.636 0-8.476 1.75-11.525 5.26-2.943 3.39-4.409 7.801-4.409 13.232s1.466 9.9 4.409 13.406c3.05 3.394 6.889 5.09 11.525 5.09 4.633 0 8.417-1.696 11.36-5.09q4.569-5.26 4.57-13.406-.001-8.146-4.57-13.231c-2.943-3.511-6.727-5.261-11.36-5.261m-232.312 1.681q-7.12 0-12.205 5.091c-3.277 3.283-4.92 7.239-4.92 11.879q-.002 7.128 5.089 12.043c3.39 3.299 7.399 4.938 12.035 4.938 4.523 0 8.359-1.586 11.526-4.752 3.277-3.283 5.025-7.133 5.253-11.545V98.03c-.228-4.53-2.035-8.374-5.419-11.545q-4.917-4.75-11.36-4.752m117.506 0q-6.948 0-11.863 5.091c-3.28 3.283-4.916 7.239-4.916 11.879s1.635 8.654 4.916 12.043c3.277 3.298 7.23 4.937 11.863 4.937q6.78-.001 11.69-4.751c3.281-3.283 5.026-7.133 5.254-11.545V98.03c-.228-4.3-2.028-8.087-5.415-11.37-3.281-3.282-7.12-4.926-11.53-4.926m-217.459-6.268q-6.101 0-9.662 4.582c-2.366 3.054-3.615 7.01-3.722 11.873l26.265-5.764c-1.811-7.127-6.099-10.691-12.881-10.691m-382.017-9.345h-60.779v22.96h60.78zm51.137-42.245H1935.29v22.96h111.916zM2227.11 8.944q7.796 0 13.39 5.091 5.763 5.09 5.764 12.049-.001 7.462-5.763 12.388c-3.84 3.282-8.306 4.92-13.39 4.92q-7.969.001-13.56-4.92-5.425-5.092-5.424-12.388c0-4.863 1.922-8.941 5.762-12.219s8.248-4.92 13.221-4.92m900.366 48.797h-36.52a3.13 3.13 0 0 0-3.13 3.13v8.172h31.791a3.13 3.13 0 0 1 3.13 3.13V87.36a3.13 3.13 0 0 1-3.13 3.13h-28.661a3.13 3.13 0 0 0-3.13 3.13v23.92a3.13 3.13 0 0 1-3.129 3.13h-19.394a3.13 3.13 0 0 1-3.13-3.13v-79.4a3.13 3.13 0 0 1 3.13-3.13h62.173a3.13 3.13 0 0 1 3.129 3.13v16.47a3.13 3.13 0 0 1-3.13 3.13m39.314 62.924h-20.324a3.13 3.13 0 0 1-3.13-3.13V38.141a3.13 3.13 0 0 1 3.13-3.13h20.318a3.13 3.13 0 0 1 3.13 3.13v79.394a3.13 3.13 0 0 1-3.124 3.13m43.933-22.73h34.972a3.136 3.136 0 0 1 3.135 3.136v16.452a3.136 3.136 0 0 1-3.135 3.136h-58.408a3.135 3.135 0 0 1-3.135-3.136v-79.37a3.136 3.136 0 0 1 3.135-3.136h20.3a3.135 3.135 0 0 1 3.136 3.135zm115.46-41.47h-39.84a3.31 3.31 0 0 0-3.309 3.309v7.063c0 .019.016.034.035.034h37.357a3.31 3.31 0 0 1 3.308 3.31v13.028a3.31 3.31 0 0 1-3.308 3.309h-34.066a3.31 3.31 0 0 0-3.308 3.309v8.12h45.209a3.31 3.31 0 0 1 3.308 3.308v16.113a3.31 3.31 0 0 1-3.308 3.309h-67.618a3.31 3.31 0 0 1-3.308-3.31V38.32a3.31 3.31 0 0 1 3.308-3.31h65.54a3.31 3.31 0 0 1 3.308 3.31v14.824a3.31 3.31 0 0 1-3.309 3.32m63.28 3.973a3.14 3.14 0 0 1-2.886-1.808c-1.733-3.932-4.908-5.896-9.735-5.896-5.133 0-8.99 2.183-8.99 5.134 0 2.183 1.415 3.465 4.879 4.493l16.305 4.753C3408.667 72.768 3416 79.819 3416 93.182c0 17.59-15.15 29.406-37.876 29.406-13.482 0-24.776-4.366-31.843-12.202-3.718-4.158-5.664-8.403-6.56-14.807a3.13 3.13 0 0 1 3.107-3.552h20.14a3.15 3.15 0 0 1 3.036 2.42c1.219 4.897 5.624 7.594 12.633 7.594 6.548 0 11.167-2.697 11.167-6.549 0-2.57-1.928-4.112-7.188-5.775l-16.947-5.267c-9.503-2.95-14.763-6.035-18.476-10.527a23.03 23.03 0 0 1-5.006-14.38c0-15.795 14.25-26.455 35.18-26.455 13.482 0 23.621 3.979 29.274 11.428 2.887 3.616 4.243 7.057 4.925 12.365a3.142 3.142 0 0 1-3.1 3.557zm-237.68 105.878a1.316 1.316 0 0 1-1.276-1.005l-4.076-16.932c.046 1.369.046 1.41.046 2.246 0 .399 0 1.502.046 3.263V165c0 .728-.589 1.317-1.316 1.317h-5.433c-.727 0-1.317-.59-1.317-1.317v-26.76c0-.728.59-1.317 1.317-1.317h9.498c.604 0 1.13.412 1.276.999l3.632 14.778 3.631-14.778a1.316 1.316 0 0 1 1.276-1h9.51c.727 0 1.316.59 1.316 1.317v26.767c0 .727-.59 1.317-1.316 1.317h-5.433c-.727 0-1.317-.59-1.317-1.317v-10.233l.046-2.888c0-1.056 0-1.501.047-3.465l-4.077 16.933a1.316 1.316 0 0 1-1.276 1.004h-4.804zm-16.784-14.5c0 8.904-6.259 15.158-15.156 15.158s-15.11-6.26-15.11-15.378 6.166-15.339 15.11-15.339c9.116 0 15.156 6.214 15.156 15.558m-21.15-.22c0 4.891 2.31 8.021 6.04 8.021 3.614 0 5.993-3.13 5.993-7.935 0-4.937-2.31-8.085-6.04-8.085s-5.993 3.153-5.993 7.999m-43.17 7.524v5.914a1.31 1.31 0 0 1-1.311 1.31h-5.89a1.31 1.31 0 0 1-1.31-1.31v-5.89c0-.724.586-1.311 1.31-1.311h5.89a1.31 1.31 0 0 1 1.31 1.287m23.222-11.336a1.3 1.3 0 0 1-1.253-.878 4.73 4.73 0 0 0-4.654-3.286c-3.395 0-5.728 3.217-5.728 7.889s2.512 8.085 5.86 8.085c2.357 0 3.91-1.334 4.562-3.84a1.3 1.3 0 0 1 1.253-.965h6.426a1.316 1.316 0 0 1 1.294 1.53 12.1 12.1 0 0 1-2.217 5.389c-2.425 3.303-6.565 5.243-11.19 5.243-8.66 0-14.804-6.52-14.804-15.592 0-8.772 6.166-15.113 14.717-15.113 6.484 0 11.363 3.65 13.101 9.725a1.323 1.323 0 0 1-1.236 1.68zM2884.726 40.397a2.22 2.22 0 0 1 2.414.475l52.836 52.836a2.224 2.224 0 0 1-1.57 3.794h-52.831a2.223 2.223 0 0 1-2.223-2.224v-52.84a2.22 2.22 0 0 1 1.374-2.041M2945.456.65a2.223 2.223 0 0 1 3.793 1.57v82.796a2.223 2.223 0 0 1-3.794 1.571l-41.404-41.395a2.224 2.224 0 0 1 0-3.165Zm55.142 62.415c.59 0 1.157.235 1.574.653l29.983 29.99a2.224 2.224 0 0 1-1.57 3.794h-59.967a2.223 2.223 0 0 1-1.577-3.794l29.984-29.99a2.22 2.22 0 0 1 1.573-.653m9.247-28.118a2.223 2.223 0 0 1 1.57 3.795l-47.836 47.845a2.223 2.223 0 0 1-3.793-1.57V37.17c0-1.228.995-2.224 2.223-2.224Zm-48.692 81.876a2.22 2.22 0 0 1 2.42.481l29.447 29.452a2.224 2.224 0 0 1 0 3.142l-29.446 29.452a2.223 2.223 0 0 1-3.794-1.57v-58.905a2.22 2.22 0 0 1 1.373-2.052m43.392-10.422a2.223 2.223 0 0 1 2.223 2.223v33.91a2.223 2.223 0 0 1-3.8 1.572l-33.927-33.934a2.224 2.224 0 0 1 1.577-3.771Zm-59.107 10.915a2.223 2.223 0 0 1 3.793 1.57v45.622a2.224 2.224 0 0 1-2.223 2.23h-45.613a2.223 2.223 0 0 1-1.57-3.8Zm-7.033-10.915a2.223 2.223 0 0 1 1.57 3.77l-38.597 38.612a2.223 2.223 0 0 1-3.147 0l-38.604-38.611a2.224 2.224 0 0 1 1.57-3.771Zm1252.589-24.916h-3.254c-12.81 0-14.471 1.384-14.54 12.807v1.8h32.196v-1.8c0-11.354-1.662-12.807-14.471-12.807m28.457 27h-46.113c0 7.892.485 10.315 2.354 12.184 1.8 1.731 4.016 2.354 12.117 2.354h3.185c7.962 0 10.109-.415 12.117-2.354a6.8 6.8 0 0 0 1.869-3.461h14.263c-2.285 13.361-9.347 18.554-24.926 18.554h-9.9c-9.14 0-14.887-1.731-19.18-6.024-4.224-4.292-5.885-9.692-5.885-19.038V93.946c0-9.415 1.592-14.884 5.885-19.177 4.362-4.292 10.04-6.023 19.248-6.023h9.832c9.209 0 14.887 1.73 19.18 5.885 4.361 4.154 5.954 9.346 5.954 19.315zm58.645 27.138h-13.64c-9.209 0-14.748-1.8-19.18-6.092-4.361-4.154-5.884-9.554-5.884-18.97V82.039h-8.31V68.954h8.31V52.615h13.986v16.408h18.971l-1.662 13.154h-17.31v28.385c0 10.176 2.424 11.976 14.402 11.976h10.386v13.154zm-159.318-66.67c9.14 0 14.748 1.732 19.11 6.024 4.362 4.154 5.954 9.554 5.954 18.97v41.538h-13.986V96.438c0-7.615-.485-10.107-2.354-12.046-1.8-1.938-4.016-2.354-12.117-2.354h-16.063v53.516h-13.986v-66.6zm-255.837 13.085h-18.902v53.516h-13.986V82.038h-8.309V68.885h8.309c.138-9.693 1.661-14.47 5.954-18.623 4.362-4.224 9.97-5.954 19.11-5.954h13.71v13.084h-10.387c-11.909 0-14.124 1.316-14.401 11.562h20.771zm206.608 11.908c0-9.97-1.592-15.092-5.954-19.315-4.293-4.154-9.97-5.885-19.18-5.885h-9.831c-9.21 0-14.887 1.73-19.249 6.023-4.293 4.293-5.885 9.693-5.885 19.177V110.7c0 9.415 1.662 14.746 5.885 19.038 4.362 4.293 10.04 6.024 19.18 6.024h9.97c15.51 0 22.572-5.193 24.926-18.624h-14.333a6.8 6.8 0 0 1-1.87 3.462c-1.938 2.008-4.154 2.423-12.116 2.423h-3.185c-8.1 0-10.317-.623-12.117-2.354-1.87-1.869-2.354-4.292-2.354-12.184h46.113zm-13.986 2.146h-32.127v-1.8c0-11.354 1.662-12.807 14.471-12.807h3.185c12.81 0 14.54 1.384 14.54 12.807zm-61.138-2.146c0-9.97-1.662-15.092-5.954-19.315-4.293-4.154-9.97-5.885-19.18-5.885h-9.9c-9.21 0-14.887 1.73-19.18 6.023s-5.954 9.693-5.954 19.177V110.7c0 9.415 1.73 14.746 5.954 19.038 4.293 4.293 9.97 6.024 19.18 6.024h9.9c15.58 0 22.572-5.193 24.926-18.624h-14.332a6.7 6.7 0 0 1-1.939 3.462c-1.938 2.008-4.154 2.423-12.047 2.423h-3.254c-8.032 0-10.317-.623-12.048-2.354-1.87-1.869-2.423-4.292-2.423-12.184h46.182V93.946zm-14.055 2.146h-32.127v-1.8c0-11.354 1.731-12.807 14.54-12.807h3.185c12.74 0 14.54 1.384 14.402 12.807zm-104.066 39.462v-66.6h24.649c17.933 0 24.787 6.438 25.134 22.154h-14.125c-.208-2.977-.9-5.123-2.423-6.716-1.94-2.007-4.5-2.354-12.463-2.354h-6.786v53.516zm415.224-12.739h13.294v12.947h-13.294zm52.622 12.877c-5.4 0-9.763-.415-13.156-1.384a22.16 22.16 0 0 1-9-4.57 16.6 16.6 0 0 1-5.194-7.407 35.4 35.4 0 0 1-1.523-11.423V94.085c0-4.708.485-8.239 1.523-11.077.97-2.908 2.77-5.677 5.263-7.754a22.16 22.16 0 0 1 8.862-4.639c3.462-.9 7.824-1.384 13.225-1.384h15.37V44.654h15.44v91.177h-30.81zm3.808-53.861c-4.64 0-7.893.138-9.763.484-1.87.347-3.462.485-4.57 1.454a6.8 6.8 0 0 0-1.454 1.8c-.415.693-.692 1.385-.9 2.354l-.415 3.946-.139 4.916v11.561c.022 2.778.207 5.552.554 8.308.208.97.485 1.8.9 2.423.416.692.9 1.246 1.385 1.73 1.246 1.04 2.77 1.662 4.64 2.078 1.869.277 5.123.484 9.693.484h11.632V81.831zM4446 93.946c0-9.97-1.592-15.092-5.885-19.315-4.293-4.154-10.04-5.885-19.18-5.885h-9.9c-9.21 0-14.887 1.73-19.18 6.023s-5.954 9.693-5.954 19.177V110.7c0 9.415 1.662 14.746 5.954 19.038 4.293 4.293 9.97 6.024 19.18 6.024h9.9c15.51 0 22.572-5.193 24.927-18.624h-14.264a6.8 6.8 0 0 1-1.938 3.462c-1.939 2.008-4.155 2.423-12.117 2.423h-3.185c-8.101 0-10.317-.623-12.117-2.354-1.8-1.869-2.354-4.292-2.354-12.184H4446zm-13.986 2.146h-32.127v-1.8c0-11.354 1.662-12.807 14.54-12.807h3.116c12.81 0 14.54 1.384 14.54 12.807v1.8zM3766.007 0h5.331v180h-5.33zm-169.496 39.53c-6.578-1.384-13.71-4.153-36.974-16.2-30.742-15.922-37.596-16.96-41.543-10.453-5.331 8.515-.485 30.115 20.772 69.923 13.847 26.03 35.588 59.538 39.466 63.97.9 1.038 1.87 1.107 2.77.692.969-.554 1.246-1.385.622-2.631-3.254-6.023-14.678-29.423-19.733-41.539-12.186-29.215-14.955-39.115-10.8-41.33 1.107-.554 2.7-.139 6.023 1.661 11.77 6.23 37.527 26.03 42.028 39.739 1.939 5.953 2.908 13.084 3.323 37.8.485 32.676 2.978 38.769 11.079 38.769 10.593 0 28.318-14.746 54.837-51.716a631 631 0 0 0 40.02-63.692c.484-1.246 0-2.077-.831-2.63-.9-.485-1.87-.347-2.7.83-4.017 5.539-20.08 26.515-28.942 36.692-21.118 24.37-28.942 31.5-33.166 29.285-1.038-.623-1.454-2.077-1.454-5.677-.069-12.6 5.54-43.2 16.064-53.585 4.639-4.569 10.732-9 33.65-21.6 30.257-16.823 34.619-21.807 30.603-28.246-5.4-8.515-27.972-15.438-75.747-18.277a746 746 0 0 0-79.417-.277c-1.385.208-1.938.97-1.938 1.939s.553 1.661 2.077 1.73c7.2.416 34.827 2.978 48.674 4.916 33.304 4.846 43.898 7.615 43.898 12.046 0 1.108-1.108 2.216-4.5 4.016-11.702 6.369-43.067 17.1-58.092 13.846M5037.212 84.78l47.964-79.875h-48.954l-25.513 40.5-27.447-40.5h-53.634l56.56 79.785-56.56 90h53.634l30.597-51.165 36.266 51.165H5098zM4859.84 4.905 4823.44 95.76l-34.511-90.855h-43.51l-28.888 170.01h43.96l14.22-97.965h.45l38.965 97.965h17.593l40.81-97.965h.54l12.374 97.965h44.185l-25.737-170.01zM4635.765 80.1v34.56h35.996c-1.89 19.395-16.558 29.34-35.546 29.34-28.887 0-44.5-26.595-44.5-52.875S4606.698 37.8 4635.54 37.8c17.728 0 30.417 10.71 36.491 26.775l41.666-17.46C4699.163 15.615 4672.257 0 4637.52 0 4583.121 0 4546 36 4546 90.855 4546 144 4582.896 180 4635.99 180c28.212 0 53.094-10.08 69.563-33.12 14.803-20.88 16.828-42.12 17.278-66.78zM1738.498 358 1816 448.581 1738.492 538h-191.698L1469 448.289 1546.787 358zm-4.422 9.08h-182.872l-70.195 81.495 70.182 80.916h182.904l69.908-80.643zm-85.07 57.46c7.39 0 16.757 3.721 18.021 19.094.025.362.057.978.095 1.721h-11.132c-.07-2.152-.172-3.13-.172-3.175-.05-4.05-2.046-8.178-6.786-8.147-4.613.032-6.392 3.594-6.793 8.192-.09 1.05-.286 2.641-.292 8.088v.702q0 .72.007 1.528c.044 6.23-.007 7.868.197 9.989.343 3.486 2.192 8.223 6.881 8.223 5.026 0 6.469-4.369 6.786-8.477.038-.521.096-1.251.14-2.064h11.133c.031.305-.032.616-.064 1.067-1.048 12.338-7.085 19.005-18.02 18.967-10.561-.026-17.303-7.233-18.02-18.967-.057-.79-.276-3.632-.292-7.251v-.734q0-.372.005-.753c.051-5.924.204-7.772.305-8.775 1.15-12.567 7.53-19.228 18.002-19.228m-43.907 0c7.39 0 16.394 3.404 17.99 19.253.069.743.15 2.442.214 4.2l.026.753c.05 1.505.083 2.96.083 3.797 0 4.312-.241 7.912-.292 8.738-.737 11.614-7.46 18.967-18.02 18.967-10.555 0-17.303-7.233-18.015-18.967-.057-.896-.33-4.426-.292-8.738.057-5.924.21-7.772.312-8.775 1.15-12.567 7.523-19.228 17.994-19.228m130.8 0c5.28 0 9.735 2.051 12.887 5.938 2.726 3.359 4.505 8.553 4.848 13.309.21 3.092.254 4.56.292 5.442.028.883.038 1.997.04 3.024l-.001.913c-.003 1.16-.013 2.038-.013 2.038h-25.093c-.012 4.553.21 5.893.267 7.093.311 4.222 2.11 8.458 6.774 8.458 5.477 0 6.506-5.588 6.824-8.204.087-.69.106-1.296.109-1.607v-.213l-.001-.009h10.802c-.712 12.293-7.542 19.526-17.734 19.526-10.218 0-17.049-7.423-17.728-18.967-.045-.82-.286-4.426-.286-8.738 0-6.057.184-7.639.298-8.769 1.246-12.636 7.58-19.234 17.716-19.234m-176.352-19.037c10.522.115 19.462 5.163 19.513 19.558.045 9.449-3.895 13.976-6.939 15.805 4.213 2.457 6.336 7.258 6.838 15.398l.515 8.117.05.79.025.395.05.79.516 8.107c.095 2.565.572 4.597.578 4.597h-11.113s-.464-2.089-.56-4.527l-1.156-17.22c-.61-8.783-4.638-11.907-8.216-11.907h-6.182l-.007 33.648h-11.107v-73.55Zm125.83-.584v22.733c2.396-1.911 5.84-3.067 9.443-3.118 3.317-.05 6.735.927 8.909 2.553 5.102 3.778 6.424 7.39 6.43 17.544v34.423h-11.253l.012-33.997c0-3.016.083-5.779-1.315-7.855-1.309-1.962-3.901-2.775-5.77-2.692-4.193.177-6.455 3.15-6.455 5.848v38.696h-11.253V404.92zm-80.258 29.114c-4.607 0-6.73 4.096-6.787 8.192-.006.025-.292 3.048-.292 10.318v.391c.01 6.692.26 9.137.29 9.331l.002.013c.204 3.924 2.104 8.477 6.787 8.477 4.689 0 6.405-4.261 6.798-8.287.058-.628.286-2.673.286-9.925v-.4c-.01-6.981-.286-9.894-.292-9.963-.057-4.05-2.186-8.147-6.792-8.147m130.806 0c-4.556.032-6.538 3.709-6.856 8.147l-.011.162-.01.16c-.032.595-.043 1.287-.113 3.361h14.043c.02-1.092-.102-2.12-.197-3.657-.19-2.928-1.461-8.21-6.856-8.173m-177.135-19.05h-5.324v20.93h5.865c6.78 0 8.21-5.677 8.533-8.934l.016-.177c.026-.329.035-.713.035-1.557 0-.85-.044-1.314-.057-1.714-.14-5.48-3.279-8.547-9.068-8.547M102.62 376.596c0-14.876-14.13-18.595-25.284-18.595v2.231c6.693 0 11.898 2.232 11.898 7.438 0 2.976-2.23 7.438-8.923 7.438-5.206 0-16.36-2.975-24.54-5.95-9.667-3.719-18.59-6.694-26.026-6.694-14.873 0-25.283 11.157-25.283 23.801 0 11.157 8.18 14.876 11.154 16.364l.744-1.488c-1.488-1.487-3.719-2.975-3.719-7.438 0-2.975 2.975-8.181 10.411-8.181 6.693 0 15.616 2.975 27.514 6.694 10.41 2.975 21.565 5.206 27.514 5.95v23.058l-11.154 9.67v.743l11.154 9.67v31.983c-5.95 3.72-12.642 4.463-18.59 4.463-11.155 0-20.822-2.975-29.002-11.9l30.489-14.877v-51.322l-37.181 16.364c2.974-9.67 11.154-16.364 19.334-20.827l-.744-2.231C20.078 398.909 0 419.736 0 445.025c0 29.752 24.54 52.066 52.053 52.066 29.745 0 49.079-23.802 49.079-48.347h-1.487c-4.462 9.67-11.155 18.595-19.334 23.058v-30.496l11.898-9.67v-.743l-11.898-9.67v-23.058c11.154 0 22.308-7.438 22.308-21.57m-64.695 81.818-8.923 4.463c-5.205-6.694-8.18-15.62-8.18-28.264 0-5.207 0-11.157 1.488-15.62l15.615-6.694zm78.824 17.108-9.667 7.438 1.487 1.487 4.462-3.719 16.36 14.876 22.308-14.876-.744-1.487-5.949 3.719-7.436-7.438v-50.579l5.95-4.463 12.64 10.414v45.371c0 28.265-5.948 32.728-18.59 37.19v2.232c20.822.744 40.156-5.95 40.156-42.397V424.2l6.692-5.207-1.487-1.488-5.949 4.463-18.59-15.62-20.822 15.62v-60.992h-1.487l-26.027 17.851v1.488c2.975 1.488 7.437 2.975 7.437 11.157zm136.082-8.182-18.59 14.132-18.59-14.876v-8.926l34.95-23.801v-.744l-17.848-26.777-38.668 20.827v49.09l-7.436 5.95 1.487 1.488 6.693-5.206 25.283 18.595 33.463-26.777zm-37.18-12.645v-36.446l1.486-.744 16.36 26.033zm179.21-84.793c0-2.232-.743-4.463-1.486-6.694h-1.488c-2.23 5.95-5.205 8.925-12.641 8.925-6.693 0-11.154-3.719-14.129-6.694l-21.565 24.545 1.488 1.488 7.436-6.694c4.461 3.719 8.18 6.694 18.59 7.438v61.735l-43.873-75.124c-3.718-5.95-8.924-14.132-19.334-14.132-11.898 0-22.309 10.413-20.822 26.777h2.231c.744-4.463 2.975-9.67 8.18-9.67 3.718 0 7.436 3.72 9.667 7.439v24.545c-13.385 0-22.308 5.95-22.308 17.108 0 5.95 2.974 14.876 11.897 17.107v-1.488c-1.487-1.487-2.23-2.975-2.23-5.206 0-3.72 2.974-6.694 8.18-6.694h3.717v31.24c-15.616 0-28.257 8.925-28.257 23.8 0 14.133 11.898 20.827 25.283 20.084v-1.488c-8.18-.744-11.898-4.463-11.898-9.67 0-6.694 4.462-9.669 10.41-9.669 5.95 0 11.155 3.72 14.873 8.182l21.565-23.802-1.487-1.487-5.206 5.95c-8.18-7.438-12.641-9.67-22.308-11.157v-74.38l59.49 104.132h4.461V392.215c11.154-.744 21.565-9.67 21.565-22.314m54.284 97.438-18.59 14.132-18.59-14.876v-8.926l34.95-23.801v-.744l-17.848-26.777-38.668 20.827v49.09l-7.436 5.95 1.487 1.488 6.693-5.206 25.283 18.595 33.463-26.777zm-37.18-12.645v-36.446l1.486-.744 16.36 26.033zm158.39-40.165-5.206 3.719-14.128-11.9-16.36 14.875 6.693 6.694v55.785l-17.847-11.157V426.43l5.949-3.72-17.103-16.363-16.36 14.876 6.692 6.694v53.554l-2.23 1.488-15.616-11.157v-44.628c0-10.414-5.206-13.389-11.155-17.108-5.205-3.719-8.18-5.95-8.18-11.157 0-4.463 4.462-6.694 6.693-8.182v-1.487c-5.949 0-21.565 5.95-21.565 20.082 0 7.438 3.718 10.414 7.436 14.133s7.437 6.694 7.437 13.388v43.14l-8.18 5.95 1.487 1.488 7.436-5.95 17.103 14.876 18.59-12.645 20.822 12.645 39.412-23.058v-49.834l9.667-7.438zm138.313-40.91-7.437 6.695-16.36-14.876-24.539 17.851v-16.363h-2.23l.743 120.495c-2.23 0-8.923-1.487-14.129-2.975l-1.487-100.413c0-7.438-5.205-17.851-18.59-17.851s-22.309 10.413-22.309 20.826h2.231c.744-4.463 2.975-8.182 7.436-8.182s8.18 2.976 8.18 12.645v29.008c-13.385.744-21.565 8.182-21.565 17.852 0 5.95 2.975 14.876 11.898 14.876v-1.488c-2.974-1.488-3.718-3.719-3.718-5.207 0-4.462 3.718-5.95 9.667-5.95h2.974v46.116c-11.154 3.719-15.616 11.9-15.616 20.826 0 12.645 9.668 21.57 24.54 21.57 10.41 0 19.334-1.487 28.257-3.719 7.437-1.487 17.104-3.719 21.565-3.719 5.95 0 8.18 2.976 8.18 6.695 0 5.206-2.23 7.438-5.205 8.181V538c11.898-2.231 19.334-9.67 19.334-20.826s-11.154-17.852-23.052-17.852c-5.95 0-18.59 2.232-27.514 3.72-10.41 2.23-20.822 3.718-23.796 3.718-5.205 0-11.154-2.231-11.154-9.67 0-5.95 5.205-11.156 17.847-11.156 6.692 0 14.872.744 23.052 2.975 8.923 2.231 17.103 4.463 24.54 4.463 11.153 0 20.82-3.72 20.82-19.339v-91.488l8.924-7.438zm-30.489 45.373c-2.23 2.231-5.205 4.463-8.923 4.463s-7.436-2.232-8.924-4.463v-32.728l7.437-5.206 10.41 9.67zm0 22.314c-1.487-1.488-5.205-3.72-8.923-3.72s-7.436 2.232-8.924 3.72v-19.34c1.488 1.489 5.206 3.72 8.924 3.72s7.436-2.231 8.923-3.72zm0 34.958c0 5.95-3.718 11.901-11.898 11.901h-5.949v-43.884c1.488-1.488 5.206-3.719 8.924-3.719s6.692 2.231 8.923 3.719zm101.876-52.81-23.796-17.107-36.437 20.827v48.347l-7.436 5.95.743 1.488 5.95-4.463 23.795 17.851 37.18-22.314zm-40.155 46.86V416.76l18.59 13.389v52.81zm110.799-62.48h-1.488c-2.23 1.488-4.461 2.976-6.692 2.976-2.975 0-6.693-1.488-8.18-3.72h-1.487l-12.642 14.133-12.641-14.132-22.309 14.876.744 1.488 5.949-3.72 7.436 8.182v46.86l-9.667 7.438 1.487 1.487 4.462-3.719 17.847 14.877 23.052-15.62-.744-1.488-6.692 3.72-8.924-7.439v-52.066c3.718 3.719 8.18 7.438 13.385 7.438 10.411.744 16.36-9.67 17.104-21.57m89.234 71.405-25.283 17.107-34.207-52.066 24.54-37.934h1.487c2.974 2.975 7.436 5.95 12.641 5.95 5.206 0 8.924-2.975 11.155-5.95h1.487c-.744 14.876-11.154 23.802-18.59 23.802-7.437 0-11.155-3.72-15.617-5.95l-2.23 3.718 37.18 55.042 7.437-4.463zm-81.798-3.72-9.667 7.439 1.487 1.487 4.462-3.719 16.36 14.876 22.308-14.876-1.487-1.487-5.95 3.719-7.436-7.438V360.975h-.743l-26.77 17.851v1.488c2.974 1.488 7.436 2.231 7.436 11.157zm205.238-98.925c0-14.876-14.129-18.595-25.283-18.595v2.231c6.693 0 11.898 2.232 11.898 7.438 0 2.976-2.23 7.438-8.923 7.438-5.206 0-16.36-2.975-24.54-5.95-9.667-2.975-18.59-5.95-26.026-5.95-14.873 0-25.283 11.157-25.283 23.801 0 11.157 8.18 14.876 11.154 16.364l.744-1.488c-2.231-1.487-4.462-2.975-4.462-7.438 0-2.975 2.974-8.182 10.41-8.182 6.693 0 15.616 2.976 27.514 6.695 10.411 2.975 21.565 5.206 27.514 5.95v23.058l-11.154 9.67v.743l11.154 9.67v31.983c-5.949 3.72-12.641 4.463-18.59 4.463-11.155 0-20.822-2.975-29.001-11.901l30.488-14.876v-52.066l-37.18 16.364c3.717-9.67 11.897-16.364 19.333-21.57l-.743-1.488c-22.309 5.95-42.387 26.033-42.387 51.322 0 29.752 24.54 52.066 52.054 52.066 29.744 0 49.078-23.802 49.078-48.347h-1.487c-4.462 9.67-11.154 18.595-19.334 23.058v-30.496l11.898-9.67v-.743l-11.154-9.67v-22.314c11.154 0 22.308-7.438 22.308-21.57m-64.695 81.818-8.923 4.463c-5.205-6.694-8.18-15.62-8.18-28.264 0-5.207.744-11.157 2.231-15.62l15.616-6.694zm90.722-89.256h-.744l-14.872 12.645v.743l12.641 14.133h1.488l14.872-12.645v-.744zm22.308 110.083-5.949 3.719-7.436-7.438v-51.323l7.436-5.206-1.487-1.488-5.205 4.463-13.385-15.62-21.565 14.876 1.487 2.232 5.205-3.72 6.693 8.182v48.347l-9.667 7.438.743 1.488 5.206-3.719 16.36 14.876 22.308-14.876zm124.184-.744-5.205 3.719-8.18-7.438v-50.579l7.437-5.95-1.488-1.488-5.949 5.207-17.103-15.62-22.308 15.62-17.104-15.62-20.82 15.62-13.386-15.62-21.565 14.876.744 2.232 5.205-3.72 7.436 8.182v48.347l-5.949 5.95 17.103 14.133 16.36-14.876-6.693-6.694v-50.579l6.693-4.462 11.154 10.413v44.628l-5.949 5.95 17.104 14.133 16.36-14.877-6.693-6.694V424.2l5.949-3.72 11.897 10.414v44.628l-5.205 5.206 17.103 15.62 23.052-15.62zm64.695-11.157-18.59 14.132-18.59-14.876v-8.926l34.95-23.801v-.744l-17.847-26.777-38.669 20.827v50.578l26.027 18.595 33.463-26.777zm-37.18-12.645v-36.446l1.487-.744 16.36 26.033zm104.85-6.694-14.13-11.157c9.668-8.182 13.386-19.339 13.386-26.777v-4.463h-1.487c-1.488 3.72-4.462 7.438-10.411 7.438-5.95 0-9.667-2.975-13.385-7.438l-33.463 18.595v26.777l12.641 9.67c-12.641 11.157-14.872 18.595-14.872 24.545 0 7.438 3.718 12.645 9.667 14.876l.744-1.487c-1.487-1.488-2.975-2.232-2.975-5.95 0-2.232 2.975-5.951 8.924-5.951 7.436 0 11.898 5.206 14.128 7.438l31.976-19.34V448zm-8.18-22.314c-5.206 8.926-16.36 17.851-23.053 22.314l-8.18-6.694v-26.033c2.975 7.438 11.155 13.388 19.335 13.388 5.205 0 8.18-.744 11.898-2.975m-12.642 59.504c-3.718-8.182-12.641-14.132-21.565-14.132-2.23 0-8.18 0-14.129 3.719 3.719-5.95 13.386-16.364 26.027-23.802l8.923 7.438zm1118.416-88.232c0 18.124-10.397 27.544-25.947 27.544-15.372 0-25.858-9.42-25.858-27.01v-36.164h7.021v35.718c0 13.419 7.11 20.97 19.014 20.97 11.462 0 18.749-6.932 18.749-20.524v-36.164h7.02zm20.503 26.564h-6.84v-45.934h6.84v7.997c3.022-4.975 7.82-8.974 15.73-8.974 11.104 0 17.59 7.463 17.59 18.394v28.52h-6.84v-26.832c0-8.528-4.621-13.861-12.707-13.861-7.91 0-13.773 5.775-13.773 14.395zm46.276-55.973v-7.552h7.82v7.552zm.446 55.973v-45.934h6.84v45.934zm54.992-45.934h7.375l-19.99 46.291h-6.045l-19.902-46.291h7.552l15.46 38.117zm33.926 41.047c6.306 0 10.75-2.576 14.484-6.486l4.264 3.822c-4.621 5.152-10.216 8.62-18.925 8.62-12.616 0-22.924-9.685-22.924-23.992 0-13.326 9.331-23.988 22.036-23.988 13.596 0 21.416 10.839 21.416 24.345 0 .62 0 1.33-.088 2.134h-36.428c.97 9.95 8.079 15.545 16.165 15.545m13.415-20.612c-.711-8.351-5.51-15.637-14.661-15.637-7.994 0-14.038 6.667-14.927 15.637zm23.975 25.499h-6.84v-45.934h6.84v11.995c3.376-7.64 10.04-13.149 18.748-12.795v7.374h-.534c-10.04 0-18.214 7.198-18.214 21.058zm42.55.892c-6.575 0-13.862-2.576-19.014-6.756l3.464-4.886c4.976 3.73 10.486 5.863 15.904 5.863 5.51 0 9.508-2.841 9.508-7.286v-.177c0-4.621-5.421-6.398-11.462-8.085-7.198-2.046-15.195-4.53-15.195-12.973v-.177c0-7.909 6.575-13.15 15.638-13.15 5.598 0 11.82 1.954 16.526 5.065l-3.111 5.152c-4.264-2.757-9.151-4.445-13.592-4.445-5.422 0-8.886 2.842-8.886 6.663v.177c0 4.353 5.687 6.04 11.82 7.909 7.109 2.134 14.749 4.887 14.749 13.15v.176c0 8.712-7.198 13.78-16.35 13.78m27.443-56.865v-7.552h7.82v7.552zm.442 55.973v-45.934h6.84v45.934zm30.203-13.057c0 5.598 3.11 7.64 7.732 7.64 2.311 0 4.265-.447 6.664-1.6v5.863c-2.4 1.242-4.976 1.954-8.263 1.954-7.375 0-12.973-3.642-12.973-12.973v-27.721h-6.398v-6.044h6.398v-13.86h6.84v13.86h14.573v6.044h-14.573zm47.26 14.568c-3.91 9.508-8.355 12.972-15.284 12.972-3.822 0-6.663-.8-9.774-2.31l2.31-5.418c2.223 1.154 4.265 1.688 7.199 1.688 4.087 0 6.663-2.134 9.42-8.62l-20.882-45.757h7.551l16.703 38.294 14.75-38.294h7.286zm74.169-.442c-13.773 0-23.813-10.839-23.813-23.9s10.132-24.08 23.99-24.08c13.773 0 23.9 10.839 23.9 23.9s-10.216 24.08-24.077 24.08m0-41.94c-9.951 0-16.795 7.91-16.795 17.86s7.286 17.947 16.968 17.947c9.951 0 16.884-7.909 16.884-17.77.003-10.04-7.372-18.037-17.057-18.037m58.538-4.886v5.863h-14.485v39.894h-6.84v-39.89h-6.31v-5.952h6.31v-3.999c0-10.042 5.064-15.371 13.861-15.371 3.2 0 5.33.353 7.552 1.153v5.952c-2.488-.711-4.356-1.154-6.667-1.154-5.33 0-7.994 3.2-7.994 9.774v3.733h14.573zm-496.532 150.461c-17.949 0-31.187-14.126-31.187-32.073 0-17.771 13.15-32.25 31.453-32.25 11.285 0 18.037 3.998 24.258 9.861l-4.799 5.152c-5.24-4.975-11.104-8.527-19.548-8.527-13.773 0-24.081 11.107-24.081 25.587 0 14.483 10.397 25.768 24.081 25.768 8.528 0 14.127-3.287 20.083-8.974l4.618 4.53c-6.483 6.574-13.593 10.926-24.878 10.926m36.856-38.206-2.046-5.598c5.064-2.31 10.04-3.821 16.703-3.821 12.528 0 19.549 6.394 19.549 18.482v28.075h-6.575v-6.929c-3.2 4.176-8.529 7.909-16.615 7.909-8.528 0-17.149-4.798-17.149-14.395 0-9.774 7.994-14.926 19.637-14.926 5.864 0 10.043.8 14.127 1.957v-1.6c0-8.262-5.064-12.526-13.685-12.526-5.414-.003-9.682 1.42-13.946 3.372m.8 23.458c0 5.863 5.329 9.239 11.55 9.239 8.44 0 15.37-5.152 15.37-12.438v-4.445c-3.377-.976-7.91-1.953-13.505-1.953-8.617.004-13.415 3.733-13.415 9.597m46.81 13.683V462.3h6.84v64.862zm21.14-55.973v-7.555h7.821v7.552h-7.82zm.443 55.973v-45.934h6.84v45.934zm44.864-45.757v5.863h-14.484v39.894h-6.84v-39.894h-6.306v-5.955h6.306v-3.995c0-10.043 5.067-15.372 13.861-15.372 3.2 0 5.33.354 7.552 1.154v5.952c-2.488-.712-4.353-1.154-6.664-1.154-5.33 0-7.994 3.2-7.994 9.774v3.733zm27 46.822c-13.772 0-23.812-10.838-23.812-23.9 0-13.06 10.132-24.08 23.993-24.08 13.773 0 23.901 10.84 23.901 23.9 0 13.061-10.22 24.08-24.081 24.08m0-41.935c-9.95 0-16.794 7.909-16.794 17.859s7.286 17.948 16.972 17.948c9.95 0 16.883-7.91 16.883-17.771 0-10.039-7.374-18.036-17.06-18.036m41.478 40.87h-6.84v-45.934h6.84v11.996c3.376-7.643 10.04-13.15 18.749-12.796v7.375h-.535c-10.04 0-18.214 7.197-18.214 21.058zm34.199 0h-6.84v-45.934h6.84v7.997c3.022-4.975 7.82-8.973 15.73-8.973 11.104 0 17.591 7.462 17.591 18.393v28.521h-6.84v-26.833c0-8.528-4.622-13.86-12.708-13.86-7.91 0-13.773 5.774-13.773 14.394zm46.276-55.973v-7.555h7.82v7.552h-7.82zm.446 55.973v-45.934h6.84v45.934zm23.628-37.14-2.046-5.599c5.064-2.31 10.04-3.821 16.703-3.821 12.528 0 19.549 6.394 19.549 18.482v28.075h-6.575v-6.929c-3.2 4.176-8.529 7.909-16.615 7.909-8.528 0-17.149-4.798-17.149-14.395 0-9.774 7.994-14.926 19.637-14.926 5.864 0 10.043.8 14.127 1.957v-1.6c0-8.262-5.064-12.526-13.685-12.526-5.418-.003-9.682 1.42-13.946 3.372m.8 23.457c0 5.863 5.33 9.239 11.55 9.239 8.44 0 15.37-5.152 15.37-12.438v-4.445c-3.377-.976-7.91-1.953-13.505-1.953-8.62.004-13.415 3.733-13.415 9.597m48.583 13.683h-3.2v-9.327h8.175v7.993c0 7.198-3.11 10.662-9.862 12.173l-1.069-3.11c4.449-1.596 6.313-3.907 5.956-7.729m51.255-62.194v62.194h-7.017v-62.194zm22.117 62.194h-6.84v-45.934h6.84v11.996c3.376-7.643 10.04-13.15 18.749-12.796v7.375h-.535c-10.039 0-18.214 7.197-18.214 21.058zm61.387-45.934h7.375l-19.99 46.292h-6.045l-19.902-46.292h7.552l15.46 38.118zm16.512-10.039v-7.555h7.82v7.552h-7.82zm.446 55.973v-45.934h6.84v45.934zm27.8 0h-6.84v-45.934h6.84v7.997c3.022-4.975 7.82-8.973 15.73-8.973 11.105 0 17.591 7.462 17.591 18.393v28.521h-6.84v-26.833c0-8.528-4.622-13.86-12.708-13.86-7.91 0-13.773 5.774-13.773 14.394zm66.359-4.886c6.31 0 10.75-2.576 14.484-6.487l4.264 3.822c-4.622 5.152-10.216 8.616-18.929 8.616-12.616 0-22.924-9.681-22.924-23.988 0-13.326 9.328-23.987 22.036-23.987 13.592 0 21.413 10.838 21.413 24.345 0 .62 0 1.33-.085 2.134h-36.432c.977 9.947 8.086 15.545 16.173 15.545m13.419-20.613c-.712-8.35-5.51-15.637-14.665-15.637-7.998 0-14.038 6.664-14.927 15.637zM1916 454.42v-93.11h46.438v92.163c0 23.929 12.082 35.302 30.565 35.302 18.719 0 30.804-10.898 30.804-34.12V361.31h46.442v91.924c0 53.309-30.569 77.002-77.718 77.002-46.917 0-76.531-23.929-76.531-75.815m176.513-9.711v-.472c0-48.333 36.963-86.237 87.197-86.237 33.878 0 55.674 14.214 70.365 34.351l-34.589 26.774c-9.483-11.605-20.381-19.429-36.251-19.429-23.223 0-39.565 19.905-39.565 44.07v.475c0 24.876 16.346 44.298 39.565 44.298 17.292 0 27.483-8.056 37.438-20.13l34.589 24.637c-15.642 21.563-36.727 37.432-73.21 37.432-47.393-.007-85.539-36.256-85.539-85.769m184.566-83.4h45.967V527.15h-45.967zm1119.987-2.88c-24.071 0-46.424 13.318-58.03 34.368l-14.185 26.205-1.72 3.437-1.719 3.007-42.985 79.046-70.066-131.027h31.38l24.93 46.826 13.326 24.487 13.756-24.057 26.22-46.826h22.783c5.588-6.014 12.036-11.17 18.913-15.465h-50.722l-30.52 54.558-29.66-54.558H3183l95.427 178.71 53.302-98.376 9.027-16.325 1.72-3.007 10.316-18.902c.43-.86 1.29-2.148 1.719-3.007 6.878-10.74 17.194-18.473 29.66-21.91 3.439-.859 6.877-1.718 10.316-1.718h142.711l-14.185 26.205h-64.478l-4.298 8.163-60.18 111.694h-31.809l52.442-97.088 12.036-22.34h-62.758c-3.44 5.586-8.597 15.466-8.597 15.466h45.994l-64.478 119.427h66.197l64.048-119.856h64.478l30.52-57.136zm249.315 54.989s7.307-16.325 10.746-24.487c3.439-8.163 7.307-16.325 10.746-24.487.86-1.718 2.15-3.437 3.869-4.296 1.72-1.289 3.439-1.718 5.588-1.718h9.027l-34.818 79.475h-13.326l-34.388-79.475h9.027c.86 0 2.15 0 3.01.43l2.578 1.288c.86.43 1.72 1.289 2.15 2.148.86.86 1.289 1.718 1.719 2.578l21.492 48.973 1.29 3.007zm66.627 24.057h-14.615V358.43h14.615zm163.343-42.1v33.078c-2.149 2.148-4.298 3.437-6.447 4.726s-4.729 2.148-7.308 3.007c-2.579.86-5.158 1.289-7.737 1.719-2.58.43-5.588.43-8.167.43-5.588 0-10.747-.86-15.905-3.008-4.728-2.148-9.027-5.155-12.895-8.592-3.87-3.866-6.448-7.733-8.598-12.888-2.149-4.725-3.008-10.31-3.008-15.895 0-3.866.43-7.303 1.29-10.74.859-3.436 2.148-6.873 4.298-9.45 1.719-3.008 3.868-5.585 6.447-8.163s5.159-4.725 8.168-6.444c3.009-1.718 6.447-3.007 9.886-3.866 3.439-.86 6.878-1.289 10.746-1.289 3.01 0 6.018.43 8.598.86 3.008.858 5.588 1.718 8.167 3.006 2.579 1.29 5.158 2.578 7.737 4.726 2.58 1.718 4.728 3.866 6.878 6.014l-3.44 3.437c-.859.86-2.148 1.718-3.438 2.578-1.29.43-2.58.859-4.298.859-2.15 0-3.87-.43-5.589-1.719-2.149-1.288-4.298-2.577-6.877-3.436q-3.869-1.29-7.738-1.29c-3.438 0-6.877.86-9.886 2.149-3.01 1.289-6.018 3.007-8.167 5.584-2.15 2.148-4.299 5.156-5.588 8.163-1.29 3.007-2.15 6.444-2.15 9.88 0 3.867.86 6.874 2.15 10.31 1.29 3.008 3.438 6.015 6.018 8.163s5.158 4.296 8.597 5.585 6.447 2.148 10.316 2.148c1.72 0 3.439 0 5.158-.43s3.01-.43 4.729-.86c1.719-.429 3.438-1.288 4.728-2.147v-11.17h-4.728c-1.29 0-3.01-.43-3.869-.859-1.29-.43-2.15-1.288-3.009-3.007-.86-1.289-.86-3.437-.86-6.014v-4.296h25.791zm37.827 42.1h-14.615V358.43h14.615zm38.687-59.284v59.284h-14.615V358.43h12.896c1.72 0 3.438.43 4.728.859 1.29.43 2.58 1.289 3.009 2.577 5.588 7.733 35.248 49.833 35.248 49.833v-53.27h14.615v79.476h-13.326zm94.568 59.284h-14.615V358.43h14.615zm59.749-79.045h-13.325l-34.818 79.475h9.026c.86 0 2.15 0 3.01-.43l2.579-1.289c.86-.43 1.719-1.289 2.149-1.718.86-.86 1.29-1.719 1.72-2.578l4.728-10.74 8.597-19.331 9.456-22.34 11.606 27.065h-6.447c-4.729 0-9.457 3.007-11.177 7.303l-3.009 7.303h27.511l4.728 10.74c.86 1.719 2.15 3.437 3.869 4.296s3.439 1.719 5.588 1.719H4142zm-355.488 79.045h-14.615V358.43h29.66c3.869 0 7.308.859 10.317 2.148 3.009 1.288 5.588 3.436 8.167 5.584 2.149 2.578 3.868 5.155 5.158 8.163s1.72 6.014 1.72 9.45c0 2.149-.43 4.726-.86 6.874s-1.72 4.296-2.58 6.444c-1.289 2.148-2.579 3.866-4.298 5.585-1.72 1.718-3.869 3.007-6.018 4.296 3.869 5.155 7.737 10.31 11.606 15.895l11.606 15.465h-11.176c-.86 0-1.72 0-2.58-.43-.859-.43-2.148-.859-3.438-1.718s-2.15-1.718-3.439-3.007-2.579-2.578-3.439-4.296l-14.615-19.332h-10.746zm15.905-42.96c1.29 0 2.579-.43 3.869-.859 1.29-.43 2.579-1.288 3.438-2.577.86-.86 1.72-2.148 2.15-3.437s.86-2.578.86-3.866c0-1.29-.43-3.008-.86-4.296-.43-1.29-1.29-2.578-2.15-3.437-.86-.86-2.149-1.718-3.438-2.578-1.29-.43-2.58-.859-3.87-.859h-15.904v21.48h15.905zm-153.028 76.898v-14.177h61.47v14.177h-23.213v65.298h-14.615v-65.298zM3738.8 536.71h-51.153v-79.045h51.153v13.747h-36.538v18.472h29.66v13.747h-29.66v19.332h36.538zm24.501-39.522c0 3.436.86 6.873 2.15 10.31 1.29 3.007 3.438 6.014 5.588 8.162 2.579 2.148 5.158 4.296 8.167 5.585s6.448 2.148 10.316 2.148c2.58 0 5.588-.43 7.738-1.289 2.579-.86 4.728-2.148 6.877-3.437l2.58-1.289c.86-.43 1.719-.43 3.008-.43 1.72 0 3.01.43 4.299.86s2.15 1.289 3.439 2.148l3.438 3.437c-2.149 2.148-4.298 4.296-6.877 6.014-2.58 1.718-4.729 3.437-7.737 4.726-2.58 1.288-5.159 2.148-8.168 3.007s-5.588.859-8.597.859c-5.588 0-10.746-.86-15.904-3.007-4.729-2.148-9.027-5.155-12.896-8.592-3.868-3.866-6.448-7.733-8.597-12.888-2.15-4.725-3.009-10.31-3.009-15.895 0-3.866.43-7.303 1.29-10.74.86-3.436 2.149-6.873 4.298-9.45 1.72-3.008 3.869-5.586 6.448-8.163s5.158-4.726 8.167-6.444c3.01-1.718 6.448-3.007 9.887-3.866 3.439-.86 6.877-1.29 10.746-1.29 3.01 0 6.018.43 8.597.86 3.01.86 5.588 1.718 8.167 3.007 2.58 1.289 5.159 2.578 7.738 4.726 2.579 1.718 4.728 3.866 6.877 6.014l-3.438 3.437c-.86.859-2.15 1.718-3.44 2.148-1.289.43-2.578.859-4.298.859-2.15 0-3.868-.43-5.588-1.718-2.15-1.29-4.298-2.578-6.878-3.437q-3.868-1.29-7.737-1.289c-3.439 0-6.877.86-10.316 2.148-3.01 1.289-6.018 3.007-8.168 5.585-2.579 2.148-4.298 5.155-5.588 8.162-2.149 2.148-2.579 5.585-2.579 9.022m140.992 39.522h-14.615v-33.079h-39.117v33.08h-14.615v-79.046h14.615v32.649h39.117v-32.65h14.615zm36.967 0h-2.15v-10.74l-4.298 10.74h-1.29l-4.298-10.74h-.43v10.74h-1.719v-12.888h3.009l3.869 9.022 3.868-9.022h3.44zm-16.764-10.74h-4.299v10.74h-1.72v-10.74h-4.298v-2.148h10.317zM4517.625 290c21.656 0 39.375 17.719 39.375 39.375v236.25c0 21.656-17.719 39.375-39.375 39.375h-236.25c-21.656 0-39.375-17.719-39.375-39.375v-236.25c0-21.656 17.719-39.375 39.375-39.375zm-88.436 268.138c-3.015 0-5.18 1.901-5.18 4.984.005 2.75 1.71 4.91 5.05 4.91 3.015 0 5.113-2.098 5.113-5.045 0-3.015-2.098-4.849-4.983-4.849m86.265-37.631h-29.3v46.867h29.958v-7.869h-20.059v-11.666h17.111v-7.864h-17.11v-11.604h19.4zm-60.137-.006h-12.65v46.873h11.666c16.126 0 24.384-9.174 24.384-23.86 0-14.356-7.279-23.013-23.4-23.013m-55.688 0h-15.67v46.873h17.437c11.013 0 16.256-5.242 16.256-13.111 0-10.03-8.848-11.144-8.848-11.144s6.294-2.688 6.294-10.49c0-7.87-5.046-12.128-15.469-12.128m-24.018.006h-29.307v46.867h29.96v-7.869h-20.06v-11.666h17.112v-7.864h-17.112v-11.604h19.407zm-82.182 0h-10.423l9.18 46.867h12.06l7.015-31.725 7.081 31.725h12.06l9.636-46.867h-9.765l-5.9 35.86-7.673-35.86h-10.159l-7.802 35.724zm106.46 26.882c5.045 0 7.801 1.968 7.801 6.16 0 4.195-2.554 6.49-8.392 6.49h-5.44v-12.65zm55.366-19.018c9.045 0 13.438 5.377 13.438 15.795 0 10.355-4.258 15.339-13.37 15.339h-2.757v-31.134zm-58.118-.524c5.834 0 8.196 1.964 8.196 6.098 0 4.196-2.362 6.294-7.211 6.294h-4.264v-12.392zm77.356-127.344c-1.958-2.942-2.56-5.816-7.071-5.36-4.106.41-5.62 6.108-4.916 9.573l1.766 7.048c.155.306.365 2.564.596 5.977l.066 1.006c.276 4.255.576 9.995.845 15.936l.05 1.116c.432 9.686.773 19.687.786 24.484v.53c-.003 1.013-.023 1.737-.065 2.105.02.965-.015 2.069-.063 3.194l-.06 1.354c-.029.675-.057 1.34-.074 1.971-10.67-1.012-22.275-1.794-34.7-2.34l.489-.388c5.945-4.623 3.887-10.766 2.891-17.46-.57-4.5-.717-12.475-.791-20.482l-.01-1.144c-.091-10.67-.081-21.11-.796-23.16-.624-2.065-2.064-3.501-3.615-4.96l-.52-.488a40 40 0 0 1-1.3-1.262c-2.62-2.7-5.911-3.527-8.932-.428-2.964 2.689.743 41.085.951 57.949.27 3.532-.518 7.96.889 11.373-.545-.02-7.715-.176-15.368-.327l-.92-.018-.923-.018-1.383-.027c-6.595-.128-12.91-.239-15.042-.247h-.4l-.187.002c.034-.596-.365-1.356-.652-1.935-.765-1.547-1.845-5.158-2.155-6.846a72 72 0 0 1-1.051-9.725c-.028-.833-.043-1.874-.047-3.071v-.927c.004-3.165.076-7.217.196-11.354l.033-1.13c.228-7.351.601-14.744 1.01-17.718.13-.937.317-1.98.502-3.07l.074-.439.036-.22.073-.444q.08-.502.153-1.006l.057-.405c.747-5.523.454-11.036-7.527-9.25-1.17.265-6.907.974-8.443 2.183-1.783 1.4-1.609 4.91-1.676 6.851-.115 3.331-.344 9.902-.557 16.617l-.057 1.833c-.216 6.92-.4 13.696-.411 16.944v.536l.001.239c.056 4.686.894 10.716 2.61 15.289 1.046 2.779 4.146 5.546 7.386 7.295l-.87.024c-5.638.158-10.924.336-12.861.443-10.057.563-17.77 1.12-25.284 1.856l-.096-.36c-1.26-3.88.551-19.9 4.039-49.944.843-7.245-.433-7.532-4.843-11.615-2.532-2.346-4.675-3.927-9.074-.4-2.79 2.239-2.064 5.113-2.542 8.342-1.67 11.267-4.106 28.963-5.141 40.433-.293 3.166.152 10.411.962 14.804.073.209.045.44.146.664a727 727 0 0 0-13.714 1.986c-12.071 1.873-22.742 2.334-29.992 5.585-4.455 2.009-4.708 2.672-5.76 4.298a4.24 4.24 0 0 0-.558 1.918c-.01.124.09 1.727.215 2.2a5.94 5.94 0 0 0 4.021 4.274c.253.08 1.095.183 1.968.273l.475.049c.865.085 1.659.152 1.821.168 8.1.815 12.56-1.153 20.48-4.275 39.235-15.655 151.505-10.913 176.232-6.238 10.738 2.137 27.315 4.376 37.592 10.265 1.676.917 3.245 1.587 4.68 2.02.72.22 1.412.326 2.047.478 1.575.371 3.252.034 3.533-.023a7.7 7.7 0 0 0 1.603-.483c.996-.422 1.8-1.035 2.182-1.778.276-.534.62-1.564.782-2.413a8.5 8.5 0 0 0-.045-2.048c-.197-1.4-.607-2.26-1.558-3.549-3.448-4.72-19.66-7.88-19.665-7.824-8.14-1.778-17.516-3.308-27.984-4.585 1.49-7.076-.068-20.131-.107-24.67.054-2.085.082-5.019.085-8.318v-1.112a716 716 0 0 0-.03-5.828l-.012-1.19c-.082-7.544-.284-15.034-.617-17.91-.467-4.978-1.13-7.155-3.858-11.273m-1.536-44.629c-25.262-4.067-70.718-8.454-119.098-2.812-8.027.94-22.112 1.94-30.336 5.27-3.64 1.474-3.583 1.508-4.033 3.893-.433 3.392 1.198 7.346 5.276 6.502 7.813-1.608 21.617-3.841 25.572-4.848 19.513-4.967 84.459-4 92.823-2.014 2.43.518 9.991 1 17.395 1.903l.943.118c8.009 1.02 15.566 2.562 15.913 5.213-66.274-2.745-91.575-2.717-151.082 4.353-4.972.822-7.96 1.907-11.88 3.235-4.832 1.625-8.1 7.571-1.417 10.04 2.53.934 5.894-.753 8.33-1.186.903-.158 2.847-.566 4.832-.898l.477-.079c3.177-.509 6.255-.758 5.137.588-1.052 1.272-3.769 1.277-6.188 1.986-3.358.99-8.747 1.547-8.955 5.867-.478 10.277 15.497 3.442 20.177 1.772 12.685-4.416 27.225-5.175 40.061-7.318 14.243-2.368 28.885-2.588 43.262-3.139 15.131-.58 31.41-1.215 46.277.883 3.96.557 7.706.996 11.734 1.418 3.487.36 10.845 3.56 13.95 2.092 2.818-1.333 1.541-4.669 2.998-6.373.55-.642 1.24-1.086 1.908-1.487l.249-.149c1.77-1.054 3.227-1.933 1.201-5.62-2.188-3.983-10.17-5.276-14.299-4.466-.224-1.372.247-1.664.803-1.858l.188-.062c.41-.133.83-.272 1.029-.786.731-1.885.731-4.793-.495-6.885-2.141-3.68-12.042-5.064-12.716-5.148Zm-63.85-37.136c-.36.03-.709.15-1.012.349-.529.343-1.283 1.457-1.66 2.39-1.034 2.554-1.49 12.426-4.05 12.59-2.784.18-2.7-6.323-2.328-8.213.062-.31-.006-.383-.13-.355-.264.073-.348.124-.562.197-1.67.641-3.577 2.582-3.718 2.723-2.621 2.689-6.165 9.703-4.376 12.932 1.861 3.335 7.441 4.117 9.399 4.291.453.04 1.516.093 2.942.098h.518c6.032-.024 17.397-.913 18.219-6.51.596-4.061-3.42-10.654-4.573-11.846-.532-.44-1.287.616-2.081 1.711l-.137.188-.193.263-.129.173c-1.335 1.761-2.678 2.864-3.17-3.41-.135-1.755-.585-4.472-1.412-6.13-.416-.833-.928-1.44-1.547-1.44m299.647 17.485a37.2 37.2 0 0 1 21.512.784l44.102 20.226a5.46 5.46 0 0 1 3.692 5.173v136.902a7.7 7.7 0 0 0 5.378 7.352l63.375 25.079a5.464 5.464 0 0 1 .378 10.258l-45.206 17.087a12.6 12.6 0 0 1-8.72.262l-67.563-26.736a12.525 12.525 0 0 1-8.576-12.147V386.787a5.49 5.49 0 0 0-3.372-5.056l-53.346-18.54a5.463 5.463 0 0 1 .669-10.346Zm89.147 32.601a5.53 5.53 0 0 1 5.044-.897l53.607 25.457c2.239.668 1.657 4.533 1.657 2.906l.93 116.53c0 7.034-2.764 7.074-5.801 6.066l-.281-.096a39 39 0 0 1-1.272-.477l-52.329-21.36a5.81 5.81 0 0 1-3.692-5.492V373.478a5.52 5.52 0 0 1 2.137-4.654m292.53 54.434a36.77 36.77 0 0 1 14.274 13.861 41.05 41.05 0 0 1 0 39.9 36.77 36.77 0 0 1-14.274 13.861 44.18 44.18 0 0 1-40.7 0 36.9 36.9 0 0 1-14.274-13.92 40.82 40.82 0 0 1 0-39.783 36.9 36.9 0 0 1 14.274-13.92 44.18 44.18 0 0 1 40.7 0m-147.246-4.883c4.493.003 8.967.58 13.315 1.715a36.6 36.6 0 0 1 11.396 4.998l-4.332 10.898a41.2 41.2 0 0 0-10.03-4.563 36.9 36.9 0 0 0-10.262-1.51 21.17 21.17 0 0 0-12.094 2.905 8.72 8.72 0 0 0-3.953 7.44 6.83 6.83 0 0 0 2.151 5.172 16.2 16.2 0 0 0 5.814 3.226q3.489 1.191 9.507 2.703a98 98 0 0 1 13.547 4.039 23.26 23.26 0 0 1 9.041 6.422 17.08 17.08 0 0 1 3.75 11.624 20 20 0 0 1-3.343 11.334 22.67 22.67 0 0 1-10.088 8.078 40 40 0 0 1-16.483 2.906 55.6 55.6 0 0 1-16.658-2.354 34.3 34.3 0 0 1-12.617-6.567l4.768-10.898a37.2 37.2 0 0 0 11.134 5.987 40.1 40.1 0 0 0 13.286 2.324c4.273.293 8.54-.645 12.297-2.702a8.2 8.2 0 0 0 4.07-7.12 6.97 6.97 0 0 0-2.268-5.347 15.8 15.8 0 0 0-5.814-3.284q-3.49-1.162-9.506-2.702A109 109 0 0 1 4926.12 459a22.5 22.5 0 0 1-8.983-6.393 17.43 17.43 0 0 1-3.78-11.827 20.34 20.34 0 0 1 3.344-11.363 22.44 22.44 0 0 1 10.059-8.137 40 40 0 0 1 16.425-2.906m88.377.901v11.915h-24.536v63.641h-13.751v-63.641h-24.536v-11.915zm25.263 14.792a24.3 24.3 0 0 0-9.303 9.473 29.28 29.28 0 0 0 0 27.288 24.1 24.1 0 0 0 9.303 9.473 27.77 27.77 0 0 0 26.63 0 24.1 24.1 0 0 0 9.302-9.473 29.05 29.05 0 0 0 0-27.288 24.3 24.3 0 0 0-9.303-9.473 27.77 27.77 0 0 0-26.63 0m242.164-15.809a44.1 44.1 0 0 1 16.92 3.139 32.76 32.76 0 0 1 12.79 9.154l-8.72 8.718a27.54 27.54 0 0 0-20.35-8.718 28.2 28.2 0 0 0-13.955 3.254 24.07 24.07 0 0 0-9.448 9.474 27.25 27.25 0 0 0-3.518 13.774 26.84 26.84 0 0 0 3.518 13.6 24.97 24.97 0 0 0 9.448 9.648 27.4 27.4 0 0 0 13.81 3.284 29.3 29.3 0 0 0 15.233-3.865l-.03-23.51h12.995v30.078a41.2 41.2 0 0 1-13.314 7.12 50.1 50.1 0 0 1-15.64 2.47 41.47 41.47 0 0 1-20.35-4.999 36.77 36.77 0 0 1-14.275-13.861 41.05 41.05 0 0 1 0-39.9 36.7 36.7 0 0 1 14.333-13.861 41.96 41.96 0 0 1 20.553-4.999m-132.478 4.243a24.6 24.6 0 0 1 10.873 9.328 26.15 26.15 0 0 1 3.808 14.356 25.77 25.77 0 0 1-4.07 14.53 24.24 24.24 0 0 1-11.629 9.183l16.011 23.433 32.626-74.056h13.547l33.403 75.556h-14.39l-7.384-17.436h-37.008L5195 494.832h-27.27l-15.116-22.085h-19.623v22.085h-13.751v-75.556h30.525a40.4 40.4 0 0 1 16.745 3.226m54.276 10.897-13.838 32.955 27.792.058zm-71.574-2.208h-16.076v30.077h16.076a20.68 20.68 0 0 0 13.635-3.923 13.77 13.77 0 0 0 4.651-11.16 13.6 13.6 0 0 0-4.651-11.1 20.85 20.85 0 0 0-13.635-3.894M5396 483.208v11.624h-55.526v-75.556h54.043V430.9h-40.293v19.645h35.73v11.624h-35.73v21.04z"/></svg>