<svg xmlns="http://www.w3.org/2000/svg" viewBox="0 0 559 979">

<g class="faqs-tail" fill="none" fill-rule="evenodd">
<path fill="#fee019" d="M504.727 658.729q-9.345-4.903-35.867 9.662-20.749 19.018-39.063 31.815-18.315 12.795-37.555 21.72v45.558q24.986 8.045 58.737 0 33.75-8.043 43.775-26.058v-7.766q10.17-12.753 13.746-20.437c3.575-7.683 6.082-16.735 4.986-21.533q-1.096-4.797-11.224-5.775 11.81-22.283 2.465-27.186"/>
<path fill="#fec110" d="m488.47 736.788 6.336 3.362q-6.157 18.346-37.968 26.657t-64.596 4.7l5.759-69.838q29.64-2.96 45.17-10.485 15.533-7.525 22.23-22.174-13.698 21.66-10.96 28.138 2.736 6.477 16.718 4.521-36.33 38.481-18.165 38.481t60.752-38.48z"/>
<path fill="#000" d="M387.358 762.516q24.288 8.653 51.704 3.055 27.416-5.597 51.135-24.052l-18.851 1.44q18.3-9.953 29.033-23.879c10.733-13.925 12.67-23.175 9.854-26.575q-2.814-3.399-24.272 9.164 23.745-30.063 20.213-37.177-3.534-7.114-44.515 11.734l7.771-9.514q29.79-14.526 38-10.72 8.208 3.804 0 29.142 13.178 2.988 10.025 15.072t-17.076 34.723q-4.335 19.429-35.242 32.465-30.906 13.035-79.316 5.427z"/>
</g>

<g class="faqs-base" fill="none" fill-rule="evenodd">
<path fill="#f7901b" d="M326.558 806.363q15.712.355 29.953-3.315t29.953-12.123q-.63 29.856 3.27 53.419 3.898 23.562 11.209 34.093 13.47 6.996 26.797 10.707c21.206 5.904 56.033 12.074 72.55 19.688q40.343 18.6 30.982 30.764 2.245 3.036-3.261 5.604-5.508 2.568-19.663 5.087 1.657 14.272-13.226 17.304t-52.182-3.98q-2.335 14.94-23.479 11.794-21.142-3.147-42.366-17.317-30.864-24.225-37.153-35.332-6.288-11.109 0-30.298 4.995-24.038 2.661-39.054-2.334-15.015-16.045-47.04m-176.663-14.28q18.635 3.455 30.08 3.455 11.443 0 30.078-3.455v60.468q11.349 28.864 14.88 39.907t-11.084 18.103q-60.588 25.14-90.699 30.077t-33.59-9.699q-25.755-.006-34.953-3.758-9.196-3.75-6.408-13.112-20.316-6.87-21.955-13.387-1.638-6.515 14.1-17.848 33.879-14.292 57.801-18.077t56.463 0q4.56-17.38 3.707-30.52-.852-13.143-8.42-42.154"/><path fill="#e97706" d="M210.053 792.083q-2.153 25.731-2.153 43.199t2.153 19.05q14.156 21.327 15.567 35.764 1.411 14.436-10.069 20.465-59.066 22.026-90.639 28.663-31.572 6.636-33.286-3.427 42.33-13.338 69.647-29.325c27.319-15.988 27.319-19.422 29.766-28.853q2.447-9.43-13.947-69.21-10.887-1.026-15.819-3.986t-11.378-12.34q18.375 3.455 30.08 3.455 11.702 0 30.078-3.455M107.101 910.561q-8.417 7.175-12.447 11.855t-5.095 8.523q-19.535 2.465-28.783 0-9.25-2.463-13.15-11.17 16.348 2.073 29.737 0 13.39-2.073 29.738-9.208m-33.021-18.52q-9.594 4.598-15.088 8.444-5.496 3.847-11.366 10.076l-21.536-6.764q19.575-8.491 32.902-11.756 13.327-3.264 15.088 0m259.4-74.734q36.085-4.098 39.97 0c3.883 4.097-2.07 34.253 8.259 53.78q10.329 19.525 26.723 12.352-13.17-12.531-17.77-31.347t-4.84-61.167q-17.564 9.308-27.752 12.314-10.19 3.006-31.512 5.17zm174.868 132.98q1.118 15.538-17.095 19.248-18.214 3.711-48.313-5.925l-1.646-11.022q24.885 4.218 40.372 3.687t26.682-5.988m20.981-22.561q5.099 11.976 0 17.474-5.097 5.498-20.916 5.087-1.723-5.043-3.868-7.764t-8.63-8.097q13.565 1.423 20.661 0t12.753-6.7"/><path fill="#fdb631" d="M89.56 887.26q5.7 2.392-3.574 10.72-9.274 8.327-38.36 24.59-1.112-11.74 7.784-19.23 8.895-7.491 34.15-16.08m76.649-20.277q-38.574 3.82-74.582 12.429T26.09 900.485q2.71-11.411 11.85-17.046t36.14-12.54q39.77-7.558 56.173-8.256 16.404-.697 35.956 4.34m-16.314-74.9 4.713 2.263q13.417 24.006 16.723 38.365 3.304 14.36 0 34.272l-13.016-2.226q1.701-15.845 0-30.52-1.7-14.677-8.42-42.154m176.663 14.28 15.116 43.19q2.23 14.45 2.23 22.873t-3.962 20.032q-10.266 17.43 5.507 38.592c15.773 21.16 55.994 43.299 60.51 42.547 4.517-.752-24.236-24.694-38.464-46.217s-13.97-24.574-14.099-33.294c-.13-8.72 4.913-18.854 0-42.73q-4.912-23.877-18.05-44.993zM521.19 920.956q-20.735-11.746-38.38-17.725t-53.012-13.242q20.838 9.35 38.937 15.484 18.098 6.132 52.455 15.483"/><path fill="#2776e0" d="M22.51 494.5q16.166-35.47 37.207-52.883 21.04-17.415 79.973-44.098l186.08 3.031q18.915-2.709 36.787 0 17.871 2.71 43.578 12.185 49.847 29.901 84.431 55.32Q525.15 493.473 518.064 495q-31.348.995-46.855 12.275t-45.886 55.19l-45.399-24.773 12.418 52.883 5.659 104.297q-23.516 18.17-44.52 27.176-21 9.007-61.953 18.87-70.127 10.723-125.074-6.92-54.948-17.64-97.932-51.049l-2.429-10.865L72.171 494.5l-48.529 15.652z"/><path fill="#1d62c7" d="M244.3 453.392h-49.218L71.449 590.575l-2.927 21.172q20.655.524 48.887-13.791 28.23-14.315 48.768-35.727 10.959-2.065 20.18-6.7t21.46-14.228q22.035-2.515 31.706-25.82 9.671-23.303 4.776-62.09m100.92 61.677h21.887l-4.522-8.723 80.587 31.643-15.481 23.938-45.45-23.017q2.092 20.515 4.909 35.286 2.815 14.772 5.092 17.176-26.184 11.994-34.172 38.456t11.863 40.721q3.028 9.527 7.913 14.07 4.885 4.545 20.155 12.037l-67.25 35.69 13.482-35.69q2.31-9.135.988-15.42c-1.322-6.284-10.316 0-7.721-16.588s10.523-44.875 11.864-70.854q1.341-25.979-4.143-78.725m-67.652-89.04q18.008 7.443 39.57 5.043c21.561-2.4 52.997-13.259 62.786-16.44q9.79-3.18 12.318-7.959l-48.009-9.016-21.822 2.882zm-157.152-19.874 15.29 25.502 19.373-31.107-11.353-5.051z"/><path fill="#619be8" d="m71.323 573.641 17.76-5.36 2.544 132.039-23.105-20.15zM56.04 465.437q25.245-24.064 39.8-34.32 14.556-10.254 29.407-14.142l8.42-16.425q-30.076 11.888-46.904 22.784-16.827 10.896-50.632 42.103z"/><path fill="#fee019" d="m400.757 694.872 25.155 5.334q-2.726 21.792-9.307 36.582t-15.848 19.939q-6.072 27.606-21.395 37.83t-56.06 13.852q-13.421-2.766-20.597-8.34-7.175-5.574-11.177-16.343-29.203 2.04-43.189 2.042-13.986 0-32.788-2.038l-5.498 8.353q-47.076 7.986-63.867-3.019t-17.77-39.995q-15.085-11.685-21.588-20.3-6.501-8.615-15.201-28.449 34.467 24.832 84.318 36.468 49.852 11.634 96.571 5.75 33.987-2.742 71.717-16.766t56.524-30.9M518.064 495v2.888q29.685 20.322 34.254 39.804t-14.627 32.422q.816 13.044-6.463 20.461-7.28 7.418-13.308 0-8.268 11.295-13.945 16.233t-6.758 1.778l-48.741 29.22q25.985 2.55 28.386 11.604t-17.35 30.014q-19.687 15.18-29.446 17.724-9.76 2.543-23.57-3.912v1.636q-18.565-3.513-25.679-8.957-7.115-5.445-8.927-17.524-14.19-6.204-15.603-15.552c-1.413-9.347-.852-26.987 7.376-38.897q8.227-11.91 31.445-25.25 10.904-7.981 19.442-15.131 8.54-7.15 13.14-12.155 26.577-43.746 41.975-55.06T518.064 495"/><path fill="#fec110" d="m400.757 697.04 25.155 5.221q-2.784 21.462-9.307 35.814-6.525 14.35-15.848 22.11-2.194 15.819-8.515 24.855-6.32 9.037-17.962 13 18.297-45.817 7.429-56.752c-10.868-10.935-23.639 5.674-52.574 11.328-28.936 5.653-62.026 7.935-115.286 0q-53.26-7.935-83.84-29.67 73.28 27.1 136.435 21.115t134.313-47.021m-249.88 51.726q12.444 11.953 22.206 18.448 43.596 4.74 66.946 4.739 24.333 0 65.493-5.146-10.522 22.258-68.07 16.923-26.313-2.438-42.793-6.185 8.31 3.027 19.19 6.185l-3.796 8.353-22.75 3.318q-8.8-4.645-17.922-15.666-9.12-11.02-18.504-30.969M532.195 547.39q6.42 16.05 3.935 32.16t-21.397 16.11q-4.626 7.857-9.413 11.118-4.787 3.26-11.498 3.127-17.83 13.068-41.88 23.548c-3.504 1.527-6.531 2.586-9.135 3.272q9.532.489 15.487 1.836c9.535 2.157 13.764 2.088 17.127 7.294s3.007 7.619-1.803 16.428q-4.81 8.81-19.177 22.002-17.59 13.582-30.074 12.864-12.483-.72-24.985-14.199 11.368 3.86 19.904-9.077 8.536-12.938 10.78-37.43h.448c-2.865-1.943-2.316-5.496-.448-6.889 28.647-21.352 50.509-28.72 74.439-50.003q22.508-20.017 27.69-32.161"/><path fill="#fff5b1" d="M427.74 562.864a254.7 254.7 0 0 1-35.398 27.711q-18.67 11.664-25.235 20.258-6.565 8.595-11.422 27.727 62.065-50.12 89.931-78.96 27.867-28.842 48.777-64.6-28.635 14.343-33.928 19.836c-24.139 25.047-23.744 39.617-32.725 48.028"/><path fill="#000" d="m141.276 393.277 227.169 5.548q26.61 4.086 48.177 15.82c25.025 13.615 76.294 50.78 85.494 57.612 20.039 14.882 22.083 22.12 22.132 24.704v.19c-.01.601-.126.902-.075.952q3.001 2.985 5.336 5.39l-.048-.032q28.918 18.83 28.918 41.72 0 21.697-18.587 27.76c.117 3.312-.142 6.622-.96 9.703q-3.965 14.943-20 14.649-7.334 11.035-12.524 14.491-5.19 3.457-11.625 1.588-6.057 6.842-12.832 11.444-6.775 4.6-20.758 11.366l-.904.1q14.26 2.197 18.228 8.142 5.583 8.37-7.105 27.358-22.56 25.486-43.581 29.397-.224 16.125-6.706 31.768-7.29 17.592-18.195 24.19-.382 17.974-10.965 30.452-3.075 36.66.337 55.628c3.59 19.954 9.22 28.959 14.365 34.913s48.698 11.87 81.277 24.078 35.558 15.193 42.34 21.86c6.781 6.666 6.921 17.73 3.075 22.787q-3.465 4.555-20.794 5.556c.518 3.035-.057 6.078-2.09 9.046q-14.198 20.718-64.886 6.078c-4.148 11.645-14.034 11.204-28.678 10.918-15.05-.293-60.819-27.63-75.208-45.884-14.39-18.253-3.498-47.487-1.635-52.234 1.862-4.747.744-17.917-1.863-32.301q-2.395-13.211-10.13-37.303c-9.818-.02-21.473-.563-30.36-9.516-3.727-3.754-6.138-9.154-7.555-14.467q-46.758 4.572-75.113.118-2.906 15.612-3.2 28.005c-.325 13.628.4 27.247 2.102 40.36.697 5.365 3.45 11.117 6.432 16.842l.666 1.271.669 1.27.668 1.267c3.66 6.957 7.055 13.736 6.85 19.58-.41 11.687-12.273 17.986-17.388 19.75-2.78.96-7.554 2.497-12.462 4.147l-1.18.398c-3.738 1.265-7.468 2.573-10.374 3.72-13.815 5.45-24.846 10.784-39.787 14.614-33.825 8.67-43.858 8.67-50.672 6.461-4.45-1.442-8.831-5.275-9.648-10.837q-42.868 2.806-42.868-16.347c0-1.34.203-2.637.583-3.891q-23.687-5.12-23.687-12.322c0-7.624 12.093-29.216 72.657-37.98 26.565-3.845 45.64-3.077 58.516-1.003q3.716-8.289 2.714-21.754-1.122-15.058-7.095-45.779-2.676-.944-4.814-2.15-16.055-9.054-18.55-43.982c-5.24-2.6-10.378-5.76-13.96-9.279q-10.246-10.064-23.869-40.002c-11.788-7.496-18.983-13.025-20.517-13.713-5.156-2.311-2.903-21.23-2.903-40.4q0-19.169 4.692-66.792l7.29-2.989q-4.352 49.665-5.288 75.683 68.945 54.742 150.877 59.32 82.005 4.581 150.997-32.14c-.657-1.943-1.16-4.155-1.533-6.494q-14.187-3.273-16.446-16.816c-2.357-14.126-.656-32.047 9.603-44.77 6.456-8.006 15.286-13.598 25.293-20.205q-3.613-6.513-6.403-17.119c-1.02-3.881-1.406-8.314-1.718-12.74l-.088-1.265c-.492-7.157-.935-14.162-3.718-18.655-6.347-10.243-39.228-27.067-32.167-25.142q2.259.615 11.758 5.354l.84.42a804 804 0 0 1 8.242 4.199q-1.305-2.639-2.255-6.42c-2.783-11.081-4.478-36.416-3.671-36.743.444-.18 1.634 7.398 3.114 15.98l.162.94c.3 1.73.61 3.489.929 5.225l.174.944c.874 4.707 1.797 9.165 2.694 12.278q1.991 6.913 4.468 10.71 15.284 7.972 39.165 20.842 9.19-32.596 28.848-49.063 20.483-17.158 51.158-27.058-15.874-12.069-24.411-17.887c-36.23-24.686-58.685-36.163-66.382-40.064-2.678-1.357-5.068-2.587-7.3-3.695q-4.756 1.497-9.736 5.562c-10.733 8.764-19.797 28.755-20.433 27.77s9.503-25.084 17.796-31.855q3.451-2.82 8.028-3.553c-9.004-4.086-16.73-5.939-33.833-5.939q-1.215 0-2.824-.01c-6.7 7.229-31.282 29.023-52.015 37.765q-24.733 10.43-75.178 14.235v-5.31q44.152-1.668 70.441-11.67c21.348-8.123 45.794-28.163 54.872-35.037q-32.795-.298-192.85-4.083-14.04-4.025-23.194 9.769-9.063 13.655-30.351 58.313l-.43.901 22.263-59.214q-10.533-.125-52.375 28.396c-13.09 8.922-23.197 18.39-30.766 28.526q21.498-3.627 31.543-1.946c11.172 1.87 30.67 13.28 29.838 13.932s-21.737-9.936-33.44-11.106q-10.428-1.04-31.364 4.01a90.3 90.3 0 0 0-10.788 22.924q-.942 3.048-4.316 24.385l-6.198 8.335q5.217-56.358 33.867-81.745 28.65-25.386 89.965-51.028m240.862 403.154-.563.4c-17.276 12.087-37.088 13.705-47.94 13.879q8.375 22.534 11.511 38.74c3.435 17.75 3.508 28.14 1.754 33.94-1.754 5.801-12.939 20.043-5.297 34.714 7.64 14.67 28.758 31.051 45.235 41.965 16.476 10.914 36.645 14.934 49.204 9.337 12.56-5.598-8.248-30.69-6.486-30.69 1.482 0 14.756 10.718 16.6 21.66q52.116 10.628 58.987-5.377c7.08-16.492-40.381-36.307-40.381-38.105 0-1.39 35.947 13.307 45.549 29.86q20.46-1.4 17.275-13.918c-3.324-13.06-15.587-16.159-42.21-26.377-26.622-10.218-74.766-17.684-82.546-23.102s-10.895-14.324-17.009-42.176q-5.441-24.79-3.683-44.75m-177.06-.484-.389.045q-33.215 3.979-50.57.227 5.775 24.32 6.886 37.84 1.106 13.47-2.356 29.217c12.151 2.695 16.84 6.342 15.865 6.342-1.992 0-93.69-11.594-135.657 19.44q-19.422 14.364 7.904 21.158c8.558-14.945 41.62-22.844 42.767-23.16 1.318-.363-39.2 15.704-39.2 28.776q0 12.785 37.497 12.936c.36-1.665 1.02-3.433 2.041-5.293 6.066-11.05 29.23-20.582 29.23-18.681s-29.343 18.46-25.267 26.212 17.421 8.13 40.687 3.113c23.266-5.016 62.753-19.56 72.115-23.92s14.77-2.147 14.77-16.54-12.786-29.48-14.77-38.428c-1.294-5.835-1.414-13.772-1.42-21.932l.001-2.453c.003-3.546.007-7.1-.073-10.506q-.25-10.594-.06-24.393m197.516-98.895.236-.161q-77.157 52.956-169.5 50.44c-58.447-1.592-107.584-25.01-137.088-42.571q9.253 16.449 19.19 27.319c11.13 12.173 30.754 22.452 30.754 23.68 0 .603-5.896-.851-13.157-3.729q-1.107 24.803 16.664 35.596 17.653 10.72 61.883-.707l.638-.513-.216-.037q-8.002-1.44-14.43-3.652c-29.94-10.299-59.462-44.294-57.938-45.873s26.204 30.402 57.937 39.46q31.537 9.003 91.14 3.38c-.687-5.82-.168-10.386 1.008-10.743 2.61-.792 5.067 22.626 18.36 29.099 13.294 6.473 28.048 6.351 41.564 3.175 13.516-3.175 27.342-6.414 35.693-14.367q8.351-7.954 12.669-31.689 12.666-14.607 16.55-24.393 3.511-8.848 5.966-29.181a23.5 23.5 0 0 1-6.732-1.562 236 236 0 0 1-11.191-2.97M70.312 658.731l-.006.33q-.284 17.169 1.501 20.011c4.462 7.108 59.162 58.282 157.933 61.902q98.74 3.62 165.42-46.3-16.606-5.802-20.88-12.412c-.72-1.115-1.333-2.461-1.85-3.972q-72.387 42.927-151.029 37.613-80.34-5.43-151.09-57.172m444.795-160.628q-29.831.858-46.268 13.485c-16.437 12.625-30.9 42.267-38.773 51.84-5.525 6.718-9.17 9.918-12.883 12.94l-.557.451-.56.452c-1.218.981-2.462 1.978-3.802 3.106-1.987 1.674-3.413 2.833-4.834 3.913l-.387.293-.34.254-.344.254c-2.478 1.82-5.349 3.728-11.377 7.884-10.447 7.201-20.435 10.292-27.875 22.271s-9.037 17.863-7.174 34.164q1.676 14.66 10.185 15.304c-.632-10.199.49-20.29 1.39-20.29 1.498 0-.51 22.864 6.795 33.625q6.772 9.976 25.217 14.508c-3.987-4.621-5.753-9.452-5.495-10.374.568-2.024 16.557 14.38 32.041 10.53 15.485-3.85 31.984-21.554 38.376-28.743 6.392-7.188 7.654-12.41 2.87-17.642q-4.485-4.907-22.067-2.286-3.24 10.13-8.559 17.338c-6.889 9.337-14.774 11.248-14.774 10.402s9.213-7.019 12.905-14.306q3.67-7.242 4.465-19.52-15.591 1.28-15.591-.15c0-2.094 20.552-1.624 38.707-12.99 5.083-3.183 9.6-6.353 13.508-9.269l.828-.62c9.55-7.195 15.272-12.689 16.483-12.689 1.731 0 3.824 2.415 9.091-2.23s10.996-17.364 12.525-17.364 1.528 18.212 10.193 4.59c8.665-13.624 1.74-39.845 3.169-39.845.952 0 5.34 9.01 6.992 19.444q15.022-7.775 9.84-25.077-4.751-15.867-21.77-34.535-4.915-3.555-12.15-9.118m-68.26 139.541q-.926.084-1.807.161h1.808zm-60.701-94.008q.559 11.862 2.623 21.477 1.742 8.11 6.257 20.972c4.19-2.86 8.533-5.99 12.952-9.61q10.284-8.427 14.675-12.852zm107.824-68.66-.8.212q-29.559 7.87-50.382 26.48-20.727 18.528-29.65 48.287 6.544 3.53 13.715 7.418 15.922-33.81 39.422-51.027 22.956-16.817 48.831-14.642v-.367a2448 2448 0 0 0-21.136-16.36"/><path fill="#fee019" d="M236.534 431.117q-42.047-10.151-61.034-18.382t-51.235-29.78q-37.11-28.276-52.928-47.989Q55.517 315.254 44.854 284q-3.15-52.306 2.773-80 5.925-27.695 28.244-65 32.808-35.485 68.45-55.72Q179.967 63.042 221 56.604q23.814-10.172 42-24.473t23.162-26.767q14.152 25.335 18.05 36.122c.814 2.253-.695 13.233 0 15.118q6.033 16.359 2.957 5.718 49.013 18.054 79.32 37.356T427.564 139q36.71 55.029 41.533 88.364t-15.546 91.234q-17.55 31.955-38.37 47.746-20.82 15.79-65.681 31.175-21.474 6.541-30.72 9.865-9.247 3.325-11.61 5.35-27.928 11.79-40.277 15.004-12.348 3.213-30.359 3.38"/><path fill="#fec110" d="M334 351.528q-52.815 45.99-78.211 57.762-25.395 11.77-57.14-22.81 22.622 18.75 52.49 11.039c9.797-2.53 24.734-11.81 40.106-21.681l1.338-.86 2.68-1.725 1.34-.864 1.339-.863 1.338-.86c3.344-2.151 6.67-4.28 9.928-6.322q9.609-6.021 24.792-12.816m69.452-239.64q40.354 29.103 55.534 83.112t0 114.48q-21.177 42.34-66.744 69.886-45.567 27.548-97.242 29.25 113.645-55.765 140.701-113.39 27.057-57.624-32.25-183.338m-16.49 186.934c5.993 7.19 6.135 29.45 4.038 34.126s-4.923-11.05-11.076-18.433q-6.151-7.38-17.367-15.693 18.412-7.191 24.405 0m-249.215-5.562Q112.376 279 107.85 304.527t12.566 21.813q-5.702-8.134-2.851-18.834t20.182-14.246"/><path fill="#fff5b1" d="M133.828 386.48q-74.815-72.331-74.815-151.986c0-79.654 75.324-128.267 89.987-135.353s69.934-16.196 106.789-39.442q36.855-23.247 30.373-47.075-29.372 26.727-49.628 37.385-20.255 10.658-59.9 21.08Q117.31 94.979 94 119.854C70.69 144.73 51.93 168.395 43.76 215s-1.979 64 15.253 104.436q17.232 40.437 74.815 67.044"/><path fill="#f99016" d="M117.565 319.436c.566 6.518 6.476 11.802 14.942 17.795q8.468 5.992 29.151 13.414 7.557 1.8 11.57 6.521 4.014 4.721 11.878 21.062 22.05 15.063 33.982 19.29 11.932 4.228 26.207 2.033 15.208-5.091 27.816-12.036 12.609-6.945 36.097-23.17 17.858-10.507 27.789-15.249 9.93-4.74 25.588-10.237Q377 327.546 377 314.515q0-13.03-19-13.03-15.634 2.425-37.393-8.225t-37.255-28.312q-9.536-10.3-20.352-16.064T242.958 240q-3.71-5.267-29.216 8.884c-9.445 5.24-31.785 28.936-46.742 38.008q-11.968 7.26-31.057 8.919-11.439 1.44-14.732 5.674c-3.293 4.234-4.212 11.434-3.646 17.951"/><path fill="#ef652f" d="M234.612 377.043c10.898-1.951 18.589-9.882 25.04-16.405q6.452-6.524 13.46-21.893-30.9-4.976-42.718-5.655-11.82-.678-35.413 1.876 3.554 24.26 11.251 32.785c7.699 8.526 17.482 11.244 28.38 9.292m31.52-88.527c1.104 0 2-4.925 2-11s-.896-11-2-11-2 4.925-2 11 .895 11 2 11m-59.364-22.144c-2.12 0-6.223 8.923-7.247 12.628-1.023 3.705-5.13 18.438 0 9.149 5.132-9.29 9.367-21.777 7.247-21.777"/><path fill="#fec110" d="M176 322.795c-.452-1.84 22.892-9.23 43.5-8.28 20.607.952 43.211 11.123 43.5 12.297.288 1.174-26.761-5.49-42-6.193s-44.548 4.017-45 2.176m55.405-56.73c9.79-1.727 17.183-6.213 16.511-10.02-.67-3.807-9.152-5.494-18.942-3.768s-17.182 6.212-16.51 10.02c.67 3.807 9.151 5.494 18.941 3.767"/><path fill="#fff" d="M153.24 139c-8.603 1.624-54.796 19.501-54.796 72.5q0 52.999 61.556 59.57 31.615 1.732 48.614-29.654 16.998-31.387 3.907-65.416-12.927-22.65-23.977-29.548c-11.05-6.897-26.702-9.076-35.304-7.452m174.731 6.013c-8.403 1.664-53.527 19.99-53.527 74.318q0 54.328 60.131 61.065 30.883 1.774 47.488-30.399 16.606-32.174 3.817-67.056-12.627-23.22-23.422-30.29c-10.795-7.07-26.083-9.303-34.487-7.638"/><path fill="#000" d="M286.162.516q27.464 36.792 24.572 57.47-.188 1.34-.497 2.63 77.168 20.461 122.15 74.981c46.006 55.763 43.02 111.924 43.02 131.788s-16.001 69.798-62.915 105.35c-46.914 35.55-123.457 38.365-123.457 35.881s84.15-14.206 123.457-45.855 49.624-71.36 51.947-95.376 4.124-71.31-39.083-125.456Q383.205 89.105 307.747 67.33c-7.516 14.809-25.561 22.983-27.22 22.983-1.982 0 20.06-18.92 20.839-32.328q.78-13.41-15.204-45.36-15.493 23.6-43.087 38.27c-27.594 14.67-63.736 23.397-84.972 31.144-21.236 7.748-78.488 38.33-100.505 102.172-22.016 63.843-6.456 115.262 3.458 130.303 9.913 15.042 22.577 30.789 52.572 54.307 29.994 23.519 43.565 31.32 73.278 44.327 29.713 13.008 39.595 15.36 61.3 14.589 21.706-.77 72.191-22.115 68.766-19.122s-46.929 28.945-84.458 25.713c-37.53-3.232-55.573-15.768-92.824-36.81s-63.81-43.878-82.092-72.277-23.402-57.434-20.855-87.64 13.509-70.346 37.014-102.39 60.853-54.65 84.346-63.8c23.492-9.15 52.21-12.895 78.431-27.412Q262.756 29.484 286.162.516m-143.438 296.18c0 1.722-29.343-3.886-21.074 24.06 5.24 17.71 42.512 25.031 51.497 32.386s5.389 16.217 18.77 26.224 34.9 18.593 44.617 18.593 13.41-1.93 30.745-10.922 49.483-30.74 66.859-39.71c4.344-2.242 8.488-3.741 12.397-5.05l.934-.31c11.303-3.742 20.57-6.233 26.884-21.21 8.651-20.518-28.86-18.137-27.585-19.044 1.275-.908 36.236-9.31 32.937 15.233-2.408 17.907-14.454 23.886-27.519 28.637l-.818.295-.82.293-1.081.383-.27.095-1.356.474-.27.095-1.897.665c-2.707.953-5.397 1.93-7.994 3.022-10.273 4.318-21.286 12.052-32.445 19.912l-1.914 1.348c-7.023 4.942-14.09 9.86-21.054 13.934-18.675 10.929-35.07 16.86-45.733 16.86s-19.793-5.403-37.785-13.829-22.114-24.265-27.348-29.626c-5.235-5.362-26.665-10.223-40.347-19.597s-15.81-19.15-15.81-22.96c0-.355-.006-.792-.008-1.297v-.597c.019-5.195.67-15.873 9.674-19.786 10.325-4.487 17.814-.294 17.814 1.429m219.861 18.173c0 3.389-12.64 18.615-36.948 25.106-24.307 6.49-55.45 0-67.033 1.938s-24.186 30.821-26.387 30.821c-2.2 0 11.472-22.956 4.317-30.82-5.837-6.418-23.624-5.5-33.94-4.945q-4.695 26.781 15.013 35.765c20.435 9.316 55.504-14.89 55.504-13.753s-29.375 28.167-55.504 18.172q-25.195-9.638-25.681-39.914c-1.235.01-2.602.018-4.07.02h-1.525c-11.245-.017-27.358-.455-36.49-3.236-12.926-3.937-18.091-15.3-15.26-15.765 2.832-.466 1.497 10.998 26.872 13.855 25.375 2.856 46.98-6.57 75.081-3.285 11.24 1.314 20.364 3.509 29.407 5.433l1.356.287 1.357.281c12.666 2.602 25.572 4.447 44.305 2.372 33.451-3.704 49.626-25.721 49.626-22.332M333.5 139c35.07 0 63.5 32.46 63.5 72.5S368.57 284 333.5 284 270 251.54 270 211.5s28.43-72.5 63.5-72.5m.5 10c-31.48 0-57 29.101-57 65s25.52 65 57 65 57-29.101 57-65-25.52-65-57-65m-176.5-15c35.07 0 63.5 31.34 63.5 70 0 20.596-8.069 39.114-20.912 51.923 9.746-8.862 23.86-18.32 38.718-18.32 27.198 0 47.356 28.423 47.356 29.869s-24.87-21.123-47.356-23.533-51.9 28.772-51.9 27.064c0-.683 3.94-6.148 10.407-12.467C186.423 268.21 172.575 274 157.5 274c-35.07 0-63.5-31.34-63.5-70s28.43-70 63.5-70m2.5 9c-31.48 0-57 28.206-57 63s25.52 63 57 63 57-28.206 57-63-25.52-63-57-63"/>
</g>

<g class="faqs-arm" fill="none" fill-rule="evenodd">
<path fill="#fee019" d="M111.252 477.53 73.699 488.91q-15.557-7.437-31.918-3.64-16.361 3.795-28.594 25.297-10.777 29.28-7.81 46.048t19.403 19.484v2.48q24.02 22.52 49.996 11.997 25.975-10.523 70.86-51.97 10.472 2.547 23.543-2.876 13.072-5.425 20.939-15.582 20.52-.794 28.915-9.581 8.395-8.788 2.901-23.723 8.95-15.966 8.432-23.805t-11.333-20.096q5.18-27.348 2.901-39.983-2.277-12.634-14.117-20.26-17.178-6.726-26.443-3.333-9.265 3.394-28.868 23.593z"/>
<path fill="#fec110" d="m26.608 581.245-16.58-15.817q33.164 6.154 58.494 0 25.332-6.154 52.6-29.997 24.601-8.59 43.537-19.22c7.572-4.25 14.723-16.978 25.919-24.513q7.469-5.027 27.06-10.44 9.447 15.864 3.268 28.004-6.18 12.14-30.328 12.263-11.556 10.882-20.05 13.906-8.496 3.023-27.943 3.174v4.609q-45.697 37.085-62.51 44.984-16.814 7.9-38.294 2.377z"/>
<path fill="#fff5b1" d="M4.736 562.864q11.874-29.6 31.396-44.347t82.457-31.674q35.663-76.377 58.046-91.344 22.383-14.968 47.924 20.48-6.213-36.613-31.93-36.613-25.719 0-44.713 33.369l-36.664 64.796q-15.897 6.27-31.177 9.312c-6.536 1.301-21.616-1.932-32.43-.766q-6.04.651-21.6 8.423-11.714 14.9-16.017 28.705t-5.292 39.659"/>
<path fill="#000" d="M207.817 379.366c6.673 3.31 14.04 11.285 16.742 23.593q2.602 11.86-1.605 41.596c3.069 2.955 5.597 5.947 7.208 8.837q8.343 14.957-4.638 34.127c1.68 4.5 2.165 9.31.652 14.229q-6.529 21.225-35.852 21.454c-3.318 5.296-8.447 10.43-16.311 13.862-8.001 3.492-17.278 4.464-25.925 4.195q-54.525 48.045-79.566 55.166-24.654 7.011-48.968-18.088c-5.049-.663-10.308-2.816-13.57-7.872-7.897-12.234-5.499-32.668-3.082-41.63 2.417-8.961 7.727-32.758 30.567-42.93q20.5-9.132 42.544.548c2.648-1.073 5.084-2.058 7.132-2.892q13.845-5.634 26.611-9.307 34.483-70.53 51.824-87.162c17.34-16.633 39.564-11.035 46.237-7.726m-44.537 16.25c-17.667 18.467-46.291 80.393-49.83 84.65-1.132 1.36-8.348 2.433-17.815 5.456-20.156 6.439-50.447 16.026-53.437 16.026-1.046 0-.06-.71 2.235-1.869l.395-.197c1.22-.603 2.756-1.315 4.52-2.103l.91-.404c3.864-1.707 8.666-3.724 13.57-5.747l1.179-.486c1.866-.768 3.738-1.533 5.569-2.279q-46.53-6.693-58.691 39.55c-12.371 47.042 21.584 46.249 21.584 47.985 0 .59-2.258 1.528-5.55 2.032q23.1 14.962 45.66 7.782 23.452-7.464 66.646-45.328c-12.027-1.37-21.337-4.607-21.629-5.477-.142-.425 1.892-.268 5.369.02l.827.068c10.231.844 31.092 2.421 46.997-4.87 22.09-10.126 23.62-30.366 24.224-28.564q.035.102.065.298l.084-.411q6.055 1.968 6.055 4.064 0 1.965-6.272 1.291a40.3 40.3 0 0 1-2.63 10.22q23.241 1.218 27.149-15.575c4.095-17.6-23.322-41.557-21.814-41.557.975 0 15.016 8.24 22.995 19.975q9.63-11.405 1.03-26.774c-9.115-16.291-42.913-33.92-39.529-33.92.731 0 2.937.86 6.033 2.363q5.576-10.03 6.983-9.005 1.342.976-.619 12.337c6.542 3.636 14.57 8.688 21.435 14.178q5.274-23.072 3.442-32.346c-1.919-9.712-7.435-19.786-15.215-22.692s-24.259-7.157-41.925 11.31"/>
</g>

<g class="faqs-pupils" fill="none" fill-rule="evenodd">
<path fill="#000" d="M176 176c14.912 0 27 14.327 27 32s-12.088 32-27 32-27-14.327-27-32 12.088-32 27-32m-.5 12c-4.694 0-8.5 4.477-8.5 10s3.806 10 8.5 10 8.5-4.477 8.5-10-3.806-10-8.5-10m174.5-5c14.912 0 27 14.327 27 32s-12.088 32-27 32-27-14.327-27-32 12.088-32 27-32m-.5 12c-4.694 0-8.5 4.477-8.5 10s3.806 10 8.5 10 8.5-4.477 8.5-10-3.806-10-8.5-10"/>
</g>

</svg>