<svg xmlns="http://www.w3.org/2000/svg" viewBox="0 0 529 163"><path fill="#fff" d="M97.39 7.526v64.88H78.255V14.932l3.962.45L58.74 72.407H38.65l-23.477-56.8 3.962-.52v57.32H0V7.527h31.108L52.424 61.8h-7.3L66.281 7.526zm39.332 66.369q-9.66 0-16.918-3.279t-11.297-9.223-4.04-13.754q0-7.897 4.04-13.823 4.04-5.925 11.308-9.205 7.27-3.279 16.93-3.279t16.919 3.28q7.257 3.278 11.298 9.194 4.04 5.916 4.04 13.834 0 7.83-4.04 13.763-4.041 5.936-11.31 9.213-7.268 3.279-16.93 3.279m.026-14.568q3.896 0 6.62-1.385 2.725-1.384 4.18-4.02Q149 51.285 149 47.648q0-3.738-1.454-6.358-1.453-2.622-4.179-4.005-2.724-1.384-6.62-1.384-3.837 0-6.606 1.384t-4.222 4.005-1.453 6.324q0 3.702 1.453 6.323 1.455 2.622 4.222 4.005 2.769 1.385 6.606 1.385m60.61 14.499q-6.954 0-11.912-2.872-4.956-2.872-7.569-8.098-2.613-5.224-2.613-12.198V22.82h19.828v25.001q0 4.776 2.396 7.362t6.825 2.586q3.374 0 5.614-1.28 2.241-1.28 3.417-3.815 1.177-2.535 1.177-6.115l5.97 3.061q-1.04 7.943-4.395 13.35-3.357 5.406-8.184 8.131t-10.553 2.725m20.503-1.42-3.34-20.484V22.82h19.828v32.147l3.338 17.44zm24.204-49.586h19.828l3.356 20.485v29.102h-19.827v-32.13zm40.85-1.488q7.196 0 12.249 2.873 5.052 2.871 7.742 8.088t2.69 12.276v27.838h-19.827V47.424q0-4.862-2.552-7.449-2.55-2.586-7.258-2.586-3.305 0-5.718 1.358-2.414 1.358-3.703 3.884t-1.289 6.038l-5.986-3.062q1.124-8.028 4.533-13.426 3.408-5.4 8.357-8.124t10.762-2.725m26.245 16.022v-8.565l9.915-4.48 8.615-14.915h11.211V22.82h20.123v14.534H338.9v12.405q0 5.036 1.982 7.085 1.98 2.05 7.673 2.05 3.53 0 6.298-.545 2.767-.545 5.035-1.41v14.585q-2.805.918-7.051 1.644a52.4 52.4 0 0 1-8.85.727q-8.494 0-14.014-2.586-5.52-2.587-8.21-7.44t-2.69-11.48V37.353zm100.644 35.053-2.389-17.683 2.458-7.076-2.458-6.99 2.389-17.838h20.588l-3.287 24.76 3.287 24.827zm4.359-24.759q-1.02 7.908-4.516 13.807-3.495 5.9-9.005 9.17t-12.552 3.27q-7.25 0-12.752-3.279-5.5-3.278-8.58-9.213t-3.08-13.755q0-7.905 3.08-13.832 3.08-5.925 8.58-9.205 5.502-3.279 12.752-3.279 7.041 0 12.552 3.236t9.049 9.127 4.472 13.953m-30.485 0q0 3.27 1.341 5.787a10.15 10.15 0 0 0 3.746 3.98q2.404 1.461 5.536 1.461 3.219 0 6.16-1.461a17 17 0 0 0 5.181-3.98 15.2 15.2 0 0 0 3.226-5.787 15.5 15.5 0 0 0-3.226-5.822q-2.24-2.552-5.181-4.013a13.7 13.7 0 0 0-6.16-1.462q-3.132 0-5.536 1.462-2.405 1.461-3.746 4.013-1.34 2.552-1.34 5.822m54.465-25.762 9.948 2.077 9.862-2.077v50.52h-19.81zm9.948-3.287q-5.017 0-8.132-2.509t-3.114-6.747q0-4.326 3.114-6.834 3.115-2.51 8.132-2.509 5.19 0 8.262 2.509 3.07 2.508 3.07 6.834 0 4.239-3.07 6.747-3.072 2.51-8.262 2.51m16.592 4.221h19.828l3.356 20.485v29.102H468.04v-32.13zm40.85-1.488q7.196 0 12.248 2.873 5.054 2.871 7.743 8.088t2.69 12.276v27.838h-19.827V47.424q0-4.862-2.552-7.449t-7.258-2.586q-3.305 0-5.718 1.358-2.414 1.358-3.703 3.884t-1.289 6.038l-5.986-3.062q1.124-8.028 4.533-13.426 3.408-5.4 8.356-8.124 4.95-2.724 10.763-2.725M158.409 95.73q11.697 0 20.46 4.032 8.762 4.03 13.641 11.306 4.88 7.275 4.88 17.102 0 9.759-4.88 17.068-4.879 7.31-13.642 11.341-8.762 4.032-20.459 4.032H125V95.73zm-13.408 56.126-9.292-9.17h24.24q5.295 0 9.144-1.773 3.85-1.774 5.917-5.035 2.067-3.26 2.067-7.708 0-4.533-2.067-7.75-2.067-3.219-5.917-4.992t-9.144-1.773h-24.24l9.292-9.17zm81.006 10.174q-6.956 0-11.912-2.872t-7.57-8.098-2.613-12.198v-27.838h19.828v25.001q0 4.776 2.396 7.362t6.825 2.586q3.374 0 5.614-1.28t3.418-3.815 1.176-6.115l5.97 3.061q-1.04 7.942-4.395 13.35-3.357 5.406-8.184 8.131t-10.553 2.725m20.502-1.42-3.34-20.484v-29.102h19.828v32.147l3.339 17.44zm86.628-21.367q-.657 6.817-4.896 11.964-4.24 5.148-11.021 8.02t-15.26 2.872q-9.309 0-16.41-3.314t-11.082-9.247-3.98-13.686q0-7.82 3.98-13.72t11.081-9.248 16.411-3.348q8.478 0 15.26 2.873 6.782 2.871 11.02 7.985 4.24 5.112 4.897 12.015h-19.638q-.865-4.083-3.961-6.194t-7.578-2.11q-3.46 0-6.073 1.34t-4.006 3.962q-1.392 2.622-1.393 6.445 0 3.806 1.393 6.402a9.23 9.23 0 0 0 4.006 3.936q2.613 1.34 6.073 1.34 4.498 0 7.595-2.266 3.098-2.265 3.944-6.02zm26.316 5.779-5.363-1.764 26.09-32.234h20.45l-43.41 49.587h-17.595V94h19.828zm6.59-8.495 15.14-10.07 20.71 34.154H379.73z"/></svg>