<svg xmlns="http://www.w3.org/2000/svg" viewBox="0 0 140 140"><path fill="#000" fill-rule="evenodd" d="M95.751 36.409c-10.717-.792-19.81 5.978-24.883 5.978-5.146 0-13.081-5.808-21.495-5.649-11.048.162-21.23 6.42-26.927 16.298-11.475 19.89-2.93 49.364 8.247 65.505 5.468 7.887 11.989 16.774 20.554 16.45 8.244-.324 11.363-5.325 21.328-5.325 9.96 0 12.77 5.325 21.487 5.166 8.874-.165 14.496-8.05 19.924-15.98 6.28-9.155 8.86-18.018 9.014-18.487-.196-.074-17.297-6.626-17.468-26.302-.155-16.45 13.445-24.357 14.063-24.737-7.72-11.354-19.644-12.606-23.844-12.917m-6.613-10.655C93.69 20.26 96.752 12.61 95.91 5c-6.551.26-14.474 4.358-19.173 9.848-4.208 4.863-7.903 12.652-6.9 20.107 7.302.563 14.754-3.704 19.302-9.201"/></svg>