<svg xmlns="http://www.w3.org/2000/svg" viewBox="0 0 1024 381"><g fill="none"><path fill="#e10062" d="M229.315 33.808 96.138 0 .078 98.37l37.35 132.203 133.36 33.833 95.904-98.369zm-61.171 221.59-124.21-31.504L9.15 100.75 98.73 9.086l124.027 31.608 34.76 123.22z"/><path fill="#e10062" d="m242.612 159.954-18.144-63.837-2.747-27.491-5.729-2.59-4.095-14.47-64.1-16.257-25.402-11.416-5.184 3.676-14.49-3.676L56.61 71.188 33.93 87.497l.647 6.29-10.497 10.717 18.144 63.785 2.644 27.725 5.728 2.589 4.07 14.237 64.022 16.231 25.557 11.494 5.184-3.702 14.568 3.702 46.19-47.373 22.55-16.205-.622-6.264zM208.631 55.035l2.592 8.776-41.472-18.665zM104.095 28.527l8.735 2.226L76.231 57.08zm-75.35 77.168 6.35-6.497 4.563 45.043zm29.29 103.702-2.462-8.672 41.135 18.587zm104.614 26.534-8.839-2.252 36.832-26.456zm-18.792.777-95.905-43.076L37.43 89.076l85.355-61.325 95.904 43.178 10.524 104.376zm83.151-116.672 10.913 38.83-6.377 6.524z"/><path fill="#e10062" d="m210.627 118.872 2.592-20.037-5.003-3.78-1.555-15.531-46.138-20.71-16.252-12.347-5.832 2.433-14.178-6.394L83.178 71.99 64.36 79.757l-.804 6.213-12.597 9.086 5.184 50.168-2.592 20.373 5.054 3.831 1.556 15.532 46.06 20.71 16.277 12.348 5.78-2.434 14.05 6.317 41.238-29.615 18.663-7.766.777-6.16 12.701-9.113zm-7.102-37.096 1.062 10.51-32.296-24.54zM124.65 46.337l9.59 4.297-37.273 15.532zM54.484 96.738l8.528-6.109-5.184 39.943zm8.683 85.944-1.062-10.354 32.166 24.41zm78.797 35.49-9.538-4.322 37.454-15.688zm57.699-35.516-76.905 32.203-66.356-50.427 10.55-82.63 76.905-32.203 66.33 50.479zm9.072-49.184 3.447 34.144-8.605 6.161z"/><path fill="#e10062" d="m195.775 118.354 1.659-12.943-30.742-23.298-9.305-11.65-4.925.751-10.368-7.766-35.459 14.756-14.981 2.278-1.84 4.763-11.82 4.97-4.796 37.691-5.572 14.497 3.291 4.064-1.607 12.607 30.12 22.961 9.668 12.115 5.184-.802 10.368 7.843 35.07-14.678 15.293-2.355 1.892-4.867 11.845-4.944 4.718-37.872 5.52-14.16zm-1.322-11.597-1.089 8.568-19.466-24.282zM141.73 66.58l6.895 5.177-30.664 4.711zM80.586 92.157l7.776-3.314-11.068 28.475zm-8.398 65.674 1.062-8.413 18.948 23.53zm52.747 40.047-6.765-5.178 30.041-4.452zm61.12-25.55-7.776 3.287 11.093-28.475zm-12.779 9.707-63.141 9.708-39.917-49.755L93.546 82.45l63.167-9.656 39.736 49.806z"/><path fill="#e10062" d="m152.1 84.106-51.27 7.766-18.741 48.278 32.348 40.332 51.27-7.766 18.766-48.175zm11.974 86.487-48.678 7.456-30.767-38.287 17.807-45.793 48.73-7.482 30.741 38.339z"/><path fill="#fff" fill-rule="evenodd" d="M299.818 253.819h24.935v124.308h-24.935Zm118.014 20.839v103.546h-25.168V274.658l-41.732.258V253.82h108.632v21.097zM578.02 320.89h-82.504a51.56 51.56 0 0 0 5.52 23.298 32.8 32.8 0 0 0 27.813 16.542c12.001 0 23.328-6.239 31.415-14.626l15.837 15.35c-13.193 13.151-28.512 18.69-47.252 18.69-40.047 0-58.994-27.31-58.994-65.156 0-33.653 19.18-63.966 55.65-63.966 35.718 0 53.24 26.612 53.24 59.876 0 3.344-.243 6.683-.725 9.992m-23.743-22.754a27.65 27.65 0 0 0-7.775-19.825 27.73 27.73 0 0 0-19.571-8.443c-18.455 0-27.812 14.393-30.223 31.064h57.569zm121.176-22.03a43.4 43.4 0 0 0-7.776-.958 31.8 31.8 0 0 0-19.647 6.446 34.7 34.7 0 0 0-6.714 6.472 36.7 36.7 0 0 0-6.713 13.41v76.65h-24.728V253.87h24.002l.726 19.88a60 60 0 0 1 10.057-12.192 40 40 0 0 1 26.88-10.355c3.206.095 6.402.415 9.564.958 0 0-5.158 23.945-5.65 23.945m114.334 102.02h-24.469l-.7-11.727c-11.767 8.128-24.468 14.6-39.113 14.6-20.866 0-38.362-15.092-38.362-36.397 0-15.79 10.057-28.475 24.21-34.74 16.33-7.17 35.51-6.212 53.006-6.212 0-18.432-2.592-33.29-24.676-33.29-12.493 0-21.85 5.98-30.482 14.366l-15.552-15.091a66.06 66.06 0 0 1 47.512-18.924c17.263 0 36.443 6.964 44.064 23.48a60.6 60.6 0 0 1 4.562 25.136zm-24.91-56.744h-6.998c-16.044 0-46.293.932-46.293 23.298 0 11.028 8.398 18.457 19.207 18.457 12.467 0 25.427-8.879 34.059-17.24zm105.262 59.151c-20.399 0-32.866-11.26-33.826-31.4-.233-3.573-.233-7.43-.233-11.002l.233-56.951.26-7.43-25.92.492v-20.372h25.92l.959-27.544 22.783-6.704v34.248h38.88v20.372l-38.88-.491.467 8.62.493 53.663c0 8.853-1.685 24.437 11.249 24.437 6.972 0 14.152-4.064 19.673-7.766l10.368 16.283a55.64 55.64 0 0 1-32.426 11.545m153.162-59.643h-82.504a51.54 51.54 0 0 0 5.495 23.298 32.85 32.85 0 0 0 27.839 16.542c12 0 23.328-6.239 31.415-14.626l15.837 15.35c-13.22 13.151-28.512 18.69-47.252 18.69-40.047 0-58.994-27.31-58.994-65.156 0-33.653 19.18-63.966 55.624-63.966 35.744 0 53.24 26.612 53.24 59.876a73 73 0 0 1-.7 9.992m-23.743-22.754a27.65 27.65 0 0 0-7.765-19.816 27.73 27.73 0 0 0-19.554-8.452c-18.482 0-27.839 14.393-30.223 31.064h57.568z"/></g></svg>