<svg xmlns="http://www.w3.org/2000/svg" viewBox="0 0 874 81"><path fill="#fff" d="M102.995 7.62V72.5H83.861V15.024l3.962.45L64.344 72.5H44.257L20.779 15.7l3.962-.52V72.5H5.605V7.62h31.108l21.316 54.275h-7.3L71.888 7.619zm39.333 66.368q-9.66 0-16.919-3.278-7.257-3.279-11.297-9.224t-4.04-13.754q0-7.897 4.04-13.822 4.04-5.926 11.309-9.205 7.27-3.28 16.93-3.28t16.918 3.28q7.257 3.279 11.298 9.194 4.04 5.916 4.04 13.834 0 7.83-4.04 13.764t-11.309 9.213q-7.27 3.278-16.93 3.278m.025-14.568q3.896 0 6.62-1.384 2.726-1.385 4.18-4.02 1.453-2.638 1.453-6.275 0-3.736-1.453-6.358-1.454-2.62-4.18-4.005-2.724-1.384-6.62-1.384-3.837 0-6.605 1.384-2.769 1.385-4.222 4.005t-1.454 6.325q0 3.702 1.454 6.323 1.453 2.62 4.222 4.005 2.768 1.383 6.605 1.384m60.611 14.5q-6.956 0-11.912-2.873t-7.57-8.097q-2.612-5.226-2.612-12.199V22.914h19.827v25q.001 4.776 2.396 7.362 2.397 2.587 6.826 2.587 3.373 0 5.614-1.28t3.417-3.815 1.176-6.116l5.97 3.061q-1.039 7.942-4.395 13.35t-8.184 8.131q-4.827 2.725-10.553 2.725m20.502-1.42-3.34-20.485V22.914h19.828V55.06l3.339 17.439zm24.205-49.586h19.828l3.356 20.484V72.5h-19.828V40.37zm40.849-1.489q7.196 0 12.249 2.873 5.053 2.872 7.742 8.088 2.69 5.217 2.69 12.276V72.5h-19.826V47.517q0-4.861-2.552-7.449-2.552-2.586-7.259-2.586-3.305 0-5.718 1.358t-3.702 3.884q-1.29 2.526-1.29 6.038l-5.986-3.062q1.125-8.027 4.533-13.426 3.408-5.398 8.357-8.124 4.948-2.724 10.762-2.725m26.245 16.022v-8.564l9.915-4.481 8.616-14.915h11.21v13.427h20.123v14.533h-20.123v12.406q0 5.035 1.982 7.084 1.982 2.05 7.674 2.05 3.528 0 6.297-.544 2.768-.546 5.035-1.41v14.584q-2.804.918-7.051 1.645a52.4 52.4 0 0 1-8.849.726q-8.495 0-14.015-2.586-5.52-2.587-8.21-7.44-2.688-4.853-2.689-11.48V37.447zM415.41 72.5l-2.388-17.683 2.457-7.076-2.457-6.99 2.388-17.837h20.589l-3.288 24.758 3.288 24.828zm4.36-24.759q-1.021 7.908-4.516 13.807-3.495 5.9-9.006 9.17-5.51 3.27-12.551 3.27-7.251 0-12.752-3.278t-8.581-9.213-3.08-13.756q0-7.905 3.08-13.831t8.58-9.205q5.502-3.28 12.753-3.28 7.04.001 12.551 3.236 5.51 3.237 9.05 9.127 3.537 5.89 4.471 13.953m-30.485 0q0 3.27 1.34 5.788a10.15 10.15 0 0 0 3.746 3.979q2.405 1.462 5.537 1.462 3.217 0 6.16-1.462a17 17 0 0 0 5.18-3.98 15.2 15.2 0 0 0 3.227-5.787 15.5 15.5 0 0 0-3.226-5.821q-2.24-2.553-5.182-4.014a13.7 13.7 0 0 0-6.16-1.462q-3.131 0-5.536 1.462t-3.745 4.014q-1.341 2.55-1.341 5.821m54.464-25.761 9.949 2.076 9.861-2.076V72.5h-19.81zm9.949-3.288q-5.018 0-8.132-2.508-3.114-2.51-3.114-6.748 0-4.326 3.114-6.834 3.114-2.51 8.132-2.509 5.19 0 8.261 2.509t3.071 6.834q0 4.239-3.071 6.748-3.07 2.508-8.261 2.508m16.592 4.222h19.828l3.356 20.484V72.5h-19.828V40.37zm40.849-1.489q7.196 0 12.249 2.873 5.053 2.872 7.742 8.088 2.69 5.217 2.69 12.276V72.5h-19.826V47.517q0-4.861-2.552-7.449-2.553-2.586-7.259-2.586-3.305 0-5.718 1.358t-3.702 3.884q-1.29 2.526-1.29 6.038l-5.986-3.062q1.125-8.027 4.533-13.426 3.408-5.398 8.357-8.124 4.948-2.724 10.762-2.725M597.645 7.62q11.696 0 20.459 4.032 8.764 4.03 13.642 11.307 4.879 7.275 4.879 17.102 0 9.758-4.88 17.067-4.879 7.31-13.641 11.342-8.763 4.03-20.46 4.031h-33.409V7.62zm-13.409 56.126-9.291-9.17h24.24q5.294 0 9.144-1.773 3.849-1.773 5.917-5.034t2.067-7.708q0-4.534-2.067-7.752t-5.917-4.99-9.145-1.774h-24.24l9.292-9.17zm81.006 10.174q-6.956 0-11.912-2.872-4.956-2.873-7.57-8.097-2.612-5.226-2.612-12.199V22.914h19.828v25q0 4.776 2.395 7.362 2.397 2.587 6.826 2.587 3.373 0 5.614-1.28t3.417-3.815q1.177-2.536 1.177-6.116l5.969 3.061q-1.038 7.942-4.395 13.35t-8.183 8.131q-4.829 2.725-10.554 2.725m20.503-1.419-3.34-20.485V22.914h19.827V55.06l3.339 17.439zm86.627-21.367q-.657 6.816-4.896 11.963-4.24 5.148-11.02 8.02-6.783 2.872-15.26 2.872-9.31 0-16.411-3.313t-11.081-9.248-3.98-13.686q0-7.82 3.98-13.72t11.08-9.247q7.102-3.35 16.411-3.349 8.478 0 15.26 2.873 6.783 2.872 11.021 7.985t4.896 12.016h-19.637q-.866-4.084-3.962-6.195-3.096-2.11-7.578-2.11-3.459 0-6.073 1.34-2.612 1.342-4.005 3.962-1.393 2.622-1.393 6.445 0 3.807 1.393 6.402a9.23 9.23 0 0 0 4.005 3.936q2.613 1.34 6.073 1.34 4.5 0 7.596-2.265 3.096-2.267 3.944-6.021zm26.317 5.778-5.364-1.764 26.09-32.233h20.451L796.456 72.5H778.86V5.89h19.828zm6.59-8.495 15.14-10.069 20.71 34.153h-22.164z"/></svg>