<svg xmlns="http://www.w3.org/2000/svg" viewBox="0 0 120 120"><path fill="#fff" fill-rule="evenodd" d="M10 5a5 5 0 0 1 5-5h65a5 5 0 0 1 3.535 1.464l25 25A5 5 0 0 1 110 30v85a5 5 0 0 1-5 5H15a5 5 0 0 1-5-5zm65 5v25h25zM45.625 86.25V60h8.75v30.625A4.375 4.375 0 0 1 50 95H32.5a4.375 4.375 0 0 1-4.375-4.375v-8.75h8.75v4.375zM70 60a4.375 4.375 0 0 0-4.375 4.375V77.5A4.375 4.375 0 0 0 70 81.875h13.125v4.375h-17.5V95H87.5a4.375 4.375 0 0 0 4.375-4.375V77.5a4.375 4.375 0 0 0-4.375-4.375H74.375V68.75h17.5V60z"/></svg>