<svg xmlns="http://www.w3.org/2000/svg" viewBox="0 0 120 120"><path fill="#fff" fill-rule="evenodd" d="M15 0a5 5 0 0 0-5 5v110a5 5 0 0 0 5 5h90a5 5 0 0 0 5-5V30a5 5 0 0 0-1.465-3.536l-25-25A5 5 0 0 0 80 0zm60 35V10l25 25zM36 60h10.204l-10.5 17.5 10.5 17.5H36l-5.398-8.996L25.204 95H15l10.5-17.5L15 60h10.204l5.398 8.996zm55.875 26.25V60h-8.75v30.625A4.375 4.375 0 0 0 87.5 95H105v-8.75zM56.269 61.575a4.375 4.375 0 0 0-7.736 2.8V95h8.75V76.459l3.201 3.842a4.375 4.375 0 0 0 6.722 0l3.201-3.842V95h8.75V64.375a4.374 4.374 0 0 0-7.736-2.8l-7.576 9.091z"/></svg>