<svg xmlns="http://www.w3.org/2000/svg" viewBox="0 0 120 120"><path fill="#fff" fill-rule="evenodd" d="M15 0a5 5 0 0 0-5 5v110a5 5 0 0 0 5 5h90a5 5 0 0 0 5-5V30a5 5 0 0 0-1.465-3.536l-25-25A5 5 0 0 0 80 0zm60 35V10l25 25zM36 60h10.204l-10.5 17.5 10.5 17.5H36l-5.398-8.996L25.204 95H15l10.5-17.5L15 60h10.204l5.398 8.996zm42.75 4.375A4.375 4.375 0 0 1 83.125 60H105v8.75H87.5v4.375h13.125A4.375 4.375 0 0 1 105 77.5v13.125A4.375 4.375 0 0 1 100.625 95H78.75v-8.75h17.5v-4.375H83.125A4.375 4.375 0 0 1 78.75 77.5zM60.602 86.25V60h-8.75v30.625A4.375 4.375 0 0 0 56.227 95h16.875v-8.75z"/></svg>