<svg xmlns="http://www.w3.org/2000/svg" viewBox="0 0 120 120"><path fill="#fff" fill-rule="evenodd" d="M15 0a5 5 0 0 0-5 5v110a5 5 0 0 0 5 5h90a5 5 0 0 0 5-5V30a5 5 0 0 0-1.465-3.536l-25-25A5 5 0 0 0 80 0zm60 35V10l25 25zm8.125 25.026A4.375 4.375 0 0 0 78.75 64.4v30.625h8.75V84.4h13.125A4.375 4.375 0 0 0 105 80.026V64.4a4.375 4.375 0 0 0-4.375-4.375zM96.25 75.65H87.5v-6.875h8.75zm-40.625-6.9H51.25V60h17.5v8.75h-4.375v17.5h4.374v8.749H51.25v-8.75h4.375zM15 68.75h13.705L15.734 88.226a4.375 4.375 0 0 0 3.641 6.8H41.25v-8.75H27.545l12.971-19.474a4.375 4.375 0 0 0-3.641-6.8H15z"/></svg>