<svg xmlns="http://www.w3.org/2000/svg" viewBox="0 0 120 120"><path fill="#fff" fill-rule="evenodd" d="M15 0a5 5 0 0 0-5 5v110a5 5 0 0 0 5 5h90a5 5 0 0 0 5-5V30a5 5 0 0 0-1.465-3.536l-25-25A5 5 0 0 0 80 0zm60 35V10l25 25zM19.375 60A4.375 4.375 0 0 0 15 64.375v26.25a4.375 4.375 0 0 0 4.375 4.374H32.5a8.75 8.75 0 0 0 8.75-8.749v-17.5A8.75 8.75 0 0 0 32.5 60zm4.375 26.25v-17.5h8.75v17.5zm23.125-21.875A4.375 4.375 0 0 1 51.25 60h17.5a4.375 4.375 0 0 1 4.375 4.375v26.25A4.375 4.375 0 0 1 68.75 95h-17.5a4.375 4.375 0 0 1-4.375-4.375zm8.75 4.375v17.5h8.75v-17.5zm27.5-8.75a4.375 4.375 0 0 0-4.375 4.374v26.25A4.375 4.375 0 0 0 83.125 95H105v-8.75H87.5v-17.5H105V60z"/></svg>