<svg xmlns="http://www.w3.org/2000/svg" viewBox="0 0 120 120"><path fill="#fff" fill-rule="evenodd" d="M15 0a5 5 0 0 0-5 5v110a5 5 0 0 0 5 5h90a5 5 0 0 0 5-5V30a5 5 0 0 0-1.465-3.536l-25-25A5 5 0 0 0 80 0zm60 35V10l25 25zM19.375 60A4.375 4.375 0 0 0 15 64.375V95h8.75V84.375h13.125A4.375 4.375 0 0 0 41.25 80V64.375A4.375 4.375 0 0 0 36.875 60zM32.5 75.625h-8.75V68.75h8.75zm46.25-11.25A4.375 4.375 0 0 1 83.125 60h17.5A4.375 4.375 0 0 1 105 64.375V80a4.375 4.375 0 0 1-4.375 4.375H87.5V95h-8.75zm8.75 11.25h8.75V68.75H87.5zM46.875 60v35h8.75V81.875h8.75V95h8.75V60h-8.75v13.125h-8.75V60z"/></svg>