<svg xmlns="http://www.w3.org/2000/svg" viewBox="0 0 120 120"><path fill="#fff" fill-rule="evenodd" d="M15 0a5 5 0 0 0-5 5v110a5 5 0 0 0 5 5h90a5 5 0 0 0 5-5V30a5 5 0 0 0-1.465-3.536l-25-25A5 5 0 0 0 80 0zm60 35V10l25 25zM19.375 60A4.375 4.375 0 0 0 15 64.375V95h8.75V84.375h13.125A4.375 4.375 0 0 0 41.25 80V64.375A4.375 4.375 0 0 0 36.875 60zM32.5 75.625h-8.75V68.75h8.75zm14.376-11.25A4.375 4.375 0 0 1 51.25 60h13.125a8.75 8.75 0 0 1 8.75 8.75v17.5a8.75 8.75 0 0 1-8.75 8.75H51.25a4.375 4.375 0 0 1-4.374-4.375zm8.75 4.375v17.5h8.75v-17.5zm23.125-4.376A4.375 4.375 0 0 1 83.126 60h21.875v8.75h-17.5v6.874h11.25v8.75h-11.25V95h-8.749z"/></svg>