<svg xmlns="http://www.w3.org/2000/svg" viewBox="0 0 121 120"><path fill="#fff" fill-rule="evenodd" d="M16 0a5 5 0 0 0-5 5v110a5 5 0 0 0 5 5h90a5 5 0 0 0 5-5V30a5 5 0 0 0-1.465-3.536l-25-25A5 5 0 0 0 81 0zm60 35V10l25 25zM20.375 60A4.375 4.375 0 0 0 16 64.375v26.25A4.375 4.375 0 0 0 20.375 95H42.25v-8.75h-17.5v-17.5h17.5V60zm24.468 4.375A4.375 4.375 0 0 1 49.218 60h21.875v8.75h-17.5v4.375h13.125a4.375 4.375 0 0 1 4.375 4.375v13.125A4.375 4.375 0 0 1 66.718 95H44.843v-8.75h17.5v-4.375H49.218a4.375 4.375 0 0 1-4.375-4.375zM106 60h-9.346l-6.811 18.165L83.032 60h-9.345l12.06 32.161a4.376 4.376 0 0 0 8.193 0z"/></svg>