<svg xmlns="http://www.w3.org/2000/svg" viewBox="0 0 120 120"><path fill="#fff" fill-rule="evenodd" d="M15 0a5 5 0 0 0-5 5v110a5 5 0 0 0 5 5h90a5 5 0 0 0 5-5V30a5 5 0 0 0-1.465-3.536l-25-25A5 5 0 0 0 80 0zm60 35V10l25 25zM19.375 60A4.375 4.375 0 0 0 15 64.375v26.25A4.375 4.375 0 0 0 19.375 95H41.25v-8.75h-17.5v-17.5h17.5V60zm27.5 4.375A4.375 4.375 0 0 1 51.25 60h21.875v8.75h-17.5v4.375H68.75a4.375 4.375 0 0 1 4.375 4.375v13.125A4.375 4.375 0 0 1 68.75 95H46.875v-8.75h17.5v-4.375H51.25a4.375 4.375 0 0 1-4.375-4.375zM83.125 60a4.375 4.375 0 0 0-4.375 4.375V77.5a4.375 4.375 0 0 0 4.375 4.375H96.25v4.375h-17.5V95h21.875A4.375 4.375 0 0 0 105 90.625V77.5a4.375 4.375 0 0 0-4.375-4.375H87.5V68.75H105V60z"/></svg>