<svg xmlns="http://www.w3.org/2000/svg" viewBox="0 0 3056 738"><defs>
<linearGradient id="img-index-bg-grad" x1="50%" x2="50%" y1="0%" y2="100%">
<stop offset="0%" stop-color="#111320" stop-opacity="0"/>
<stop offset="80%" stop-color="#0A0B13"/>
</linearGradient>
</defs>

<g fill="none" fill-rule="evenodd">
<path fill="url(#img-index-bg-grad)" d="M0 0v568.351l67.467 34.372 204.548-226.802 118.14 111.452 151.586-214.605h12.866l97.36-96.832 189.336 311.437 95.866-43.311 71.761-11.88 94.891-125.138 78.169-68.653 102.011 172.123 303.151-382.687 305.663 510.682 113.632-73.729 17.349-23.755 55.081-40.193 266.952 264.571 106.728-62.68L2565.4 446.807l128.294-114.105 40.764 73.506 44.062 40.599 59.129 71.142 74.475-73.887L3056 546.044V0z"/>
<path fill="#1a6ee4" fill-opacity=".15" d="M272.015 375.921q8.412 26.261 17.36 45.893 8.949 19.631 17.361 30.283L256.172 478.4l41.1 82.03-20.544 13.34q-27.12-16.629-40.143-26.32-13.023-9.693-36.623-30.82L67.467 602.724zm379.952-199.985 10.662 31.093-29.354 113.89 67.092 59.363-73.332-7.217 65.435 134.27-24.254 19.79-67.737-65.204-30.013 37.844-5.368-73.421-19.564 88.054-24.629-88.054-62.092 70.608q19.475-44.088 32.395-66.108t44.737-65.343l-167.4 152.138 21.61-30.266 151.586-214.605h12.866zm530.023 62.455 10.473 35-13.795 95.31-18.075 61.109-30.281-49.442q-11.268 36.848-15.213 55.325-3.946 18.477-8.425 55.366-8.83 1.143-32.82 38.901-23.99 37.76-55.123 99.522-13.905-9-41.479-56.297-27.573-47.298-51.467-103.135-3.349 7.02-5.254 25.938-1.905 18.92-2.997 56.012l-30.842-43.333-18.087 21.293-27.302-42.587 95.866-43.31 71.76-11.881 94.892-125.138zm405.162-210.564q35.53 85.38 51.848 133.529t26.004 96.204l-19.154 14.45v40q-22.872-32.274-36.296-48.053-13.424-15.78-33.996-34.573 35.76 138.346 59.939 247.116t22.065 121.769l-114.554-155.33-23.141 49.363q-16.911-66.81-18.15-104.667t10.823-119.264L1364.967 513.18q-6.047-26.602-5.192-51.9.855-25.296 9.106-63.949-63.247 74.137-114.777 128.835t-74.523 72.104q29.212-64.113 47.673-97.307 18.46-33.193 56.747-90.448zm491.725 373.005 29.282 167.958-65.498-65.258-16.298 17.834 71.051 95.597 10.745 120.706-179.39-185.847-14.014 27.04-21.94-40.353 113.632-73.729 17.349-23.755zm614.817-68.13 7.9 26.986v45.682l28.825 50.411-45.171-8.24q40.014 51.428 59.502 81.291 19.488 29.864 48.014 83.465-49.894-31.225-79.045-50.609-29.152-19.383-87.446-60.094-7.952 11.27-13.49 16.795-5.54 5.526-18.598 15.216l5.247 68.79-40.918-52.068-55.814 104.95-28.568-16.044q-26.685 17.865-41.647 31.303-14.961 13.44-42.219 44.03l-44.437-49.163 106.728-62.68L2565.4 446.807zm143.955 185.247 43.85 54.455 8.396-32.399 38.299 32.4-13.624-48.771q28.073 19.87 46.952 28.853 18.88 8.983 55.549 19.917l-71.687-60.857 78.252 12.087-111.512-79.572z"/>

</g></svg>