<svg xmlns="http://www.w3.org/2000/svg" viewBox="0 0 949 970">

<g class="index-base" fill="none" fill-rule="evenodd">
<path fill="#f7901b" d="M386.556 780.425q11.237 3.944 21.547 3.626t35.59-8.523l-2.685 61.5 17.07 51.116-2.843 7.2q-23.611 11.715-39.267 18.232-15.654 6.517-28.355 9.919-31.296 10.662-46.81 10.981t-15.701-9.697q-26.476.732-37.076-3.316-10.6-4.05-7.85-13.844-18.786-8.925-19.683-14.606t14.634-17.38q35.486-13.21 54.956-17.013t60.91-5.618q2.088.53.95-18.09-1.14-18.62-5.387-54.487m172.899 13.959q17.025-.866 29.911-4.978 12.888-4.113 29.18-13.878-1.895 27.104 0 45.704 1.897 18.6 8.538 38.063l11.393 12.93q38.715 7.207 63.24 15.065t44.257 19.374q16.828 9.753 16.828 18.863t-20.51 13.24q-1.085 15.06-14.451 18.405-13.366 3.344-47.745-2.844-23.088 13.486-37.314 11.248-14.224-2.238-42.129-23.743-27.145-24.17-31.885-38.499c-4.74-14.329 6.742-26.85 6.742-37.515 0-4.371-.164-18.42-4.207-35.41q-2.535-10.651-11.848-36.025"/><path fill="#e97706" d="M386.556 780.425q15.36 4.043 28.032 3.331 12.672-.711 29.105-8.228-3.308 23.414-3.308 41.84 0 18.428 3.308 27.709 10.605 23.823 12.023 36.878 1.42 13.053-6.253 16.205-44.736 20.326-69.168 28.092-24.432 7.764-45.125 8.234l-10.85-8.234q93.513-29.16 99.849-65.982 6.335-36.82-37.613-79.845m183.584 13.959q9.824 23.337 12.817 38.701 2.993 15.366 4.244 48.87-6.786 11.891 4.22 27.094c6.028 8.327 19.406 16.476 40.973 36.699q4.685 4.393 15.573 20.146-23.827-6.33-37.163-16.07T570.14 909.05q-1.626-10.524 0-22.337 1.625-11.812 7.437-31.705l-18.122-60.623z"/><path fill="#fdb631" d="M330.074 888.404c-4.605 3.606-16.532 6.686-28.403 12.718q-6.84 3.475-20.445 13.37.892-10.399 7.794-16.854 6.9-6.453 27-15.683 24.944-2.076 14.054 6.45m46.615-35.342q14.504 0 23.016 5.228a288 288 0 0 1-4.84 1.673l-.873.29q-6.863 2.266-9.702 2.647c-28.192 3.791-46.949 4.895-62.98 9.425q-27.375 7.734-60.866 25.313 2.091-14.963 16.524-22.288t49.918-17.06q35.3-5.228 49.803-5.228m9.867-72.637 10.252 3.331q3.625 19.1 4.614 35.497.99 16.4 0 39.037l-13.574-5.035 4.095-8.178zm274.573 96.059q44.857 9.987 73.384 22.756 28.525 12.77 28.29 22.756-5.559-1.841-28.29-12.017c-8.322-3.725-28.035-11.344-41.969-17.711q-11.442-5.229-31.415-15.784"/><path fill="#2776e0" d="m278.106 363.052 100.034 25.756 2.931-5.928 20.247 9.65q7.51 20.835 24.43 29.959t42.34 6.044q17.987.455 36.737-8.752t29.147-23.6q26.08-7.552 41.943-10.13 15.863-2.577 21.012 0 7.791-5.686 13.83-7.047 6.04-1.36 17.469 0 17.23-9.065 25.295-10.65t14.643 2.798q-20.58 21.38-18.079 57.381 2.503 36.003 18.08 55.365l47.79-21.279q-3.106 28.067-11.479 36.805-8.371 8.739-36.312 13.08l-43.712 2.147q.923 36.528 6.983 60.53 6.06 24.004 26.084 70.445 3.096 7.938 0 14.861T643.82 676.25q-28.104 21.368-49.237 30.184-21.135 8.815-69.466 19.33-50.63 4.554-76.373 2.402-25.74-2.15-70.605-14.69-36.42-16.368-51.254-26.269-14.836-9.9-23.698-23.75 1.517-40.918 3.685-61.876t9.147-62.127l8.2-31.639q-49.815.527-66.73-8.39-16.914-8.916-17.372-35.944l42.696 13.429q18.763-38.514 13.525-65.179t-18.233-48.678"/><path fill="#1d62c7" d="m240.118 463.48 45.802 13.993 2.005-6.997q14.404 4.468 22.953-1.476 8.55-5.944 10.928-22.081 3.453 18 8.648 16.56 5.195-1.438 22.14-25.083l-26.48 69.669-40.194-2.312q-27.635-4.982-35.966-12.672-8.333-7.689-9.836-29.601m475.838-.86L594.984 512.81q36.184 3.637 65.934 0t43.558-13.387q5.39-8.362 7.907-16.437 2.52-8.073 3.573-20.368m-123.898 52.01h30.435q2.652 40.51 8.27 63.15t24.707 64.729q3.28 12.746 0 20.773t-15.64 17.493q-28.902 17.152-42.925 23.663-14.025 6.51-37.45 13.65 26.286-25.097 22.372-29.833-3.913-4.737-44.784 6.488 52.126-15.978 63.2-52.234 11.075-36.258-8.185-127.88"/><path fill="#619be8" d="M279.687 367.431q2.847-3.166 10.402-2.338t22.496 5.945l.16.667 57.457 17.02v9.056q-11.068-.888-20.124-2.848c-2.074-.45-6.409-2.01-11.004-3.56l-.922-.31-.463-.155-.926-.305-.923-.3a105 105 0 0 0-5.304-1.579q-5.214-1.374-14.33-2.646l1.677 6.967q-12.99-11.39-19.098-14.062-6.108-2.673-11.006.89Zm54.189 324.627q-5.314-20.388-5.314-39.27c0-7.925-3.638-48.368 5.314-106.834 5.266-34.394 30.086-114.716 30.086-122.16q0-7.443-39.741 87.294-8.303 27.557-13.343 64.064-5.04 36.508-7.69 88.304 10.231 14.061 18.123 21.416 7.89 7.356 12.565 7.186M649.69 366.424q7.482-2.139 15.476 0l-4.249 15.568q-9.207 3.256-13.335 4.06c-11.75 2.285-21.178 2.855-28.568 4.933q-14.98 4.212-46.152 15.77l.896-.332q-5.697 6.258-9.642 9.517c-9.204 7.603 5.45-9.228 3.392-11.244q-2.058-2.017-12.84 1.99l-22.59 18.508q-7.38-2.894-12.435-3.501-5.055-.609-17.09 0 10.524-5.844 17.09-10.884T536 396.022q24.793-7.48 36.818-9.97t19.24-1.636q-7.364 9.4-13.254 16.28l16.18-16.498 33.242-5.194q13.981-10.44 21.465-12.58"/><path fill="#fee019" d="m666.214 371 107.407-42.375q11.833-14.666 19.881-23.81 8.05-9.143 13.6-14.225 5.99-35.43 13.46-46.612 7.47-11.181 19.533-2.773 18.53 11.59 20.112 26.317 1.582 14.73-12.566 43.941l75.576 35.631q8.67 5.167 11.698 13.241 3.027 8.076 2.057 22.864 14.962 15.983 3.946 27.492-11.019 11.51-34.761 12.801-6.724 13.97-22.46 14.682-15.735.712-46.592-11.558l-41.327-10.405q-20.033 15.805-46.693 29.547-26.661 13.74-82.871 37.23-16.523-42.856-16.523-63.207 0-20.352 16.523-48.781m-568.99-58.925L31.26 343.734q-14.724 5.797-18.463 13.992-3.738 8.195 0 26.478-12.743 22.218-7.955 29.274 4.787 7.056 34.455 9.738 1.416 11.292 13.1 13.289 11.686 1.996 38.713-4.5l60.337-15.63q38.745 23.991 61.11 34.397 22.362 10.407 70.107 26.701 3.625-4.083 6.563-12.125t6.945-24.853q-.279-32.467-3.234-45.562t-13.251-27.502h-6.616l-105.023-38.806q.436-2.87-9.723-16.55c-4.14-5.573-13.565-11.837-19.082-18.2q-3.512-4.05-6.776-12.335-4.597-26.187-9.316-34.973-4.717-8.785-14.344-8.584-21.834 7.948-25.247 24.766-3.415 16.818 7.55 41.955zm224.087 372.797q39.081 25.3 80.111 36.096t87.047 7.888q47.552-1.75 86.933-14.906t76.674-42.28q-1.208 32.877-6.248 49.298t-16.348 24.304q-5.806 25.335-18.676 34.701t-50.676 15.77q-17.194-.555-24.532-5.49-7.336-4.935-13.378-20.011h-70.7q-12.26 6.536-23.728 10.183t-19.687 3.626q-28.09-3.696-38.056-13.81-9.967-10.113-9.318-34.265-8.646-6.306-19.59-20.496-10.946-14.19-19.828-30.608"/><path fill="#fec110" d="M98.916 429.597q-30.575 9.647-43.073 7.873-12.498-1.773-13.91-15.958 10.376 4.454 25.833 1.977c15.456-2.477 21.378-5.93 41.04-12.694 19.663-6.766 23.772-6.58 33.678-13.014q9.905-6.435 24.473-24.764a86 86 0 0 1-.184 4.077q.092-.707.184-1.432 16.228 33.329 34.576 45.188c18.349 11.86 57.637 24.463 69.46 22.054q11.82-2.409 25.18-33.621.33 23.88-2.092 39.984t-8.161 28.206q-51.165-16.538-76.846-28.206-25.682-11.67-57.627-32.892zm-46.518-30.635q-7.02 8.208-10.464 14.516-3.444 6.309-2.9 9.966-17.565.445-25.607-3.563-8.043-4.007-9.893-14.125 13.174 1.242 22.102 0c3.994-.555 9.632-4.945 16.298-6.794q3.27-.907 10.464 0m110.981-4.059-.047.144a67 67 0 0 1-1.964 5.205q.61-1.308 1.053-2.471.491-1.29.958-2.878m618.548-20.463q.093 2.77.254 5.362l.067 1.029.202.2q12.443 12.235 23.788 17.55c11.644 5.456 25.692 8.526 42.85 13.329 17.156 4.802 23.67 8.424 36.276 8.82q12.607.395 18.103-7.115 3.719 10.928 0 17.042-3.719 6.113-15.195 7.94-26.502-4.127-42.26-7.94t-50.234-14.446q-34.992 23.678-55.697 35.715-20.706 12.039-24.125 10.693l-49.742 20.368q-13.26-28.548-14.97-46.743-1.709-18.195 5.866-50.19-.445 58.748 23.197 61.077c23.642 2.33 89.89-38.445 95.755-47.707q5.865-9.261 5.865-24.984m158.99 14.085q7.737 22.523-6.78 29.412t-25.747 1.382l-13.683-18.558q19.47 3.045 30.974 0 11.504-3.047 15.237-12.236m-154.924 14.244q3.386 10.21 9.492 13.3l.293.142q-7.148-6.684-9.785-13.442m62.635-92.338-5.068 11.414q3.36 12.541 3.775 20.234t-1.958 13.47q6.863-7.639 7.693-19.161t-4.442-25.957M652.076 671.67q2.212 25.962-2.55 41.47-4.761 15.51-20.046 32.132-3.718 19.16-10.933 28.528-7.216 9.37-21.642 13.769 25.588-57.95 13.9-63.01c-11.69-5.06-46.103 16.7-99.182 16.7-7.355 0-21.136-.864-35.452-2.142l-1.755-.158-1.758-.163-1.759-.166c-13.186-1.26-26.214-2.824-34.523-4.342q-25.06-4.578-59.687-21.147 36.195 12.22 65.181 15.715 28.988 3.495 65.181 0 49.035-7.878 80.15-20.147 31.115-12.27 64.875-37.04m-271.78 60.543q13.044 15.605 28.751 24.315a103 103 0 0 0 3.866 2.035q50.185 3.903 75.556 3.148 25.877-.77 46.029-6.982l-8.05 15.513q-21.214 1.021-36.94 1.045h-1.485q-15.463-.024-25.438-1.045-18.903-1.937-47.093-10.43 14.064 6.601 33.971 11.476-7.65 6.015-18.749 9.137-11.1 3.123-25.583 3.331 2.634-7.584-3.709-20.748-6.342-13.163-21.127-30.795"/><path fill="#fff5b1" d="M88.375 387.13q-11.238 11.505-20.61 16.282-9.37 4.774-25.831 7.383 11.175-10.275 19.334-14.432 8.158-4.158 27.107-9.234m-20.61-29.404q8.34 3.24-8.79 13.291T7.57 393.045q1.342-9.967 13.983-17.383 12.639-7.417 46.212-17.936m29.46-45.651 5.174 8.029q-14.076 10.035-21.07 13.415c-16.671 8.054-31.64 12.333-41.456 18.281q-20.903 12.667-29.16 23.862-2.851-4.93 0-11.43 2.851-6.499 12.61-17.31zm25.975-65.156q5.82 10.694 11.565 42.632 16.357 13.237 23.56 22.524 7.202 9.285 6.746 16.55-17.543-13.083-32.967-29.59c-15.424-16.507-4.622-42.816-23.297-48.559q-18.676-5.742-17.697 54.228-13.013-26.73-8.713-42.485t24.093-24.623q10.89-1.371 16.71 9.323m44.848 81.706 105.023 38.806h6.616l10.402 16.157q-65.635-12.57-91.895-25.862t-30.146-29.1M666.214 371l107.407-42.375q7.767-10.658 14.401-18.194 6.635-7.536 19.08-19.841l2.323-15.76q3.522-21.827 11.137-30.852 7.614-9.025 17.362-2.929-7.905 5.625-12.358 17.504c-4.454 11.878-2.473 27.679-8.738 38.755s-13.423 11.043-21.05 19.404 0 12.663-19.792 25.367-40.227 21-63.264 28.92q-23.037 7.92-53.644 11.272z"/><path fill="#000" d="M108.807 233.634c9.1 0 13.792 3.807 18.675 12.727 4.882 8.92 3.88 27.295 8.294 36.542s18.118 17.354 25.51 26.736q7.395 9.383 8.212 16.062l-4.427 3.062q.29-2.709-8.045-13.222c-8.335-10.512-21.25-14.955-27.23-29.38-5.979-14.425-1.144-23.526-6.497-34.369q-5.355-10.843-14.492-10.44-24.978 5.6-22.656 34.918c1.602 20.23 14.596 37.86 21.762 46.846l.608.76c2.863 3.564 4.609 5.57 3.958 5.57-.72 0-4.657-2.758-9.67-7.379l.055-.2-.102.371q-2.518 9.3-1.535 15.965c1.019 6.904 8.332 21.15 7.516 22.662-.815 1.512-8.48-8.381-10.506-17.118q-1.926-8.311-.188-26.332-.731-.757-1.47-1.551l.552-.277-7.435 3.713a4500 4500 0 0 0-37.494 18.98c-22.423 11.483-25.717 9.76-32.597 17.011q-6.429 6.775-3.769 22.264c19.373-15.613 50.725-20.597 51.896-20.597 1.608 0-55.339 22.82-60.16 42.723q-4.674 19.288 29.225 19.29c1.664-25.25 49.708-32.564 51.578-31.842 1.982.765-52.931 16.384-44.28 36.565s34.893 4.811 64.712 0c29.818-4.812 32.574-5.056 42.581-14.105 9.807-8.868 14.262-38.274 15.576-38.57h.039l.037.02c1.211.932 3.87 27.824-10.6 42.44q-.518.522-1.035 1.019 39.835 24.694 64.437 35.842 24.117 10.93 62.874 22.113c5.582-10.26 10.691-23.81 11.474-40.315q1.699-35.79-15.985-62.283l-1.91 1.078-111.224-41.487 4.488-3.745 100.979 35.462q12.37-1.635 20.788 0 8.418 1.632 29.582 9.77l60.163 14.963v.155h1.032q10.248 69.005 73.426 63.786c63.178-5.22 108.588-54.904 108.588-52.532s-45.934 56.205-113.371 56.205q-64.597 0-72.06-61.897-3.561 1.075-5.892 4.623c-3.07 4.674-5.05 20.14-8.277 20.14s3.227-19.285-6.643-25.2q-7.309-4.38-44.07-15.895 11.358 40.15 10.332 63.115-1.053 23.573-16.773 65.257 7.088.441 15.09.753c14.277-41.524 33.36-74.832 34.17-73.104.993 2.123-28.76 77.062-37.296 118.153-5.18 24.94-8.76 60.905-10.452 86.136q79.138 63.837 165.633 63.837c89.609 0 171.32-59.642 171.32-58.351 0 1.29-84.538 63.36-171.32 63.36q-84.03 0-165.956-63.783c-.829 13.681-1.02 23.266-.516 24.539.863 2.186 4.151 6.06 9.18 12.164q47.918 27.99 79.592 37.212c32.07 9.337 74.515 12.12 95.762 12.12 21.246 0 76.294-11.021 109.339-27.288 33.045-16.266 46.79-27.22 52.717-38.74 5.927-11.523-14.833-39.727-23.07-74.412q-8.112-34.165-10.827-67.651c-19.524-1.77-33.674-5.737-33.674-7.222 0-3.413 74.299 3.413 101.219-7.217q24.36-9.619 23.793-35.279-17.082 7.438-40.546 16.416c7.986 11.91 15.301 13.54 14.233 14.074-1.837.919-32.816-9.34-38.171-59.198q-4.86-45.242 13.579-67.513-5.712-.664-11.44.717-4.387 1.058-9.525 3.493-16.653 39.09-15.49 63.273c1.199 24.93 23.667 64.183 22.854 65.703-.812 1.52-20.88-25.944-26.248-59.352q-4.899-30.484 10.984-65.332l-.378.229q-15.908.253-30.746 6.83c-14.838 6.575-29.331 21.271-30.615 20.363-.539-.382 2.425-3.006 5.293-6.16l.408-.455.156-.175.31-.354.31-.362c3.44-4.058 5.956-8.563.663-10.235q-9.413-2.974-40.584 4.366l.219-.275q-28.656 36.305-76.425 36.305t-62.066-36.305l5.686 1.265q12.042 29.84 56.38 29.84 44.34 0 71.172-29.84l3.818-.92a1746 1746 0 0 1 49.074-13.888q27.125-7.259 41.886-5.749 12.547-9.993 26.663-11.802 10.56-1.353 17.904 2.4 95.294-38.667 98.613-40.788c3.41-2.18 8.785-12.216 15.032-18.962q6.246-6.746 19.016-18.276 4.452-32.447 11.075-43.56c5.786-9.708 12.422-9.599 17.532-9.416l.4.014c.595.022 1.168.04 1.715.04 5.287 0 28.595 10.753 28.595 33.834q0 17.41-11.067 40.6l-1.677-.862a7249 7249 0 0 0 31.577 16.146c15.595 7.925 38.386 12.73 49.882 25.25q10.494 11.431 8.473 31.217c4.932 4.577 8.063 9.809 8.063 15.68q0 26.325-37.857 29.282-7.694 14.826-23.961 15.944c-17.674 1.215-33.095-6.456-55.557-13.055-15.251-4.481-24.946-4.996-32.567-8.345q-43.926 27.195-65.924 38.275-6.037 3.041-13.531 6.433-4.066 31.847-14.54 38.47c-22.083 13.963-52.574 16.375-76.983 14.96q1.59 33.954 7.22 55.96c2.072 8.103 5.683 17.865 9.56 27.66l.648 1.632q.796 1.998 1.6 3.987l.534 1.323c6.058 14.976 12.03 29.114 13.257 36.459q1.88 11.245-5.927 23.754-.053 34.534-4.545 49.335-4.71 15.52-19.346 29.477-2.509 13.617-8.596 22.897-2.437 38.391 1.541 61.026c4.048 23.035 12.46 33.485 16.069 37.306 3.61 3.821 53.553 6.548 92.929 25.836s33.343 28.816 32.805 34.08q-.516 5.045-19.793 11.42c.517 2.265.348 4.562-.682 6.864q-9.096 20.33-66.477 9.724c-6.31 5.4-18.365 19.695-51.113 5.694-35.961-15.374-52.18-41.38-60.46-57.15-4.812-9.166-2.756-18.416.072-27.792l.29-.954q.44-1.432.888-2.867l.302-.972c1.604-5.187 3.13-10.414 3.556-15.688q1.285-15.858-16.62-60.214c-12.154-.17-20.593-2.276-27.731-9.613-3.021-3.106-5.044-8.177-6.292-13.286q-42.173 1.65-69.987-2.037a139 139 0 0 1-4.82 2.785q-4.533 50.319-1.376 66.51c1.137 5.823 3.897 12.382 6.775 18.995l.666 1.527.49 1.126.123.28.61 1.406q.55 1.27 1.085 2.534l.424 1.01c3.922 9.404 6.849 18.363 4.316 24.863-4.999 12.828-83.138 37.465-99.085 41.935-14.974 4.197-36.508 4.453-39.08-8.892q-44.596 5.263-44.596-15.062c0-.96.09-1.9.26-2.818q-28.95-7.59-16.54-23.724c7.292-9.48 20.702-17.899 57.448-27.071 5.845-1.459 15.959-2.772 26.711-3.89l1.376-.142q1.725-.176 3.46-.345l1.871-.18c18.095-1.727 35.88-2.887 36.564-3.258 1.18-.64 1.18-12.32 0-27.32q-1.134-14.434-5.061-40.747-29.051-13.17-26.484-46.947-4.988-2.973-9.88-7.493-14.572-13.466-27.366-39.105-18.986-18.13-20.708-23.765c-1.722-5.636 1.722-77.509 15.086-131.397 1.923-7.755 4.16-15.444 6.586-22.92q-46.332-1.966-62.637-8.668-16.672-6.853-20.63-36.65a401 401 0 0 1-20.3-8.586q-31.07-14.163-67.704-37.267c-12.035 8.178-24.609 8.077-41.975 11.926-20.405 4.524-63.263 20.28-69.604-5.758q-42.18 5.806-36.084-26.192c1.214-6.375 4.332-11.874 8.593-16.6q-6.924-23.152 6.306-34.395c7.132-6.06 23.996-13.274 51.962-25.995q7.115-3.235 23.67-12.195c-7.918-9.687-15.084-21.991-15.084-34.226 0-26.427 22.902-42.636 32.003-42.636m502.245 549.419c-14.377 10.134-29.938 14.013-46.457 14.707q18.63 52.579 15.477 65.45c-3.251 13.281-9.34 22.418-9.34 34.86 0 12.444 30.727 42.116 57.723 56.554s40.898 2.447 46.11-1.683c2.425-1.922-.538-7.075-4.23-12.191l-.398-.548q-.501-.684-1.012-1.363l-.408-.54-.49-.644c-3.59-4.697-6.986-8.765-6.245-9.442 1.683-1.537 9.404 5.575 14.79 13.243 3.236 4.608 6.018 7.825 6.455 10.444q47.86 6.01 55.618-6.966c7.572-12.664-41.554-36.475-45.193-38.174l-.034-.016.011.005c2.86 1.157 37.552 13.24 48.945 27.974q14.96 3.459 15.9-12.069c1.01-16.72-71.413-36.675-89.51-40.7-18.098-4.023-32.45-1.021-42.653-19.062q-9.96-17.61-15.06-79.84m-173.506-2.765q-25.49 11.334-46.961 5.024 3.266 25.73 4.457 37.938c1.302 13.34 1.766 25.236 1.766 27.32s-2.504 4.477-6.847 5.41-54.628 0-100.842 17.717q-44.289 16.98-9.372 29.256c9.718-15.37 41.668-23.073 42.953-23.073 1.516 0-39.039 14.327-39.039 29.845q0 14.683 38.233 10.568c4.044-13.81 27.85-22.354 29.316-22.354 1.601 0-24.837 15.891-22.968 26.346q1.87 10.455 32.402 3.857 82.51-25.948 91.375-34.857c8.866-8.91-14.473-38.409-14.473-64.38zM582.37 876.57c1.589.939 8.054 11.185 13.313 14.725l.294.2.25.175c1.988 1.412-.723.115-3.983-1.767l-.378-.22-.382-.223-.384-.228q-.288-.172-.577-.347l-.382-.234c-2.1-1.291-4.066-2.636-4.841-3.494-2.349-2.598-4.518-9.526-2.93-8.587m-180.949-20.19c3.888 1.286 9.48 7.315 9.48 8.077s-5.595-2.943-9.48-4.228c-3.884-1.285-9.48-1.091-9.48-2.044 0-.952 5.593-3.091 9.48-1.805m247.034-179.583.171-.142q-59.496 50.033-156.057 55.557-90.897 5.2-162.418-38.512c6.451 8.602 9.368 13.458 12.423 17.808l.37.524c1.92 2.695 3.95 5.244 6.988 8.437q8.33 8.753 26.756 20.784-5.823.103-11.526-1.752-1.41 23.725 16.455 34.948 18.108 11.375 64.591-2.229-14.776-2.349-25.065-6.366c-31.44-12.275-50.117-44.887-48.982-44.887.148 0 .746.557 1.737 1.544l.486.486c7.267 7.298 30.984 32.141 55.23 38.996q26.33 7.444 90.373 4.435c-.545-5.859.003-9.881 1.155-7.82.589 1.053 1.042 3.97 2.14 7.66q3.755-.19 7.64-.414l-4.537 8.153c6.052 11.408 20.438 23.337 58.5 14.296q37.355-8.874 42.049-45.66 14.536-16.532 18.178-27.915 3.372-10.537 2.55-37.267zM284.434 366.337l-.424.24q16.572 20.197 14.345 65.561c-2.434 49.564-28.216 63.201-31.132 63.201-1.442 0 4.66-5.546 11.432-16.046a410 410 0 0 1-35.59-11.43q1.097 20.673 14.589 27.476 11.312 5.706 46.431 8.102 16.567-42.913 17.783-65.045 1.198-21.815-10.296-63.812a2246 2246 0 0 0-27.138-8.247m525.384-74.449q-12.29 11.565-18.966 19.45c-6.675 7.885-10.546 17.371-15.332 21.066-1.101.85-2.486 1.688-4.303 2.607l-.484.242c-6.177 3.042-17.097 7.012-37.945 15.03q-26.043 10.015-61.72 22.467-22.698 18.302-14.961 67.422c2.841 18.041 7.287 30.53 11.883 39.198q46.905-19.68 70.492-31.971 23.155-12.066 52.259-31.825a32 32 0 0 1-1.816-1.959C779.441 402.5 778.444 371 781.513 371s-1.353 28.71 15.165 39.707 16.046 6.087 36.583 10.998c20.538 4.911 59.886 22.984 67.228 2.067q7.341-20.916-44.376-38.446 25.2 4.26 37.034 12.013 9.701 6.354 16.207 20.051 31.564 1.276 31.564-18.512c0-20.176-63.26-38.736-61.463-40.592 1.234-1.275 33.409 4.684 53.445 17.367q1.964-17.27-10.939-25.93c-14.612-9.806-39.725-15.484-53.049-22.629q-10.872-5.83-19.67-11.189a216 216 0 0 1-3.404 6.259q5.351 16.576 4.763 24.45c-.682 9.117-9.404 21.145-10.394 20.826-.641-.206 1.6-5.873 3.35-12.235l.188-.696c.87-3.262 1.581-6.658 1.688-9.56q.27-7.383-2.375-19.498h-8.25q44.377-64.862 0-82.334-17.017-6.7-24.99 48.771m14.653 65.948c11.397 7.989 8.698 20.424 8.035 22.311l-.04.104q-.017.045-.032.076c-.485 1.024-3.83-12.754-10.073-18.038-6.243-5.283-22.483-8.294-21.953-9.413s12.191-3.361 24.063 4.96m-682.025-8.976c.824.933-12.07 5.983-18.386 12.528-3.121 3.234-5.726 7.993-7.669 11.86l-.273.546c-1.834 3.686-3.032 6.412-3.459 5.93-.883-1.002 1.441-15.382 8.004-22.182s20.959-9.615 21.783-8.682"/><path fill="#fee019" d="M413 59.26q-55.08 21.457-88 48.277T273.071 187q-8.04 28.889-6.061 51 1.98 22.112 15.654 56.164Q305.328 328.991 325 346.79t56.071 36.09l20.247 9.65q6.224 16.625 15.918 23.845 9.693 7.221 32.725 12.387 25.84 1.586 48.81-7.32 22.967-8.908 37.229-25.42 31.063-9.237 51.826-18.974t40.65-24.391q36.117-34.856 47.526-62.995 11.409-28.14 7.344-72.337Q672.404 157.31 649.691 131q-22.715-26.31-71.72-53.145L521.872 56.31q-2.02-19.545-6.731-29.934T498.77 5.372Q484.865 24.03 474.5 35.004t-14.95 11.89z"/><path fill="#fff5b1" d="M498.77 5.37q5.106 16.728-7.443 32.727c-12.55 15.998-21.216 15.154-40.533 24.338C431.478 71.619 374.373 80.43 329 121.686S284.91 215 283.863 238q-1.05 23 34.02 103.01-24.532-20.835-35.219-46.846-10.686-26.01-15.654-76.977 11.016-49.862 29.162-79.67 18.147-29.805 47.364-46.033 24.171-15.298 41.964-23.288t44.954-15.744q22.333-2.648 39.32-14.355 16.987-11.706 28.996-32.728"/><path fill="#fec110" d="M627.268 110.173q24.99 27.718 34.816 45.129 9.824 17.41 19.256 50.698 4.376 52.039-5.338 80.098-9.713 28.06-45.11 65.64a235.4 235.4 0 0 1-43.066 25.31q-21.717 9.828-51.726 18.137l.245.306q-13.98 15.303-26.31 20.884c-2.86 1.296-.881-6.405-9.788-9.62-2.542-.918-15.657-2.335-28.718-4.125l-2.097-.29c-9.536-1.34-18.737-2.876-23.432-4.56q-13.226-4.74-25.793-23.34 27.572 17.938 44.667 18.605 17.094.667 42.126-10.774 12.062-.795 17.517 2.195 4.458 2.445 9.53 8.257 2.406-5.981 8.772-10.452c47.23-33.177 94.209-58.154 108.111-107.913q20.298-72.651-23.662-164.185M612.19 279.97c11.81 11.225 7.862 23.164 6.825 24.845-.652 1.058-2.57-4.983-5.231-10.642l-.288-.605c-1.503-3.112-3.227-6.025-5.086-7.47q-5.335-4.147-21.355-6.128 13.326-11.224 25.135 0m-259.595-17.75c-2.456 0-15.801 4.574-23.595 15.206s-4.579 20.232-2.3 20.232 3.664-11.56 10.749-20.232c7.084-8.673 17.602-15.207 15.146-15.207"/><path fill="#f99016" d="M469.98 226.423q-13.395 1.878-25.741 8.568-12.348 6.69-38.064 26.009l-28.035 16.426q-16.298-5.52-25.68-3.04t-13.323 13.349q-1.494 11.905 6.155 20.614 7.648 8.709 22.895 12.461 8.742 2.91 16.813 11.14t16.357 22.69q16.917 17.584 29.55 26.287t24.572 10.997q21.09 4.38 47.521-8.35t48.152-38.77q13.632-13.47 22.18-18.983 8.548-5.514 25.294-11.638 10.184-19.044 7.517-25.123-2.665-6.08-22.063-8.044-13.319.956-21.08-1.776-7.761-2.73-22.702-15.464-26.64-21.52-40.314-28.785-13.675-7.264-30.005-8.568"/><path fill="#fec110" d="M519.644 292.986c-2.13-1.372-19.397-15.56-58.955-15.56-15.761 0-55.16 14.504-53.52 15.56s41.348-10.792 60.919-10.792 53.687 12.165 51.556 10.792M472 247c9.941 0 18-2.686 18-6s-8.059-6-18-6-18 2.686-18 6 8.059 6 18 6"/><path fill="#e95b2f" d="M420.207 341.01q14.983-15.309 53.364-15.309t46.169 18.873q-12.74 23.78-51.652 23.78t-47.88-27.344"/><path fill="#fff" d="M409.123 250.476q22.875-18.013 29.58-33.29 6.707-15.275 3.995-43.186-6.046-25.64-21.3-38.54-15.252-12.9-40.327-13.583Q357 126 342.394 142.621q-14.607 16.62-15.693 49.032 4.752 38.762 28.083 55.31 23.331 16.547 54.339 3.513m178 6q22.875-18.013 29.58-33.29 6.707-15.275 3.995-43.186-6.046-25.64-21.3-38.54-15.252-12.9-40.327-13.583Q535 132 520.394 148.621q-14.607 16.62-15.693 49.032 4.752 38.762 28.083 55.31 23.331 16.547 54.339 3.513"/><path fill="#000" d="M498.485.601c3.884 0 26.032 27.115 26.032 48.458 0 1.494-.118 2.928-.339 4.303l.466.148Q688.28 106.23 688.278 235.19c0 133.164-149.753 160.832-155.236 160.832-5.482 0 2.398-.725 3.586-1.092Q680.802 350.315 680.8 235.19q0-125.265-157.95-175.746l-.375-.119-.182.428c-6.017 13.718-22.27 19.711-23.809 19.711-1.893 0 19.295-14.723 19.295-30.405s-15.589-36.444-19.295-36.444c-2.038 0-6.383 6.177-11.35 12.901l-.544.735q-.41.553-.824 1.108l-.555.74c-3.521 4.678-7.237 9.275-10.591 11.934-8.827 6.996-14.082 10.994-26.98 13.804-12.9 2.81-166.303 36.539-176.036 162.123-9.732 125.585 145.987 180.937 144.24 181.809-1.745.871-163.968-45.313-151.719-181.809C276.376 79.464 431.824 49.06 447.64 46.313s17.806-8.87 26.98-17.118c2.937-2.64 6.04-6.518 9.03-10.571l.558-.762.556-.765.277-.383.55-.765q.26-.36.514-.717l.51-.715C491.77 7.27 496.26.601 498.484.601M376.689 277.426c1.027.81-28.715-9.907-34.228 10.702s21.075 26.37 34.228 33.433c13.153 7.064 27.018 36.839 49.06 52.879s29.824 17.127 48.872 15.335c39.589-3.723 73.877-51.815 93.155-64.074s29.197-5.308 35.946-28.277c5.349-18.206-27.133-13.689-27.133-15.677s34.97-9.844 31.591 15.677c-3.378 25.52-20.553 22.114-38.334 34.284-4.502 3.081-10.06 8.654-16.66 15.26l-2.134 2.135c-19.394 19.363-47.185 45.83-82.964 45.83-49.694 0-83.667-61.587-95.868-69.232-12.202-7.645-39.401-10.15-34.78-37.573 4.62-27.423 38.223-11.512 39.25-10.702m-27.377 8.672c5.61 0 8.097 17.765 36.46 19.709 28.362 1.943 52.38-10.231 82.316-10.231 29.935 0 53.736 14.43 82.337 14.43 28.6 0 38.666-16.855 40.907-16.855s-.273 9.93-13.647 16.854q-13.374 6.924-36.383 8.982-20.401 49.367-70.174 52.051-49.77 2.685-72.286-57.911-19.975 1.041-35.223-7.32c-15.25-8.362-19.917-19.709-14.307-19.709m121.024 42.527c-29.734 0-44.587 12.266-44.587 19.094s18.669 20.635 45.38 20.635c26.71 0 43.252-14.89 43.08-23.521s-14.138-16.208-43.873-16.208M563.5 126c33.413 0 60.5 31.34 60.5 70s-27.087 70-60.5 70c-10.058 0-19.542-2.84-27.888-7.864 11.342 9.99 18.983 18.406 18.983 19.016 0 1.554-52.933-47.689-83.467-47.689-22.68 0-57.364 32.254-67.485 36.397-17.916 7.334-26.044 12.882-25.503 11.292.335-.985 7.782-5.653 15.462-10.64l1.115-.726 1.114-.728.74-.485c3.69-2.426 7.226-4.825 9.83-6.817 26.54-20.303 47.641-34.23 64.727-34.23 15.798 0 34.93 11.237 50.889 23.426C510.308 234.188 503 216.082 503 196c0-38.66 27.087-70 60.5-70m-.5 5c-30.928 0-56 29.101-56 65s25.072 65 56 65 56-29.101 56-65-25.072-65-56-65m-177.5-12c33.413 0 60.5 31.34 60.5 70s-27.087 70-60.5 70-60.5-31.34-60.5-70 27.087-70 60.5-70m-.5 5c-30.928 0-56 29.101-56 65s25.072 65 56 65 56-29.101 56-65-25.072-65-56-65"/>
</g>

<g class="index-tail" fill="none" fill-rule="evenodd">
<path fill="#fee019" d="M708.744 614.798q-13.954 2.697-21.491 8.032-7.538 5.336-22.116 22.493l-60.214-2.859v119.247q44.586 1.628 70.99-10.91t36.868-32.206l-4.037-4.14q15.627-19.395 20.45-32.597 4.824-13.201-1.575-19.063h-14.838q9.635-23.33 8.78-33.496t-12.817-14.5"/>
<path fill="#fec110" d="M665.167 644.942q16.603 8.841 17.92 22.733c1.315 13.893-15.634 46.094-13.345 50.413 2.29 4.318 16.282-3.492 31.189-15.706q14.907-12.213 30.337-34.707-1.104 12.86-6.253 23.55-5.148 10.693-16.271 23.23l3.64 3.633q-18.728 24.05-33.75 31.636-15.023 7.586-52.635 11.987h-21.076V644.942z"/>
<path fill="#000" d="M604.923 756.726q42.018-.129 63.438-7.894c21.42-7.766 36.426-26.027 37.407-28.06s-19.805 3.985-18.35 2.092 33.497-19.69 38.872-45.053-26.235 1.617-27.033-1.202 28.262-42.434 14.775-54.465c-13.487-12.03-38.415 21.49-47.57 26.514q-9.156 5.025-61.54 0v-7.14q56.428 1.298 58.984 0c2.556-1.299 33.145-40.542 51.33-28.73q18.185 11.813 4.24 44.738 17.07-1.096 14.762 16.664c-1.524 11.728-8.068 23.2-19.002 38.84-.059.085 11.77 2.263-15.98 25.846-3.403 2.892-20.601 18.91-41.95 23.654q-21.347 4.746-52.383 3.954z"/><path fill="#000" d="M564 174c15.464 0 28 14.327 28 32s-12.536 32-28 32-28-14.327-28-32 12.536-32 28-32m-.5 13c-4.694 0-8.5 4.253-8.5 9.5s3.806 9.5 8.5 9.5 8.5-4.253 8.5-9.5-3.806-9.5-8.5-9.5"/>
</g>

<g class="faqs-pupils" fill="none" fill-rule="evenodd">
<path fill="#000" d="M385 174c15.464 0 28 14.327 28 32s-12.536 32-28 32-28-14.327-28-32 12.536-32 28-32m5.5 13c-4.694 0-8.5 4.253-8.5 9.5s3.806 9.5 8.5 9.5 8.5-4.253 8.5-9.5-3.806-9.5-8.5-9.5"/>
</g>



</svg>