<svg xmlns="http://www.w3.org/2000/svg" viewBox="0 0 949 1024">

<g fill="none" fill-rule="evenodd">

<path fill="#fff" d="M563.5 254c29.547 0 53.5-26.415 53.5-59s-23.953-59-53.5-59-53.5 26.415-53.5 59 23.953 59 53.5 59m-178-6c29.547 0 53.5-26.415 53.5-59s-23.953-59-53.5-59-53.5 26.415-53.5 59 23.953 59 53.5 59"/>

<path fill="#000" d="M377.194 246.886c-14.48-3.089-27.013-12.282-35.293-25.887-7.722-12.686-10.552-27.967-7.97-43.027 2.583-15.061 10.269-28.099 21.642-36.711 10.609-8.034 23.387-10.98 35.982-8.292 12.594 2.687 23.496 10.683 30.699 22.517 6.72 11.04 9.183 24.34 6.936 37.447-2.248 13.108-8.937 24.455-18.835 31.95-9.227 6.987-20.983 10.028-32.252 8.342-11.82-1.768-21.746-8.352-27.946-18.54-2.968-4.875-5.025-10.325-6.113-16.197a52.1 52.1 0 0 1-.28-17.331c1.834-12.135 7.719-22.654 16.571-29.62 8.76-6.89 19.25-9.536 29.54-7.446 10.158 2.062 19.241 8.597 24.922 17.93 4.996 8.21 6.523 19.242 4.189 30.27-2.276 10.754-7.874 20.173-15.358 25.84a27.56 27.56 0 0 1-12.052 5.224c-4.179.723-8.486.537-12.8-.553-8.718-2.203-16.435-7.931-21.173-15.715-4.284-7.039-5.666-16.225-3.792-25.204 1.97-9.444 7.184-17.45 14.304-21.964 6.595-4.182 14.08-5.946 21.073-4.969 7.588 1.061 14.003 5.354 18.064 12.09 4.19 6.948 5.503 15.368 3.7 23.709-1.684 7.788-5.99 14.784-11.813 19.194-4.169 3.157-8.84 4.674-13.45 4.674-7.642 0-15.113-4.17-19.848-11.948-3.41-5.602-4.51-12.196-3.1-18.568 1.352-6.11 4.9-11.597 9.991-15.452 5.1-3.862 11.174-5.268 16.667-3.858 5.007 1.284 9.226 4.824 11.879 9.965 2.467 4.783 3.099 9.956 1.826 14.96-1.308 5.146-4.55 9.602-8.895 12.225l-.057.033c-4.253 2.42-8.423 3.074-12.06 1.89-3.397-1.104-6.186-3.71-8.066-7.534-3.226-6.561-1.364-15.017 4.331-19.668 3.471-2.834 7.983-2.837 11.495-.01 3.57 2.876 4.973 7.863 3.574 12.707-.454 1.573-1.966 2.437-3.375 1.93s-2.185-2.192-1.73-3.765c1.027-3.557-.971-5.507-1.608-6.02-1.267-1.02-3.295-1.56-5.187-.014-3.53 2.883-4.733 8.026-2.797 11.963.823 1.676 2.336 3.845 4.865 4.668 2.326.756 5.047.266 8.09-1.459 3.066-1.861 5.347-4.986 6.26-8.577.868-3.416.413-6.993-1.315-10.344-1.928-3.737-4.844-6.199-8.432-7.12-4.044-1.037-8.583.048-12.452 2.978-3.994 3.024-6.763 7.263-7.797 11.936-1.056 4.77-.25 9.534 2.33 13.773 2.868 4.712 7.092 7.892 11.895 8.955 4.808 1.065 9.763-.097 13.953-3.27 4.734-3.584 8.237-9.287 9.612-15.647 1.446-6.691.403-13.428-2.937-18.968-4.08-6.765-10.017-8.895-14.28-9.491-5.854-.819-12.16.685-17.755 4.234-5.823 3.692-10.099 10.296-11.731 18.119-1.536 7.358-.44 14.825 3.006 20.486 3.982 6.543 10.514 11.37 17.92 13.241 7.46 1.885 14.987.505 20.654-3.786 6.386-4.836 11.18-12.95 13.15-22.264 1.99-9.402.748-18.709-3.406-25.535-4.878-8.014-12.694-13.629-21.444-15.405-8.863-1.799-17.915.491-25.488 6.45-7.675 6.038-12.78 15.174-14.373 25.724a45.5 45.5 0 0 0 .242 15.126c.946 5.098 2.728 9.825 5.299 14.048 5.331 8.76 13.933 14.432 24.22 15.97 9.98 1.492 20.377-1.19 28.527-7.362 8.713-6.598 14.6-16.586 16.58-28.124 1.978-11.537-.19-23.244-6.106-32.963-6.398-10.51-16.082-17.614-27.269-20-11.187-2.387-22.538.228-31.961 7.365-10.188 7.715-17.073 19.393-19.386 32.884s.222 27.18 7.138 38.544c7.476 12.282 18.792 20.582 31.864 23.37 13.071 2.79 26.335-.267 37.346-8.605 1.225-.928 2.893-.572 3.725.794s.513 3.228-.713 4.156C409.308 244.36 398.62 248 387.677 248c-3.482 0-6.988-.368-10.483-1.114"/>

<path fill="#000" d="M568.806 142.114c14.48 3.089 27.013 12.282 35.293 25.887 7.722 12.686 10.552 27.967 7.97 43.027-2.583 15.061-10.269 28.099-21.642 36.711-10.609 8.034-23.387 10.98-35.982 8.292-12.594-2.687-23.496-10.683-30.699-22.517-6.72-11.04-9.183-24.34-6.936-37.447 2.248-13.108 8.937-24.455 18.835-31.95 9.227-6.987 20.983-10.028 32.252-8.342 11.82 1.768 21.746 8.352 27.946 18.54 2.968 4.875 5.025 10.325 6.113 16.197a52.1 52.1 0 0 1 .28 17.331c-1.834 12.135-7.719 22.654-16.571 29.62-8.76 6.89-19.25 9.536-29.54 7.446-10.158-2.062-19.241-8.597-24.922-17.93-4.996-8.21-6.523-19.242-4.189-30.27 2.276-10.754 7.874-20.173 15.358-25.84a27.56 27.56 0 0 1 12.052-5.224c4.179-.723 8.486-.537 12.8.553 8.718 2.203 16.435 7.931 21.173 15.715 4.284 7.039 5.666 16.225 3.792 25.204-1.97 9.444-7.184 17.45-14.304 21.964-6.595 4.182-14.08 5.946-21.073 4.969-7.588-1.061-14.003-5.354-18.063-12.09-4.19-6.948-5.504-15.368-3.701-23.709 1.684-7.788 5.99-14.784 11.813-19.194 4.169-3.157 8.84-4.674 13.45-4.674 7.642 0 15.113 4.17 19.848 11.948 3.41 5.602 4.51 12.196 3.1 18.568-1.352 6.11-4.9 11.597-9.991 15.452-5.1 3.862-11.174 5.268-16.667 3.858-5.007-1.284-9.226-4.824-11.879-9.965-2.467-4.783-3.099-9.956-1.826-14.96 1.308-5.146 4.55-9.602 8.895-12.225l.057-.033c4.253-2.42 8.423-3.074 12.06-1.89 3.397 1.104 6.186 3.71 8.066 7.534 3.226 6.561 1.364 15.017-4.331 19.668-3.471 2.834-7.983 2.837-11.495.01-3.57-2.876-4.973-7.863-3.574-12.707.454-1.573 1.966-2.437 3.375-1.93s2.185 2.192 1.73 3.765c-1.027 3.557.971 5.507 1.608 6.02 1.267 1.02 3.295 1.56 5.187.014 3.53-2.883 4.733-8.026 2.797-11.963-.823-1.676-2.336-3.845-4.865-4.668-2.326-.756-5.047-.266-8.09 1.459-3.066 1.861-5.347 4.986-6.26 8.577-.868 3.416-.413 6.993 1.315 10.344 1.928 3.737 4.844 6.199 8.432 7.12 4.044 1.037 8.583-.048 12.452-2.978 3.994-3.024 6.763-7.263 7.797-11.936 1.056-4.77.25-9.534-2.33-13.773-2.868-4.712-7.092-7.892-11.895-8.955-4.808-1.065-9.763.097-13.953 3.27-4.734 3.584-8.237 9.287-9.612 15.647-1.446 6.691-.403 13.428 2.937 18.968 4.08 6.765 10.017 8.895 14.28 9.491 5.854.819 12.16-.685 17.755-4.234 5.823-3.692 10.099-10.296 11.731-18.119 1.536-7.358.44-14.825-3.006-20.486-3.982-6.543-10.514-11.37-17.92-13.241-7.46-1.885-14.987-.505-20.654 3.786-6.386 4.836-11.18 12.95-13.15 22.264-1.99 9.402-.748 18.709 3.406 25.535 4.878 8.014 12.694 13.629 21.444 15.405 8.863 1.799 17.915-.491 25.488-6.45 7.675-6.038 12.78-15.174 14.373-25.724a45.5 45.5 0 0 0-.242-15.126c-.946-5.098-2.728-9.825-5.299-14.048-5.331-8.76-13.933-14.432-24.22-15.97-9.98-1.492-20.377 1.19-28.527 7.362-8.713 6.598-14.6 16.586-16.58 28.124-1.978 11.537.19 23.244 6.106 32.963 6.398 10.51 16.082 17.614 27.269 20 11.187 2.387 22.538-.228 31.961-7.365 10.188-7.715 17.073-19.393 19.386-32.884s-.222-27.18-7.138-38.544c-7.476-12.282-18.792-20.582-31.864-23.37-13.071-2.79-26.335.267-37.346 8.605-1.225.928-2.893.572-3.725-.794s-.513-3.228.713-4.156C536.692 144.64 547.38 141 558.323 141c3.482 0 6.988.368 10.483 1.114"/>

</g>

</svg>