<svg xmlns="http://www.w3.org/2000/svg" viewBox="0 0 2601 1201"><path fill="#aaf" d="M-1244.842 1130.396c-.856 1.527-1.101 3.443-.685 5.324a8.66 8.66 0 0 0 2.015 3.935c-1.264-.69-2.643-.959-3.956-.76a5.5 5.5 0 0 0-3.125 1.605c.588-1.407.71-3.037.36-4.65a8.63 8.63 0 0 0-2.26-4.177c1.289.742 2.724 1.036 4.078.837 1.412-.216 2.668-.958 3.573-2.114m2039.184 0c.905 1.156 2.161 1.898 3.572 2.114 1.354.199 2.79-.095 4.08-.837a8.63 8.63 0 0 0-2.26 4.176c-.351 1.614-.229 3.244.358 4.651a5.5 5.5 0 0 0-3.124-1.605c-1.314-.199-2.692.07-3.956.76a8.66 8.66 0 0 0 2.014-3.935c.417-1.881.172-3.797-.684-5.324m813.606 2.245c1.219.878 2.78 1.374 4.441 1.398 1.637.024 3.25-.4 4.663-1.227-1.062 1.081-1.716 2.397-1.867 3.755a5.37 5.37 0 0 0 1.14 3.933c-1.273-1.179-3.072-1.852-5.02-1.877a9.04 9.04 0 0 0-4.357 1.056c1.003-1.065 1.618-2.34 1.763-3.657a5.3 5.3 0 0 0-.763-3.38m-633.064-20.208a9.2 9.2 0 0 0 4.723 1.393c1.708.025 3.327-.431 4.598-1.293a5.47 5.47 0 0 0-.898 3.432c.107 1.343.694 2.661 1.681 3.771a9.26 9.26 0 0 0-4.43-1.2c-1.992-.035-3.86.595-5.203 1.756.952-1.127 1.415-2.528 1.308-3.97-.106-1.393-.729-2.753-1.779-3.889m-2400.268 0c-1.05 1.136-1.673 2.496-1.78 3.888-.106 1.443.357 2.844 1.309 3.971-1.344-1.16-3.211-1.79-5.204-1.757a9.26 9.26 0 0 0-4.43 1.201c.988-1.11 1.575-2.428 1.682-3.771a5.47 5.47 0 0 0-.898-3.432c1.271.862 2.89 1.318 4.597 1.293a9.2 9.2 0 0 0 4.724-1.393M2184 1098.962c1.143.93 2.509 1.48 3.898 1.559a5.9 5.9 0 0 0 3.96-1.193c-1.147 1.209-1.763 2.887-1.718 4.67a7.63 7.63 0 0 0 1.242 3.945c-1.12-.875-2.443-1.392-3.787-1.472a5.95 5.95 0 0 0-3.421.835c.855-1.153 1.297-2.6 1.26-4.12a7.65 7.65 0 0 0-1.434-4.224m-2721.076-39.294c.534 1.41 1.575 2.643 2.97 3.512a8.65 8.65 0 0 0 4.612 1.3c-1.497.405-2.78 1.24-3.666 2.363-.912 1.174-1.35 2.6-1.222 4.052-.421-1.688-1.566-3.2-3.193-4.22a8.6 8.6 0 0 0-4.268-1.292c1.446-.43 2.668-1.24 3.52-2.33a5.8 5.8 0 0 0 1.247-3.385m-215.173-3.368c-.51 1.396-.537 2.84-.08 4.14.485 1.346 1.462 2.458 2.792 3.157-1.7-.593-3.663-.52-5.477.194a8.63 8.63 0 0 0-3.575 2.613c.458-1.347.466-2.743.027-4-.405-1.137-1.172-2.102-2.202-2.8 1.524.348 3.188.202 4.738-.407a8.57 8.57 0 0 0 3.777-2.897m1173.266-12.349a8.7 8.7 0 0 0 2.097 4.293c1.094 1.194 2.468 1.973 3.907 2.215-1.16.285-2.196.952-2.993 1.904-.88 1.065-1.432 2.44-1.563 3.937-.337-1.48-1.045-2.856-2.04-3.937-1.275-1.402-2.936-2.224-4.63-2.302 1.415-.173 2.697-.883 3.643-2.025.913-1.09 1.464-2.527 1.58-4.085m-1292.534 0c.115 1.558.666 2.994 1.579 4.085.945 1.142 2.228 1.852 3.643 2.025-1.694.078-3.355.9-4.63 2.302-.995 1.081-1.703 2.458-2.04 3.937-.131-1.497-.683-2.872-1.563-3.937-.797-.952-1.834-1.619-2.993-1.904 1.439-.242 2.812-1.021 3.906-2.215a8.7 8.7 0 0 0 2.098-4.293m983.205-39.293c1.714 2.224 4.097 3.944 6.815 4.934 2.475.89 5.117 1.142 7.642.722-2.558 1.452-4.457 3.676-5.418 6.336-.937 2.618-.912 5.497.075 8.216-1.722-2.333-4.173-4.146-6.982-5.161-2.935-1.066-6.096-1.217-9.006-.428 3.203-1.377 5.62-3.886 6.74-6.999.87-2.425.92-5.077.134-7.62M972.8 993.432l.142.301a8.1 8.1 0 0 0 2.557 3.002c1.511 1.07 3.305 1.537 4.999 1.308a5.67 5.67 0 0 0-3.272 2.535c-.714 1.177-1.013 2.608-.863 4.08a8.1 8.1 0 0 0-2.824-3.614c-1.295-.916-2.79-1.398-4.268-1.366a5.73 5.73 0 0 0 2.649-2.306c.69-1.144.996-2.518.88-3.94m-2396.101 0c-.115 1.422.192 2.796.881 3.94a5.73 5.73 0 0 0 2.649 2.307c-1.478-.033-2.973.45-4.268 1.366a8.1 8.1 0 0 0-2.824 3.614c.15-1.472-.149-2.903-.863-4.08a5.67 5.67 0 0 0-3.272-2.535c1.694.228 3.488-.238 4.999-1.309a8.1 8.1 0 0 0 2.557-3.001zm3554.82-1.123a5.8 5.8 0 0 0 1.248 3.385c.852 1.089 2.074 1.9 3.52 2.33a8.6 8.6 0 0 0-4.269 1.29c-1.627 1.022-2.771 2.533-3.193 4.221.13-1.451-.31-2.878-1.222-4.051-.886-1.123-2.168-1.959-3.666-2.364a8.65 8.65 0 0 0 4.613-1.3c1.394-.87 2.436-2.102 2.97-3.511m199.456 0a8.57 8.57 0 0 0 3.777 2.897c1.55.609 3.214.755 4.738.406-1.03.698-1.796 1.663-2.202 2.8-.44 1.257-.43 2.653.027 4a8.63 8.63 0 0 0-3.575-2.612c-1.814-.715-3.778-.788-5.477-.195 1.33-.698 2.307-1.81 2.792-3.158.457-1.298.43-2.742-.08-4.138m-3113.736-44.907c2.12 1.836 4.792 3.051 7.647 3.47 2.596.378 5.235.101 7.614-.82-2.204 1.935-3.623 4.492-4.04 7.29-.402 2.742.2 5.558 1.703 8.023-2.146-1.937-4.901-3.219-7.857-3.663-3.08-.453-6.202.034-8.891 1.383 2.855-1.978 4.725-4.92 5.209-8.197.368-2.54-.108-5.156-1.385-7.486m1126.02 0-.183.351c-1.137 2.24-1.549 4.721-1.2 7.134.484 3.277 2.354 6.22 5.21 8.197-2.69-1.349-5.811-1.835-8.892-1.382-2.955.444-5.71 1.726-7.856 3.662 1.503-2.464 2.104-5.28 1.703-8.022-.417-2.799-1.836-5.355-4.04-7.291 2.379.922 5.017 1.198 7.613.82 2.856-.418 5.527-1.634 7.648-3.47zm574.882-30.311c-.009 1.532.403 2.986 1.177 4.158.7 1.057 1.673 1.84 2.8 2.255-1.457.088-2.907.73-4.11 1.823-1.177 1.066-2.067 2.51-2.512 4.113.034-1.594-.37-3.1-1.17-4.316-.831-1.26-2.042-2.114-3.434-2.448 1.689.114 3.426-.538 4.835-1.815a8.8 8.8 0 0 0 2.414-3.77m-1489.254-3.369c-.05 1.596.354 3.112 1.145 4.328.823 1.261 2.034 2.133 3.426 2.477-1.697-.123-3.435.52-4.851 1.781-1.104.987-1.952 2.3-2.438 3.764.017-1.543-.38-2.997-1.145-4.17-.7-1.066-1.664-1.86-2.793-2.283 1.458-.079 2.908-.714 4.119-1.789 1.194-1.066 2.084-2.503 2.537-4.108m1648.697-10.103c-1.387 2.213-2.01 4.74-1.797 7.25.287 3.244 1.945 6.24 4.628 8.347-2.552-1.482-5.596-2.14-8.64-1.877-2.922.255-5.704 1.35-7.928 3.12 1.626-2.322 2.372-5.046 2.142-7.762-.237-2.766-1.485-5.358-3.536-7.383a14.9 14.9 0 0 0 7.426 1.251c2.823-.246 5.514-1.275 7.705-2.946m-2605.669 0c2.192 1.67 4.883 2.7 7.706 2.946a14.9 14.9 0 0 0 7.426-1.251c-2.051 2.025-3.299 4.617-3.536 7.383-.23 2.716.516 5.44 2.141 7.761-2.224-1.769-5.005-2.864-7.927-3.119-3.044-.264-6.089.395-8.64 1.877 2.683-2.108 4.34-5.103 4.628-8.346.213-2.51-.41-5.038-1.798-7.251m999.37-19.086c2.55 3.68 6.077 6.193 10.033 7.136 3.89.918 7.972.275 11.642-1.827-2.266 2.413-4.025 5.42-5.142 8.748q-.022.345-.023.693c.008 2.713 1 5.344 2.82 7.515a14.5 14.5 0 0 0-4.08-1.851c-.293 3.792.228 7.591 1.534 11.02-2.55-4.708-6.574-7.967-11.22-9.074-.747-.178-1.507-.299-2.272-.362q-.359.218-.703.455.249-.23.483-.47c-2.816-.19-5.674.411-8.341 1.767 2.828-3.148 4.814-7.222 5.698-11.682.8-4.04.648-8.216-.43-12.068m32.821 4.49c.764 1.225 1.973 2.195 3.418 2.75a8 8 0 0 0 4.521.342c-1.307.677-2.33 1.704-2.922 2.935a5.68 5.68 0 0 0-.34 4.078c-.716-1.517-2.071-2.732-3.776-3.385a7.95 7.95 0 0 0-4.189-.399c1.243-.685 2.224-1.688 2.801-2.88a5.67 5.67 0 0 0 .487-3.44m993.236-2.244a8.1 8.1 0 0 0 2.86 3.605c1.298.91 2.803 1.377 4.284 1.336a5.75 5.75 0 0 0-2.645 2.327c-.682 1.155-.973 2.532-.84 3.958a8.1 8.1 0 0 0-2.728-3.286c-1.53-1.065-3.326-1.524-5.014-1.278a5.73 5.73 0 0 0 3.252-2.565c.706-1.189.997-2.622.831-4.097m-1445.184 0c-.166 1.475.125 2.908.831 4.097a5.73 5.73 0 0 0 3.252 2.565c-1.688-.246-3.484.213-5.014 1.278a8.1 8.1 0 0 0-2.728 3.286c.133-1.426-.158-2.803-.84-3.958a5.75 5.75 0 0 0-2.645-2.327c1.48.041 2.986-.427 4.283-1.336a8.1 8.1 0 0 0 2.86-3.605m551.885-1.123c1.199.886 2.752 1.393 4.4 1.425a8.96 8.96 0 0 0 4.642-1.175c-1.06 1.062-1.725 2.359-1.889 3.703-.164 1.401.225 2.77 1.096 3.906-1.252-1.176-3.037-1.853-4.97-1.9a9 9 0 0 0-4.34 1.014c1.009-1.047 1.63-2.303 1.786-3.607a5.3 5.3 0 0 0-.725-3.366m378.314-35.925c2.259 1.797 5.05 2.937 8.014 3.257 2.68.276 5.377-.121 7.79-1.166-2.19 2.082-3.547 4.778-3.856 7.68-.292 2.843.438 5.72 2.079 8.191-2.285-1.91-5.171-3.11-8.23-3.438-3.177-.346-6.372.285-9.078 1.788 2.851-2.16 4.655-5.262 5.016-8.657.275-2.635-.326-5.305-1.735-7.655m-556.923-2.246c.534 1.476 1.473 2.708 2.68 3.507a5.92 5.92 0 0 0 4.222.92c-1.689.555-3.145 1.822-4.067 3.531a8.7 8.7 0 0 0-1 4.392c-.542-1.415-1.456-2.586-2.628-3.368a5.97 5.97 0 0 0-3.532-.989c1.387-.642 2.567-1.788 3.351-3.245a8.7 8.7 0 0 0 .974-4.748m2740.122-1.122c.454 1.604 1.344 3.041 2.537 4.108 1.211 1.075 2.661 1.71 4.119 1.789-1.128.423-2.092 1.216-2.792 2.282-.766 1.173-1.162 2.628-1.145 4.17-.486-1.463-1.334-2.776-2.438-3.764-1.417-1.26-3.155-1.904-4.852-1.78 1.392-.344 2.603-1.217 3.427-2.477.79-1.217 1.194-2.733 1.144-4.328m-46.484-22.453c-1.58 2.073-2.432 4.531-2.432 7.039.008 3.245 1.414 6.35 3.929 8.678-2.44-1.688-5.435-2.606-8.52-2.606-2.952 0-5.84.844-8.221 2.417 1.82-2.171 2.812-4.802 2.82-7.514-.008-2.762-1.033-5.45-2.92-7.637a15.14 15.14 0 0 0 7.345 1.885c2.862 0 5.658-.787 7.999-2.262m-28.735-2.246a5.67 5.67 0 0 0 .487 3.441c.577 1.191 1.559 2.194 2.801 2.88a7.95 7.95 0 0 0-4.189.398c-1.704.653-3.06 1.868-3.775 3.385a5.68 5.68 0 0 0-.34-4.077c-.593-1.232-1.616-2.26-2.923-2.936a8 8 0 0 0 4.522-.342c1.445-.555 2.654-1.525 3.417-2.749m-99.936-3.368a5.3 5.3 0 0 0-.725 3.365c.155 1.305.777 2.56 1.786 3.608a9 9 0 0 0-4.34-1.015c-1.933.048-3.719.725-4.97 1.9.871-1.135 1.26-2.504 1.096-3.905-.164-1.344-.829-2.64-1.89-3.704a8.96 8.96 0 0 0 4.642 1.176c1.648-.032 3.202-.54 4.4-1.425m-2769.24-6.736c.24 1.53.91 2.905 1.912 3.91a5.64 5.64 0 0 0 3.814 1.685c-1.688.215-3.293 1.177-4.46 2.673a8.65 8.65 0 0 0-1.664 3.738l-.057.34-.062-.309c-.297-1.343-.925-2.541-1.823-3.443-.877-.877-1.97-1.443-3.16-1.624 1.43-.37 2.737-1.263 3.739-2.535.984-1.255 1.596-2.81 1.762-4.435m2234.231-1.122c-.346 1.508-.223 3.034.352 4.353a5.87 5.87 0 0 0 3.011 3.051c-1.695-.455-3.581-.197-5.259.729a8.5 8.5 0 0 0-3.175 3.093c.305-1.465.17-2.93-.386-4.207a5.93 5.93 0 0 0-2.407-2.734c1.5.214 3.089-.094 4.52-.883a8.43 8.43 0 0 0 3.344-3.402M341.338 808.56c.166 1.625.777 3.18 1.762 4.435 1.001 1.272 2.308 2.165 3.74 2.535-1.192.18-2.284.747-3.16 1.624-.968.971-1.622 2.286-1.887 3.756a8.7 8.7 0 0 0-1.72-4.082c-1.167-1.496-2.772-2.458-4.46-2.673a5.64 5.64 0 0 0 3.814-1.684c1.001-1.006 1.671-2.381 1.911-3.91m-1411.935-29.557c-1.434 2.602-1.865 5.525-1.243 8.297.621 2.72 2.229 5.145 4.587 6.922-2.79-1.053-5.918-1.263-8.942-.614-3.145.673-5.988 2.256-8.095 4.48 2.038-2.88 2.764-6.316 2.038-9.568-.578-2.518-1.995-4.792-4.086-6.527 2.73.96 5.754 1.137 8.674.514 2.644-.573 5.098-1.786 7.067-3.504m1690.693 0c1.97 1.718 4.424 2.931 7.068 3.504 2.92.623 5.944.446 8.674-.514-2.091 1.735-3.508 4.01-4.087 6.527-.725 3.252 0 6.688 2.04 9.568-2.109-2.224-4.951-3.807-8.096-4.48-3.024-.649-6.152-.439-8.942.614 2.358-1.777 3.965-4.202 4.587-6.922.622-2.772.19-5.695-1.244-8.297m1548.914 1.123a8.7 8.7 0 0 0 .973 4.747c.784 1.458 1.965 2.603 3.352 3.246a5.97 5.97 0 0 0-3.533.989c-1.172.781-2.085 1.952-2.628 3.367a8.7 8.7 0 0 0-1-4.391c-.921-1.71-2.378-2.976-4.066-3.532a5.92 5.92 0 0 0 4.222-.92c1.206-.798 2.145-2.031 2.68-3.506m-86.268-25.26c-1.077 3.851-1.228 8.028-.429 12.067.884 4.46 2.87 8.535 5.699 11.683-3.46-1.759-7.24-2.248-10.833-1.39-4.647 1.106-8.67 4.365-11.221 9.074 1.667-4.374 2.054-9.349 1.111-14.143-.917-4.606-3.022-8.808-6.001-11.982 3.67 2.102 7.752 2.745 11.641 1.827 3.956-.943 7.483-3.457 10.033-7.136m-3323.453 21.892c-.81 1.327-1.198 2.838-1.117 4.315.089 1.529.68 2.944 1.684 4.007-1.36-1.046-3.126-1.468-4.924-1.178-1.393.22-2.73.861-3.838 1.837.752-1.292 1.109-2.76 1.028-4.183-.073-1.292-.502-2.505-1.247-3.489 1.263.747 2.786 1.01 4.316.765 1.506-.247 2.948-.976 4.098-2.074m2030.922 0c1.15 1.098 2.591 1.827 4.097 2.074 1.531.246 3.054-.018 4.317-.765-.745.984-1.174 2.197-1.247 3.49-.081 1.423.275 2.89 1.028 4.182-1.109-.976-2.446-1.617-3.838-1.837-1.798-.29-3.564.132-4.924 1.178 1.004-1.063 1.595-2.478 1.684-4.007.081-1.477-.307-2.988-1.117-4.315m944.507-20.208c-.571 1.398-.635 2.989-.178 4.547.45 1.524 1.376 2.921 2.637 3.974-1.438-.674-3.002-.893-4.465-.632-1.523.27-2.852 1.053-3.778 2.215.859-1.524 1.04-3.402.505-5.22-.415-1.415-1.24-2.712-2.366-3.739 1.401.615 2.912.817 4.326.564 1.283-.236 2.432-.825 3.319-1.71m-2857.376-19.085c-.243 1.494-.033 2.971.622 4.215a5.8 5.8 0 0 0 3.14 2.779c-1.696-.343-3.526.025-5.122 1.027a8.3 8.3 0 0 0-2.93 3.205c.21-1.443-.009-2.863-.638-4.065a5.8 5.8 0 0 0-2.536-2.512c1.486.117 3.031-.275 4.391-1.135a8.23 8.23 0 0 0 3.073-3.514m1794.815 0a8.23 8.23 0 0 0 3.074 3.514c1.36.86 2.905 1.252 4.391 1.135a5.8 5.8 0 0 0-2.536 2.512c-.63 1.202-.848 2.622-.638 4.065a8.3 8.3 0 0 0-2.93-3.205c-1.596-1.001-3.426-1.369-5.123-1.027a5.8 5.8 0 0 0 3.141-2.779c.655-1.244.864-2.721.621-4.215M-528.347 693.68c-.35 1.51-.23 3.038.34 4.36a5.93 5.93 0 0 0 3.004 3.064c-1.697-.463-3.583-.206-5.264.713a8.44 8.44 0 0 0-3.007 2.794l-.183.293.061-.312c.233-1.363.079-2.721-.428-3.908a5.96 5.96 0 0 0-2.406-2.739c1.502.215 3.097-.085 4.53-.875a8.48 8.48 0 0 0 3.353-3.39m2008.618-1.123c-.211 1.499.104 3.084.895 4.506a8.4 8.4 0 0 0 3.41 3.33c-1.508-.34-3.03-.212-4.345.367-1.369.613-2.435 1.67-3.033 3.024.449-1.695.181-3.578-.747-5.256a8.5 8.5 0 0 0-2.805-2.977l-.295-.183.312.057c1.359.22 2.707.065 3.887-.457a5.9 5.9 0 0 0 2.72-2.41m46.255-8.982c1.075 1.033 2.507 1.687 4.072 1.842a7.78 7.78 0 0 0 4.499-.913c-1.093 1.058-1.819 2.392-2.075 3.812a6.2 6.2 0 0 0 .745 4.24c-1.101-1.34-2.742-2.201-4.577-2.39a7.75 7.75 0 0 0-4.197.756c1.035-1.04 1.721-2.34 1.968-3.708a6.2 6.2 0 0 0-.435-3.639m-2256.187-6.735c.573 1.465 1.555 2.678 2.787 3.454a6.02 6.02 0 0 0 4.281.82c-1.693.592-3.125 1.9-4.011 3.645a8.76 8.76 0 0 0-.894 4.43c-.583-1.404-1.537-2.555-2.736-3.305a5.95 5.95 0 0 0-3.586-.907c1.39-.68 2.544-1.858 3.3-3.349a8.67 8.67 0 0 0 .86-4.788m2571.014-38.17c.682 4.523 2.691 8.852 5.752 12.416 2.783 3.225 6.315 5.67 10.198 7.07-4.73.042-9.155 1.697-12.583 4.718-3.363 2.962-5.576 7.078-6.304 11.72-.612-4.684-2.646-9.19-5.81-12.874-3.302-3.828-7.646-6.552-12.351-7.732 5.578.577 10.944-1.07 14.964-4.6 3.117-2.75 5.255-6.483 6.134-10.719M-664.285 660c.624 1.39 1.75 2.575 3.207 3.374a8.66 8.66 0 0 0 4.723 1.03c-1.482.505-2.713 1.433-3.536 2.626a5.92 5.92 0 0 0-.971 4.197c-.528-1.691-1.776-3.159-3.475-4.086a8.65 8.65 0 0 0-4.368-1.056c1.413-.514 2.6-1.416 3.388-2.574a5.95 5.95 0 0 0 1.032-3.511m2190.633-10.104c.155 1.544.743 2.958 1.68 4.028.978 1.103 2.28 1.776 3.7 1.914-1.689.12-3.33.983-4.575 2.415a8.7 8.7 0 0 0-1.934 3.992c-.178-1.5-.76-2.854-1.666-3.88-.824-.932-1.88-1.561-3.051-1.812 1.437-.284 2.793-1.103 3.854-2.319a8.74 8.74 0 0 0 1.992-4.338M-1531.75 638.67c-.204 2.9.503 5.875 2.005 8.489 1.57 2.723 3.924 4.908 6.688 6.211-3.386-1.042-6.918-.715-9.853.916-2.27 1.278-4.06 3.261-5.136 5.715.137-2.816-.563-5.681-2.021-8.211a15.4 15.4 0 0 0-5.443-5.547c2.943.563 5.895.118 8.394-1.278 2.457-1.378 4.343-3.588 5.366-6.295m2613 0c1.023 2.707 2.909 4.917 5.366 6.295 2.499 1.396 5.45 1.84 8.394 1.278a15.4 15.4 0 0 0-5.443 5.547c-1.459 2.53-2.158 5.395-2.022 8.211v-.002l-.158-.345a12.06 12.06 0 0 0-4.656-5.18l-.321-.188c-2.935-1.63-6.467-1.958-9.853-.916 2.764-1.303 5.118-3.488 6.688-6.211 1.501-2.614 2.21-5.59 2.004-8.489m-268.61 4.491c-.2 1.486.058 2.93.734 4.144a5.8 5.8 0 0 0 3.214 2.658c-1.695-.289-3.506.132-5.058 1.172a8.2 8.2 0 0 0-2.813 3.253c.166-1.428-.1-2.824-.76-3.996a5.8 5.8 0 0 0-2.596-2.41c1.478.074 3.005-.363 4.324-1.255a8.14 8.14 0 0 0 2.955-3.566m1310.15-16.84a8.48 8.48 0 0 0 3.353 3.39c1.433.79 3.029 1.09 4.53.876a5.96 5.96 0 0 0-2.406 2.738c-.545 1.279-.682 2.755-.367 4.223a8.44 8.44 0 0 0-3.19-3.09c-1.68-.919-3.566-1.176-5.264-.713a5.93 5.93 0 0 0 3.004-3.063c.57-1.322.69-2.85.34-4.36M69.227 612.85c-.578 1.407-.7 3.037-.35 4.65a8.64 8.64 0 0 0 2.258 4.177c-1.296-.742-2.723-1.035-4.075-.828-1.418.216-2.665.958-3.57 2.105.856-1.527 1.1-3.434.685-5.323a8.7 8.7 0 0 0-2.022-3.926c1.263.69 2.641.957 3.953.759a5.5 5.5 0 0 0 3.121-1.614m2254.877-3.368a8.67 8.67 0 0 0 .86 4.788c.755 1.491 1.91 2.669 3.3 3.35a5.95 5.95 0 0 0-3.587.906c-1.198.75-2.153 1.902-2.734 3.306a8.76 8.76 0 0 0-.895-4.431c-.886-1.744-2.319-3.053-4.012-3.645a6.02 6.02 0 0 0 4.281-.82c1.233-.776 2.214-1.989 2.787-3.454M501.321 600.5c1.472 2.09 3.525 3.802 5.93 4.959 2.651 1.272 5.612 1.801 8.461 1.512-2.43 1.165-4.355 3.008-5.519 5.281-1.497 2.926-1.634 6.364-.384 9.579-1.48-2.604-3.825-4.769-6.683-6.14-2.747-1.306-5.81-1.819-8.745-1.464 2.695-1.149 4.835-3.09 6.101-5.537 1.275-2.504 1.574-5.38.839-8.19m-1453.142 0c-.735 2.81-.436 5.686.839 8.19 1.266 2.446 3.405 4.388 6.1 5.537-2.934-.355-5.998.158-8.744 1.463-2.858 1.372-5.203 3.537-6.683 6.14 1.25-3.214 1.113-6.652-.384-9.578-1.164-2.273-3.09-4.116-5.52-5.281 2.85.29 5.81-.24 8.463-1.512 2.404-1.157 4.457-2.869 5.93-4.959m3209.427 9.543a5.95 5.95 0 0 0 1.031 3.51c.788 1.159 1.976 2.06 3.389 2.575a8.65 8.65 0 0 0-4.368 1.056c-1.699.927-2.947 2.395-3.475 4.085a5.92 5.92 0 0 0-.97-4.197c-.824-1.193-2.055-2.12-3.537-2.626a8.66 8.66 0 0 0 4.723-1.03c1.456-.799 2.583-1.983 3.207-3.373M455.158 590.396c-.856 1.527-1.101 3.443-.685 5.324a8.66 8.66 0 0 0 2.015 3.935c-1.264-.69-2.643-.959-3.956-.76a5.5 5.5 0 0 0-3.125 1.605c.588-1.407.71-3.037.36-4.65a8.63 8.63 0 0 0-2.26-4.177c1.289.742 2.724 1.036 4.078.837 1.412-.216 2.668-.958 3.573-2.114m2039.184 0c.905 1.156 2.161 1.898 3.572 2.114 1.354.199 2.79-.095 4.08-.837a8.63 8.63 0 0 0-2.26 4.176c-.351 1.614-.229 3.244.358 4.651a5.5 5.5 0 0 0-3.124-1.605c-1.313-.199-2.692.07-3.956.76a8.66 8.66 0 0 0 2.014-3.935c.417-1.881.172-3.797-.684-5.324m813.606 2.245c1.219.878 2.78 1.374 4.441 1.398 1.637.024 3.25-.4 4.663-1.227-1.062 1.081-1.716 2.397-1.867 3.755a5.37 5.37 0 0 0 1.14 3.933c-1.273-1.179-3.072-1.852-5.02-1.877a9.04 9.04 0 0 0-4.357 1.056c1.003-1.065 1.618-2.34 1.763-3.657a5.3 5.3 0 0 0-.763-3.38M274.616 572.433c-1.05 1.136-1.673 2.496-1.78 3.888-.106 1.443.357 2.844 1.309 3.971-1.344-1.16-3.211-1.79-5.204-1.757a9.26 9.26 0 0 0-4.43 1.201c.988-1.11 1.575-2.428 1.682-3.771a5.47 5.47 0 0 0-.898-3.432c1.271.862 2.89 1.318 4.597 1.293a9.2 9.2 0 0 0 4.724-1.393m2400.268 0a9.2 9.2 0 0 0 4.723 1.393c1.708.025 3.327-.431 4.598-1.293a5.47 5.47 0 0 0-.898 3.432c.107 1.343.694 2.661 1.681 3.771a9.26 9.26 0 0 0-4.43-1.2c-1.992-.035-3.86.595-5.203 1.756.952-1.127 1.415-2.528 1.308-3.97-.106-1.393-.729-2.753-1.779-3.889M3884 558.962c1.143.93 2.509 1.48 3.898 1.559a5.9 5.9 0 0 0 3.96-1.193c-1.147 1.209-1.763 2.887-1.718 4.67a7.63 7.63 0 0 0 1.242 3.945c-1.12-.875-2.443-1.392-3.787-1.472a5.95 5.95 0 0 0-3.421.835c.855-1.153 1.297-2.6 1.26-4.12a7.65 7.65 0 0 0-1.434-4.224m-2721.076-39.294c.534 1.41 1.575 2.643 2.97 3.512a8.65 8.65 0 0 0 4.612 1.3c-1.497.405-2.78 1.24-3.666 2.363-.912 1.174-1.35 2.6-1.222 4.052-.421-1.688-1.566-3.2-3.193-4.22a8.6 8.6 0 0 0-4.268-1.292c1.446-.43 2.668-1.24 3.52-2.33a5.8 5.8 0 0 0 1.247-3.385M947.751 516.3c-.51 1.396-.537 2.84-.08 4.14.485 1.346 1.462 2.458 2.792 3.157-1.7-.593-3.663-.52-5.477.194a8.63 8.63 0 0 0-3.575 2.613c.458-1.347.466-2.743.027-4-.405-1.137-1.172-2.102-2.202-2.8 1.524.348 3.188.202 4.738-.407a8.57 8.57 0 0 0 3.777-2.897m1173.266-12.349a8.7 8.7 0 0 0 2.097 4.293c1.094 1.194 2.468 1.973 3.907 2.215-1.16.285-2.196.952-2.993 1.904-.88 1.065-1.432 2.44-1.563 3.937-.337-1.48-1.045-2.856-2.04-3.937-1.275-1.402-2.936-2.224-4.63-2.302 1.415-.173 2.697-.883 3.643-2.025.913-1.09 1.464-2.527 1.58-4.085m-1292.534 0c.115 1.558.666 2.994 1.579 4.085.945 1.142 2.228 1.852 3.643 2.025-1.694.078-3.355.9-4.63 2.302-.995 1.081-1.703 2.458-2.04 3.937-.131-1.497-.683-2.872-1.563-3.937-.797-.952-1.834-1.619-2.993-1.904 1.439-.242 2.812-1.021 3.906-2.215a8.7 8.7 0 0 0 2.098-4.293m983.205-39.293c1.714 2.224 4.097 3.944 6.815 4.934 2.475.89 5.117 1.142 7.642.722-2.558 1.452-4.457 3.676-5.418 6.336-.937 2.618-.912 5.497.075 8.216-1.722-2.333-4.173-4.146-6.982-5.161-2.935-1.066-6.096-1.217-9.006-.428 3.203-1.377 5.62-3.886 6.74-6.999.87-2.425.92-5.077.134-7.62m861.112-11.226.142.301a8.1 8.1 0 0 0 2.557 3.002c1.511 1.07 3.305 1.537 4.999 1.308a5.67 5.67 0 0 0-3.272 2.535c-.714 1.177-1.013 2.608-.863 4.08a8.1 8.1 0 0 0-2.824-3.614c-1.295-.916-2.79-1.398-4.268-1.366a5.73 5.73 0 0 0 2.649-2.306c.69-1.144.996-2.518.88-3.94m-2396.101 0c-.115 1.422.192 2.796.881 3.94a5.73 5.73 0 0 0 2.649 2.307c-1.478-.033-2.973.45-4.268 1.366a8.1 8.1 0 0 0-2.824 3.614c.15-1.472-.149-2.903-.863-4.08a5.67 5.67 0 0 0-3.272-2.535c1.694.228 3.488-.238 4.999-1.309a8.1 8.1 0 0 0 2.557-3.001zm3554.82-1.123a5.8 5.8 0 0 0 1.248 3.385c.852 1.089 2.074 1.9 3.52 2.33a8.6 8.6 0 0 0-4.269 1.29c-1.627 1.022-2.771 2.533-3.193 4.221.13-1.451-.31-2.878-1.222-4.051-.886-1.123-2.168-1.959-3.666-2.364a8.65 8.65 0 0 0 4.613-1.3c1.394-.87 2.436-2.102 2.97-3.511m199.456 0a8.57 8.57 0 0 0 3.777 2.897c1.55.609 3.214.755 4.738.406-1.03.698-1.796 1.663-2.202 2.8-.44 1.257-.43 2.653.027 4a8.63 8.63 0 0 0-3.575-2.612c-1.814-.715-3.778-.788-5.477-.195 1.33-.698 2.307-1.81 2.792-3.158.457-1.298.43-2.742-.08-4.138M2032.26 407.402l-.184.351c-1.137 2.24-1.549 4.721-1.2 7.134.484 3.277 2.354 6.219 5.21 8.197-2.69-1.349-5.811-1.835-8.892-1.382-2.955.444-5.71 1.726-7.856 3.662 1.503-2.464 2.104-5.28 1.703-8.022-.417-2.799-1.836-5.355-4.04-7.291 2.379.922 5.017 1.198 7.613.82 2.856-.418 5.527-1.634 7.648-3.47zm-1115.021 0c2.12 1.836 4.792 3.051 7.647 3.47 2.596.378 5.235.101 7.614-.82-2.204 1.935-3.623 4.492-4.04 7.29-.402 2.742.2 5.558 1.703 8.023-2.146-1.937-4.901-3.219-7.857-3.663-3.08-.453-6.202.034-8.891 1.383 2.855-1.978 4.725-4.92 5.209-8.197.368-2.54-.108-5.156-1.385-7.486m1700.902-30.311c-.009 1.532.403 2.986 1.177 4.158.7 1.057 1.673 1.84 2.8 2.255-1.457.088-2.907.73-4.11 1.823-1.177 1.066-2.067 2.51-2.512 4.113.034-1.594-.37-3.1-1.17-4.316-.831-1.26-2.042-2.114-3.434-2.448 1.689.114 3.426-.538 4.835-1.815a8.8 8.8 0 0 0 2.414-3.77m-1489.254-3.369c-.05 1.596.354 3.112 1.145 4.328.823 1.261 2.034 2.133 3.426 2.477-1.697-.123-3.435.52-4.851 1.781-1.104.987-1.952 2.3-2.438 3.764.017-1.543-.38-2.997-1.145-4.17-.7-1.066-1.664-1.86-2.792-2.283 1.457-.079 2.907-.714 4.118-1.789 1.194-1.066 2.084-2.503 2.537-4.108M171.915 363.62c2.192 1.67 4.883 2.7 7.706 2.946a14.9 14.9 0 0 0 7.426-1.251c-2.051 2.025-3.299 4.617-3.536 7.383-.23 2.716.516 5.44 2.141 7.761-2.224-1.769-5.005-2.864-7.927-3.119-3.044-.264-6.089.395-8.64 1.877 2.683-2.108 4.34-5.103 4.628-8.346.213-2.51-.41-5.038-1.798-7.251m2605.67 0c-1.388 2.213-2.011 4.74-1.798 7.25.287 3.244 1.945 6.24 4.628 8.347-2.552-1.482-5.596-2.14-8.64-1.877-2.922.255-5.704 1.35-7.928 3.12 1.626-2.322 2.372-5.046 2.142-7.762-.237-2.766-1.485-5.358-3.536-7.383a14.9 14.9 0 0 0 7.426 1.251c2.823-.246 5.514-1.275 7.705-2.946m-1606.3-19.086c2.55 3.68 6.077 6.193 10.033 7.136 3.89.918 7.972.275 11.642-1.827-2.266 2.413-4.025 5.42-5.142 8.748q-.022.345-.023.693c.008 2.713 1 5.344 2.82 7.515a14.5 14.5 0 0 0-4.08-1.851c-.293 3.792.228 7.591 1.534 11.02-2.55-4.708-6.574-7.967-11.22-9.074q-1.123-.267-2.272-.362a14 14 0 0 0-.703.455q.249-.23.483-.47c-2.816-.19-5.674.411-8.341 1.767 2.828-3.148 4.814-7.222 5.698-11.682.8-4.04.648-8.216-.43-12.068m32.821 4.49c.764 1.225 1.973 2.195 3.418 2.75a8 8 0 0 0 4.521.342c-1.307.677-2.33 1.704-2.922 2.935a5.68 5.68 0 0 0-.34 4.078c-.716-1.517-2.071-2.732-3.776-3.385a7.95 7.95 0 0 0-4.189-.399c1.243-.685 2.224-1.688 2.801-2.88a5.67 5.67 0 0 0 .487-3.44m993.236-2.244a8.1 8.1 0 0 0 2.86 3.605c1.298.91 2.803 1.377 4.284 1.336a5.75 5.75 0 0 0-2.645 2.327c-.682 1.155-.973 2.532-.84 3.958a8.1 8.1 0 0 0-2.728-3.286c-1.53-1.065-3.326-1.524-5.014-1.278a5.73 5.73 0 0 0 3.252-2.565c.706-1.189.997-2.622.831-4.097m-1445.184 0c-.166 1.475.125 2.908.831 4.097a5.73 5.73 0 0 0 3.252 2.565c-1.688-.246-3.484.213-5.014 1.278a8.1 8.1 0 0 0-2.728 3.286c.133-1.426-.158-2.803-.84-3.958a5.75 5.75 0 0 0-2.645-2.327c1.48.041 2.986-.427 4.283-1.336a8.1 8.1 0 0 0 2.86-3.605m551.885-1.123c1.199.886 2.752 1.393 4.4 1.425a8.96 8.96 0 0 0 4.642-1.175c-1.06 1.062-1.725 2.359-1.889 3.703-.164 1.401.225 2.77 1.096 3.906-1.252-1.176-3.037-1.853-4.97-1.9a9 9 0 0 0-4.34 1.014c1.009-1.047 1.63-2.303 1.786-3.607a5.3 5.3 0 0 0-.725-3.366m378.314-35.925c2.259 1.797 5.05 2.937 8.014 3.257 2.68.276 5.377-.121 7.79-1.166-2.19 2.082-3.547 4.778-3.856 7.68-.292 2.843.438 5.72 2.079 8.191-2.285-1.91-5.171-3.11-8.23-3.438-3.177-.346-6.372.285-9.078 1.788 2.851-2.16 4.655-5.262 5.016-8.657.275-2.635-.326-5.305-1.735-7.655m-556.923-2.246c.534 1.476 1.473 2.708 2.68 3.507a5.92 5.92 0 0 0 4.222.92c-1.689.555-3.145 1.822-4.067 3.531a8.7 8.7 0 0 0-1 4.392c-.542-1.415-1.456-2.586-2.628-3.368a5.97 5.97 0 0 0-3.532-.989c1.387-.642 2.567-1.788 3.351-3.245a8.7 8.7 0 0 0 .974-4.748m2740.122-1.122c.454 1.604 1.344 3.041 2.537 4.108 1.211 1.075 2.661 1.71 4.119 1.789-1.128.423-2.092 1.216-2.792 2.282-.766 1.173-1.162 2.628-1.145 4.17-.486-1.463-1.334-2.776-2.438-3.764-1.417-1.26-3.155-1.904-4.852-1.78 1.392-.344 2.603-1.217 3.427-2.477.79-1.217 1.194-2.733 1.144-4.328m-46.484-22.453c-1.58 2.073-2.432 4.531-2.432 7.039.008 3.245 1.414 6.35 3.929 8.678-2.44-1.688-5.435-2.606-8.52-2.606-2.952 0-5.84.844-8.221 2.417 1.82-2.171 2.812-4.802 2.82-7.514-.008-2.762-1.033-5.45-2.92-7.637a15.14 15.14 0 0 0 7.345 1.885c2.862 0 5.658-.787 7.999-2.262m-28.735-2.246a5.67 5.67 0 0 0 .487 3.441c.577 1.191 1.559 2.194 2.801 2.88a7.95 7.95 0 0 0-4.189.398c-1.704.653-3.06 1.868-3.775 3.385a5.68 5.68 0 0 0-.34-4.077c-.593-1.232-1.616-2.26-2.923-2.936a8 8 0 0 0 4.522-.342c1.445-.555 2.654-1.525 3.417-2.749m-99.936-3.368a5.3 5.3 0 0 0-.725 3.365c.155 1.305.777 2.56 1.786 3.608a9 9 0 0 0-4.34-1.015c-1.933.048-3.719.725-4.97 1.9.871-1.135 1.26-2.504 1.096-3.905-.164-1.344-.829-2.64-1.89-3.704a8.96 8.96 0 0 0 4.642 1.176c1.648-.032 3.202-.54 4.4-1.425m-1662.063-6.736c.166 1.625.777 3.18 1.762 4.435 1.001 1.272 2.308 2.165 3.74 2.535-1.191.18-2.284.747-3.16 1.624-.968.971-1.622 2.286-1.887 3.756a8.7 8.7 0 0 0-1.72-4.082c-1.167-1.496-2.772-2.458-4.46-2.673a5.64 5.64 0 0 0 3.814-1.684c1.001-1.006 1.671-2.381 1.911-3.91m-1107.176 0c.24 1.53.91 2.905 1.911 3.91a5.64 5.64 0 0 0 3.814 1.685c-1.688.215-3.293 1.177-4.46 2.673a8.65 8.65 0 0 0-1.664 3.738l-.057.34-.062-.309c-.297-1.343-.925-2.541-1.823-3.443-.877-.877-1.97-1.443-3.16-1.624 1.43-.37 2.737-1.263 3.739-2.535.984-1.255 1.596-2.81 1.762-4.435m2234.23-1.122c-.346 1.508-.223 3.034.352 4.353a5.87 5.87 0 0 0 3.011 3.051c-1.695-.455-3.581-.197-5.259.729a8.5 8.5 0 0 0-3.175 3.093c.305-1.465.17-2.93-.386-4.207a5.93 5.93 0 0 0-2.407-2.734c1.5.214 3.089-.094 4.52-.883a8.43 8.43 0 0 0 3.344-3.402m-835.296-31.435c1.97 1.718 4.424 2.931 7.068 3.504 2.92.623 5.944.446 8.674-.514-2.091 1.735-3.508 4.01-4.087 6.527-.725 3.252 0 6.688 2.04 9.568-2.109-2.224-4.951-3.807-8.096-4.48-3.024-.649-6.152-.439-8.942.614 2.358-1.777 3.965-4.202 4.587-6.922.622-2.772.19-5.695-1.244-8.297m-1690.693 0c-1.434 2.602-1.865 5.525-1.243 8.297.621 2.72 2.229 5.145 4.587 6.922-2.79-1.053-5.918-1.263-8.942-.614-3.145.673-5.988 2.256-8.095 4.48 2.038-2.88 2.764-6.316 2.038-9.568-.578-2.518-1.995-4.792-4.086-6.527 2.73.96 5.754 1.137 8.674.514 2.644-.573 5.098-1.786 7.067-3.504m3239.607 1.123a8.7 8.7 0 0 0 .973 4.747c.784 1.458 1.965 2.603 3.352 3.246a5.97 5.97 0 0 0-3.533.989c-1.172.781-2.085 1.952-2.628 3.367a8.7 8.7 0 0 0-1-4.391c-.921-1.71-2.378-2.976-4.066-3.532a5.92 5.92 0 0 0 4.222-.92c1.206-.798 2.145-2.031 2.68-3.506m-86.268-25.26c-1.077 3.851-1.228 8.028-.429 12.067.884 4.46 2.87 8.535 5.699 11.683-3.46-1.759-7.24-2.248-10.833-1.39-4.647 1.106-8.67 4.365-11.221 9.074 1.667-4.374 2.054-9.349 1.111-14.143-.917-4.606-3.022-8.808-6.001-11.982 3.67 2.102 7.752 2.745 11.641 1.827 3.956-.943 7.483-3.457 10.033-7.136M459.29 236.758c-.81 1.327-1.198 2.838-1.117 4.315.089 1.529.68 2.944 1.684 4.007-1.36-1.046-3.126-1.468-4.924-1.178-1.393.22-2.73.861-3.838 1.837.752-1.292 1.109-2.76 1.028-4.183-.073-1.292-.502-2.505-1.247-3.489 1.263.747 2.786 1.01 4.316.765 1.506-.247 2.948-.976 4.098-2.074m2030.922 0c1.15 1.098 2.591 1.827 4.097 2.074 1.531.246 3.054-.018 4.317-.765-.745.984-1.174 2.197-1.247 3.489-.081 1.424.275 2.891 1.028 4.183-1.109-.976-2.446-1.617-3.838-1.837-1.798-.29-3.564.132-4.924 1.178 1.004-1.063 1.595-2.478 1.684-4.007.081-1.477-.307-2.988-1.117-4.315m944.507-20.208c-.571 1.398-.635 2.989-.178 4.547.45 1.524 1.376 2.921 2.637 3.974-1.438-.674-3.002-.893-4.465-.632-1.523.27-2.852 1.053-3.778 2.215.859-1.524 1.04-3.402.505-5.22-.415-1.415-1.24-2.712-2.366-3.739 1.401.615 2.912.817 4.326.564 1.283-.236 2.432-.825 3.319-1.71M577.342 197.465c-.243 1.494-.033 2.971.622 4.215a5.8 5.8 0 0 0 3.14 2.779c-1.696-.343-3.526.025-5.122 1.027a8.3 8.3 0 0 0-2.93 3.205c.21-1.443-.009-2.863-.638-4.065a5.8 5.8 0 0 0-2.536-2.512c1.486.117 3.031-.275 4.391-1.135a8.23 8.23 0 0 0 3.073-3.514m1794.815 0a8.23 8.23 0 0 0 3.074 3.514c1.36.86 2.905 1.252 4.391 1.135a5.8 5.8 0 0 0-2.536 2.512c-.63 1.202-.848 2.622-.638 4.065a8.3 8.3 0 0 0-2.93-3.205c-1.596-1.001-3.426-1.369-5.123-1.027a5.8 5.8 0 0 0 3.141-2.779c.655-1.244.864-2.721.621-4.215M1171.653 153.68c-.35 1.51-.23 3.038.34 4.36a5.93 5.93 0 0 0 3.004 3.064c-1.697-.463-3.583-.206-5.264.713a8.44 8.44 0 0 0-3.007 2.794l-.183.293.061-.312c.233-1.363.079-2.721-.428-3.908a5.96 5.96 0 0 0-2.406-2.739c1.502.215 3.097-.085 4.53-.875a8.48 8.48 0 0 0 3.353-3.39m2008.618-1.123c-.211 1.499.104 3.084.895 4.506a8.4 8.4 0 0 0 3.41 3.33c-1.508-.34-3.03-.212-4.345.367-1.369.613-2.435 1.67-3.033 3.024.449-1.695.181-3.578-.747-5.256a8.5 8.5 0 0 0-2.805-2.977l-.295-.183.312.057c1.359.22 2.707.065 3.887-.457a5.9 5.9 0 0 0 2.72-2.41m46.255-8.982c1.075 1.033 2.507 1.687 4.072 1.842a7.78 7.78 0 0 0 4.499-.913c-1.093 1.058-1.819 2.392-2.075 3.812a6.2 6.2 0 0 0 .745 4.24c-1.101-1.34-2.742-2.201-4.577-2.39a7.75 7.75 0 0 0-4.197.756c1.035-1.04 1.721-2.34 1.968-3.708a6.2 6.2 0 0 0-.435-3.639M970.34 136.841c.573 1.465 1.555 2.678 2.787 3.454a6.02 6.02 0 0 0 4.281.82c-1.693.592-3.125 1.9-4.011 3.645a8.76 8.76 0 0 0-.894 4.43c-.583-1.404-1.537-2.555-2.736-3.305a5.95 5.95 0 0 0-3.586-.907c1.39-.68 2.544-1.858 3.3-3.349a8.67 8.67 0 0 0 .86-4.788m2571.014-38.17c.682 4.523 2.691 8.852 5.752 12.416 2.783 3.225 6.315 5.67 10.198 7.07-4.73.042-9.155 1.697-12.583 4.718-3.363 2.962-5.576 7.078-6.304 11.72-.612-4.684-2.646-9.19-5.81-12.874-3.302-3.828-7.646-6.552-12.351-7.732 5.578.577 10.944-1.07 14.964-4.6 3.117-2.75 5.255-6.483 6.134-10.719M1035.715 120c.624 1.39 1.75 2.575 3.207 3.374a8.66 8.66 0 0 0 4.723 1.03c-1.482.505-2.713 1.433-3.536 2.626a5.92 5.92 0 0 0-.971 4.197c-.528-1.691-1.776-3.159-3.475-4.086a8.65 8.65 0 0 0-4.368-1.056c1.413-.514 2.6-1.416 3.388-2.574a5.95 5.95 0 0 0 1.032-3.511m2190.633-10.104c.155 1.544.743 2.958 1.68 4.028.978 1.103 2.28 1.776 3.7 1.914-1.689.12-3.33.983-4.575 2.415a8.7 8.7 0 0 0-1.934 3.992c-.178-1.5-.76-2.854-1.666-3.88-.824-.932-1.88-1.561-3.051-1.812 1.437-.284 2.793-1.103 3.854-2.319a8.74 8.74 0 0 0 1.992-4.338M168.25 98.67c-.204 2.9.503 5.875 2.005 8.489 1.57 2.723 3.924 4.908 6.688 6.211-3.386-1.042-6.918-.715-9.853.916-2.27 1.278-4.06 3.261-5.136 5.715.137-2.816-.563-5.681-2.021-8.211a15.4 15.4 0 0 0-5.443-5.547c2.943.563 5.895.118 8.394-1.278 2.457-1.378 4.343-3.588 5.366-6.295m2613 0c1.023 2.707 2.909 4.917 5.366 6.295 2.499 1.396 5.45 1.84 8.394 1.278a15.4 15.4 0 0 0-5.443 5.547c-1.459 2.53-2.158 5.395-2.022 8.211v-.002l-.158-.345a12.06 12.06 0 0 0-4.656-5.18l-.321-.188c-2.935-1.63-6.467-1.958-9.853-.916 2.764-1.303 5.118-3.488 6.688-6.211 1.501-2.614 2.21-5.59 2.004-8.489m-268.61 4.491c-.2 1.486.058 2.93.734 4.144a5.8 5.8 0 0 0 3.214 2.658c-1.695-.289-3.506.132-5.058 1.172a8.2 8.2 0 0 0-2.813 3.253c.166-1.428-.1-2.824-.76-3.996a5.8 5.8 0 0 0-2.596-2.41c1.478.074 3.005-.363 4.324-1.255a8.14 8.14 0 0 0 2.955-3.566m1310.15-16.84a8.48 8.48 0 0 0 3.353 3.39c1.433.79 3.029 1.09 4.53.876a5.96 5.96 0 0 0-2.406 2.738c-.545 1.279-.682 2.755-.367 4.223a8.44 8.44 0 0 0-3.19-3.09c-1.68-.919-3.566-1.176-5.264-.713a5.93 5.93 0 0 0 3.004-3.063c.57-1.322.69-2.85.34-4.36M1769.227 72.85c-.578 1.407-.7 3.037-.35 4.65a8.64 8.64 0 0 0 2.258 4.177c-1.296-.742-2.723-1.035-4.075-.828-1.418.216-2.665.958-3.57 2.105.856-1.527 1.1-3.434.685-5.323a8.7 8.7 0 0 0-2.022-3.926c1.263.69 2.641.957 3.953.759a5.5 5.5 0 0 0 3.121-1.614m2254.877-3.368a8.67 8.67 0 0 0 .86 4.788c.755 1.491 1.91 2.669 3.3 3.35a5.95 5.95 0 0 0-3.587.906c-1.198.75-2.153 1.902-2.734 3.306a8.76 8.76 0 0 0-.895-4.431c-.886-1.744-2.319-3.053-4.012-3.645a6.02 6.02 0 0 0 4.281-.82c1.233-.776 2.214-1.989 2.787-3.454M748.18 60.5c-.735 2.81-.436 5.686.839 8.19 1.266 2.446 3.405 4.388 6.1 5.537-2.934-.355-5.998.158-8.744 1.463-2.858 1.372-5.203 3.537-6.683 6.14 1.25-3.214 1.113-6.652-.384-9.578-1.164-2.273-3.09-4.116-5.52-5.281 2.85.29 5.81-.24 8.463-1.512 2.404-1.157 4.457-2.869 5.93-4.959m1453.142 0c1.472 2.09 3.525 3.802 5.93 4.959 2.651 1.272 5.612 1.801 8.461 1.512-2.43 1.165-4.355 3.008-5.519 5.281-1.497 2.926-1.634 6.364-.384 9.579-1.48-2.604-3.825-4.769-6.683-6.14-2.747-1.306-5.81-1.819-8.745-1.464 2.695-1.149 4.835-3.09 6.101-5.537 1.275-2.504 1.574-5.38.839-8.19m1756.285 9.543a5.95 5.95 0 0 0 1.031 3.51c.788 1.159 1.976 2.06 3.389 2.575a8.65 8.65 0 0 0-4.368 1.056c-1.699.927-2.947 2.395-3.475 4.085a5.92 5.92 0 0 0-.97-4.197c-.824-1.193-2.055-2.12-3.537-2.626a8.66 8.66 0 0 0 4.723-1.03c1.456-.799 2.583-1.983 3.207-3.373"/></svg>