<svg xmlns="http://www.w3.org/2000/svg" viewBox="0 0 2601 1201"><defs><filter id="stars-blur" width="100.5%" height="102.8%" x="-.3%" y="-1.4%" filterUnits="objectBoundingBox"><feGaussianBlur in="SourceGraphic" stdDeviation="5"/></filter></defs><path fill="#aaf" d="M-1190.654 1130.396c-.857 1.527-1.102 3.443-.685 5.324a8.66 8.66 0 0 0 2.015 3.935c-1.265-.69-2.643-.959-3.957-.76a5.5 5.5 0 0 0-3.124 1.605c.587-1.407.71-3.037.36-4.65a8.63 8.63 0 0 0-2.26-4.177c1.288.742 2.724 1.036 4.078.837 1.411-.216 2.667-.958 3.573-2.114m2039.183 0c.905 1.156 2.162 1.898 3.573 2.114 1.354.199 2.79-.095 4.079-.837a8.63 8.63 0 0 0-2.26 4.176c-.35 1.614-.228 3.244.359 4.651a5.5 5.5 0 0 0-3.124-1.605c-1.314-.199-2.693.07-3.957.76a8.66 8.66 0 0 0 2.015-3.935c.416-1.881.172-3.797-.685-5.324m813.606 2.245c1.219.878 2.781 1.374 4.442 1.398 1.637.024 3.249-.4 4.662-1.227-1.062 1.081-1.716 2.397-1.867 3.755a5.37 5.37 0 0 0 1.14 3.933c-1.272-1.179-3.071-1.852-5.019-1.877a9.04 9.04 0 0 0-4.358 1.056c1.003-1.065 1.619-2.34 1.764-3.657a5.3 5.3 0 0 0-.764-3.38m-633.063-20.208a9.2 9.2 0 0 0 4.723 1.393c1.707.025 3.326-.431 4.598-1.293a5.47 5.47 0 0 0-.898 3.432c.106 1.343.693 2.661 1.68 3.771a9.26 9.26 0 0 0-4.429-1.2c-1.992-.035-3.86.595-5.203 1.756.952-1.127 1.414-2.528 1.308-3.97-.107-1.393-.73-2.753-1.78-3.889m-2400.269 0c-1.05 1.136-1.672 2.496-1.779 3.888-.106 1.443.356 2.844 1.308 3.971-1.343-1.16-3.21-1.79-5.203-1.757a9.26 9.26 0 0 0-4.43 1.201c.987-1.11 1.575-2.428 1.681-3.771a5.47 5.47 0 0 0-.898-3.432c1.272.862 2.89 1.318 4.598 1.293a9.2 9.2 0 0 0 4.723-1.393m3609.385-13.471c1.143.93 2.508 1.48 3.897 1.559a5.9 5.9 0 0 0 3.961-1.193c-1.147 1.209-1.763 2.887-1.719 4.67a7.63 7.63 0 0 0 1.243 3.945c-1.12-.875-2.443-1.392-3.787-1.472a5.95 5.95 0 0 0-3.421.835c.854-1.153 1.297-2.6 1.259-4.12a7.65 7.65 0 0 0-1.433-4.224m-2721.076-39.294c.533 1.41 1.575 2.643 2.97 3.512a8.65 8.65 0 0 0 4.612 1.3c-1.498.405-2.78 1.24-3.666 2.363-.912 1.174-1.351 2.6-1.222 4.052-.422-1.688-1.566-3.2-3.193-4.22a8.6 8.6 0 0 0-4.269-1.292c1.446-.43 2.668-1.24 3.52-2.33a5.8 5.8 0 0 0 1.248-3.385m-215.173-3.368c-.511 1.396-.538 2.84-.08 4.14.484 1.346 1.462 2.458 2.791 3.157-1.699-.593-3.662-.52-5.476.194a8.63 8.63 0 0 0-3.575 2.613c.457-1.347.466-2.743.026-4-.405-1.137-1.171-2.102-2.201-2.8 1.523.348 3.187.202 4.737-.407a8.57 8.57 0 0 0 3.778-2.897m1173.266-12.349a8.7 8.7 0 0 0 2.097 4.293c1.094 1.194 2.468 1.973 3.907 2.215-1.16.285-2.197.952-2.994 1.904-.88 1.065-1.431 2.44-1.563 3.937-.337-1.48-1.044-2.856-2.039-3.937-1.275-1.402-2.937-2.224-4.63-2.302 1.414-.173 2.697-.883 3.643-2.025.912-1.09 1.464-2.527 1.579-4.085m-1292.535 0c.115 1.558.666 2.994 1.58 4.085.945 1.142 2.228 1.852 3.643 2.025-1.694.078-3.356.9-4.631 2.302-.995 1.081-1.702 2.458-2.04 3.937-.13-1.497-.682-2.872-1.562-3.937-.797-.952-1.834-1.619-2.994-1.904 1.44-.242 2.813-1.021 3.907-2.215a8.7 8.7 0 0 0 2.097-4.293m983.205-39.293c1.714 2.224 4.098 3.944 6.815 4.934 2.476.89 5.117 1.142 7.643.722-2.559 1.452-4.457 3.676-5.419 6.336-.936 2.618-.911 5.497.075 8.216-1.722-2.333-4.172-4.146-6.982-5.161-2.934-1.066-6.096-1.217-9.005-.428 3.202-1.377 5.619-3.886 6.74-6.999.87-2.425.92-5.077.133-7.62m861.112-11.226.142.301a8.1 8.1 0 0 0 2.557 3.002c1.512 1.07 3.305 1.537 5 1.308a5.67 5.67 0 0 0-3.272 2.535c-.715 1.177-1.014 2.608-.864 4.08a8.1 8.1 0 0 0-2.823-3.614c-1.296-.916-2.79-1.398-4.269-1.366a5.73 5.73 0 0 0 2.65-2.306c.689-1.144.996-2.518.88-3.94m-2396.1 0c-.116 1.422.191 2.796.88 3.94a5.73 5.73 0 0 0 2.65 2.307c-1.479-.033-2.973.45-4.269 1.366a8.1 8.1 0 0 0-2.824 3.614c.15-1.472-.148-2.903-.863-4.08a5.67 5.67 0 0 0-3.271-2.535c1.694.228 3.487-.238 4.998-1.309a8.1 8.1 0 0 0 2.557-3.001zm3554.82-1.123a5.8 5.8 0 0 0 1.247 3.385c.852 1.089 2.074 1.9 3.52 2.33a8.6 8.6 0 0 0-4.268 1.29c-1.627 1.022-2.772 2.533-3.193 4.221.129-1.451-.31-2.878-1.222-4.051-.887-1.123-2.169-1.959-3.666-2.364a8.65 8.65 0 0 0 4.612-1.3c1.395-.87 2.436-2.102 2.97-3.511m199.455 0a8.57 8.57 0 0 0 3.778 2.897c1.55.609 3.214.755 4.737.406-1.03.698-1.796 1.663-2.201 2.8-.44 1.257-.431 2.653.026 4a8.63 8.63 0 0 0-3.574-2.612c-1.815-.715-3.778-.788-5.477-.195 1.33-.698 2.307-1.81 2.791-3.158.458-1.298.431-2.742-.08-4.138m-3113.736-44.907c2.12 1.836 4.792 3.051 7.648 3.47 2.596.378 5.234.101 7.614-.82-2.205 1.935-3.624 4.492-4.041 7.29-.401 2.742.2 5.558 1.703 8.023-2.146-1.937-4.9-3.219-7.856-3.663-3.08-.453-6.203.034-8.892 1.383 2.856-1.978 4.726-4.92 5.21-8.197.367-2.54-.109-5.156-1.386-7.486m1126.021 0-.183.351c-1.137 2.24-1.55 4.721-1.2 7.134.484 3.277 2.354 6.22 5.209 8.197-2.689-1.349-5.81-1.835-8.891-1.382-2.956.444-5.711 1.726-7.857 3.662 1.503-2.464 2.105-5.28 1.704-8.022-.418-2.799-1.837-5.355-4.041-7.291 2.38.922 5.017 1.198 7.614.82 2.855-.418 5.527-1.634 7.647-3.47zm574.881-30.311c-.008 1.532.404 2.986 1.178 4.158.7 1.057 1.672 1.84 2.8 2.255-1.457.088-2.907.73-4.11 1.823-1.177 1.066-2.067 2.51-2.512 4.113.033-1.594-.37-3.1-1.17-4.316-.831-1.26-2.043-2.114-3.434-2.448 1.688.114 3.426-.538 4.834-1.815a8.8 8.8 0 0 0 2.414-3.77m-1489.253-3.369c-.05 1.596.353 3.112 1.144 4.328.824 1.261 2.035 2.133 3.427 2.477-1.697-.123-3.435.52-4.852 1.781-1.104.987-1.952 2.3-2.438 3.764.017-1.543-.379-2.997-1.145-4.17-.7-1.066-1.664-1.86-2.792-2.283 1.458-.079 2.908-.714 4.119-1.789 1.193-1.066 2.083-2.503 2.537-4.108m1648.697-10.103c-1.387 2.213-2.01 4.74-1.797 7.25.287 3.244 1.945 6.24 4.628 8.347-2.552-1.482-5.597-2.14-8.64-1.877-2.923.255-5.704 1.35-7.928 3.12 1.625-2.322 2.372-5.046 2.141-7.762-.237-2.766-1.484-5.358-3.536-7.383a14.9 14.9 0 0 0 7.427 1.251c2.822-.246 5.514-1.275 7.705-2.946m-2605.67 0c2.192 1.67 4.883 2.7 7.706 2.946a14.9 14.9 0 0 0 7.427-1.251c-2.052 2.025-3.3 4.617-3.537 7.383-.23 2.716.517 5.44 2.142 7.761-2.224-1.769-5.006-2.864-7.927-3.119-3.044-.264-6.09.395-8.64 1.877 2.682-2.108 4.34-5.103 4.627-8.346.214-2.51-.41-5.038-1.797-7.251m999.37-19.086c2.551 3.68 6.078 6.193 10.034 7.136 3.889.918 7.971.275 11.641-1.827-2.265 2.413-4.025 5.42-5.141 8.748q-.023.345-.024.693c.008 2.713 1.001 5.344 2.82 7.515a14.5 14.5 0 0 0-4.08-1.851c-.292 3.792.228 7.591 1.535 11.02-2.55-4.708-6.574-7.967-11.22-9.074q-1.123-.267-2.273-.362-.358.218-.702.455.249-.23.483-.47c-2.817-.19-5.674.411-8.342 1.767 2.828-3.148 4.815-7.222 5.699-11.682.8-4.04.648-8.216-.43-12.068m32.822 4.49c.763 1.225 1.972 2.195 3.417 2.75a8 8 0 0 0 4.522.342c-1.307.677-2.33 1.704-2.923 2.935a5.68 5.68 0 0 0-.34 4.078c-.715-1.517-2.07-2.732-3.775-3.385a7.95 7.95 0 0 0-4.19-.399c1.243-.685 2.225-1.688 2.802-2.88a5.67 5.67 0 0 0 .487-3.44m993.235-2.244a8.1 8.1 0 0 0 2.861 3.605c1.297.91 2.803 1.377 4.283 1.336a5.75 5.75 0 0 0-2.644 2.327c-.682 1.155-.973 2.532-.84 3.958a8.1 8.1 0 0 0-2.728-3.286c-1.53-1.065-3.327-1.524-5.015-1.278a5.73 5.73 0 0 0 3.252-2.565c.707-1.189.998-2.622.831-4.097m-1445.184 0c-.166 1.475.125 2.908.832 4.097a5.73 5.73 0 0 0 3.252 2.565c-1.688-.246-3.485.213-5.015 1.278a8.1 8.1 0 0 0-2.728 3.286c.133-1.426-.158-2.803-.84-3.958a5.75 5.75 0 0 0-2.644-2.327c1.48.041 2.986-.427 4.283-1.336a8.1 8.1 0 0 0 2.86-3.605m551.885-1.123c1.2.886 2.753 1.393 4.401 1.425a8.96 8.96 0 0 0 4.642-1.175c-1.061 1.062-1.726 2.359-1.89 3.703-.163 1.401.225 2.77 1.096 3.906-1.251-1.176-3.037-1.853-4.97-1.9a9 9 0 0 0-4.34 1.014c1.01-1.047 1.63-2.303 1.786-3.607a5.3 5.3 0 0 0-.725-3.366M36.545 849.73c2.258 1.797 5.05 2.937 8.014 3.257 2.68.276 5.376-.121 7.79-1.166-2.19 2.082-3.548 4.778-3.857 7.68-.291 2.843.438 5.72 2.079 8.191-2.285-1.91-5.171-3.11-8.23-3.438-3.176-.346-6.372.285-9.078 1.788 2.852-2.16 4.656-5.262 5.016-8.657.276-2.635-.326-5.305-1.734-7.655m-556.924-2.246c.535 1.476 1.474 2.708 2.68 3.507a5.92 5.92 0 0 0 4.222.92c-1.688.555-3.145 1.822-4.067 3.531a8.7 8.7 0 0 0-.999 4.392c-.543-1.415-1.456-2.586-2.628-3.368a5.97 5.97 0 0 0-3.533-.989c1.387-.642 2.568-1.788 3.351-3.245a8.7 8.7 0 0 0 .974-4.748m2740.123-1.122c.453 1.604 1.343 3.041 2.537 4.108 1.21 1.075 2.66 1.71 4.118 1.789-1.128.423-2.092 1.216-2.792 2.282-.766 1.173-1.162 2.628-1.145 4.17-.486-1.463-1.334-2.776-2.438-3.764-1.416-1.26-3.154-1.904-4.851-1.78 1.392-.344 2.603-1.217 3.426-2.477.791-1.217 1.195-2.733 1.145-4.328m-46.485-22.453c-1.58 2.073-2.432 4.531-2.432 7.039.009 3.245 1.414 6.35 3.93 8.678-2.441-1.688-5.435-2.606-8.52-2.606-2.953 0-5.84.844-8.222 2.417 1.82-2.171 2.813-4.802 2.82-7.514-.007-2.762-1.033-5.45-2.919-7.637a15.14 15.14 0 0 0 7.345 1.885c2.862 0 5.657-.787 7.998-2.262m-28.734-2.246a5.67 5.67 0 0 0 .487 3.441c.577 1.191 1.558 2.194 2.8 2.88a7.95 7.95 0 0 0-4.188.398c-1.705.653-3.06 1.868-3.775 3.385a5.68 5.68 0 0 0-.34-4.077c-.594-1.232-1.616-2.26-2.923-2.936a8 8 0 0 0 4.521-.342c1.445-.555 2.654-1.525 3.418-2.749m-99.937-3.368a5.3 5.3 0 0 0-.725 3.365c.156 1.305.777 2.56 1.787 3.608a9 9 0 0 0-4.34-1.015c-1.934.048-3.72.725-4.97 1.9.87-1.135 1.259-2.504 1.095-3.905-.164-1.344-.829-2.64-1.89-3.704a8.96 8.96 0 0 0 4.642 1.176c1.649-.032 3.202-.54 4.401-1.425M-724.65 811.56c.24 1.53.91 2.905 1.912 3.91a5.64 5.64 0 0 0 3.813 1.685c-1.688.215-3.292 1.177-4.459 2.673a8.65 8.65 0 0 0-1.664 3.738l-.058.34-.061-.309c-.297-1.343-.925-2.541-1.823-3.443-.878-.877-1.97-1.443-3.161-1.624 1.431-.37 2.738-1.263 3.74-2.535.984-1.255 1.596-2.81 1.761-4.435m2234.23-1.122c-.346 1.508-.223 3.034.353 4.353a5.87 5.87 0 0 0 3.01 3.051c-1.695-.455-3.58-.197-5.259.729a8.5 8.5 0 0 0-3.174 3.093c.305-1.465.17-2.93-.387-4.207a5.93 5.93 0 0 0-2.406-2.734c1.499.214 3.088-.094 4.52-.883a8.43 8.43 0 0 0 3.344-3.402M395.527 808.56c.165 1.625.777 3.18 1.762 4.435 1.001 1.272 2.308 2.165 3.74 2.535-1.192.18-2.284.747-3.161 1.624-.968.971-1.622 2.286-1.886 3.756a8.7 8.7 0 0 0-1.721-4.082c-1.167-1.496-2.772-2.458-4.46-2.673a5.64 5.64 0 0 0 3.814-1.684c1.002-1.006 1.672-2.381 1.912-3.91m-1411.935-29.557c-1.434 2.602-1.866 5.525-1.244 8.297.622 2.72 2.23 5.145 4.588 6.922-2.79-1.053-5.918-1.263-8.942-.614-3.145.673-5.988 2.256-8.096 4.48 2.039-2.88 2.765-6.316 2.039-9.568-.579-2.518-1.996-4.792-4.087-6.527 2.73.96 5.754 1.137 8.675.514 2.644-.573 5.097-1.786 7.067-3.504m1690.693 0c1.97 1.718 4.423 2.931 7.067 3.504 2.92.623 5.944.446 8.674-.514-2.09 1.735-3.507 4.01-4.086 6.527-.726 3.252 0 6.688 2.039 9.568-2.108-2.224-4.95-3.807-8.096-4.48-3.024-.649-6.152-.439-8.942.614 2.359-1.777 3.966-4.202 4.588-6.922.622-2.772.19-5.695-1.244-8.297m1548.913 1.123a8.7 8.7 0 0 0 .974 4.747c.784 1.458 1.964 2.603 3.351 3.246a5.97 5.97 0 0 0-3.532.989c-1.172.781-2.086 1.952-2.628 3.367a8.7 8.7 0 0 0-1-4.391c-.922-1.71-2.378-2.976-4.067-3.532a5.92 5.92 0 0 0 4.222-.92c1.207-.798 2.146-2.031 2.68-3.506m-86.267-25.26c-1.077 3.851-1.229 8.028-.43 12.067.885 4.46 2.871 8.535 5.7 11.683-3.46-1.759-7.24-2.248-10.834-1.39-4.646 1.106-8.67 4.365-11.22 9.074 1.667-4.374 2.054-9.349 1.11-14.143-.917-4.606-3.021-8.808-6-11.982 3.67 2.102 7.752 2.745 11.64 1.827 3.956-.943 7.483-3.457 10.034-7.136m-3323.453 21.892c-.81 1.327-1.199 2.838-1.117 4.315.088 1.529.68 2.944 1.684 4.007-1.361-1.046-3.126-1.468-4.924-1.178-1.393.22-2.73.861-3.839 1.837.753-1.292 1.11-2.76 1.029-4.183-.073-1.292-.503-2.505-1.248-3.489 1.263.747 2.786 1.01 4.317.765 1.506-.247 2.947-.976 4.098-2.074m2030.921 0c1.15 1.098 2.592 1.827 4.098 2.074 1.53.246 3.054-.018 4.317-.765-.745.984-1.175 2.197-1.248 3.49-.08 1.423.276 2.89 1.029 4.182-1.11-.976-2.446-1.617-3.839-1.837-1.798-.29-3.563.132-4.924 1.178 1.004-1.063 1.596-2.478 1.684-4.007.082-1.477-.307-2.988-1.117-4.315m944.507-20.208c-.57 1.398-.634 2.989-.178 4.547.45 1.524 1.376 2.921 2.637 3.974-1.438-.674-3.002-.893-4.465-.632-1.523.27-2.851 1.053-3.777 2.215.858-1.524 1.04-3.402.505-5.22-.416-1.415-1.24-2.712-2.367-3.739 1.402.615 2.913.817 4.327.564 1.282-.236 2.432-.825 3.318-1.71m-2857.375-19.085c-.243 1.494-.034 2.971.621 4.215a5.8 5.8 0 0 0 3.141 2.779c-1.696-.343-3.527.025-5.122 1.027a8.3 8.3 0 0 0-2.93 3.205c.209-1.443-.01-2.863-.639-4.065a5.8 5.8 0 0 0-2.536-2.512c1.487.117 3.032-.275 4.392-1.135a8.23 8.23 0 0 0 3.073-3.514m1794.815 0a8.23 8.23 0 0 0 3.073 3.514c1.36.86 2.905 1.252 4.392 1.135a5.8 5.8 0 0 0-2.537 2.512c-.629 1.202-.847 2.622-.637 4.065a8.3 8.3 0 0 0-2.931-3.205c-1.595-1.001-3.426-1.369-5.122-1.027a5.8 5.8 0 0 0 3.14-2.779c.656-1.244.865-2.721.622-4.215M-474.16 693.68c-.35 1.51-.23 3.038.34 4.36a5.93 5.93 0 0 0 3.003 3.064c-1.697-.463-3.583-.206-5.263.713a8.44 8.44 0 0 0-3.008 2.794l-.183.293.061-.312c.234-1.363.08-2.721-.427-3.908a5.96 5.96 0 0 0-2.406-2.739c1.501.215 3.097-.085 4.53-.875a8.48 8.48 0 0 0 3.353-3.39m2008.617-1.123c-.21 1.499.104 3.084.896 4.506a8.4 8.4 0 0 0 3.41 3.33c-1.508-.34-3.031-.212-4.346.367-1.368.613-2.434 1.67-3.033 3.024.45-1.695.182-3.578-.746-5.256a8.5 8.5 0 0 0-2.806-2.977l-.295-.183.313.057c1.358.22 2.706.065 3.887-.457a5.9 5.9 0 0 0 2.72-2.41m46.256-8.982c1.075 1.033 2.506 1.687 4.071 1.842a7.78 7.78 0 0 0 4.5-.913c-1.093 1.058-1.82 2.392-2.076 3.812a6.2 6.2 0 0 0 .745 4.24c-1.101-1.34-2.742-2.201-4.576-2.39a7.75 7.75 0 0 0-4.198.756c1.035-1.04 1.722-2.34 1.969-3.708a6.2 6.2 0 0 0-.435-3.639m-2256.187-6.735c.573 1.465 1.554 2.678 2.787 3.454a6.02 6.02 0 0 0 4.28.82c-1.692.592-3.125 1.9-4.01 3.645a8.76 8.76 0 0 0-.895 4.43c-.582-1.404-1.537-2.555-2.735-3.305a5.95 5.95 0 0 0-3.586-.907c1.39-.68 2.544-1.858 3.3-3.349a8.67 8.67 0 0 0 .859-4.788m2571.013-38.17c.683 4.523 2.692 8.852 5.753 12.416 2.783 3.225 6.315 5.67 10.198 7.07-4.73.042-9.156 1.697-12.584 4.718-3.362 2.962-5.575 7.078-6.304 11.72-.612-4.684-2.646-9.19-5.81-12.874-3.302-3.828-7.645-6.552-12.35-7.732 5.578.577 10.944-1.07 14.963-4.6 3.118-2.75 5.255-6.483 6.134-10.719M-610.097 660c.623 1.39 1.75 2.575 3.206 3.374a8.66 8.66 0 0 0 4.723 1.03c-1.482.505-2.712 1.433-3.536 2.626a5.92 5.92 0 0 0-.97 4.197c-.529-1.691-1.777-3.159-3.476-4.086a8.65 8.65 0 0 0-4.367-1.056c1.412-.514 2.6-1.416 3.388-2.574a5.95 5.95 0 0 0 1.032-3.511m2190.633-10.104c.154 1.544.743 2.958 1.68 4.028.978 1.103 2.279 1.776 3.7 1.914-1.69.12-3.331.983-4.575 2.415a8.7 8.7 0 0 0-1.934 3.992c-.178-1.5-.76-2.854-1.667-3.88-.824-.932-1.88-1.561-3.05-1.812 1.437-.284 2.792-1.103 3.853-2.319a8.74 8.74 0 0 0 1.993-4.338m-3058.098-11.227c-.205 2.9.503 5.875 2.004 8.489 1.57 2.723 3.925 4.908 6.689 6.211-3.387-1.042-6.919-.715-9.853.916-2.27 1.278-4.061 3.261-5.137 5.715.137-2.816-.562-5.681-2.021-8.211a15.4 15.4 0 0 0-5.443-5.547c2.943.563 5.895.118 8.395-1.278 2.457-1.378 4.342-3.588 5.366-6.295m2612.999 0c1.024 2.707 2.91 4.917 5.366 6.295 2.5 1.396 5.451 1.84 8.394 1.278a15.4 15.4 0 0 0-5.442 5.547c-1.46 2.53-2.159 5.395-2.022 8.211v-.002l-.158-.345a12.06 12.06 0 0 0-4.657-5.18l-.32-.188c-2.935-1.63-6.467-1.958-9.854-.916 2.764-1.303 5.119-3.488 6.688-6.211 1.502-2.614 2.21-5.59 2.005-8.489m-268.61 4.491c-.2 1.486.059 2.93.735 4.144a5.8 5.8 0 0 0 3.213 2.658c-1.694-.289-3.505.132-5.058 1.172a8.2 8.2 0 0 0-2.813 3.253c.167-1.428-.1-2.824-.76-3.996a5.8 5.8 0 0 0-2.595-2.41c1.477.074 3.004-.363 4.324-1.255a8.14 8.14 0 0 0 2.954-3.566m1310.15-16.84a8.48 8.48 0 0 0 3.354 3.39c1.433.79 3.028 1.09 4.53.876a5.96 5.96 0 0 0-2.406 2.738c-.546 1.279-.683 2.755-.367 4.223a8.44 8.44 0 0 0-3.19-3.09c-1.681-.919-3.567-1.176-5.264-.713a5.93 5.93 0 0 0 3.003-3.063c.571-1.322.691-2.85.34-4.36M123.416 612.85c-.578 1.407-.7 3.037-.35 4.65a8.64 8.64 0 0 0 2.257 4.177c-1.296-.742-2.722-1.035-4.075-.828-1.418.216-2.665.958-3.57 2.105.857-1.527 1.1-3.434.685-5.323a8.7 8.7 0 0 0-2.021-3.926c1.263.69 2.64.957 3.953.759a5.5 5.5 0 0 0 3.12-1.614m2254.877-3.368a8.67 8.67 0 0 0 .86 4.788c.755 1.491 1.91 2.669 3.299 3.35a5.95 5.95 0 0 0-3.586.906c-1.199.75-2.153 1.902-2.735 3.306a8.76 8.76 0 0 0-.895-4.431c-.886-1.744-2.318-3.053-4.011-3.645a6.02 6.02 0 0 0 4.28-.82c1.233-.776 2.215-1.989 2.788-3.454M555.508 600.5c1.472 2.09 3.525 3.802 5.93 4.959 2.652 1.272 5.612 1.801 8.462 1.512-2.43 1.165-4.356 3.008-5.52 5.281-1.496 2.926-1.633 6.364-.384 9.579-1.48-2.604-3.825-4.769-6.683-6.14-2.746-1.306-5.81-1.819-8.744-1.464 2.695-1.149 4.834-3.09 6.1-5.537 1.275-2.504 1.575-5.38.84-8.19m-1453.141 0c-.736 2.81-.437 5.686.838 8.19 1.267 2.446 3.406 4.388 6.1 5.537-2.934-.355-5.997.158-8.744 1.463-2.857 1.372-5.202 3.537-6.682 6.14 1.25-3.214 1.112-6.652-.385-9.578-1.163-2.273-3.089-4.116-5.519-5.281 2.85.29 5.81-.24 8.462-1.512 2.404-1.157 4.458-2.869 5.93-4.959m3209.426 9.543a5.95 5.95 0 0 0 1.032 3.51c.788 1.159 1.976 2.06 3.388 2.575a8.65 8.65 0 0 0-4.368 1.056c-1.698.927-2.947 2.395-3.474 4.085a5.92 5.92 0 0 0-.971-4.197c-.824-1.193-2.054-2.12-3.536-2.626a8.66 8.66 0 0 0 4.723-1.03c1.456-.799 2.583-1.983 3.206-3.373M509.346 590.396c-.857 1.527-1.102 3.443-.685 5.324a8.66 8.66 0 0 0 2.015 3.935c-1.265-.69-2.643-.959-3.957-.76a5.5 5.5 0 0 0-3.124 1.605c.587-1.407.71-3.037.36-4.65a8.63 8.63 0 0 0-2.26-4.177c1.288.742 2.724 1.036 4.078.837 1.411-.216 2.667-.958 3.573-2.114m2039.183 0c.905 1.156 2.162 1.898 3.573 2.114 1.354.199 2.79-.095 4.079-.837a8.63 8.63 0 0 0-2.26 4.176c-.35 1.614-.228 3.244.359 4.651a5.5 5.5 0 0 0-3.124-1.605c-1.314-.199-2.693.07-3.957.76a8.66 8.66 0 0 0 2.015-3.935c.416-1.881.172-3.797-.685-5.324m813.606 2.245c1.219.878 2.781 1.374 4.442 1.398 1.637.024 3.249-.4 4.662-1.227-1.062 1.081-1.716 2.397-1.867 3.755a5.37 5.37 0 0 0 1.14 3.933c-1.272-1.179-3.071-1.852-5.019-1.877a9.04 9.04 0 0 0-4.358 1.056c1.003-1.065 1.619-2.34 1.764-3.657a5.3 5.3 0 0 0-.764-3.38M328.803 572.433c-1.05 1.136-1.672 2.496-1.779 3.888-.106 1.443.356 2.844 1.308 3.971-1.343-1.16-3.21-1.79-5.203-1.757a9.26 9.26 0 0 0-4.43 1.201c.987-1.11 1.575-2.428 1.681-3.771a5.47 5.47 0 0 0-.898-3.432c1.272.862 2.89 1.318 4.598 1.293a9.2 9.2 0 0 0 4.723-1.393m2400.269 0a9.2 9.2 0 0 0 4.723 1.393c1.707.025 3.326-.431 4.598-1.293a5.47 5.47 0 0 0-.898 3.432c.106 1.343.693 2.661 1.68 3.771a9.26 9.26 0 0 0-4.429-1.2c-1.992-.035-3.86.595-5.203 1.756.952-1.127 1.414-2.528 1.308-3.97-.107-1.393-.73-2.753-1.78-3.889m1209.116-13.471c1.143.93 2.508 1.48 3.897 1.559a5.9 5.9 0 0 0 3.961-1.193c-1.147 1.209-1.763 2.887-1.719 4.67a7.63 7.63 0 0 0 1.243 3.945c-1.12-.875-2.443-1.392-3.787-1.472a5.95 5.95 0 0 0-3.421.835c.854-1.153 1.297-2.6 1.259-4.12a7.65 7.65 0 0 0-1.433-4.224m-2721.076-39.294c.533 1.41 1.575 2.643 2.97 3.512a8.65 8.65 0 0 0 4.612 1.3c-1.498.405-2.78 1.24-3.666 2.363-.912 1.174-1.351 2.6-1.222 4.052-.422-1.688-1.566-3.2-3.193-4.22a8.6 8.6 0 0 0-4.269-1.292c1.446-.43 2.668-1.24 3.52-2.33a5.8 5.8 0 0 0 1.248-3.385m-215.173-3.368c-.511 1.396-.538 2.84-.08 4.14.484 1.346 1.462 2.458 2.791 3.157-1.699-.593-3.662-.52-5.476.194a8.63 8.63 0 0 0-3.575 2.613c.457-1.347.466-2.743.026-4-.405-1.137-1.171-2.102-2.201-2.8 1.523.348 3.187.202 4.737-.407a8.57 8.57 0 0 0 3.778-2.897m1173.266-12.349a8.7 8.7 0 0 0 2.097 4.293c1.094 1.194 2.468 1.973 3.907 2.215-1.16.285-2.197.952-2.994 1.904-.88 1.065-1.431 2.44-1.563 3.937-.337-1.48-1.044-2.856-2.039-3.937-1.275-1.402-2.937-2.224-4.63-2.302 1.414-.173 2.697-.883 3.643-2.025.912-1.09 1.464-2.527 1.579-4.085m-1292.535 0c.115 1.558.666 2.994 1.58 4.085.945 1.142 2.228 1.852 3.643 2.025-1.694.078-3.356.9-4.631 2.302-.995 1.081-1.702 2.458-2.04 3.937-.13-1.497-.682-2.872-1.562-3.937-.797-.952-1.834-1.619-2.994-1.904 1.44-.242 2.813-1.021 3.907-2.215a8.7 8.7 0 0 0 2.097-4.293m983.205-39.293c1.714 2.224 4.098 3.944 6.815 4.934 2.476.89 5.117 1.142 7.643.722-2.559 1.452-4.457 3.676-5.419 6.336-.936 2.618-.911 5.497.075 8.216-1.722-2.333-4.172-4.146-6.982-5.161-2.934-1.066-6.096-1.217-9.005-.428 3.202-1.377 5.619-3.886 6.74-6.999.87-2.425.92-5.077.133-7.62m861.112-11.226.142.301a8.1 8.1 0 0 0 2.557 3.002c1.512 1.07 3.305 1.537 5 1.308a5.67 5.67 0 0 0-3.272 2.535c-.715 1.177-1.014 2.608-.864 4.08a8.1 8.1 0 0 0-2.823-3.614c-1.296-.916-2.79-1.398-4.269-1.366a5.73 5.73 0 0 0 2.65-2.306c.689-1.144.996-2.518.88-3.94m-2396.1 0c-.116 1.422.191 2.796.88 3.94a5.73 5.73 0 0 0 2.65 2.307c-1.479-.033-2.973.45-4.269 1.366a8.1 8.1 0 0 0-2.824 3.614c.15-1.472-.148-2.903-.863-4.08a5.67 5.67 0 0 0-3.271-2.535c1.694.228 3.487-.238 4.998-1.309a8.1 8.1 0 0 0 2.557-3.001zm3554.82-1.123a5.8 5.8 0 0 0 1.247 3.385c.852 1.089 2.074 1.9 3.52 2.33a8.6 8.6 0 0 0-4.268 1.29c-1.627 1.022-2.772 2.533-3.193 4.221.129-1.451-.31-2.878-1.222-4.051-.887-1.123-2.169-1.959-3.666-2.364a8.65 8.65 0 0 0 4.612-1.3c1.395-.87 2.436-2.102 2.97-3.511m199.455 0a8.57 8.57 0 0 0 3.778 2.897c1.55.609 3.214.755 4.737.406-1.03.698-1.796 1.663-2.201 2.8-.44 1.257-.431 2.653.026 4a8.63 8.63 0 0 0-3.574-2.612c-1.815-.715-3.778-.788-5.477-.195 1.33-.698 2.307-1.81 2.791-3.158.458-1.298.431-2.742-.08-4.138m-1998.715-44.907-.183.351c-1.137 2.24-1.55 4.721-1.2 7.134.484 3.277 2.354 6.219 5.209 8.197-2.689-1.349-5.81-1.835-8.892-1.382-2.955.444-5.71 1.726-7.856 3.662 1.503-2.464 2.104-5.28 1.704-8.022-.418-2.799-1.837-5.355-4.041-7.291 2.38.922 5.017 1.198 7.614.82 2.855-.418 5.527-1.634 7.647-3.47zm-1115.02 0c2.12 1.836 4.791 3.051 7.647 3.47 2.596.378 5.234.101 7.614-.82-2.205 1.935-3.624 4.492-4.041 7.29-.401 2.742.2 5.558 1.703 8.023-2.146-1.937-4.9-3.219-7.856-3.663-3.08-.453-6.203.034-8.892 1.383 2.856-1.978 4.726-4.92 5.21-8.197.367-2.54-.109-5.156-1.386-7.486m1700.901-30.311c-.008 1.532.404 2.986 1.178 4.158.7 1.057 1.672 1.84 2.8 2.255-1.457.088-2.907.73-4.11 1.823-1.177 1.066-2.067 2.51-2.512 4.113.033-1.594-.37-3.1-1.17-4.316-.831-1.26-2.043-2.114-3.434-2.448 1.688.114 3.426-.538 4.834-1.815a8.8 8.8 0 0 0 2.414-3.77m-1489.253-3.369c-.05 1.596.353 3.112 1.144 4.328.824 1.261 2.035 2.133 3.427 2.477-1.697-.123-3.435.52-4.852 1.781-1.104.987-1.952 2.3-2.438 3.764.017-1.543-.379-2.997-1.145-4.17-.7-1.066-1.664-1.86-2.792-2.283 1.458-.079 2.908-.714 4.119-1.789 1.193-1.066 2.083-2.503 2.537-4.108M226.103 363.62c2.191 1.67 4.882 2.7 7.705 2.946a14.9 14.9 0 0 0 7.427-1.251c-2.052 2.025-3.3 4.617-3.537 7.383-.23 2.716.517 5.44 2.142 7.761-2.224-1.769-5.006-2.864-7.927-3.119-3.044-.264-6.09.395-8.64 1.877 2.682-2.108 4.34-5.103 4.627-8.346.214-2.51-.41-5.038-1.797-7.251m2605.669 0c-1.387 2.213-2.01 4.74-1.797 7.25.287 3.244 1.945 6.24 4.628 8.347-2.552-1.482-5.597-2.14-8.64-1.877-2.923.255-5.704 1.35-7.928 3.12 1.625-2.322 2.372-5.046 2.141-7.762-.237-2.766-1.484-5.358-3.536-7.383a14.9 14.9 0 0 0 7.427 1.251c2.822-.246 5.514-1.275 7.705-2.946m-1606.3-19.086c2.551 3.68 6.078 6.193 10.034 7.136 3.889.918 7.971.275 11.641-1.827-2.265 2.413-4.025 5.42-5.141 8.748q-.023.345-.024.693c.008 2.713 1.001 5.344 2.82 7.515a14.5 14.5 0 0 0-4.08-1.851c-.292 3.792.228 7.591 1.535 11.02-2.55-4.708-6.574-7.967-11.22-9.074q-1.123-.267-2.273-.362a14 14 0 0 0-.702.455q.249-.23.483-.47c-2.817-.19-5.674.411-8.342 1.767 2.828-3.148 4.815-7.222 5.699-11.682.8-4.04.648-8.216-.43-12.068m32.822 4.49c.763 1.225 1.972 2.195 3.417 2.75a8 8 0 0 0 4.522.342c-1.307.677-2.33 1.704-2.923 2.935a5.68 5.68 0 0 0-.34 4.078c-.715-1.517-2.07-2.732-3.775-3.385a7.95 7.95 0 0 0-4.19-.399c1.243-.685 2.225-1.688 2.802-2.88a5.67 5.67 0 0 0 .487-3.44m993.235-2.244a8.1 8.1 0 0 0 2.861 3.605c1.297.91 2.803 1.377 4.283 1.336a5.75 5.75 0 0 0-2.644 2.327c-.682 1.155-.973 2.532-.84 3.958a8.1 8.1 0 0 0-2.728-3.286c-1.53-1.065-3.327-1.524-5.015-1.278a5.73 5.73 0 0 0 3.252-2.565c.707-1.189.998-2.622.831-4.097m-1445.184 0c-.166 1.475.125 2.908.832 4.097a5.73 5.73 0 0 0 3.252 2.565c-1.688-.246-3.485.213-5.015 1.278a8.1 8.1 0 0 0-2.728 3.286c.133-1.426-.158-2.803-.84-3.958a5.75 5.75 0 0 0-2.644-2.327c1.48.041 2.986-.427 4.283-1.336a8.1 8.1 0 0 0 2.86-3.605m551.885-1.123c1.2.886 2.753 1.393 4.401 1.425a8.96 8.96 0 0 0 4.642-1.175c-1.061 1.062-1.726 2.359-1.89 3.703-.163 1.401.225 2.77 1.096 3.906-1.251-1.176-3.037-1.853-4.97-1.9a9 9 0 0 0-4.34 1.014c1.01-1.047 1.63-2.303 1.786-3.607a5.3 5.3 0 0 0-.725-3.366m378.315-35.925c2.258 1.797 5.05 2.937 8.014 3.257 2.68.276 5.376-.121 7.79-1.166-2.19 2.082-3.548 4.778-3.857 7.68-.291 2.843.438 5.72 2.079 8.191-2.285-1.91-5.171-3.11-8.23-3.438-3.176-.346-6.372.285-9.078 1.788 2.852-2.16 4.656-5.262 5.016-8.657.276-2.635-.326-5.305-1.734-7.655m-556.924-2.246c.535 1.476 1.474 2.708 2.68 3.507a5.92 5.92 0 0 0 4.222.92c-1.688.555-3.145 1.822-4.067 3.531a8.7 8.7 0 0 0-.999 4.392c-.543-1.415-1.456-2.586-2.628-3.368a5.97 5.97 0 0 0-3.533-.989c1.387-.642 2.568-1.788 3.351-3.245a8.7 8.7 0 0 0 .974-4.748m2740.123-1.122c.453 1.604 1.343 3.041 2.537 4.108 1.21 1.075 2.66 1.71 4.118 1.789-1.128.423-2.092 1.216-2.792 2.282-.766 1.173-1.162 2.628-1.145 4.17-.486-1.463-1.334-2.776-2.438-3.764-1.416-1.26-3.154-1.904-4.851-1.78 1.392-.344 2.603-1.217 3.426-2.477.791-1.217 1.195-2.733 1.145-4.328m-46.485-22.453c-1.58 2.073-2.432 4.531-2.432 7.039.009 3.245 1.414 6.35 3.93 8.678-2.441-1.688-5.435-2.606-8.52-2.606-2.953 0-5.84.844-8.222 2.417 1.82-2.171 2.813-4.802 2.82-7.514-.007-2.762-1.033-5.45-2.919-7.637a15.14 15.14 0 0 0 7.345 1.885c2.862 0 5.657-.787 7.998-2.262m-28.734-2.246a5.67 5.67 0 0 0 .487 3.441c.577 1.191 1.558 2.194 2.8 2.88a7.95 7.95 0 0 0-4.188.398c-1.705.653-3.06 1.868-3.775 3.385a5.68 5.68 0 0 0-.34-4.077c-.594-1.232-1.616-2.26-2.923-2.936a8 8 0 0 0 4.521-.342c1.445-.555 2.654-1.525 3.418-2.749m-99.937-3.368a5.3 5.3 0 0 0-.725 3.365c.156 1.305.777 2.56 1.787 3.608a9 9 0 0 0-4.34-1.015c-1.934.048-3.72.725-4.97 1.9.87-1.135 1.259-2.504 1.095-3.905-.164-1.344-.829-2.64-1.89-3.704a8.96 8.96 0 0 0 4.642 1.176c1.649-.032 3.202-.54 4.401-1.425m-1662.062-6.736c.165 1.625.777 3.18 1.762 4.435 1.001 1.272 2.308 2.165 3.74 2.535-1.192.18-2.284.747-3.161 1.624-.968.971-1.622 2.286-1.886 3.756a8.7 8.7 0 0 0-1.721-4.082c-1.167-1.496-2.772-2.458-4.46-2.673a5.64 5.64 0 0 0 3.814-1.684c1.002-1.006 1.672-2.381 1.912-3.91m-1107.177 0c.24 1.53.91 2.905 1.912 3.91a5.64 5.64 0 0 0 3.813 1.685c-1.688.215-3.292 1.177-4.459 2.673a8.65 8.65 0 0 0-1.664 3.738l-.058.34-.061-.309c-.297-1.343-.925-2.541-1.823-3.443-.878-.877-1.97-1.443-3.161-1.624 1.431-.37 2.738-1.263 3.74-2.535.984-1.255 1.596-2.81 1.761-4.435m2234.23-1.122c-.346 1.508-.223 3.034.353 4.353a5.87 5.87 0 0 0 3.01 3.051c-1.695-.455-3.58-.197-5.259.729a8.5 8.5 0 0 0-3.174 3.093c.305-1.465.17-2.93-.387-4.207a5.93 5.93 0 0 0-2.406-2.734c1.499.214 3.088-.094 4.52-.883a8.43 8.43 0 0 0 3.344-3.402m-835.295-31.435c1.97 1.718 4.423 2.931 7.067 3.504 2.92.623 5.944.446 8.674-.514-2.09 1.735-3.507 4.01-4.086 6.527-.726 3.252 0 6.688 2.039 9.568-2.108-2.224-4.95-3.807-8.096-4.48-3.024-.649-6.152-.439-8.942.614 2.359-1.777 3.966-4.202 4.588-6.922.622-2.772.19-5.695-1.244-8.297m-1690.693 0c-1.434 2.602-1.866 5.525-1.244 8.297.622 2.72 2.23 5.145 4.588 6.922-2.79-1.053-5.918-1.263-8.942-.614-3.145.673-5.988 2.256-8.096 4.48 2.039-2.88 2.765-6.316 2.039-9.568-.579-2.518-1.996-4.792-4.087-6.527 2.73.96 5.754 1.137 8.675.514 2.644-.573 5.097-1.786 7.067-3.504m3239.606 1.123a8.7 8.7 0 0 0 .974 4.747c.784 1.458 1.964 2.603 3.351 3.246a5.97 5.97 0 0 0-3.532.989c-1.172.781-2.086 1.952-2.628 3.367a8.7 8.7 0 0 0-1-4.391c-.922-1.71-2.378-2.976-4.067-3.532a5.92 5.92 0 0 0 4.222-.92c1.207-.798 2.146-2.031 2.68-3.506m-86.267-25.26c-1.077 3.851-1.229 8.028-.43 12.067.885 4.46 2.871 8.535 5.7 11.683-3.46-1.759-7.24-2.248-10.834-1.39-4.646 1.106-8.67 4.365-11.22 9.074 1.667-4.374 2.054-9.349 1.11-14.143-.917-4.606-3.021-8.808-6-11.982 3.67 2.102 7.752 2.745 11.64 1.827 3.956-.943 7.483-3.457 10.034-7.136M513.477 236.758c-.81 1.327-1.199 2.838-1.117 4.315.088 1.529.68 2.944 1.684 4.007-1.361-1.046-3.126-1.468-4.924-1.178-1.393.22-2.73.861-3.839 1.837.753-1.292 1.11-2.76 1.029-4.183-.073-1.292-.503-2.505-1.248-3.489 1.263.747 2.786 1.01 4.317.765 1.506-.247 2.947-.976 4.098-2.074m2030.921 0c1.15 1.098 2.592 1.827 4.098 2.074 1.53.246 3.054-.018 4.317-.765-.745.984-1.175 2.197-1.248 3.489-.08 1.424.276 2.891 1.029 4.183-1.11-.976-2.446-1.617-3.839-1.837-1.798-.29-3.563.132-4.924 1.178 1.004-1.063 1.596-2.478 1.684-4.007.082-1.477-.307-2.988-1.117-4.315m944.507-20.208c-.57 1.398-.634 2.989-.178 4.547.45 1.524 1.377 2.921 2.637 3.974-1.438-.674-3.002-.893-4.465-.632-1.523.27-2.851 1.053-3.777 2.215.858-1.524 1.04-3.402.505-5.22-.416-1.415-1.24-2.712-2.367-3.739 1.402.615 2.913.817 4.327.564 1.282-.236 2.432-.825 3.318-1.71M631.53 197.465c-.243 1.494-.034 2.971.621 4.215a5.8 5.8 0 0 0 3.141 2.779c-1.696-.343-3.527.025-5.122 1.027a8.3 8.3 0 0 0-2.93 3.205c.209-1.443-.01-2.863-.639-4.065a5.8 5.8 0 0 0-2.536-2.512c1.487.117 3.032-.275 4.392-1.135a8.23 8.23 0 0 0 3.073-3.514m1794.815 0a8.23 8.23 0 0 0 3.073 3.514c1.36.86 2.905 1.252 4.392 1.135a5.8 5.8 0 0 0-2.537 2.512c-.629 1.202-.847 2.622-.637 4.065a8.3 8.3 0 0 0-2.931-3.205c-1.595-1.001-3.426-1.369-5.122-1.027a5.8 5.8 0 0 0 3.14-2.779c.656-1.244.865-2.721.622-4.215M1225.84 153.68c-.35 1.51-.23 3.038.34 4.36a5.93 5.93 0 0 0 3.004 3.064c-1.698-.463-3.584-.206-5.264.713a8.44 8.44 0 0 0-3.008 2.794l-.183.293.061-.312c.234-1.363.08-2.721-.427-3.908a5.96 5.96 0 0 0-2.406-2.739c1.501.215 3.097-.085 4.53-.875a8.48 8.48 0 0 0 3.353-3.39m2008.617-1.123c-.21 1.499.104 3.084.896 4.506a8.4 8.4 0 0 0 3.41 3.33c-1.508-.34-3.031-.212-4.346.367-1.368.613-2.434 1.67-3.033 3.024.45-1.695.182-3.578-.746-5.256a8.5 8.5 0 0 0-2.806-2.977l-.295-.183.313.057c1.358.22 2.706.065 3.887-.457a5.9 5.9 0 0 0 2.72-2.41m46.256-8.982c1.075 1.033 2.506 1.687 4.071 1.842a7.78 7.78 0 0 0 4.5-.913c-1.093 1.058-1.82 2.392-2.075 3.812a6.2 6.2 0 0 0 .744 4.24c-1.101-1.34-2.742-2.201-4.576-2.39a7.75 7.75 0 0 0-4.198.756c1.035-1.04 1.722-2.34 1.969-3.708a6.2 6.2 0 0 0-.435-3.639m-2256.187-6.735c.573 1.465 1.554 2.678 2.787 3.454a6.02 6.02 0 0 0 4.28.82c-1.692.592-3.125 1.9-4.01 3.645a8.76 8.76 0 0 0-.895 4.43c-.582-1.404-1.537-2.555-2.735-3.305a5.95 5.95 0 0 0-3.586-.907c1.39-.68 2.544-1.858 3.3-3.349a8.67 8.67 0 0 0 .859-4.788m2571.013-38.17c.683 4.523 2.692 8.852 5.753 12.416 2.783 3.225 6.315 5.67 10.198 7.07-4.73.042-9.156 1.697-12.584 4.718-3.362 2.962-5.575 7.078-6.304 11.72-.612-4.684-2.646-9.19-5.81-12.874-3.302-3.828-7.645-6.552-12.35-7.732 5.578.577 10.944-1.07 14.963-4.6 3.118-2.75 5.255-6.483 6.134-10.719M1089.903 120c.623 1.39 1.75 2.575 3.206 3.374a8.66 8.66 0 0 0 4.723 1.03c-1.482.505-2.712 1.433-3.536 2.626a5.92 5.92 0 0 0-.97 4.197c-.529-1.691-1.777-3.159-3.476-4.086a8.65 8.65 0 0 0-4.367-1.056c1.412-.514 2.6-1.416 3.388-2.574a5.95 5.95 0 0 0 1.032-3.511m2190.633-10.104c.154 1.544.743 2.958 1.68 4.028.978 1.103 2.279 1.776 3.7 1.914-1.69.12-3.331.983-4.575 2.415a8.7 8.7 0 0 0-1.934 3.992c-.178-1.5-.76-2.854-1.667-3.88-.824-.932-1.88-1.561-3.05-1.812 1.436-.284 2.792-1.103 3.853-2.319a8.74 8.74 0 0 0 1.993-4.338M222.438 98.67c-.205 2.9.503 5.875 2.004 8.489 1.57 2.723 3.925 4.908 6.689 6.211-3.387-1.042-6.919-.715-9.853.916-2.27 1.278-4.061 3.261-5.137 5.715.137-2.816-.562-5.681-2.021-8.211a15.4 15.4 0 0 0-5.443-5.547c2.943.563 5.895.118 8.395-1.278 2.457-1.378 4.342-3.588 5.366-6.295m2612.999 0c1.024 2.707 2.91 4.917 5.366 6.295 2.5 1.396 5.451 1.84 8.395 1.278a15.4 15.4 0 0 0-5.443 5.547c-1.46 2.53-2.159 5.395-2.022 8.211v-.002l-.158-.345a12.06 12.06 0 0 0-4.657-5.18l-.32-.188c-2.935-1.63-6.467-1.958-9.854-.916 2.764-1.303 5.119-3.488 6.688-6.211 1.502-2.614 2.21-5.59 2.005-8.489m-268.61 4.491c-.2 1.486.059 2.93.735 4.144a5.8 5.8 0 0 0 3.213 2.658c-1.694-.289-3.505.132-5.058 1.172a8.2 8.2 0 0 0-2.813 3.253c.167-1.428-.1-2.824-.76-3.996a5.8 5.8 0 0 0-2.595-2.41c1.477.074 3.004-.363 4.324-1.255a8.14 8.14 0 0 0 2.954-3.566m1310.15-16.84a8.48 8.48 0 0 0 3.354 3.39c1.433.79 3.028 1.09 4.53.876a5.96 5.96 0 0 0-2.406 2.738c-.546 1.279-.683 2.755-.367 4.223a8.44 8.44 0 0 0-3.19-3.09c-1.681-.919-3.567-1.176-5.264-.713a5.93 5.93 0 0 0 3.003-3.063c.571-1.322.691-2.85.34-4.36M1823.416 72.85c-.578 1.407-.7 3.037-.35 4.65a8.64 8.64 0 0 0 2.257 4.177c-1.296-.742-2.722-1.035-4.075-.828-1.418.216-2.665.958-3.57 2.105.857-1.527 1.1-3.434.685-5.323a8.7 8.7 0 0 0-2.021-3.926c1.263.69 2.64.957 3.953.759a5.5 5.5 0 0 0 3.12-1.614m2254.877-3.368a8.67 8.67 0 0 0 .86 4.788c.755 1.491 1.91 2.669 3.299 3.35a5.95 5.95 0 0 0-3.586.906c-1.199.75-2.153 1.902-2.735 3.306a8.76 8.76 0 0 0-.895-4.431c-.886-1.744-2.318-3.053-4.011-3.645a6.02 6.02 0 0 0 4.28-.82c1.233-.776 2.215-1.989 2.788-3.454M802.367 60.5c-.736 2.81-.437 5.686.838 8.19 1.267 2.446 3.406 4.388 6.1 5.537-2.934-.355-5.997.158-8.744 1.463-2.857 1.372-5.202 3.537-6.682 6.14 1.25-3.214 1.112-6.652-.385-9.578-1.163-2.273-3.089-4.116-5.519-5.281 2.85.29 5.81-.24 8.462-1.512 2.404-1.157 4.458-2.869 5.93-4.959m1453.141 0c1.472 2.09 3.525 3.802 5.93 4.959 2.652 1.272 5.612 1.801 8.462 1.512-2.43 1.165-4.356 3.008-5.52 5.281-1.496 2.926-1.633 6.364-.384 9.579-1.48-2.604-3.825-4.769-6.683-6.14-2.746-1.306-5.81-1.819-8.744-1.464 2.695-1.149 4.834-3.09 6.1-5.537 1.275-2.504 1.575-5.38.84-8.19m1756.285 9.543a5.95 5.95 0 0 0 1.032 3.51c.788 1.159 1.976 2.06 3.388 2.575a8.65 8.65 0 0 0-4.368 1.056c-1.698.927-2.947 2.395-3.474 4.085a5.92 5.92 0 0 0-.971-4.197c-.824-1.193-2.054-2.12-3.536-2.626a8.66 8.66 0 0 0 4.723-1.03c1.456-.799 2.583-1.983 3.206-3.373" filter="url(#stars-blur)" transform="matrix(-1 0 0 -1 2602.355 1201)"/></svg>