<svg xmlns="http://www.w3.org/2000/svg" viewBox="0 0 949 970">

<g fill="none" fill-rule="evenodd">

<g>
<path fill="#e6edf6" d="m735.273 463.438-49.791-29.068-34.819 36.708-11.494 84.18q30.962 14.701 53.648 21.506 22.685 6.806 33.856 4.745 24.326 13.365 36.504 15.565 12.18 2.2 22.148-2.344l39.938 28.803q18.307 7.428 29.537 2.91 11.23-4.52 15.253-20.934 14.56-14.989 16.793-24.779t-3.872-31.885q-16.794-22.365-30.387-30.69-13.593-8.322-48.82-17.813-14.085-10.192-21.65-13.761-7.566-3.57-17.811-4.858z"/>
<path fill="#a6b9db" d="M763.177 481.723q15.84 4.777 25.722 9.31t14.867 9.31q6.964 20.476 7.768 35.232.61 11.21-2.125 22.988 30.047-13.676 48.056-5.924 18.623 8.014 25.509 39.435l-14.016 13.435q0 16.491-16.37 21.491-16.373 5-32.202-6.38l-35.061-28.546q11.224-10.888 15.676-17.47a41 41 0 0 0 4.19-7.99q-15.072 3.635-23.075 1.674-8.566-2.097-18.939-13.03 8.49-17.29 8.49-31.36 0-14.068-8.49-42.175m-77.695-26.193q.865 21.132 0 32.105t-5.067 32.106l24.5-13.988-3.459 20.41q8.852 7.44 19.667 11.995 10.815 4.556 43.183 14.48-11.353 20.07-20.073 25.092-8.719 5.024-26.573 1.779-25.431-1.538-37.245-5-11.815-3.463-25.662-13.435L657.647 543q6.166-9.852 7.731-24.844 1.566-14.992 0-49.2z"/>
<path fill="#7b97c1" d="M763.177 552.639q9.621 10.83 18.182 13.435 8.56 2.604 25.985 0a119 119 0 0 1-3.481 6.369l-.097-.215q9.634 21.57 23.807 29.22 14.175 7.649 42.48 6.552-2.775 12.853-9.066 16.45t-26.838 4.076l-48.209-35.993q-4.2 2.562-8.612 3.476-16.517 3.417-47.354-13.93 10.478-.94 17.955-7.57t15.248-21.87m80.902 9.485q14.369 7.184 19.085 14.45t0 15.5L847.815 579.5z"/>
<path fill="#000" d="M702.98 440.484q52.81 34.058 60.7 36.337c7.89 2.278 18.107 4.693 27.095 9.76q7.026 3.96 13.026 10.714l-.035-.006q66.729 13.182 82.29 49.308 15.846 36.794-12.275 59.432c-.186 6.422-3.36 16.362-14.042 21.057-13.612 5.982-24.576 3.395-34.252 0-4.225-1.483-11.597-8.274-22.909-16.872q-5.46-4.15-18.73-13.118-11.35 3.937-24.658 1.34-14.023-2.735-33.232-14c-6.339.315-12.952-.888-28.733-4.166q-23.808-4.946-42.073-14.334l-3.584-12.13q24.777 12.676 39.08 17.365c14.304 4.688 25.686 6.32 33.179 6.32h1.193c7.991-.028 23.965-.997 36.328-28.646q12.61-28.202.78-64.775l-64.406-38.588c2.199 2.593 11.011 21.682 11.011 36.687 0 11.335-3.55 28.543-5.975 38.322l-.144.577c.845-2.122 1.833-4.563 2.815-7.076l.278-.714.414-1.074.137-.36.272-.717.268-.716.133-.358.262-.712c.562-1.54 1.087-3.05 1.54-4.475.456-1.432.906-2.99 1.343-4.6l.186-.691q.14-.522.277-1.047l.182-.702.18-.703.267-1.055.175-.702.172-.698.17-.694c1.04-4.261 1.93-8.194 2.547-10.402l.097-.343c.317-1.09.552-1.654.684-1.472.359.492-.08 6.68-1.07 13.44l-.113.754q-.115.755-.238 1.514l-.13.784c-.617 3.656-1.382 7.257-2.258 10.01-2.493 7.838-8.923 18.303-10.548 19.618a.3.3 0 0 1-.06.09q-.027.024-.04-.017-.176.114-.242.026c-.128-.176.064-.94.472-2.125.629-4.097 2.343-13.517 3.548-22.947l.154-1.23c.755-6.144 1.264-12.193 1.085-16.674-.56-14.008-9.099-38.811-8.294-39.783l-.054-.032zm105.76 65.243.213.602q10.128 28.746 4.454 51.413-5.762 23.02-23.44 36.135 9.956 5.993 15.3 9.913c2.23 1.636 4.495 3.487 6.762 5.365l1.046.868 1.014.842c5.237 4.342 10.426 8.526 15.15 10.238 19.224 6.968 28.365-.185 30.5-2.466 2.134-2.28 10.144-7.555 3.504-19.487s-31.251-24.41-28.08-26.717c.814-.592 3.897.07 8.536 2.345q-1.44-16.299.287-15.185 1.02.656 3.455 7.892l.324.972q1.399 4.245 3.233 10.507c3.667 2.375 7.805 5.434 12.245 9.261 3.035 2.617 6.923 6.721 9.013 10.804q23.584-30.37 1.532-57.992-21.702-27.181-65.048-35.31m-42.369-20.145.053.145q13.098 35.28 5.277 57.803c-8.26 23.79-22.503 36.74-35.114 39.323-1.058.217-2.049.414-2.989.59q17.782 6.62 25.592 8.05c8.585 1.572 15.435 1.572 22.169 0 6.733-1.573 21.646-18.646 25.713-35.912s0-44.613-5.309-50.712c-5.308-6.1-14.051-10.918-20.404-14.233q-5.577-2.91-14.988-5.054m-81.374 5.054c1.43 0-.3 23.6-5.213 34.056q-4.913 10.458-22.137 24.153 10.23-12 15.939-24.153c1.941-4.132 3.716-9.39 5.27-14.533l.272-.906c2.875-9.645 4.954-18.617 5.869-18.617"/>
</g>

<g class="space-buttons">
<path fill="#154792" d="M490.989 553.56q9.947-.921 15.44-.921 5.49 0 15.29.92l1.428 23.685-33.49.486z"/>
<path fill="#fee019" d="M533.989 548.56q9.947-.921 15.44-.921 5.49 0 15.29.92l1.428 23.685-33.49.486z"/>
<path fill="#a7151d" d="M576.989 548.56q9.947-.921 15.44-.921 5.49 0 15.29.92l1.428 23.685-33.49.486z"/>
<path fill="#108a2f" d="M493.989 584.56q9.947-.921 15.44-.921 5.49 0 15.29.92l1.428 23.685-33.49.486z"/>
<path fill="#f99016" d="M579.989 580.56q9.947-.921 15.44-.921 5.49 0 15.29.92l1.428 23.685-33.49.486z"/>
<path fill="#6cadf4" d="M535.989 581.758q9.947-1.028 15.44-1.028 5.49 0 15.29 1.028l1.428 26.43-33.49.542z"/>
<path fill="#000" d="M584 227c15.464 0 28 14.327 28 32s-12.536 32-28 32-28-14.327-28-32 12.536-32 28-32m-.5 13c-4.694 0-8.5 4.253-8.5 9.5s3.806 9.5 8.5 9.5 8.5-4.253 8.5-9.5-3.806-9.5-8.5-9.5M405 230c15.464 0 28 14.327 28 32s-12.536 32-28 32-28-14.327-28-32 12.536-32 28-32m5.5 13c-4.694 0-8.5 4.253-8.5 9.5s3.806 9.5 8.5 9.5 8.5-4.253 8.5-9.5-3.806-9.5-8.5-9.5"/>
</g>

<g class="space-hand">
<path fill="#e6edf6" d="m194.126 241.902-4.732 55.758-2.274-16.22q-12.89-25.926-19.294-37.128-6.405-11.202-15.523-23.78-18.284-15.534-31.571-8.864t-10.312 24.054l22.974 49.592q-26.695-23.739-40.069-30.025-13.373-6.287-20.664-1.627-10.985 9.497-9.693 19.082T79.987 308q-24.762-12.873-35.034-7.9t-1.655 36.176q30.405 29.032 51.802 46.69 21.397 17.659 33.006 23.296 22.204 1.982 41.583-5.182 19.38-7.164 38.613-24.465Q227.28 361.4 234.806 347.9t5.92-29.435v-28.992l8.35-43.308q0-17.156-18.76-19.416-18.759-2.26-30.261 8.973z"/>
<path fill="#bacce7" d="m39.367 311.233 60.589 40.982-2.59 3.49q29.648 26.29 49.209 28.905c11.029 1.473 18.055-1.927 24.852-5.886l.769-.45.768-.454.384-.228 1.154-.684c4.243-2.509 8.618-4.981 14.036-6.377q15.433-3.974 34.396-5.582-38.208 30.13-56.798 38.228-18.59 8.1-38.03 3.084l-62.642-46.555q-17.361-17.445-23.195-28.283-5.835-10.836-2.902-20.19m26.176-50.27q23.454 27.026 40.486 40.913t23.694 11.419l-17.34 20.441-37.115-36.386q-10.016-15.334-11.895-22.364t2.17-14.022m48.898-42.703 47.108 75.966-17.328 7.65q-21.41-33.162-28.024-51.358-6.615-18.198-1.756-32.258"/>
<path fill="#000" d="M118.963 208.28c9.143-4.218 20.006-6.32 32.293 6.127q11.961 12.118 34.622 60.265 2.007-18.618 8.302-33.264c10.106-23.511 27.25-20.776 33.4-20.776 6.152 0 22.118 5.493 24.923 16.742 1.502 6.027-.646 16.366-3.179 26.447l-.34 1.343c-2.105 8.263-4.372 16.215-4.985 21.316-1.392 11.581 0 27.578 0 36.89 0 9.31-1.392 19.415-8.006 28.505s-24.148 30.589-50.973 45.726c-26.826 15.136-41.02 15.136-56.914 11.162-15.895-3.974-66.508-46.83-81.76-64.527s-11.808-32.77-8.5-40.202c3.308-7.433 7.805-14.048 25.422-7.433q5.718 2.148 12.894 6.63-29.283-34.13-9.75-49.791 21.156-16.963 56.11 19.367-12.786-20.706-15.289-30.932c-4.026-16.443 2.588-29.379 11.73-33.596m66.1 77.833q-35.028-83.088-62.426-71.706-22.55 9.368 25.08 83.697l-.044-.07c9.202-4.247 16.44-5.277 18.167-5.277 3.082 0-18.579 7.611-34.077 22.305-9.763 9.257-19.71 23.467-26.377 32.814l-.624.876c-3.586 5.015-6.125 8.434-7.023 8.573-1.71.265 2.545-10.157 10.916-22.769a421 421 0 0 1-10.581-9.229q-21.994-16.416-34.806-21.293c-14.235-5.419-17.077-1.3-19.148 3.278l-.14.313-.208.47-.137.314-.277.624-.07.155c-2.34 5.154-1.738 22.196 19.98 42.687 21.719 20.49 60.739 49.723 68.483 51.669 7.743 1.946 35.676-.868 62.429-21.08 26.752-20.212 38.48-30.88 41.813-46.378s-2.21-29.185 0-41.747c1.658-9.422 2.716-15.4 3.955-21.082l.192-.872.097-.435.197-.87c.266-1.16.544-2.325.84-3.521 5.554-22.43 4.13-35.343-13.693-38.81q-36.003-7.005-35.89 78.295-7.12 9.312-10.1 16.325c-1.048 2.466-2.183 6.38-3.263 10.42l-.202.759-.3 1.139-.197.757c-1.704 6.55-3.18 12.665-3.818 12.665-.911 0 .283-9.491 2.135-19.207l.225-1.166c.355-1.814.73-3.623 1.118-5.367q2.547-11.458 7.73-24.703l-.253.648q-1.992-.66-3.178-.711c-7.715-.329-12.066.591-11.894 0 .154-.53 2.883-2.382 9.42-3.3q1.773-.25 5.836-.142-.045-4.154.082-8.147ZM71.29 259.19q-19.38 15.936 41.183 69.87c3.4-4.67 7.29-9.465 11.587-13.998 5.321-5.611 10.87-9.853 16.13-13.046Q90.58 243.33 71.29 259.19"/>
</g>

</g></svg>