<svg xmlns="http://www.w3.org/2000/svg" viewBox="0 0 120 120"><path fill="#fff" fill-rule="evenodd" d="M60 0c33.137 0 60 26.863 60 60s-26.863 60-60 60S0 93.137 0 60 26.863 0 60 0M31.316 85.357c2.075 5.838 5.286 15.2 17.987 19.95 10.69 4.02 25.663 4.735 34.29-6.362 1.91-2.396-.439-1.586-2.947-.636l-.29.11a20.84 20.84 0 0 1-19.487-3.754c-7.343-6.137-4.477-13.013-8.159-13.092-12.14-.261-18.471-5.015-21.747-9.06-.743-.953-1.892 6.547.353 12.844M74.51 28.335s-10.9 8.479-12.049 18.219c-.99 8.85 8.773 17.673 1.005 29.666-5.314 8.3 2.902 19.977 13.51 17.849 11.593-2.318 14.51-9.675 14.203-18.224-.404-10.853-4.72-13.878-14.281-22.02-10.391-8.799-2.388-25.49-2.388-25.49M48.846 7.2c2.61 5.825 6.944 18.84-6.227 30.294S28.083 70.76 45.805 75.021c17.974 4.36 15.9-12.516 11.905-21.261-3.708-8.118 3.159-16.6 4.059-21.838 1.559-9.05-7.176-19.023-11.095-22.973l-.292-.292A39 39 0 0 0 48.846 7.2"/></svg>