<svg xmlns="http://www.w3.org/2000/svg" viewBox="0 0 120 120"><path fill="#fff" fill-rule="evenodd" d="M108 0c6.627 0 12 5.373 12 12v96c0 6.627-5.373 12-12 12H12c-6.627 0-12-5.373-12-12V12C0 5.373 5.373 0 12 0zm4.324 72.353a4.206 4.206 0 0 0-5.82.764l-9.272 12.355-9.272-12.353a4.204 4.204 0 0 0-5.821-.765 4.18 4.18 0 0 0-.888 5.789l10.74 14.315-10.738 14.316a4.175 4.175 0 0 0 .886 5.787 4.21 4.21 0 0 0 5.823-.762l9.27-12.356 9.271 12.356a4.206 4.206 0 0 0 5.821.763 4.18 4.18 0 0 0 .889-5.79l-10.741-14.314 10.739-14.317a4.177 4.177 0 0 0-.887-5.788M10.196 54A4.194 4.194 0 0 0 6 58.097l.009 34.692c.186 11.388 9.498 20.565 20.964 20.565 8.03 0 15.003-4.502 18.527-11.111 3.524 6.61 10.497 11.111 18.527 11.111C75.61 113.354 85 103.991 85 92.443c0-11.55-9.39-20.912-20.972-20.912-8.03 0-15.004 4.502-18.528 11.11a20.97 20.97 0 0 0-18.527-11.11c-4.72 0-9.075 1.555-12.58 4.18l-.002-17.614A4.19 4.19 0 0 0 10.196 54m16.777 25.9c6.948 0 12.58 5.615 12.58 12.543s-5.632 12.542-12.58 12.542-12.58-5.615-12.58-12.542c0-6.928 5.632-12.543 12.58-12.543m37.055 0c6.947 0 12.58 5.614 12.58 12.542s-5.633 12.543-12.58 12.543c-6.948 0-12.58-5.615-12.58-12.543S57.08 79.9 64.028 79.9"/></svg>