<svg xmlns="http://www.w3.org/2000/svg" viewBox="0 0 120 120"><g fill="#fff" fill-rule="evenodd"><path d="M29.363 97c-9.195 0-17.402-4.138-22.786-10.616L67.66 60.75l47.497 26.742C110.97 92.954 104.648 97 97.5 96.968 86.72 97 45.235 97 29.363 97" opacity=".4"/><path d="M95.918 49.43 67.66 60.75l47.497 26.742c3.041-3.968 4.843-8.899 4.843-14.241 0-13.055-10.756-23.65-24.064-23.75z" opacity=".6"/><path d="M26.491 39.635 67.658 60.75l28.258-11.32C91.893 33.672 77.338 22 59.998 22c-13.446 0-25.217 7.019-31.701 17.518q-.91.032-1.806.117"/><path d="M6.576 86.382 67.659 60.75 26.492 39.635C11.622 41.047 0 53.319 0 68.249c0 6.875 2.464 13.186 6.576 18.133" opacity=".8"/></g></svg>