<svg xmlns="http://www.w3.org/2000/svg" viewBox="0 0 120 120"><path fill="#fff" fill-rule="evenodd" d="M95.454 33.168v-.414C95.47 16.806 83.982 3.17 68.26.474c-15.723-2.696-31.1 6.333-36.4 21.374H60a10.91 10.91 0 0 1 10.909 10.906v5.573a35.3 35.3 0 0 1 19.09-5.573c1.855 0 3.677.141 5.455.414m-30 86.832c-12.05 0-21.818-9.765-21.818-21.812H60c6.024 0 10.909-4.882 10.909-10.905v-10.22c10.611 2.773 17.518 12.986 16.136 23.864S76.422 119.968 65.454 120m5.455-48.53c12.653 2.586 21.76 13.687 21.818 26.598a29.987 29.987 0 0 0 13.131-55.324 30.01 30.01 0 0 0-34.95 2.322zM0 87.282v-54.53a5.454 5.454 0 0 1 5.455-5.452H60a5.454 5.454 0 0 1 5.454 5.453v54.529A5.454 5.454 0 0 1 60 92.736H5.455A5.454 5.454 0 0 1 0 87.283m31.194-46.186c4.746-.595 10.124.37 13.566 1.357l-2.248 7.863c-2.918-.834-7.09-1.505-10.298-1.101-1.598.202-2.525.616-2.983.992-.284.235-.595.584-.595 1.63 0 .382.098.906 1.304 1.778 1.32.966 3.223 1.8 5.716 2.825l.382.164c2.176.894 4.838 1.995 6.938 3.446 2.324 1.603 4.75 4.182 4.75 8.146 0 3.736-1.308 6.85-4.04 8.867-2.483 1.838-5.537 2.312-8.128 2.377-2.667.066-5.471-.294-7.91-.687-1.063-.169-2.012-.338-2.88-.49a71 71 0 0 0-3.457-.557l1.014-8.114c1.206.148 2.706.41 4.19.671.834.147 1.663.29 2.432.415 2.33.376 4.527.632 6.404.588 1.952-.054 2.989-.425 3.463-.774.224-.163.731-.578.731-2.296v-.01c0-.142.006-.562-1.216-1.402-1.353-.938-3.273-1.74-5.804-2.78l-.054-.028c-2.275-.943-5.117-2.116-7.353-3.746-2.378-1.734-4.664-4.417-4.664-8.398 0-3.31 1.277-6.052 3.584-7.945 2.127-1.744 4.778-2.486 7.156-2.786z"/></svg>