<svg xmlns="http://www.w3.org/2000/svg" viewBox="0 0 120 120"><path fill="#fff" fill-rule="evenodd" d="M91.032 27.698C93.354 25.095 96.714 24 100.543 24c4.717 0 7.989.974 10.217 1.91.607.258.916.924.756 1.557l-1.368 5.448a1.388 1.388 0 0 1-1.959.892c-1.633-.77-3.895-1.552-7.646-1.552-2.279 0-3.05.616-3.338.935-1.142 1.277-1.17 3.088.254 3.963 2.096 1.293 4.452 2.09 6.808 2.883 2.18.738 4.358 1.475 6.344 2.609 2.097 1.189 5.104 3.489 5.104 7.495 0 3.704-1.176 7.21-4.298 9.592-2.902 2.213-6.786 2.884-10.968 2.79-5.219-.12-8.882-1.27-11.056-2.25a1.29 1.29 0 0 1-.563-1.816l2.676-4.816c.37-.66 1.208-.902 1.92-.627 1.374.528 3.724 1.172 7.21 1.255 3.41.082 5.043-.55 5.755-1.096 1.236-.935 1.445-2.608.116-3.362-2.025-1.156-4.22-1.904-6.422-2.653-2.394-.82-4.8-1.64-6.973-2.977-2.235-1.376-4.982-3.819-4.982-7.798 0-2.944.656-6.174 2.902-8.684m-26.03-3.456h-8.915L49.632 48.21l-5.781-23.675h-8.48l9.6 37.988h8.998l6.576-21.864 6.576 21.864h8.993l9.848-37.988h-8.717l-5.793 23.675zm48.401 51.279c-.855-.963-4.789-.633-8.568-.308-3.751.313-7.348.622-7.635-.369-.58-1.987 17.46-6.593 21.919-2.988 3.878 3.137-6.135 21.66-8.894 20.164-.551-.298.276-2.532 1.28-5.3 1.512-4.127 3.454-9.438 1.898-11.199M59.204 88.255c-24.975 0-42.872-8.629-52.118-13.086-3.868-1.871-6.218-3-6.94-2.46C-2.289 74.525 26.206 97 59.203 97c28.86 0 53.824-15.547 50.172-17.61-1.308-.738-4.044.181-8.463 1.667-7.956 2.68-21.362 7.198-41.709 7.198m-41.416-56c2.781 0 4.839.583 6.047 1.233 1.269.676 1.092 2.52.938 4.083q-.075.65-.088 1.304c-2.08-.578-4.613-1.117-6.897-1.117-4.65 0-8.59 1.546-11.331 4.513-2.704 2.916-3.84 6.752-3.84 10.62 0 2.092.535 4.007 1.688 5.598 1.131 1.568 2.632 2.498 4.016 3.048 2.483.99 5.236.99 6.549.985h.16c4.121 0 8.303-1.766 11.106-3.208l.629-.33a18 18 0 0 0 2.344 3.038c4.281-.578 5.628-1.723 5.848-5.84-.783-.88-1.42-1.879-1.887-2.96a2.3 2.3 0 0 1-.11-.369V33.631c0-3.666-2.791-6.125-5.219-7.424C25.093 24.792 21.628 24 17.788 24c-2.284 0-6.123.974-9.009 1.904a2.636 2.636 0 0 0-1.793 2.785l.188 1.942c.198 2.02 2.538 3.297 4.49 2.719 2.202-.65 4.607-1.095 6.124-1.095m6.897 15.255v3.153q-1.146.697-2.34 1.31c-2.543 1.31-5.257 2.295-7.315 2.295-.706 0-1.38 0-2.063-.066-3.487-.33-2.77-3.803-.43-6.33.915-.99 2.493-1.86 5.251-1.86 1.545 0 3.79.518 5.937 1.19z"/></svg>