<svg xmlns="http://www.w3.org/2000/svg" viewBox="0 0 120 120"><path fill="#fff" fill-rule="evenodd" d="M17.375 25.418c.605-.416.86-.416 1.592-.032.464.248 4.213 3.9 9.165 8.845l1.47 1.47c10.996 11.016 26.536 26.961 26.536 27.447 0 .384-.255.896-.542 1.184-.43.432-2.227.527-14.494.542h-.833l-.429.001h-.881l-.453.001h-5.154l-.433-.001-.841-.001c-10.6-.013-13.445-.085-14.374-.373l-.068-.023-.032-.011-.058-.025-.052-.025-.046-.026-.042-.027-.732-.544V25.93ZM60.31-3c.191 0 .67.224 1.083.512l.765.544v31.922l-.001.63v1.231c-.013 17.004-.098 23.655-.333 24.98l-.017.086q-.03.134-.063.163c-.223.224-.701.416-1.083.416-.797 0-30.291-29.442-30.291-30.242 0-.256 6.657-7.169 14.81-15.361a1459 1459 0 0 1 4.847-4.866l.848-.846C56.263.795 60.166-3 60.31-3m37.298 44.003c.57 0 2.638 1.864 9.113 8.33l.592.592q.905.906 1.921 1.927C115.16 57.836 120 62.892 120 63.116s-.287.704-.669 1.088c-.568.572-.976.657-13.663.67h-.916l-.474.001-2.001.001H96.66c-13.098-.006-20.084-.134-20.488-.352-.414-.224-.637-.704-.637-1.248 0-.097.03-.215.1-.365l.048-.094c.581-1.094 3.057-3.716 10.459-11.125q1.347-1.359 2.497-2.511l.837-.838c5.678-5.67 7.563-7.34 8.132-7.34m-7.603-19.49.452.001h1.3l.414.001h.805c9.445.012 11.468.076 12.06.408l.046.028c.1.067.154.145.203.235.19.352.35.768.35.896 0 .16-7.644 7.968-16.977 17.345a2148 2148 0 0 1-3.01 3.02l-.709.707c-8.971 8.968-13.536 13.33-13.958 13.33-.383 0-.86-.192-1.083-.416-.281-.282-.425-8.586-.43-17.05V38.98c.005-8.464.149-16.768.43-17.05.31-.281 4.463-.41 16.736-.416ZM60.438 77.966c.255 0 .764.256 1.083.576a1 1 0 0 1 .067.066l.031.036.016.019.03.041c.4.592.48 2.386.491 13.328v.817l.001.421v18.618l-.764.512-.046.03c-.637.387-2.664.47-13.292.481l-1.249.001h-2.693c-8.852-.008-15.066-.134-15.559-.32-.637-.224-.86-.576-.86-1.248 0-.768 2.644-3.584 16.15-17.153 8.854-8.896 16.339-16.225 16.594-16.225m-31.654-7.048 1.62.001c12.666.014 24.646.133 25.065.359l.046.025.088.05c1.38.81.429 1.855-13.289 15.638-7.58 7.616-14.014 13.825-14.301 13.825-.255 0-6.689-6.209-14.27-13.857C-.27 72.877-.908 72.14.525 71.277c.406-.235 13.392-.355 26.637-.36zm42.388 7.08c.313-.013 4.026 3.551 8.3 7.815l.628.628c6.007 6.013 12.826 13.105 12.826 13.543 0 .464-5.255 5.968-10.626 11.356l-.645.646C76.498 117.141 71.424 122 70.981 122c-.383 0-.86-.192-1.083-.416-.275-.276-.374-5.119-.382-19.599v-7.468c.01-13.754.076-15.667.48-16.095l.03-.028.03-.024.033-.02c.318-.193.796-.353 1.083-.353m18.38-7.072h1.215c8.84.01 10.064.097 10.568.544l.043.042.04.044.039.047c.412.54.474 1.819.482 9.752v1.123l.001.394v1.662c-.005 7.426-.131 11.873-.35 12.281-.796 1.536-1.56.928-13.951-11.52-12.295-12.385-12.964-13.153-11.53-14.017.35-.192 5.064-.32 12.581-.352Z"/></svg>