<svg xmlns="http://www.w3.org/2000/svg" viewBox="0 0 120 120"><g fill="#fff" fill-rule="evenodd"><path fill-opacity=".5" d="M47 3a5.62 5.62 0 0 0-5.378 3.924L7.332 108.45a5.64 5.64 0 0 0 .701 5.158 5.65 5.65 0 0 0 4.629 2.39h28.35a6.06 6.06 0 0 0 4.65-3.953l6.838-20.14 24.426 22.768a5.78 5.78 0 0 0 3.636 1.325h31.768L98.397 76.21l-40.616.01L82.639 3z"/><path d="M78.686 6.843A5.65 5.65 0 0 0 73.33 3H33.752a5.65 5.65 0 0 1 5.357 3.843l34.347 101.7a5.65 5.65 0 0 1-.764 5.102A5.66 5.66 0 0 1 68.099 116h39.578c1.82 0 3.53-.878 4.592-2.356a5.65 5.65 0 0 0 .764-5.102z"/></g></svg>