<svg xmlns="http://www.w3.org/2000/svg" viewBox="0 0 3630 300">
<g fill="none">
<g fill-rule="evenodd">
<path fill="#1a6ee4" d="M59.288 0h182.421c32.36 0 58.594 26.233 58.594 58.594v154.971H.693V58.594C.694 26.234 26.928 0 59.289 0"/>
<path stroke="#000" stroke-width="1.087" d="M0 133.975c.208-5.069.662-10.181 2.029-15.19 1.388-5.084 3.65-9.818 7.22-14.435 3.507-4.541 8.089-8.696 13.557-12.3 5.466-3.603 11.772-6.62 18.661-8.932 7.009-2.352 14.19-3.844 21.908-4.758 7.606-.902 15.364-1.198 23.055-1.336 3.53-.064 7.058-.09 10.59-.102 4.192-.018 8.381-.018 12.573-.018h81.814c4.192 0 8.381 0 12.574.018 3.53.014 7.061.04 10.59.102 7.69.138 15.448.437 23.054 1.336 7.715.914 14.896 2.406 21.908 4.758 6.889 2.312 13.195 5.332 18.66 8.933 5.467 3.603 10.051 7.758 13.559 12.299 3.568 4.62 5.831 9.351 7.22 14.434 1.366 5.013 1.82 10.125 2.028 15.19"/>
<path fill="#858b90" d="M289.41 210.77c-.22 5.042-.656 10.987-1.696 16.782-1.253 6.97-3.279 13.148-6.2 18.89a62.7 62.7 0 0 1-11.547 15.906 62.7 62.7 0 0 1-15.894 11.554c-5.738 2.921-11.913 4.951-18.878 6.205-7.369 1.325-14.93 1.682-21.354 1.858-2.998.082-6.177.129-10.308.152-3.584.024-7.106.024-11.011.024h-84.264c-3.902 0-7.427 0-11.005-.024-4.136-.023-7.316-.07-10.314-.152-6.426-.176-13.988-.53-21.354-1.858-6.965-1.254-13.14-3.28-18.877-6.205a62.6 62.6 0 0 1-15.895-11.554 62.7 62.7 0 0 1-11.546-15.906c-2.922-5.742-4.948-11.92-6.2-18.89-1.043-5.795-1.476-11.742-1.696-16.782-.05 1.166-.09 2.283-.123 3.34l-.009.31.009.329c.173 5.62.536 12.987 1.818 20.121 1.253 6.97 3.279 13.148 6.2 18.89a62.7 62.7 0 0 0 11.547 15.906 62.7 62.7 0 0 0 15.895 11.555c5.738 2.92 11.912 4.95 18.877 6.205 7.369 1.324 14.931 1.681 21.354 1.857 2.998.082 6.18.129 10.314.152 3.578.024 7.1.024 11.005.024h84.264c3.903 0 7.427 0 11.01-.024 4.132-.023 7.311-.07 10.31-.152 6.425-.176 13.987-.53 21.353-1.857 6.965-1.254 13.14-3.284 18.878-6.205a62.6 62.6 0 0 0 15.894-11.555 62.7 62.7 0 0 0 11.547-15.905c2.921-5.743 4.947-11.921 6.2-18.891 1.283-7.134 1.646-14.499 1.818-20.121l.01-.31-.01-.329a277 277 0 0 0-.123-3.34"/>
<path fill="#fff" d="m300.194 214.427.018-.645h-.038c-.223-7.233-.697-14.514-1.98-21.662-1.378-7.682-3.63-14.83-7.18-21.809a73.3 73.3 0 0 0-13.488-18.577 73.4 73.4 0 0 0-18.564-13.497c-6.974-3.55-14.118-5.806-21.794-7.186-7.565-1.363-15.282-1.81-22.935-2.019a486 486 0 0 0-10.533-.155c-4.17-.026-8.338-.024-12.51-.024H109.8c-4.168 0-8.337 0-12.51.024-3.512.02-7.023.061-10.533.155-7.65.208-15.367.66-22.935 2.019-7.676 1.38-14.82 3.633-21.793 7.186a73.3 73.3 0 0 0-18.564 13.497 73.4 73.4 0 0 0-13.488 18.577c-3.548 6.979-5.803 14.127-7.182 21.809-1.282 7.146-1.756 14.429-1.979 21.662H.78l.018.645-.018.644h.038c.223 7.234.697 14.514 1.98 21.662 1.378 7.682 3.63 14.83 7.18 21.809a73.3 73.3 0 0 0 13.489 18.577 73.4 73.4 0 0 0 18.564 13.497c6.973 3.55 14.117 5.807 21.793 7.187 7.565 1.362 15.282 1.81 22.935 2.018 3.51.097 7.023.135 10.534.155 4.169.027 8.338.024 12.51.024h81.388c4.169 0 8.338 0 12.51-.024 3.513-.02 7.023-.061 10.533-.155 7.65-.208 15.367-.659 22.935-2.018 7.676-1.38 14.82-3.633 21.794-7.187a73.3 73.3 0 0 0 18.564-13.497 73.4 73.4 0 0 0 13.487-18.577c3.549-6.979 5.803-14.127 7.182-21.809 1.282-7.145 1.756-14.428 1.979-21.662h.038z"/>
<path fill="#fedc00" d="M289.532 214.107c-.173-5.619-.536-12.987-1.818-20.12-1.253-6.97-3.28-13.15-6.2-18.891a62.7 62.7 0 0 0-11.547-15.906 62.7 62.7 0 0 0-15.895-11.554c-5.738-2.924-11.912-4.951-18.877-6.205-7.369-1.325-14.93-1.682-21.354-1.858a454 454 0 0 0-6.915-.126h.243a17.27 17.27 0 0 1-14.384-8.478c-2.304-3.985-4.297-9.08-6.066-14.994a5.755 5.755 0 0 0-7.322-3.8l-77.23 25.617a34.2 34.2 0 0 1-8.558 1.658h.24a389 389 0 0 0-6.912.126c-6.426.176-13.986.53-21.355 1.858-6.964 1.253-13.139 3.28-18.877 6.205a62.6 62.6 0 0 0-15.894 11.554A62.7 62.7 0 0 0 19.264 175.1c-2.921 5.742-4.947 11.92-6.2 18.89-1.283 7.134-1.646 14.5-1.818 20.121l-.01.31.01.329c.172 5.62.535 12.987 1.818 20.121 1.253 6.97 3.279 13.148 6.2 18.89a62.7 62.7 0 0 0 11.547 15.906 62.7 62.7 0 0 0 15.894 11.555c5.738 2.92 11.913 4.95 18.877 6.205 7.37 1.324 14.931 1.681 21.355 1.857 2.998.082 6.18.129 10.314.152 3.577.024 7.1.024 11.005.024h84.263c3.902 0 7.427 0 11.01-.024 4.132-.023 7.311-.07 10.309-.152 6.426-.176 13.988-.53 21.354-1.857 6.965-1.254 13.14-3.285 18.877-6.205a62.6 62.6 0 0 0 15.895-11.555 62.7 62.7 0 0 0 11.546-15.905c2.922-5.743 4.948-11.921 6.2-18.891 1.283-7.134 1.646-14.499 1.819-20.121l.009-.31-.009-.329z"/>
<path fill="#fff198" d="M127.821 136.684q19.882 8.496 33.169 3.664c13.286-4.831 23.643-20.775 21.565-22.158q-2.078-1.383-54.734 18.494"/>
<path fill="#e16006" d="M150.498 293.968c-40.904 0-91.538-10.565-91.538-31.029 0-10.35 20.162-8.326 36.327-18.299 12.742-7.86 32.524-33.207 55.211-33.207 22.688 0 42.467 25.347 55.212 33.207 16.165 9.973 36.327 7.949 36.327 18.3 0 20.463-50.634 31.028-91.539 31.028"/>
<path fill="#df5f06" d="M150.498 293.968c-43.078 0-88.641-14.479-88.641-31.029 0-1.142.351-2.387 2.906-3.776 2.496-1.356 6.189-2.37 10.464-3.548 6.397-1.758 14.36-3.946 21.532-8.373 3.887-2.396 8.156-6.129 13.096-10.447 11.389-9.952 25.561-22.34 40.64-22.34s29.252 12.388 40.639 22.343c4.942 4.318 9.209 8.048 13.095 10.447 7.172 4.427 15.135 6.615 21.532 8.373 4.275 1.175 7.971 2.191 10.464 3.548 2.555 1.389 2.906 2.634 2.906 3.776 0 16.55-45.563 31.029-88.638 31.029z"/>
<path fill="#4a2002" d="M64.456 262.008c.011.058.032.184.055.28q.037.16.082.317.091.318.208.636.237.634.553 1.236c.424.803.942 1.562 1.53 2.26 1.174 1.403 2.61 2.586 4.182 3.565 3.155 1.954 6.763 3.178 10.456 3.963 3.699.786 7.5 1.19 11.319 1.328 3.816.129 7.667.076 11.474-.205 3.813-.264 7.58-.818 11.337-1.524 3.757-.715 7.506-1.655 11.348-2.525 3.836-.88 7.775-1.603 11.743-2.066 3.971-.46 7.963-.653 11.94-.656 1.993.012 3.991.07 5.993.202 2.002.14 4.01.346 6.005.66 1.993.307 3.974.708 5.914 1.168 1.943.457 3.842.99 5.715 1.494 3.743 1.029 7.427 1.922 11.193 2.555 3.76.636 7.568 1.102 11.41 1.38 3.84.275 7.702.46 11.574.542l2.9.044c.933.006 1.86-.044 2.788-.117a29 29 0 0 0 5.481-.964 27 27 0 0 0 9.85-5.118 28.7 28.7 0 0 0 5.678-6.27c.263-.392.512-.797.752-1.2.237-.402.474-.833.658-1.22l.012-.026a.724.724 0 0 1 1.328.577c-.199.51-.403.95-.629 1.41q-.334.679-.714 1.332a29 29 0 0 1-1.636 2.534 29 29 0 0 1-4.017 4.518 29 29 0 0 1-4.896 3.621 29 29 0 0 1-5.58 2.502 31.6 31.6 0 0 1-5.97 1.336 33 33 0 0 1-3.047.246l-2.95.1c-3.924.108-7.86.146-11.807-.018-3.945-.15-7.904-.463-11.852-1.02-1.97-.29-3.936-.644-5.885-1.051s-3.877-.87-5.776-1.342c-3.805-.943-7.468-1.88-11.194-2.4a76 76 0 0 0-5.624-.582 97 97 0 0 0-5.695-.17c-1.908 0-3.818.032-5.72.129-1.903.096-3.799.249-5.69.45-3.783.39-7.529 1.073-11.31 1.846-3.78.777-7.617 1.656-11.538 2.318a89 89 0 0 1-11.878 1.242c-3.977.144-7.936.106-11.905-.22-3.962-.325-7.93-.89-11.813-1.933-1.94-.528-3.857-1.166-5.718-1.975-1.858-.803-3.667-1.772-5.329-2.976-1.66-1.202-3.19-2.625-4.404-4.313a14.7 14.7 0 0 1-1.542-2.71 12 12 0 0 1-.524-1.482 10 10 0 0 1-.182-.777 6 6 0 0 1-.064-.401c-.017-.144-.032-.258-.045-.442a.723.723 0 0 1 1.432-.17l.015.073z"/>
<path fill="#eaba47" d="M83.905 177.267c16.81 0 30.46 11.267 30.46 25.145s-13.65 25.146-30.46 25.146-30.459-11.268-30.459-25.146 13.65-25.145 30.46-25.145m131.176 0c16.81 0 30.46 11.267 30.46 25.145s-13.65 25.146-30.46 25.146-30.459-11.268-30.459-25.146 13.65-25.145 30.46-25.145"/>
<path fill="#fff" d="M83.907 176.15c15.478 0 28.044 10.374 28.044 23.154s-12.566 23.15-28.044 23.15-28.044-10.374-28.044-23.15c0-12.777 12.566-23.154 28.044-23.154m131.173 0c15.478 0 28.044 10.374 28.044 23.154s-12.566 23.15-28.044 23.15-28.043-10.374-28.043-23.15c0-12.777 12.566-23.154 28.043-23.154"/>
<path fill="#000" d="M90.435 189.741c6.073 0 11.005 4.072 11.005 9.088s-4.932 9.088-11.005 9.088-11.005-4.072-11.005-9.088 4.932-9.088 11.005-9.088m118.162-.123c6.114 0 11.078 4.099 11.078 9.15 0 5.05-4.964 9.149-11.078 9.149s-11.078-4.099-11.078-9.15c0-5.05 4.964-9.149 11.078-9.149"/>
</g>
<path fill="#fff" d="M501 285.16V10h110.989l67.44 210.416-26.205.386L724.134 10h105.979v275.16h-79.388V66.265l16.571 2.312-75.149 216.583h-61.275L559.577 76.285l13.874-2.312V285.16zm477.483 5.395q-37.382 0-63.587-13.103t-40.08-36.803-13.873-54.531q0-18.499 4.817-34.492t14.837-28.903q10.02-12.91 24.279-22.16 14.259-9.248 32.757-14.066 18.498-4.817 40.85-4.817 37.767 0 63.973 13.296t39.886 36.803 13.681 54.339q0 18.498-5.01 34.684t-14.644 28.903-23.893 21.966q-14.26 9.25-32.95 14.067t-41.043 4.817m0-53.953q8.093 0 14.452-2.12 6.358-2.12 11.176-6.55 4.817-4.433 8.093-10.406t4.817-14.066q1.54-8.093 1.541-17.342 0-15.8-4.432-27.17-4.431-11.369-13.295-17.342t-22.352-5.973q-8.093 0-14.644 2.12-6.553 2.12-10.984 6.551-4.432 4.432-7.9 10.405-3.468 5.974-5.01 13.874-1.54 7.9-1.541 17.535 0 15.8 4.432 27.169 4.431 11.369 13.488 17.342t22.159 5.973m217.738 53.953q-19.268 0-33.527-6.166-14.259-6.165-23.316-17.342-9.056-11.175-13.295-26.591t-4.24-34.299V87.076h76.69v105.208q0 12.332 3.47 21.195 3.467 8.865 10.597 13.681 7.13 4.818 17.15 4.818 13.102 0 21.388-5.588 8.285-5.589 12.332-15.608 4.046-10.02 4.046-22.737V87.075h76.69V285.16h-76.69v-51.256l7.322 8.479q-10.405 24.278-31.215 36.225t-47.402 11.947m184.596-5.395V87.076h77.076v51.255l-7.322-8.864q6.937-15.8 18.883-26.398 11.947-10.599 27.747-15.993 15.801-5.396 33.528-5.396 19.655 0 34.106 6.166t23.508 17.15 13.681 26.59q4.625 15.609 4.625 34.877V285.16h-76.69V179.952q0-12.718-3.854-21.389t-11.176-13.488-18.113-4.817q-12.717 0-21.581 5.588-8.864 5.587-13.103 15.415-4.24 9.827-4.24 22.159v101.74zm354.933 0q-31.215 0-49.328-17.342-18.113-17.343-18.113-47.016V33.508h76.305v169.566q0 13.102 6.744 21.003t20.618 7.9h27.362v53.183zM1629 140.258V87.076h45.475v53.182zm109.448 0V87.076h60.89v53.182zm148.756 150.297q-31.987 0-50.292-15.415t-18.306-41.62q0-18.114 8.671-31.217t26.592-21.773 45.281-12.525l43.163-5.78q7.707-1.158 11.946-5.01 4.24-3.855 4.24-10.406v-.385q0-5.78-3.276-9.442t-9.25-5.395q-5.972-1.735-14.065-1.735-12.332 0-20.426 2.89-8.092 2.892-9.634 10.984h-74.763q3.854-21.967 18.113-35.647 14.258-13.68 36.996-20.04 22.737-6.36 51.64-6.359 33.528 0 55.88 8.286t33.335 25.627q10.984 17.343 10.984 45.09V285.16h-71.68v-49.714l7.707 8.478q-7.323 15.801-19.269 26.013-11.947 10.213-27.747 15.415-15.8 5.203-35.84 5.203m28.132-51.255q10.02 0 18.113-3.661t13.874-9.827 8.478-13.296 2.698-14.452v-25.82l10.79 14.259q-3.468 5.01-10.02 7.515-6.55 2.505-20.81 5.588l-24.664 5.01q-9.634 2.312-14.452 6.937-4.817 4.624-4.817 11.176 0 8.092 5.78 12.332 5.781 4.239 15.03 4.239m152.61 45.86V87.076h77.075V285.16zm0-220.822V10h76.69v54.338zm112.916 220.822V87.076h77.075v51.255l-7.322-8.864q6.936-15.8 18.883-26.398 11.947-10.599 27.748-15.993 15.8-5.396 33.527-5.396 19.655 0 34.106 6.166t23.508 17.15 13.681 26.59q4.625 15.609 4.625 34.877V285.16h-76.69V179.952q0-12.718-3.854-21.389t-11.176-13.488-18.113-4.817q-12.717 0-21.581 5.588-8.864 5.587-13.103 15.415t-4.239 22.159v101.74zm361.098 0V10h147.6q28.903 0 54.531 9.056 25.628 9.057 45.282 26.591 19.655 17.535 30.83 42.97t11.176 58.963q0 26.976-7.322 48.557-7.323 21.582-20.232 38.346-12.91 16.763-30.83 27.94-17.92 11.175-38.924 16.956t-44.51 5.78zm80.544-62.431h58.192q8.865 0 18.113-2.313 9.249-2.311 18.306-7.515 9.055-5.203 15.993-13.873 6.936-8.67 10.983-21.389 4.047-12.717 4.047-30.06 0-21.58-6.36-36.225-6.357-14.644-16.378-23.122-10.02-8.479-21.774-12.14-11.754-3.66-22.93-3.66h-58.192zm310.23 67.826q-19.269 0-33.528-6.166-14.259-6.165-23.316-17.342-9.056-11.175-13.295-26.591t-4.24-34.299V87.076h76.69v105.208q0 12.332 3.47 21.195 3.467 8.865 10.597 13.681 7.13 4.818 17.15 4.818 13.102 0 21.388-5.588 8.285-5.589 12.332-15.608 4.046-10.02 4.046-22.737V87.075h76.69V285.16h-76.69v-51.256l7.323 8.479q-10.405 24.278-31.216 36.225-20.81 11.947-47.402 11.947m293.272 0q-36.997 0-63.202-13.488t-40.08-36.996q-13.872-23.51-13.873-53.953 0-18.498 5.01-34.299t14.837-28.71 24.086-22.16 32.565-14.259 40.657-5.01q33.143 0 56.843 8.864t37.382 25.435q13.68 16.571 16.764 41.235h-77.076q-2.312-7.322-7.322-12.14-5.01-4.816-11.754-7.129t-15.222-2.312q-7.709 0-14.067 2.12t-11.176 6.166q-4.817 4.045-7.9 10.02-3.083 5.973-4.624 13.873-1.542 7.9-1.542 17.92 0 16.186 4.432 27.555 4.431 11.369 13.488 17.342t21.389 5.973q12.33 0 21.388-5.395 9.057-5.395 13.296-15.415h77.46q-3.082 21.966-16.185 38.73t-37.19 26.399-58.384 9.634m139.507-5.395V10h76.304v173.035l-18.498-4.625 81.315-91.334h86.71l-80.159 84.783q12.333 4.625 21.004 12.139 8.67 7.515 17.92 21.389l52.796 79.773h-86.324l-33.528-53.182q-5.396-9.249-13.296-10.02-7.901-.771-15.607 7.707l-28.904 31.987 16.571-54.724v78.232z"/>
</g>
</svg>