<svg xmlns="http://www.w3.org/2000/svg" viewBox="0 0 1481 874">
<g fill="none">

<g class="logo-mark" fill-rule="evenodd">
<path fill="#1a6ee4" d="M623.073 0h236.85c42.069 0 76.172 34.103 76.172 76.172v201.463H546.9V76.172C546.901 34.103 581.005 0 623.073 0"/>
<path stroke="#000" stroke-width="1.413" d="M546 174.167c.27-6.589.86-13.235 2.635-19.748 1.803-6.608 4.743-12.762 9.379-18.765 4.556-5.903 10.507-11.303 17.612-15.988 7.1-4.685 15.291-8.607 24.24-11.612 9.104-3.059 18.433-4.997 28.458-6.186 9.88-1.173 19.958-1.557 29.949-1.736 4.586-.084 9.169-.118 13.755-.134 5.446-.022 10.888-.022 16.334-.022h106.276c5.446 0 10.888 0 16.334.022 4.586.02 9.173.054 13.755.134 9.99.179 20.069.567 29.949 1.736 10.021 1.189 19.35 3.127 28.458 6.186 8.949 3.005 17.14 6.931 24.24 11.612 7.1 4.685 13.056 10.085 17.612 15.988 4.636 6.007 7.576 12.157 9.379 18.765 1.776 6.517 2.365 13.163 2.635 19.748"/>
<path fill="#858b90" d="M921.944 274.002c-.285 6.554-.852 14.282-2.202 21.815-1.628 9.06-4.26 17.093-8.055 24.558a81.5 81.5 0 0 1-14.999 20.677 81.4 81.4 0 0 1-20.647 15.02c-7.454 3.798-15.474 6.437-24.522 8.068-9.572 1.721-19.395 2.186-27.739 2.414-3.894.107-8.024.168-13.39.198-4.655.03-9.23.03-14.303.03H686.628c-5.07 0-9.648 0-14.295-.03-5.374-.03-9.504-.091-13.398-.198-8.348-.228-18.171-.69-27.74-2.414-9.047-1.63-17.068-4.266-24.522-8.067a81.3 81.3 0 0 1-20.646-15.021 81.5 81.5 0 0 1-15-20.677c-3.795-7.465-6.426-15.497-8.054-24.558-1.354-7.533-1.917-15.265-2.202-21.815a357 357 0 0 0-.16 4.341l-.011.404.011.427c.225 7.305.696 16.883 2.362 26.157 1.628 9.06 4.26 17.093 8.055 24.558a81.5 81.5 0 0 0 14.999 20.677 81.4 81.4 0 0 0 20.646 15.02c7.454 3.798 15.475 6.437 24.522 8.067 9.572 1.722 19.396 2.187 27.74 2.415 3.894.107 8.028.168 13.398.198 4.647.03 9.222.03 14.295.03h109.459c5.07 0 9.648 0 14.303-.03 5.366-.03 9.496-.091 13.39-.198 8.348-.228 18.171-.69 27.74-2.415 9.047-1.63 17.067-4.269 24.521-8.066a81.3 81.3 0 0 0 20.647-15.021 81.5 81.5 0 0 0 15-20.677c3.795-7.465 6.426-15.497 8.054-24.558 1.666-9.274 2.137-18.849 2.362-26.157l.011-.404-.011-.427a360 360 0 0 0-.16-4.341"/>
<path fill="#fff" d="m935.953 278.755.023-.838h-.05c-.289-9.404-.905-18.868-2.57-28.161-1.792-9.986-4.716-19.28-9.33-28.351a95.344 95.344 0 0 0-41.635-41.696c-9.058-4.617-18.338-7.55-28.31-9.343-9.826-1.771-19.85-2.354-29.792-2.624-4.56-.126-9.123-.175-13.683-.202-5.415-.034-10.83-.03-16.25-.03H688.633c-5.416 0-10.831 0-16.25.03-4.564.027-9.124.08-13.684.202-9.937.27-19.962.857-29.792 2.624-9.972 1.794-19.251 4.723-28.31 9.342a95.2 95.2 0 0 0-24.115 17.547 95.5 95.5 0 0 0-17.52 24.15c-4.61 9.072-7.537 18.365-9.329 28.351-1.665 9.29-2.281 18.757-2.57 28.16h-.05l.023.839-.023.838h.05c.289 9.403.905 18.867 2.57 28.16 1.792 9.986 4.716 19.28 9.33 28.351a95.343 95.343 0 0 0 41.635 41.696c9.058 4.617 18.337 7.55 28.309 9.343 9.827 1.771 19.851 2.354 29.792 2.625 4.56.125 9.124.175 13.684.201 5.415.035 10.83.031 16.25.031h105.723c5.415 0 10.83 0 16.25-.03 4.564-.027 9.123-.08 13.683-.202 9.937-.27 19.962-.857 29.793-2.625 9.971-1.793 19.25-4.722 28.31-9.342a95.2 95.2 0 0 0 24.114-17.546 95.5 95.5 0 0 0 17.52-24.15c4.61-9.073 7.538-18.366 9.33-28.352 1.665-9.289 2.281-18.757 2.57-28.16h.05z"/>
<path fill="#fedc00" d="M922.102 278.34c-.224-7.305-.696-16.884-2.361-26.158-1.628-9.06-4.26-17.093-8.055-24.558a81.5 81.5 0 0 0-15-20.677 81.4 81.4 0 0 0-20.646-15.02c-7.454-3.802-15.474-6.437-24.521-8.067-9.572-1.722-19.396-2.186-27.74-2.415a590 590 0 0 0-8.982-.164h.316a22.43 22.43 0 0 1-18.684-11.022c-2.993-5.18-5.583-11.803-7.88-19.492a7.47 7.47 0 0 0-3.716-4.479 7.47 7.47 0 0 0-5.796-.46l-100.322 33.301a44.3 44.3 0 0 1-11.117 2.156h.312c-3.335.034-6.256.088-8.979.164-8.347.228-18.167.69-27.739 2.415-9.047 1.63-17.068 4.265-24.521 8.066a81.3 81.3 0 0 0-20.647 15.021 81.5 81.5 0 0 0-14.999 20.677c-3.795 7.465-6.427 15.497-8.055 24.558-1.665 9.274-2.137 18.849-2.361 26.157l-.012.404.012.427c.224 7.304.696 16.883 2.361 26.157 1.628 9.06 4.26 17.093 8.055 24.558a81.5 81.5 0 0 0 15 20.677 81.4 81.4 0 0 0 20.646 15.02c7.453 3.798 15.474 6.437 24.521 8.067 9.572 1.722 19.396 2.186 27.74 2.415 3.894.107 8.027.168 13.397.198 4.648.03 9.223.03 14.296.03h109.457c5.07 0 9.649 0 14.303-.03 5.367-.03 9.497-.091 13.39-.198 8.348-.229 18.172-.69 27.74-2.415 9.047-1.63 17.068-4.27 24.522-8.066a81.3 81.3 0 0 0 20.646-15.021 81.5 81.5 0 0 0 14.999-20.677c3.795-7.465 6.427-15.497 8.055-24.558 1.665-9.274 2.137-18.849 2.361-26.157l.012-.404-.012-.427z"/>
<path fill="#fff198" d="M712.167 177.69q25.848 11.043 43.12 4.763c17.272-6.28 30.735-27.008 28.034-28.806q-2.7-1.799-71.154 24.043"/>
<path fill="#e16006" d="M741.498 382.158c-53.108 0-118.85-13.734-118.85-40.337 0-13.456 26.178-10.824 47.166-23.788 16.543-10.219 42.227-43.17 71.684-43.17s55.137 32.951 71.684 43.17c20.988 12.964 47.166 10.332 47.166 23.788 0 26.603-65.741 40.337-118.85 40.337"/>
<path fill="#df5f06" d="M741.498 382.158c-55.931 0-115.089-18.822-115.089-40.337 0-1.485.456-3.104 3.773-4.91 3.241-1.762 8.036-3.08 13.587-4.611 8.306-2.285 18.644-5.13 27.956-10.885 5.046-3.116 10.59-7.968 17.003-13.582 14.787-12.938 33.188-29.04 52.766-29.04 19.579 0 37.98 16.102 52.763 29.044 6.417 5.614 11.957 10.462 17.003 13.582 9.312 5.754 19.65 8.6 27.956 10.884 5.55 1.528 10.35 2.85 13.587 4.613 3.316 1.805 3.772 3.424 3.772 4.909 0 21.515-59.157 40.337-115.085 40.337z"/>
<path fill="#4a2002" d="M629.783 340.61c.015.076.042.24.072.366.03.137.069.274.107.411.08.274.167.552.27.826q.307.824.718 1.608a16.6 16.6 0 0 0 1.987 2.936c1.523 1.824 3.389 3.363 5.43 4.635 4.095 2.54 8.78 4.132 13.575 5.153 4.802 1.02 9.738 1.546 14.696 1.725 4.954.168 9.954.1 14.897-.266 4.951-.343 9.84-1.063 14.72-1.98 4.878-.93 9.745-2.152 14.734-3.284 4.98-1.142 10.095-2.083 15.247-2.685 5.156-.598 10.338-.849 15.501-.853 2.588.015 5.183.092 7.782.263 2.598.183 5.205.45 7.796.857 2.588.4 5.16.922 7.679 1.52 2.523.594 4.988 1.287 7.42 1.942 4.86 1.337 9.643 2.498 14.533 3.321 4.882.827 9.825 1.432 14.814 1.794 4.985.358 10 .598 15.027.704l3.765.058a43 43 0 0 0 3.62-.153 37.6 37.6 0 0 0 7.117-1.253 35.1 35.1 0 0 0 12.79-6.653 37.3 37.3 0 0 0 7.37-8.15c.342-.511.665-1.037.976-1.562.308-.522.616-1.082.855-1.585l.015-.034a.94.94 0 0 1 1.254-.442.95.95 0 0 1 .471 1.192 23 23 0 0 1-.816 1.832q-.435.884-.928 1.733a38 38 0 0 1-2.123 3.295 38 38 0 0 1-5.217 5.872 37.5 37.5 0 0 1-6.356 4.708 37.7 37.7 0 0 1-7.246 3.252 41 41 0 0 1-7.75 1.737 43 43 0 0 1-3.956.32l-3.83.13c-5.095.14-10.205.19-15.33-.023-5.122-.195-10.263-.602-15.388-1.326-2.557-.377-5.11-.838-7.641-1.367-2.53-.53-5.034-1.131-7.5-1.744-4.94-1.227-9.696-2.445-14.533-3.12a99 99 0 0 0-7.302-.757c-2.451-.153-4.92-.214-7.394-.221-2.477 0-4.958.042-7.428.167q-3.705.19-7.386.587c-4.913.506-9.776 1.394-14.685 2.4-4.909 1.008-9.89 2.151-14.981 3.012a116 116 0 0 1-15.422 1.615c-5.164.186-10.304.137-15.456-.286-5.145-.423-10.297-1.158-15.339-2.514-2.519-.685-5.007-1.516-7.424-2.567-2.412-1.043-4.76-2.304-6.918-3.87-2.155-1.56-4.142-3.412-5.719-5.605-.79-1.1-1.461-2.281-2.002-3.523a15.5 15.5 0 0 1-.68-1.928 13 13 0 0 1-.235-1.009 8 8 0 0 1-.084-.522c-.023-.186-.042-.335-.059-.575a.943.943 0 0 1 .883-.994.94.94 0 0 1 .977.773l.019.096z"/>
<path fill="#eaba47" d="M655.03 230.446c21.826 0 39.548 14.648 39.548 32.69 0 18.04-17.722 32.689-39.549 32.689s-39.549-14.648-39.549-32.69c0-18.04 17.723-32.689 39.55-32.689m170.324 0c21.827 0 39.55 14.648 39.55 32.69 0 18.04-17.723 32.689-39.55 32.689s-39.549-14.648-39.549-32.69c0-18.04 17.723-32.689 39.55-32.689"/>
<path fill="#fff" d="M655.034 228.995c20.097 0 36.412 13.487 36.412 30.1s-16.315 30.095-36.412 30.095-36.412-13.486-36.412-30.095c0-16.61 16.316-30.1 36.412-30.1m170.315 0c20.097 0 36.412 13.487 36.412 30.1s-16.315 30.095-36.412 30.095-36.412-13.486-36.412-30.095c0-16.61 16.316-30.1 36.412-30.1"/>
<path fill="#000" d="M663.542 246.663c7.881 0 14.283 5.294 14.283 11.815 0 6.52-6.402 11.814-14.283 11.814-7.882 0-14.283-5.294-14.283-11.814s6.4-11.815 14.283-11.815m153.357-.16c7.935 0 14.378 5.329 14.378 11.895s-6.443 11.894-14.378 11.894-14.377-5.328-14.377-11.894 6.442-11.895 14.377-11.895"/>
</g>

<path fill="#fff" d="M55.978 616.118v-198.05h79.886l48.542 151.45-18.862.278 51.038-151.728h76.28v198.05h-57.14V458.566l11.927 1.664-54.09 155.888h-44.103L98.14 465.778l9.986-1.664v152.004zm343.675 3.884q-26.906 0-45.767-9.431t-28.848-26.49q-9.986-17.06-9.986-39.25 0-13.313 3.468-24.825 3.466-11.511 10.679-20.804 7.212-9.291 17.475-15.95 10.262-6.656 23.577-10.123 13.314-3.468 29.402-3.468 27.184 0 46.046 9.57t28.709 26.49 9.847 39.11q0 13.315-3.606 24.965-3.607 11.65-10.54 20.803-6.936 9.154-17.198 15.811t-23.716 10.125-29.542 3.467m0-38.834q5.826 0 10.402-1.525 4.577-1.526 8.044-4.716t5.825-7.489 3.468-10.124 1.11-12.482q0-11.372-3.19-19.556-3.19-8.183-9.57-12.482-6.38-4.3-16.089-4.3-5.824.001-10.54 1.526t-7.905 4.716q-3.19 3.19-5.687 7.489-2.496 4.3-3.606 9.986t-1.11 12.62q0 11.372 3.19 19.556 3.19 8.183 9.71 12.482 6.518 4.3 15.948 4.3m156.72 38.834q-13.868 0-24.131-4.438-10.263-4.439-16.782-12.482-6.518-8.045-9.57-19.14-3.05-11.096-3.05-24.687v-85.71h55.198v75.725q0 8.875 2.496 15.256 2.497 6.38 7.628 9.847t12.344 3.467q9.43 0 15.395-4.022 5.963-4.023 8.876-11.234t2.912-16.366v-72.673h55.2v142.573h-55.2v-36.891l5.27 6.102q-7.489 17.475-22.467 26.074-14.98 8.6-34.118 8.599m132.866-3.884V473.545h55.476v36.891l-5.27-6.38q4.994-11.372 13.592-19t19.971-11.511q11.373-3.884 24.132-3.884 14.146 0 24.549 4.438 10.401 4.44 16.92 12.344 6.519 7.905 9.847 19.14 3.329 11.233 3.329 25.102v85.433h-55.2v-75.725q0-9.154-2.773-15.394t-8.044-9.709-13.037-3.467q-9.153 0-15.533 4.022t-9.431 11.095q-3.052 7.073-3.052 15.95v73.228zm255.468 0q-22.467 0-35.505-12.482-13.035-12.481-13.036-33.84V434.989h54.921v122.047q0 9.432 4.854 15.118t14.84 5.686h19.694v38.278zm-76.834-104.295v-38.278h32.73v38.278zm78.776 0v-38.278h43.826v38.278zm107.069 108.179q-23.023 0-36.198-11.095t-13.176-29.958q0-13.036 6.241-22.467 6.24-9.432 19.14-15.672 12.897-6.242 32.592-9.015l31.066-4.161q5.548-.832 8.6-3.606 3.05-2.774 3.05-7.49v-.277q0-4.16-2.357-6.796-2.358-2.634-6.657-3.883-4.3-1.248-10.125-1.248-8.876 0-14.701 2.08t-6.935 7.906h-53.812q2.774-15.81 13.037-25.658t26.629-14.424 37.169-4.577q24.132 0 40.22 5.964 16.089 5.963 23.994 18.446t7.905 32.453v89.594h-51.593v-35.782l5.548 6.103q-5.27 11.372-13.87 18.723-8.598 7.35-19.97 11.095-11.373 3.745-25.797 3.745m20.249-36.892q7.212 0 13.037-2.635t9.985-7.073 6.103-9.57q1.941-5.13 1.941-10.402v-18.584l7.767 10.263q-2.496 3.606-7.212 5.409t-14.978 4.022l-17.753 3.606q-6.934 1.665-10.402 4.993t-3.467 8.044q0 5.825 4.16 8.876 4.162 3.051 10.819 3.051m109.843 33.008V473.545h55.476v142.573zm0-158.939v-39.11h55.198v39.11zm81.272 158.94V473.544h55.476v36.891l-5.27-6.38q4.994-11.372 13.592-19t19.971-11.511q11.373-3.884 24.132-3.884 14.147 0 24.549 4.438 10.401 4.44 16.92 12.344 6.519 7.905 9.847 19.14 3.329 11.233 3.329 25.102v85.433h-55.2v-75.725q0-9.154-2.773-15.394t-8.044-9.709-13.037-3.467q-9.153 0-15.533 4.022t-9.431 11.095q-3.052 7.073-3.052 15.95v73.228zm-899.13 238.118v-198.05h106.237q20.804 0 39.249 6.518 18.446 6.519 32.592 19.14 14.147 12.62 22.19 30.928 8.045 18.306 8.045 42.439 0 19.416-5.27 34.95-5.27 15.533-14.563 27.6-9.293 12.065-22.19 20.11-12.9 8.043-28.016 12.204-15.117 4.16-32.037 4.16zm57.972-44.936h41.885q6.38 0 13.037-1.664 6.657-1.665 13.175-5.409t11.512-9.986q4.992-6.24 7.905-15.394t2.913-21.636q0-15.534-4.577-26.074t-11.789-16.643q-7.212-6.102-15.672-8.737t-16.504-2.635h-41.885zm223.292 48.82q-13.869 0-24.132-4.439T606.302 841.2q-6.517-8.044-9.57-19.14-3.05-11.094-3.05-24.686v-85.71h55.198v75.724q0 8.877 2.497 15.256 2.496 6.38 7.628 9.847 5.13 3.467 12.343 3.467 9.432 0 15.395-4.022t8.876-11.234 2.913-16.365v-72.674h55.198v142.574h-55.198v-36.892l5.27 6.103q-7.49 17.474-22.468 26.073t-34.118 8.6m211.087 0q-26.629 0-45.49-9.71-18.863-9.707-28.848-26.628-9.986-16.92-9.986-38.833 0-13.314 3.606-24.687t10.68-20.665 17.336-15.95q10.263-6.656 23.438-10.262 13.176-3.606 29.264-3.606 23.855 0 40.914 6.38 17.058 6.38 26.906 18.307 9.846 11.926 12.066 29.68h-55.476q-1.665-5.271-5.27-8.738-3.607-3.468-8.46-5.132-4.856-1.665-10.957-1.664-5.548 0-10.125 1.526-4.576 1.525-8.044 4.438-3.467 2.912-5.686 7.212-2.22 4.3-3.329 9.985-1.11 5.686-1.11 12.899 0 11.65 3.19 19.832t9.709 12.482 15.395 4.3 15.394-3.883q6.519-3.885 9.57-11.096h55.754q-2.22 15.81-11.65 27.877t-26.768 19q-17.336 6.936-42.023 6.935m100.412-3.884v-198.05h54.921V780.73l-13.314-3.329 58.527-65.739h62.411l-57.695 61.024q8.876 3.328 15.117 8.737 6.24 5.41 12.898 15.395l38.002 57.418h-62.134l-24.132-38.279q-3.883-6.657-9.57-7.212-5.686-.554-11.233 5.548l-20.804 23.023 11.927-39.388v56.308z"/>
</g>
</svg>