<?xml version="1.0" encoding="UTF-8"?>
<svg width="1705px" height="1038px" viewBox="0 0 1705 1038" version="1.1" xmlns="http://www.w3.org/2000/svg" xmlns:xlink="http://www.w3.org/1999/xlink">

<g id="using-lanes-mask" stroke="none" fill="none" stroke-dasharray="0,5" stroke-linecap="round" stroke-width="5">
<path d="M28,185 L281,185 L281,355 L28,355 Z" id="Rectangle-125" stroke="#FF0000"></path>
<path d="M28,357 L281,357 L281,527 L28,527 Z" id="Rectangle-125" stroke="#FF0000"></path>
<path d="M28,527 L281,527 L281,697 L28,697 Z" id="Rectangle-125" stroke="#FF0000"></path>
<path d="M28,699 L281,699 L281,869 L28,869 Z" id="Rectangle-125" stroke="#FF0000"></path>
<path d="M1428,185 L1705,185 L1705,355 L1428,355 Z" id="Rectangle-125" stroke="#FF0000"></path>
<path d="M1428,357 L1705,357 L1705,527 L1428,527 Z" id="Rectangle-125" stroke="#FF0000"></path>
<path d="M1428,527 L1705,527 L1705,697 L1428,697 Z" id="Rectangle-125" stroke="#FF0000"></path>
<path d="M1428,699 L1705,699 L1705,869 L1428,869 Z" id="Rectangle-125" stroke="#FF0000"></path>
</g>
</svg>